<?xml version="1.0" standalone="no"?>
<!DOCTYPE svg PUBLIC "-//W3C//DTD SVG 20010904//EN"
 "http://www.w3.org/TR/2001/REC-SVG-20010904/DTD/svg10.dtd">
<svg version="1.0" xmlns="http://www.w3.org/2000/svg"
 width="500.000000pt" height="500.000000pt" viewBox="0 0 500.000000 500.000000"
 preserveAspectRatio="xMidYMid meet">
<metadata>
Created by potrace 1.16, written by Peter Selinger 2001-2019
</metadata>
<g transform="translate(0.000000,500.000000) scale(0.100000,-0.100000)"
fill="white" stroke="none">
<path d="M153 4984 c-33 -87 113 -390 372 -771 420 -617 975 -1257 1787 -2059
821 -812 1727 -1532 2255 -1793 142 -70 238 -98 271 -77 45 27 -33 242 -173
483 -80 136 -274 422 -391 578 -145 193 -426 541 -562 695 -2 3 -11 -6 -20
-20 -9 -14 -49 -59 -89 -100 l-72 -75 -23 21 c-13 12 -41 25 -63 28 -107 18
-338 161 -565 350 -275 229 -675 641 -881 906 -131 168 -222 331 -235 421 -3
24 -15 56 -25 71 l-19 27 72 73 c40 39 81 73 91 73 48 4 37 24 -65 111 -527
455 -1026 814 -1352 974 -186 91 -299 121 -313 84z"/>
<path d="M3491 3903 l-74 -75 139 -139 c76 -76 143 -139 149 -139 6 0 43 33
83 73 l72 72 -143 143 c-78 78 -144 141 -147 140 -3 -1 -38 -35 -79 -75z"/>
<path d="M3232 3647 l-72 -72 138 -143 c76 -78 142 -142 148 -142 5 0 42 33
82 73 l72 72 -143 143 c-78 78 -145 142 -147 142 -3 0 -38 -33 -78 -73z"/>
<path d="M2055 3641 c-39 -7 -85 -27 -85 -37 0 -38 206 -341 351 -514 103
-124 581 -600 689 -687 139 -111 425 -303 451 -303 19 0 39 62 39 117 0 272
-135 616 -328 838 -37 43 -37 43 -65 27 l-27 -17 -71 71 -70 70 21 26 20 27
-92 76 c-177 145 -406 265 -574 300 -75 15 -187 18 -259 6z"/>
<path d="M1510 1795 l-335 -335 76 -76 75 -75 332 327 c183 180 332 332 332
338 0 7 -33 44 -73 84 l-72 72 -335 -335z"/>
<path d="M755 1370 c-219 -73 -324 -317 -226 -525 137 -293 544 -290 688 4 25
50 28 67 28 156 0 88 -3 107 -27 157 -83 178 -284 268 -463 208z m185 -222
c59 -31 82 -66 87 -130 7 -98 -64 -172 -164 -170 -144 3 -209 181 -101 278 51
46 114 54 178 22z"/>
<path d="M760 250 l0 -250 110 0 110 0 0 250 0 250 -110 0 -110 0 0 -250z"/>
</g>
</svg>
