<?xml version="1.0" standalone="no"?>
<!DOCTYPE svg PUBLIC "-//W3C//DTD SVG 20010904//EN"
 "http://www.w3.org/TR/2001/REC-SVG-20010904/DTD/svg10.dtd">
<svg version="1.0" xmlns="http://www.w3.org/2000/svg"
 width="512.000000pt" height="512.000000pt" viewBox="0 0 512.000000 512.000000"
 preserveAspectRatio="xMidYMid meet">

<g transform="translate(0.000000,512.000000) scale(0.100000,-0.100000)"
fill="white" stroke="none">
<path d="M2410 4207 l0 -304 -82 -12 c-178 -26 -353 -91 -475 -176 -64 -45
-66 -46 -215 -66 -468 -62 -841 -164 -1133 -309 -222 -110 -339 -202 -426
-333 -57 -87 -74 -146 -73 -252 1 -101 15 -148 70 -237 l35 -58 -35 -57 c-168
-273 -52 -552 320 -772 313 -185 889 -334 1504 -391 96 -9 434 -29 493 -30 16
0 17 -21 17 -300 l0 -300 150 0 150 0 0 300 c0 279 1 300 18 300 166 2 544 32
757 61 1045 141 1671 494 1631 920 -7 82 -26 137 -72 212 l-35 57 35 58 c55
89 69 136 70 237 1 106 -16 165 -73 252 -87 131 -204 223 -426 333 -292 145
-665 247 -1133 309 -149 20 -151 21 -215 66 -122 85 -297 150 -474 176 l-83
12 0 304 0 303 -150 0 -150 0 0 -303z m269 -303 l31 -6 0 -244 0 -244 -150 0
-150 0 0 244 0 245 23 4 c36 7 212 8 246 1z m-2263 -1684 c198 -116 572 -237
939 -305 391 -72 721 -99 1205 -99 484 0 814 27 1205 99 367 68 741 189 939
305 78 46 89 43 107 -23 15 -57 -1 -103 -57 -166 -189 -210 -741 -397 -1404
-475 -286 -33 -424 -41 -790 -41 -669 0 -1204 73 -1658 224 -384 129 -622 303
-597 439 6 33 29 82 39 82 2 0 35 -18 72 -40z"/>
</g>
</svg>
