<?xml version="1.0" standalone="no"?>
<!DOCTYPE svg PUBLIC "-//W3C//DTD SVG 20010904//EN"
 "http://www.w3.org/TR/2001/REC-SVG-20010904/DTD/svg10.dtd">
<svg version="1.0" xmlns="http://www.w3.org/2000/svg"
 width="512.000000pt" height="512.000000pt" viewBox="0 0 512.000000 512.000000"
 preserveAspectRatio="xMidYMid meet">

<g transform="translate(0.000000,512.000000) scale(0.100000,-0.100000)"
fill="white" stroke="none">
<path d="M2407 4834 c-4 -4 -7 -42 -7 -85 l0 -78 -32 -5 c-18 -3 -69 -10 -113
-16 -329 -47 -667 -187 -931 -387 -42 -32 -86 -64 -96 -72 -18 -13 -24 -9 -79
45 l-59 59 -112 -113 -113 -112 59 -59 c40 -41 56 -63 50 -73 -4 -7 -29 -40
-55 -73 -162 -208 -298 -485 -363 -740 -28 -110 -56 -262 -56 -305 0 -57 -5
-60 -96 -60 l-84 0 0 -160 0 -159 87 -3 87 -3 13 -105 c44 -355 199 -724 427
-1014 25 -33 46 -63 46 -67 0 -4 -26 -30 -57 -58 l-57 -51 114 -115 115 -115
60 59 60 59 64 -53 c36 -29 77 -60 92 -69 l27 -16 202 351 202 352 -23 69
c-49 153 16 304 163 378 158 79 365 7 448 -154 31 -61 35 -78 35 -145 0 -61
-5 -87 -26 -131 -50 -105 -144 -173 -264 -188 l-58 -7 -198 -345 c-109 -190
-199 -349 -199 -353 0 -12 100 -54 230 -97 111 -37 271 -73 375 -85 28 -3 65
-8 83 -11 l32 -5 0 -84 0 -85 160 0 160 0 0 90 c0 103 -15 91 140 110 162 20
406 90 576 166 7 3 63 -83 135 -210 68 -119 127 -216 131 -216 8 0 278 150
278 155 0 3 -250 428 -255 433 -1 2 -34 -17 -71 -41 -72 -46 -187 -107 -202
-107 -5 0 -99 157 -208 349 l-199 349 -58 11 c-162 29 -269 154 -269 316 0
130 65 228 190 288 58 27 70 29 145 25 133 -7 219 -66 276 -188 33 -72 35
-173 4 -241 l-21 -46 201 -351 c111 -194 206 -352 212 -352 5 0 48 29 95 65
l84 65 58 -57 58 -58 117 118 118 117 -59 59 -59 59 61 79 c226 293 369 640
416 1011 l12 97 87 -4 87 -3 0 161 0 160 -87 3 -88 3 -7 75 c-35 347 -194 738
-417 1025 -26 33 -51 66 -55 73 -6 10 10 32 50 73 l59 59 -113 112 -112 113
-59 -59 c-55 -55 -61 -58 -80 -45 -10 8 -53 40 -94 71 -258 198 -604 342 -932
388 -44 6 -94 13 -112 16 l-32 5 -3 82 -3 82 -151 3 c-82 1 -153 -1 -157 -4z"/>
<path d="M1270 668 c-69 -117 -125 -216 -125 -220 0 -8 261 -158 274 -158 8 0
255 429 250 434 -2 2 -29 16 -59 31 -30 15 -90 50 -133 76 -43 27 -79 49 -80
49 -1 0 -58 -96 -127 -212z"/>
</g>
</svg>
