<?xml version="1.0" standalone="no"?>
<!DOCTYPE svg PUBLIC "-//W3C//DTD SVG 20010904//EN"
 "http://www.w3.org/TR/2001/REC-SVG-20010904/DTD/svg10.dtd">
<svg version="1.0" xmlns="http://www.w3.org/2000/svg"
 width="512.000000pt" height="512.000000pt" viewBox="0 0 512.000000 512.000000"
 preserveAspectRatio="xMidYMid meet">

<g transform="translate(0.000000,512.000000) scale(0.100000,-0.100000)"
fill="white" stroke="none">
<path d="M4840 5101 c-316 -105 -839 -456 -1478 -994 -202 -171 -212 -180
-192 -194 11 -8 24 -12 28 -9 5 3 44 -31 87 -74 77 -78 79 -80 59 -95 -15 -10
-23 -29 -27 -66 -13 -107 -145 -327 -327 -546 -45 -54 -153 -175 -242 -269
-470 -503 -937 -874 -1144 -909 -22 -4 -51 -15 -66 -26 -15 -10 -31 -19 -36
-19 -11 0 -153 148 -168 174 -9 17 -29 -3 -169 -170 -418 -497 -735 -944 -902
-1271 -105 -206 -139 -333 -94 -348 47 -15 208 44 375 137 887 493 2354 1815
3417 3078 529 628 955 1279 1001 1529 6 32 8 66 5 75 -8 21 -56 20 -127 -3z"/>
<path d="M1312 3927 l-142 -142 81 -80 81 -80 144 150 145 150 -78 72 c-43 40
-80 73 -83 73 -3 0 -69 -64 -148 -143z"/>
<path d="M1580 3665 l-145 -145 80 -79 80 -78 144 149 145 149 -74 74 c-41 41
-77 75 -80 75 -3 0 -70 -65 -150 -145z"/>
<path d="M2820 3734 c-222 -34 -478 -165 -704 -360 l-47 -40 20 -25 20 -26
-73 -72 -74 -73 -25 17 c-26 16 -27 16 -58 -20 -203 -230 -321 -521 -335 -820
-5 -108 -3 -122 14 -144 l19 -24 64 38 c105 63 288 189 379 261 116 92 678
656 776 779 83 105 242 338 284 419 25 47 25 47 5 59 -47 27 -182 43 -265 31z"/>
<path d="M3152 2107 c-39 -40 -72 -77 -72 -82 0 -6 153 -163 340 -350 l340
-340 75 75 c41 41 75 79 75 85 0 10 -670 685 -680 685 -3 0 -38 -33 -78 -73z"/>
<path d="M4100 1400 c-112 -41 -213 -146 -245 -255 -84 -290 176 -565 465
-491 357 92 403 571 70 729 -85 41 -205 47 -290 17z m211 -226 c107 -55 111
-221 6 -284 -44 -27 -129 -27 -173 1 -90 55 -104 192 -26 262 50 45 130 54
193 21z"/>
<path d="M4120 255 l0 -255 110 0 110 0 0 255 0 255 -110 0 -110 0 0 -255z"/>
</g>
</svg>
