<?xml version="1.0" standalone="no"?>
<!DOCTYPE svg PUBLIC "-//W3C//DTD SVG 20010904//EN"
 "http://www.w3.org/TR/2001/REC-SVG-20010904/DTD/svg10.dtd">
<svg version="1.0" xmlns="http://www.w3.org/2000/svg"
 width="512.000000pt" height="512.000000pt" viewBox="0 0 512.000000 512.000000"
 preserveAspectRatio="xMidYMid meet">

<g transform="translate(0.000000,512.000000) scale(0.100000,-0.100000)"
fill="white" stroke="none">
<path d="M2155 5106 c-126 -32 -246 -128 -298 -238 -48 -101 -58 -233 -26
-334 2 -6 -258 -221 -579 -478 -414 -332 -580 -470 -575 -480 22 -37 169 -215
178 -215 6 0 270 208 589 463 l578 464 55 -25 c214 -98 467 -12 576 195 95
181 65 384 -78 528 -112 113 -269 158 -420 120z"/>
<path d="M3976 4615 l-579 -464 -36 19 c-175 88 -376 56 -517 -85 -177 -176
-177 -453 1 -630 258 -259 695 -118 757 244 11 64 6 147 -13 207 -2 6 258 221
579 478 414 332 580 470 575 480 -22 37 -169 215 -178 215 -5 0 -271 -209
-589 -464z"/>
<path d="M0 2715 l0 -305 2560 0 2560 0 0 305 0 305 -2560 0 -2560 0 0 -305z"/>
<path d="M300 1205 l0 -905 -150 0 -150 0 0 -150 0 -150 1086 0 1086 0 -39 69
c-21 37 -290 512 -598 1054 l-560 986 -337 1 -338 0 0 -905z"/>
<path d="M1340 2073 c12 -21 281 -495 598 -1053 l577 -1015 45 0 44 0 578
1015 c317 558 587 1032 598 1053 l21 37 -1241 0 -1241 0 21 -37z"/>
<path d="M3585 1123 c-308 -542 -577 -1016 -598 -1054 l-39 -69 1086 0 1086 0
0 150 0 150 -150 0 -150 0 0 905 0 905 -337 0 -338 -1 -560 -986z"/>
</g>
</svg>
