<?xml version="1.0" standalone="no"?>
<!DOCTYPE svg PUBLIC "-//W3C//DTD SVG 20010904//EN"
 "http://www.w3.org/TR/2001/REC-SVG-20010904/DTD/svg10.dtd">
<svg version="1.0" xmlns="http://www.w3.org/2000/svg"
 width="512.000000pt" height="512.000000pt" viewBox="0 0 512.000000 512.000000"
 preserveAspectRatio="xMidYMid meet">
<metadata>
Created by potrace 1.16, written by Peter Selinger 2001-2019
</metadata>
<g transform="translate(0.000000,512.000000) scale(0.100000,-0.100000)"
fill="white" stroke="none">
<path d="M2025 5113 c-564 -20 -1170 -102 -1364 -185 -143 -61 -117 -141 69
-209 584 -213 2150 -276 3190 -128 394 56 684 139 734 211 36 52 17 81 -84
126 -185 84 -667 151 -1305 182 -176 9 -1024 11 -1240 3z"/>
<path d="M620 4350 c0 -241 3 -310 13 -310 6 0 84 -9 172 -20 88 -11 163 -20
168 -20 4 0 7 72 7 160 l0 160 230 0 230 0 0 -174 0 -173 43 -7 c23 -3 237 -9
475 -13 l432 -6 0 136 0 137 230 0 230 0 0 -130 c0 -120 1 -130 19 -130 104 0
854 46 919 56 l32 5 0 169 0 170 230 0 230 0 0 -145 c0 -131 2 -145 18 -145 9
0 86 10 170 22 l152 21 0 274 c0 187 -3 273 -11 273 -6 0 -59 -11 -118 -25
-240 -55 -651 -122 -981 -160 -453 -51 -1024 -68 -1415 -41 -481 34 -921 98
-1314 192 -79 19 -147 34 -152 34 -5 0 -9 -136 -9 -310z"/>
<path d="M4395 3809 c-297 -44 -847 -88 -1407 -115 -127 -6 -138 -8 -138 -25
0 -18 -11 -19 -230 -19 -198 0 -230 2 -230 15 0 13 -39 15 -292 15 -401 0
-860 22 -1180 56 -75 7 -142 14 -149 14 -11 0 -8 -88 12 -335 34 -406 137
-821 282 -1138 l36 -77 -75 0 -74 0 0 -190 0 -190 140 0 c77 0 140 -2 140 -5
0 -7 -490 -876 -500 -888 -4 -5 -33 -1 -65 9 -198 57 -394 -74 -412 -275 -14
-155 84 -298 231 -337 66 -18 111 -18 172 1 182 54 278 249 209 426 -4 12 87
105 342 349 191 184 373 358 405 388 l56 55 61 -37 c188 -115 462 -204 685
-223 41 -3 80 -9 87 -14 9 -5 26 -111 51 -311 20 -167 37 -310 37 -318 1 -9
-22 -25 -54 -39 -63 -27 -127 -91 -158 -159 -31 -66 -30 -187 2 -258 26 -59
87 -123 151 -156 38 -19 60 -23 140 -23 79 0 103 4 141 23 63 31 117 86 148
152 22 46 26 69 26 140 0 72 -4 93 -27 135 -29 56 -65 96 -121 133 -29 19 -37
31 -34 46 3 12 24 160 48 331 23 171 43 311 44 312 0 1 49 12 109 23 206 40
391 115 552 222 l80 55 340 -326 c186 -179 341 -329 343 -334 2 -5 -6 -18 -17
-30 -30 -32 -62 -109 -69 -166 -17 -143 83 -295 220 -336 201 -60 398 73 414
278 13 163 -83 292 -249 336 l-60 16 -224 395 c-123 217 -224 398 -224 403 0
4 45 7 100 7 l100 0 0 190 0 189 -89 3 -88 3 39 90 c135 306 222 649 273 1080
19 164 31 445 19 444 -5 -1 -36 -5 -69 -10z"/>
</g>
</svg>
