<?xml version="1.0" encoding="UTF-8" standalone="no"?>
<svg
   version="1.0"
   width="40.151302pt"
   height="49.999973pt"
   viewBox="0 0 40.151303 49.999973"
   preserveAspectRatio="xMidYMid meet"
   id="svg7464"
   sodipodi:docname="25676.svg"
   inkscape:version="1.1.2 (76b9e6a115, 2022-02-25)"
   xmlns:inkscape="http://www.inkscape.org/namespaces/inkscape"
   xmlns:sodipodi="http://sodipodi.sourceforge.net/DTD/sodipodi-0.dtd"
   xmlns="http://www.w3.org/2000/svg"
   xmlns:svg="http://www.w3.org/2000/svg">
  <defs
     id="defs7468" />
  <sodipodi:namedview
     id="namedview7466"
     pagecolor="#ffffff"
     bordercolor="#666666"
     borderopacity="1.0"
     inkscape:pageshadow="2"
     inkscape:pageopacity="0.0"
     inkscape:pagecheckerboard="0"
     inkscape:document-units="pt"
     showgrid="false"
     inkscape:zoom="10.699409"
     inkscape:cx="27.898736"
     inkscape:cy="32.198039"
     inkscape:window-width="1848"
     inkscape:window-height="1016"
     inkscape:window-x="72"
     inkscape:window-y="27"
     inkscape:window-maximized="1"
     inkscape:current-layer="g7462" />
  <metadata
     id="metadata7454">
Created by potrace 1.15, written by Peter Selinger 2001-2017
</metadata>
  <g
     transform="matrix(0.00390855,0,0,-0.00390855,-0.02688643,50.018053)"
     fill="#000000"
     stroke="none"
     id="g7462">
    <path
       d="m 5645,12794 c -388,-32 -872,-121 -1165,-215 -127,-41 -177,-67 -293,-150 -98,-70 -98,-70 -185,-79 -143,-15 -390,-65 -577,-115 -554,-151 -1279,-613 -1732,-1104 -202,-219 -292,-345 -486,-676 -339,-583 -450,-880 -513,-1385 -33,-265 -37,-790 -8,-1210 4,-52 3,-92 -1,-88 -4,4 -156,-230 -338,-520 C 166,6962 13,6718 8,6710 c -6,-10 12,-144 56,-408 36,-216 66,-397 66,-403 0,-7 14,-8 40,-4 35,6 40,4 40,-12 0,-13 -22,-29 -75,-56 l -76,-37 7,-38 c 3,-20 19,-89 34,-152 16,-63 33,-149 40,-190 22,-153 76,-332 145,-485 15,-33 59,-143 97,-245 l 69,-185 -15,-165 c -25,-267 -29,-414 -17,-570 27,-323 139,-780 293,-1195 37,-99 50,-122 136,-230 152,-189 328,-392 429,-492 108,-107 148,-129 443,-241 208,-78 248,-89 256,-67 4,10 21,3 67,-31 97,-72 187,-109 367,-153 370,-89 425,-91 697,-21 314,79 363,110 645,403 261,271 285,303 456,617 271,497 303,588 391,1101 116,673 137,1000 126,1924 -9,721 -16,848 -60,1080 -37,197 -54,249 -156,482 -94,214 -151,307 -243,398 -124,123 -241,214 -350,275 -56,30 -351,122 -439,137 -23,3 -34,9 -27,13 13,8 8,188 -5,210 -7,11 -119,69 -175,90 -19,7 -93,38 -165,70 -71,31 -155,67 -185,79 -30,12 -60,25 -67,27 -6,3 -13,-3 -16,-13 -4,-16 -5,-16 -6,-1 -1,22 0,22 -296,54 -137,15 -252,29 -253,30 -5,3 11,132 54,434 140,983 308,1724 480,2113 71,160 202,348 428,612 159,185 523,548 716,714 l 155,133 122,-6 c 244,-12 448,-67 689,-185 173,-84 281,-149 609,-366 358,-237 490,-339 726,-558 237,-219 737,-790 991,-1130 526,-705 990,-1665 1153,-2387 64,-286 99,-694 79,-932 l -7,-75 -77,23 c -42,12 -103,27 -136,34 -32,7 -78,23 -100,36 -50,30 -163,55 -399,89 -192,28 -288,28 -425,0 -609,-127 -1152,-815 -1541,-1955 -177,-517 -262,-930 -324,-1580 -94,-978 -78,-1887 41,-2310 52,-184 232,-496 372,-642 163,-171 325,-232 677,-257 66,-5 170,-20 230,-34 296,-69 726,-93 985,-53 396,60 742,186 1020,372 521,348 808,694 978,1176 110,310 172,959 172,1788 0,400 -11,665 -37,925 -10,94 -17,186 -17,205 0,19 24,114 53,210 103,348 210,813 261,1137 6,37 13,78 16,90 5,20 0,22 -73,34 -69,11 -74,14 -45,20 18,4 35,8 37,11 2,2 0,21 -5,43 -5,22 -10,85 -10,140 0,114 4,126 98,261 71,103 69,158 -8,170 -19,3 -95,33 -168,65 -73,32 -140,59 -149,59 -12,0 -14,8 -10,38 20,120 40,585 40,917 1,435 -17,671 -69,955 -105,572 -583,1500 -1188,2308 -239,318 -455,570 -696,812 -429,430 -763,668 -1142,814 -193,74 -539,184 -633,201 -88,16 -447,28 -560,19 z M 2498,8170 c 316,-37 316,-37 373,-66 26,-13 58,-25 73,-28 14,-3 43,-14 63,-25 43,-22 150,-69 233,-100 31,-12 69,-30 86,-40 30,-18 31,-21 26,-73 -2,-29 -6,-54 -7,-56 -2,-2 -31,2 -64,8 -87,16 -298,40 -348,40 -24,0 -43,5 -43,10 0,24 -487,1 -633,-30 -101,-22 -220,-72 -410,-172 -174,-92 -250,-143 -349,-236 C 1298,7214 1091,6904 858,6445 631,5996 565,5771 525,5309 516,5208 507,5105 504,5080 l -6,-45 -14,28 c -26,48 -53,177 -79,372 -13,105 -34,226 -45,270 -11,44 -24,109 -29,144 -6,35 -12,65 -15,68 -3,3 -25,-6 -50,-20 -42,-23 -46,-24 -46,-7 0,10 5,20 11,22 8,3 -7,116 -50,366 -33,199 -61,371 -61,383 0,11 145,250 322,532 176,282 321,519 320,529 0,10 10,19 26,23 15,3 81,23 147,45 66,21 221,70 345,110 124,39 236,75 250,80 14,5 126,41 250,80 124,40 270,87 325,105 55,18 108,34 118,34 10,1 134,-13 275,-29 z M 7780,6830 c 74,-11 182,-30 240,-42 l 105,-23 -110,-6 c -346,-20 -642,-184 -952,-528 -187,-207 -350,-445 -495,-726 -37,-71 -68,-127 -68,-122 0,4 16,39 35,77 19,38 35,71 35,72 0,2 -12,3 -27,3 -16,0 -46,4 -68,8 -22,3 -32,3 -21,-1 15,-7 7,-16 -53,-60 -39,-29 -74,-52 -77,-52 -3,0 -11,-6 -18,-12 -8,-7 -24,-20 -36,-28 -12,-8 -28,-21 -36,-27 -7,-7 -16,-13 -20,-13 -4,0 -55,-36 -114,-80 -59,-44 -110,-80 -114,-80 -4,0 -14,-7 -23,-15 -8,-8 -18,-13 -22,-10 -5,2 -30,-54 -56,-125 -26,-72 -50,-129 -52,-127 -4,5 52,163 125,347 115,294 345,722 495,920 278,369 575,585 897,654 95,21 274,19 430,-4 z m 2247,-239 c 76,-32 144,-60 151,-62 9,-3 -1,-25 -33,-68 -90,-122 -95,-137 -95,-285 0,-72 4,-146 9,-164 11,-39 10,-39 -123,-17 -49,8 -92,12 -95,10 -5,-6 -14,-63 -46,-319 -24,-194 -76,-426 -96,-426 -5,0 -9,6 -9,13 0,8 -22,69 -50,137 -86,213 -192,381 -398,628 -51,63 -92,115 -90,117 22,23 443,255 461,255 40,0 88,25 182,94 89,65 89,66 86,106 -1,22 0,40 3,40 3,0 68,-26 143,-59 z M 6610,5521 c -48,-96 -154,-337 -200,-456 -41,-106 -60,-147 -45,-95 33,115 252,610 269,610 4,0 -7,-27 -24,-59 z m -276,-665 c -9,-26 -18,-45 -20,-43 -2,2 3,25 12,51 9,26 18,45 20,43 2,-2 -3,-25 -12,-51 z M 1781,1763 c 13,-16 12,-17 -3,-4 -17,13 -22,21 -14,21 2,0 10,-8 17,-17 z"
       id="path7456"
       style="fill:#000000" />
    <path
       d="m 6525,6238 c -95,-100 -142,-171 -229,-346 -90,-179 -108,-228 -93,-240 19,-16 215,-82 287,-97 37,-8 66,-10 68,-5 2,5 23,50 47,99 89,183 139,256 333,492 l 22,27 -147,72 c -82,39 -162,74 -179,77 -27,5 -37,-3 -109,-79 z"
       id="path7458"
       style="fill:#ffffff" />
    <path
       d="m 6604,5625 c -20,-42 -35,-77 -33,-79 2,-3 23,31 46,75 23,43 38,79 33,79 -5,0 -26,-34 -46,-75 z"
       id="path7460"
       style="fill:#ffffff" />
    <path
       style="fill:#ffffff;stroke-width:0.0934631"
       d="m 30.936287,39.639623 c 0,-0.110642 0.706072,-1.670291 1.128186,-2.49206 1.652988,-3.218028 3.47974,-5.114035 5.617637,-5.830608 0.875587,-0.293477 1.853981,-0.317088 3.330759,-0.08038 l 0.998796,0.160094 -0.66229,0.06955 c -2.120323,0.222656 -4.261697,1.846812 -6.039465,4.580721 -0.323602,0.497646 -0.636774,0.907716 -0.695938,0.911266 -0.05916,0.0035 -0.185339,0.198857 -0.28039,0.434017 -0.163675,0.404943 -0.188888,0.425032 -0.476573,0.379728 -0.167065,-0.02631 -0.303755,-0.01151 -0.303755,0.03288 0,0.04439 -0.492482,0.430787 -1.094403,0.858658 -1.100293,0.782134 -1.522564,1.052859 -1.522564,0.976141 z"
       id="path9182"
       transform="matrix(191.88702,0,0,-191.88702,6.8788758,12797.087)" />
    <path
       style="fill:#ffffff;stroke-width:0.0934631"
       d="m 37.104852,66.533078 c -0.179917,-0.02168 -0.768734,-0.120318 -1.308484,-0.21919 -0.539749,-0.09887 -1.422975,-0.22703 -1.962725,-0.284797 -1.978173,-0.211714 -2.822385,-0.708823 -3.899478,-2.296182 -1.385961,-2.042552 -1.665278,-3.452344 -1.65555,-8.356021 0.0098,-4.92534 0.443603,-8.920597 1.314275,-12.103471 0.371742,-1.358956 0.608627,-2.0495 0.739096,-2.154535 0.06719,-0.05409 0.222633,-0.3485 0.345433,-0.654242 0.217664,-0.541936 0.257155,-0.579931 1.572654,-1.513097 0.74216,-0.526459 1.361483,-0.993504 1.376274,-1.037876 0.01479,-0.04437 0.129245,-0.06111 0.254346,-0.03719 0.220726,0.04219 0.223193,0.05172 0.08344,0.321972 -0.07921,0.153171 -0.122737,0.333938 -0.09673,0.401704 0.026,0.06777 -0.142036,0.569886 -0.373423,1.115822 -0.231387,0.545934 -0.407339,1.06151 -0.391005,1.145723 0.01634,0.08421 0.174257,-0.200896 0.35094,-0.633576 0.176684,-0.432679 0.502307,-1.180278 0.723609,-1.661329 0.221303,-0.481052 0.382489,-0.906805 0.358193,-0.946117 -0.05413,-0.08759 0.69827,-1.348181 1.24381,-2.083906 2.392599,-3.226701 4.976403,-4.544915 7.493894,-3.82326 0.385535,0.110517 0.753546,0.20166 0.817802,0.202541 0.08827,0.0012 0.116723,-0.335343 0.116398,-1.376979 -0.001,-3.277789 -0.840772,-6.354541 -2.850655,-10.444502 C 39.374663,16.060738 36.902251,12.654566 33.294949,8.9877584 31.813518,7.4818894 31.062023,6.8763843 28.81218,5.3758385 25.87198,3.4148548 24.367721,2.750926 22.414329,2.5520466 L 21.408258,2.4496162 20.868242,2.9040817 c -0.868233,0.7306843 -3.254102,3.098921 -4.042061,4.0121879 -0.940571,1.0901491 -1.721884,2.183181 -2.104473,2.9440877 -0.703421,1.3989907 -1.446781,4.2161547 -2.103234,7.9707797 -0.362669,2.074314 -0.849901,5.511283 -0.789808,5.571376 0.02558,0.02558 0.66523,0.121102 1.42144,0.212264 0.756209,0.09116 1.388595,0.206758 1.405302,0.25688 0.01671,0.05012 0.08671,0.06951 0.155567,0.04309 0.148889,-0.05713 2.729137,1.029653 2.976857,1.253839 0.134925,0.122104 0.1653,0.262262 0.141139,0.651251 l -0.03079,0.495662 0.373853,0.09572 c 1.014745,0.259809 2.112305,0.682235 2.572478,0.990088 0.821399,0.549512 1.785587,1.583287 2.1638,2.319964 0.55214,1.075449 1.011511,2.331284 1.205912,3.296737 0.38394,1.906755 0.458048,9.257945 0.125508,12.449903 -0.185262,1.778289 -0.635443,4.417594 -0.932029,5.464268 -0.268647,0.948079 -0.728308,1.970509 -1.557045,3.463351 -0.881675,1.588205 -1.227368,2.046197 -2.543538,3.369805 -0.928558,0.933803 -1.34972,1.288373 -1.753812,1.476508 -0.664684,0.309458 -2.312135,0.71446 -2.90691,0.714621 C 13.6711,59.95674 11.698182,59.438261 10.935183,58.98119 10.652457,58.811825 10.252902,58.650979 10.047284,58.623755 9.5126727,58.552973 7.7439426,57.846698 7.2241235,57.496433 6.764038,57.186419 5.602736,55.938201 4.5484312,54.620482 4.0790207,54.033792 3.8619226,53.657794 3.640304,53.047674 2.9291902,51.089964 2.3091817,48.48388 2.1883816,46.944803 2.1525828,46.488702 2.1753578,45.480579 2.2401126,44.654957 L 2.3557996,43.179953 1.6833214,41.457245 C 1.1759921,40.157604 0.93262643,39.369 0.69234789,38.246087 0.51717538,37.42744 0.37385241,36.708779 0.37385241,36.649063 c 0,-0.110757 1.10215789,-0.763054 1.17173579,-0.693476 0.064117,0.06412 0.3099495,1.312688 0.506558,2.572781 0.2050722,1.314339 0.3381042,1.8588 0.4748182,1.943294 0.049501,0.03059 0.090002,0.0099 0.090002,-0.04601 0,-0.466257 0.3254275,-3.020477 0.468148,-3.674406 0.5557751,-2.5465 3.0435744,-7.026565 4.7889284,-8.623972 0.679361,-0.621773 2.0093219,-1.402636 3.1303702,-1.837941 1.088434,-0.42264 2.704345,-0.53601 4.619783,-0.324117 0.788051,0.08718 1.530143,0.184967 1.649095,0.217311 0.204422,0.05558 0.214666,0.03689 0.186926,-0.341141 l -0.02935,-0.399946 -1.308484,-0.555055 c -1.378361,-0.5847 -1.658172,-0.654126 -3.458132,-0.85803 L 11.542693,23.901303 7.7574375,25.105015 C 5.6755469,25.767057 3.9396731,26.361556 3.89994,26.426124 1.3616839,30.55093 0.56077862,31.894765 0.56077862,32.028886 c 0,0.0907 0.12617519,0.930787 0.28038931,1.866856 0.34125667,2.071404 0.34035837,2.040821 0.0599456,2.040821 -0.21320869,0 -0.22884114,-0.05291 -0.47629811,-1.612239 -0.44196751,-2.78501 -0.50146333,-2.354709 0.56168347,-4.062358 C 1.4916788,29.450534 2.264976,28.239877 2.7049371,27.571615 l 0.7999293,-1.21502 0.00746,-3.131014 C 3.5204046,19.836772 3.607044,18.893558 4.070029,17.154062 4.5163052,15.477345 5.7347678,13.017899 7.2535555,10.72817 8.8984014,8.248394 11.857084,5.7391042 15.04756,4.1179927 16.829634,3.2125036 18.171045,2.7949472 20.460559,2.4330262 21.240456,2.3097421 21.41457,2.2442818 21.990654,1.8577718 c 0.7844,-0.5262754 1.798208,-0.86848018 3.690777,-1.24579985 2.249185,-0.44841814 3.712868,-0.59857489 5.208124,-0.53429284 1.430371,0.06149258 1.463876,0.06829883 3.364672,0.68351393 2.426578,0.78539026 3.967626,1.68948126 6.056736,3.55332316 3.913796,3.4917697 8.216282,9.6791368 10.146694,14.5918688 0.95786,2.437669 1.165849,3.740494 1.17447,7.356747 0.0034,1.439332 -0.01479,3.242241 -0.04049,4.006464 l -0.04673,1.389497 0.957997,0.382399 c 0.611911,0.244253 0.957997,0.432425 0.957997,0.520877 0,0.07616 -0.172713,0.42433 -0.383806,0.773702 -0.377574,0.624904 -0.383255,0.647387 -0.349795,1.384199 0.02531,0.557262 0.0039,0.748978 -0.08351,0.748978 -0.06464,0 -0.117521,0.04206 -0.117521,0.09346 0,0.0514 0.09463,0.09411 0.210292,0.09489 0.457904,0.0031 0.484651,0.09205 0.312953,1.040586 -0.264823,1.463003 -0.692311,3.315771 -1.146709,4.969936 l -0.431952,1.572455 0.113542,1.184707 c 0.360725,3.763806 0.156251,10.206578 -0.409244,12.894846 -0.426336,2.026733 -1.337322,3.652587 -2.944124,5.254435 -2.001094,1.994923 -4.156069,3.190399 -6.826867,3.787216 -0.680914,0.152157 -3.519615,0.265256 -4.299303,0.171292 z M 9.3463103,57.532056 c 0,-0.110273 -0.1822862,-0.228237 -0.249235,-0.161288 -0.066949,0.06695 0.051014,0.249235 0.1612881,0.249235 0.048371,0 0.087947,-0.03958 0.087947,-0.08795 z M 33.033623,41.393126 c 0.08404,-0.33485 -0.01354,-0.400876 -0.131996,-0.08931 -0.117169,0.308178 -0.118154,0.333999 -0.01275,0.333999 0.04583,0 0.110967,-0.110109 0.144743,-0.244686 z m 17.696122,-2.58378 c 0.06684,-0.236645 0.217324,-1.074461 0.334414,-1.861815 l 0.21289,-1.431552 0.584661,0.02764 0.584662,0.02764 -0.01444,-0.541688 c -0.03179,-1.192466 -0.01252,-1.295677 0.336527,-1.80311 0.184612,-0.268378 0.300012,-0.523604 0.256447,-0.567169 -0.08983,-0.08983 -1.41605,-0.648182 -1.53959,-0.648182 -0.04433,0 -0.08061,0.101666 -0.08061,0.225924 0,0.172681 -0.134669,0.315853 -0.571429,0.60751 -0.314287,0.209873 -0.632684,0.381586 -0.70755,0.381586 -0.122104,0 -1.976801,0.979414 -2.393096,1.263728 -0.152996,0.10449 -0.10873,0.188705 0.520759,0.990741 1.135269,1.446456 1.75376,2.487891 2.034653,3.426012 0.06584,0.219899 0.164817,0.384782 0.219946,0.366405 0.05513,-0.01838 0.154918,-0.227028 0.221755,-0.463673 z"
       id="path9258"
       transform="matrix(191.88702,0,0,-191.88702,6.8788758,12797.087)" />
  </g>
</svg>
