<?xml version="1.0" encoding="UTF-8" standalone="no"?>
<!-- Generator: Adobe Illustrator 14.0.0, SVG Export Plug-In . SVG Version: 6.00 Build 43363)  -->

<svg
   version="1.1"
   id="Capa_1"
   x="0px"
   y="0px"
   width="111.57525"
   height="111.555"
   viewBox="0 0 111.57525 111.555"
   enable-background="new 0 0 49.44 49.43"
   xml:space="preserve"
   sodipodi:docname="crash.svg"
   inkscape:version="1.1.2 (76b9e6a115, 2022-02-25)"
   xmlns:inkscape="http://www.inkscape.org/namespaces/inkscape"
   xmlns:sodipodi="http://sodipodi.sourceforge.net/DTD/sodipodi-0.dtd"
   xmlns="http://www.w3.org/2000/svg"
   xmlns:svg="http://www.w3.org/2000/svg"><defs
   id="defs66" /><sodipodi:namedview
   id="namedview64"
   pagecolor="#ffffff"
   bordercolor="#666666"
   borderopacity="1.0"
   inkscape:pageshadow="2"
   inkscape:pageopacity="0.0"
   inkscape:pagecheckerboard="0"
   showgrid="false"
   fit-margin-top="0"
   fit-margin-left="0"
   fit-margin-right="0"
   fit-margin-bottom="0"
   inkscape:zoom="4.2686627"
   inkscape:cx="73.910736"
   inkscape:cy="44.393294"
   inkscape:window-width="1848"
   inkscape:window-height="1016"
   inkscape:window-x="72"
   inkscape:window-y="27"
   inkscape:window-maximized="1"
   inkscape:current-layer="Capa_1" />
<g
   id="g61"
   transform="translate(31.064125,31.0625)">
	<g
   id="XMLID_20_"
   transform="matrix(2.25,0,0,2.25,-30.904375,-30.89375)">
		<g
   id="g20">
			<path
   d="m 25.664,40.26 c 1.96,-0.12 3.869,-0.6 5.649,-1.43 1.931,-0.91 3.65,-2.19 5.061,-3.78 1.409,-1.59 2.479,-3.46 3.149,-5.48 0.61,-1.869 0.86,-3.829 0.74,-5.799 -0.11,-1.95 -0.6,-3.86 -1.43,-5.64 -0.9,-1.93 -2.19,-3.65 -3.78,-5.06 -1.59,-1.42 -3.46,-2.49 -5.48,-3.15 -1.859,-0.61 -3.819,-0.86 -5.78,-0.74 -1.96,0.11 -3.88,0.6 -5.66,1.43 -1.93,0.9 -3.65,2.19 -5.06,3.78 -1.41,1.59 -2.48,3.45 -3.14,5.48 -0.62,1.86 -0.87,3.81 -0.75,5.78 0.12,1.95 0.6,3.87 1.43,5.66 0.9,1.931 2.19,3.65 3.78,5.061 1.59,1.399 3.46,2.47 5.48,3.14 1.861,0.618 3.831,0.868 5.791,0.748 z m 22.04,-24.64 c 1.149,2.9 1.739,5.98 1.739,9.1 0,3.11 -0.59,6.2 -1.739,9.1 -1.24,3.141 -3.11,5.99 -5.5,8.36 -2.391,2.4 -5.24,4.28 -8.381,5.521 -2.899,1.14 -5.979,1.729 -9.1,1.729 -3.121,0 -6.2,-0.59 -9.1,-1.729 -3.14,-1.24 -5.99,-3.12 -8.38,-5.521 -2.38,-2.37 -4.26,-5.22 -5.5,-8.36 -1.15,-2.899 -1.74,-5.989 -1.74,-9.1 0,-3.12 0.59,-6.2 1.74,-9.1 1.24,-3.14 3.12,-5.99 5.5,-8.38 2.39,-2.39 5.24,-4.26 8.38,-5.5 2.9,-1.15 5.98,-1.74 9.1,-1.74 3.12,0 6.2,0.59 9.1,1.74 3.141,1.24 5.99,3.11 8.381,5.5 2.39,2.39 4.26,5.24 5.5,8.38 z"
   id="path2" />
			<path
   d="m 22.454,18.97 c 0.72,-0.28 1.49,-0.43 2.27,-0.43 0.78,0 1.55,0.15 2.28,0.43 0.779,0.31 1.49,0.78 2.09,1.38 0.6,0.6 1.07,1.31 1.38,2.09 0.28,0.73 0.43,1.49 0.43,2.28 0,0.78 -0.149,1.54 -0.43,2.271 -0.31,0.779 -0.78,1.5 -1.38,2.1 -0.6,0.59 -1.311,1.06 -2.09,1.37 -0.73,0.29 -1.5,0.439 -2.28,0.439 -0.78,0 -1.55,-0.149 -2.27,-0.439 -0.79,-0.311 -1.5,-0.78 -2.1,-1.37 -0.6,-0.6 -1.06,-1.32 -1.37,-2.1 -0.29,-0.73 -0.44,-1.49 -0.44,-2.271 0,-0.79 0.15,-1.55 0.44,-2.28 0.31,-0.78 0.77,-1.49 1.37,-2.09 0.6,-0.6 1.31,-1.07 2.1,-1.38 z m 1.2,2.43 c -0.58,0.33 -1.03,0.78 -1.35,1.36 -0.32,0.58 -0.48,1.24 -0.48,1.97 0,0.69 0.15,1.32 0.44,1.9 0.3,0.57 0.73,1.03 1.29,1.38 0.56,0.33 1.23,0.5 1.99,0.5 0.41,0 0.81,-0.05 1.2,-0.18 0.39,-0.12 0.659,-0.25 0.81,-0.38 -0.11,-0.32 -0.22,-0.641 -0.33,-0.96 -0.55,0.329 -1.13,0.5 -1.72,0.5 -0.51,0 -0.95,-0.12 -1.32,-0.36 -0.37,-0.24 -0.65,-0.57 -0.84,-0.99 -0.19,-0.42 -0.29,-0.88 -0.29,-1.39 0,-0.57 0.11,-1.05 0.32,-1.48 0.22,-0.43 0.52,-0.74 0.89,-0.97 0.38,-0.23 0.8,-0.35 1.26,-0.35 0.66,0 1.2,0.19 1.61,0.55 0.16,-0.34 0.33,-0.67 0.49,-1.01 -0.061,-0.06 -0.181,-0.14 -0.37,-0.23 -0.19,-0.09 -0.431,-0.17 -0.71,-0.24 -0.29,-0.07 -0.601,-0.11 -0.931,-0.11 -0.729,0 -1.389,0.17 -1.959,0.49 z"
   id="path4" />
			<path
   d="m 19.543,20.13 c -0.63,0.7 -1.1,1.53 -1.4,2.43 -0.27,0.83 -0.38,1.7 -0.33,2.57 0.06,0.87 0.27,1.72 0.64,2.52 0.4,0.851 0.97,1.61 1.68,2.25 0.71,0.61 1.54,1.101 2.43,1.391 0.83,0.279 1.71,0.39 2.58,0.34 0.87,-0.061 1.72,-0.28 2.51,-0.64 0.86,-0.4 1.62,-0.98 2.25,-1.681 0.63,-0.72 1.101,-1.55 1.4,-2.439 0.27,-0.83 0.38,-1.7 0.33,-2.57 -0.05,-0.87 -0.271,-1.72 -0.64,-2.51 -0.4,-0.86 -0.971,-1.62 -1.681,-2.25 -0.71,-0.63 -1.53,-1.1 -2.43,-1.4 -0.83,-0.27 -1.7,-0.38 -2.57,-0.33 -0.88,0.05 -1.73,0.27 -2.52,0.64 -0.858,0.399 -1.618,0.969 -2.249,1.679 z m -1.539,7.72 c -0.39,-0.84 -0.62,-1.76 -0.68,-2.69 -0.06,-0.93 0.06,-1.86 0.36,-2.75 0.31,-0.97 0.82,-1.85 1.49,-2.61 0.67,-0.76 1.49,-1.37 2.41,-1.8 0.85,-0.4 1.76,-0.63 2.7,-0.68 0.93,-0.06 1.86,0.06 2.75,0.35 0.961,0.32 1.851,0.83 2.61,1.5 0.759,0.67 1.37,1.49 1.8,2.41 0.391,0.85 0.63,1.76 0.681,2.68 0.06,0.95 -0.061,1.88 -0.351,2.76 -0.319,0.971 -0.83,1.86 -1.5,2.62 -0.67,0.76 -1.49,1.37 -2.41,1.79 -0.85,0.4 -1.76,0.63 -2.689,0.69 -0.94,0.06 -1.87,-0.061 -2.76,-0.36 -0.96,-0.31 -1.85,-0.83 -2.61,-1.5 -0.762,-0.67 -1.371,-1.5 -1.801,-2.41 z"
   id="path6" />
			<path
   d="m 16.583,25.21 c 0.06,1.02 0.32,2.03 0.75,2.96 0.47,1.01 1.15,1.91 1.98,2.649 0.83,0.74 1.81,1.301 2.87,1.65 0.98,0.32 2,0.45 3.03,0.38 1.03,-0.05 2.03,-0.31 2.96,-0.75 1.01,-0.46 1.91,-1.14 2.649,-1.97 0.74,-0.84 1.301,-1.811 1.65,-2.87 0.32,-0.99 0.45,-2.01 0.39,-3.03 -0.06,-1.03 -0.31,-2.03 -0.75,-2.96 -0.47,-1.01 -1.14,-1.92 -1.979,-2.66 -0.83,-0.73 -1.811,-1.3 -2.87,-1.64 -0.97,-0.32 -2,-0.46 -3.03,-0.39 -1.03,0.06 -2.03,0.31 -2.96,0.75 -1.01,0.47 -1.91,1.14 -2.65,1.98 -0.74,0.83 -1.3,1.81 -1.65,2.87 -0.319,0.971 -0.45,2.001 -0.39,3.031 z m -0.489,0.03 c -0.07,-1.09 0.07,-2.181 0.41,-3.22 0.37,-1.12 0.96,-2.16 1.75,-3.04 0.78,-0.88 1.74,-1.6 2.81,-2.1 0.99,-0.46 2.05,-0.73 3.14,-0.8 1.09,-0.06 2.18,0.08 3.22,0.42 1.12,0.37 2.149,0.96 3.04,1.75 0.88,0.78 1.6,1.74 2.1,2.81 0.46,0.98 0.73,2.04 0.8,3.14 0.061,1.09 -0.08,2.18 -0.42,3.21 -0.37,1.13 -0.96,2.159 -1.75,3.05 -0.779,0.88 -1.739,1.6 -2.81,2.1 -0.99,0.45 -2.05,0.73 -3.14,0.78 -1.09,0.08 -2.181,-0.07 -3.21,-0.41 -1.13,-0.36 -2.16,-0.95 -3.05,-1.75 -0.88,-0.77 -1.6,-1.729 -2.1,-2.8 -0.46,-0.99 -0.73,-2.05 -0.79,-3.14 z"
   id="path8" />
			<path
   d="m 15.804,21.79 c -0.37,1.13 -0.53,2.3 -0.45,3.48 0.07,1.19 0.36,2.351 0.86,3.41 0.54,1.17 1.32,2.21 2.28,3.07 0.96,0.84 2.09,1.49 3.3,1.89 1.13,0.37 2.31,0.521 3.5,0.45 1.18,-0.08 2.33,-0.36 3.41,-0.86 1.159,-0.55 2.199,-1.319 3.05,-2.279 0.85,-0.96 1.5,-2.101 1.899,-3.311 0.36,-1.13 0.521,-2.3 0.45,-3.49 -0.08,-1.18 -0.37,-2.33 -0.87,-3.41 -0.54,-1.16 -1.319,-2.2 -2.279,-3.05 -0.96,-0.85 -2.08,-1.5 -3.301,-1.9 -1.13,-0.37 -2.31,-0.52 -3.49,-0.45 -1.19,0.07 -2.34,0.37 -3.41,0.87 -1.17,0.54 -2.21,1.32 -3.06,2.28 -0.849,0.96 -1.489,2.08 -1.889,3.3 z m -0.471,-0.15 c 0.42,-1.29 1.1,-2.47 1.99,-3.48 0.9,-1.01 1.99,-1.83 3.22,-2.4 1.13,-0.53 2.34,-0.84 3.59,-0.91 1.24,-0.08 2.49,0.09 3.67,0.47 1.28,0.42 2.47,1.1 3.479,2 1.011,0.9 1.83,1.99 2.4,3.21 0.53,1.13 0.83,2.35 0.91,3.59 0.07,1.25 -0.09,2.48 -0.47,3.68 -0.431,1.28 -1.11,2.46 -2,3.47 -0.9,1.021 -1.99,1.82 -3.21,2.4 -1.131,0.53 -2.351,0.84 -3.601,0.92 -1.24,0.07 -2.48,-0.09 -3.67,-0.49 -1.28,-0.42 -2.47,-1.09 -3.48,-1.979 -1.01,-0.9 -1.82,-1.99 -2.4,-3.221 -0.52,-1.14 -0.83,-2.34 -0.91,-3.59 -0.067,-1.24 0.093,-2.49 0.482,-3.67 z"
   id="path10" />
			<path
   d="m 14.114,25.35 c 0.08,1.33 0.41,2.65 0.98,3.87 0.62,1.3 1.49,2.49 2.58,3.45 1.09,0.96 2.36,1.68 3.74,2.149 1.27,0.41 2.61,0.591 3.95,0.511 1.341,-0.08 2.641,-0.42 3.86,-0.99 1.32,-0.61 2.49,-1.5 3.45,-2.58 0.97,-1.08 1.7,-2.35 2.149,-3.74 0.421,-1.26 0.591,-2.6 0.511,-3.94 -0.08,-1.34 -0.41,-2.65 -0.98,-3.86 -0.609,-1.32 -1.49,-2.49 -2.58,-3.45 -1.09,-0.97 -2.359,-1.7 -3.74,-2.15 -1.27,-0.42 -2.609,-0.59 -3.95,-0.51 -1.34,0.08 -2.64,0.41 -3.86,0.98 -1.31,0.61 -2.49,1.49 -3.45,2.58 -0.97,1.08 -1.7,2.36 -2.15,3.74 -0.42,1.27 -0.59,2.6 -0.51,3.94 z m 0.53,4.08 c -0.59,-1.28 -0.94,-2.64 -1.02,-4.04 -0.09,-1.4 0.1,-2.81 0.53,-4.14 0.48,-1.44 1.24,-2.77 2.25,-3.91 1.01,-1.14 2.24,-2.06 3.61,-2.7 1.27,-0.59 2.64,-0.94 4.04,-1.02 1.4,-0.09 2.8,0.09 4.14,0.53 1.44,0.47 2.771,1.24 3.91,2.25 1.141,1 2.05,2.23 2.7,3.61 0.59,1.27 0.94,2.64 1.02,4.04 0.091,1.4 -0.09,2.79 -0.529,4.13 -0.471,1.45 -1.24,2.78 -2.25,3.91 -1,1.14 -2.23,2.06 -3.61,2.7 -1.27,0.6 -2.64,0.95 -4.04,1.029 -1.4,0.08 -2.8,-0.1 -4.13,-0.529 -1.45,-0.48 -2.78,-1.24 -3.92,-2.25 -1.131,-1.02 -2.052,-2.24 -2.701,-3.61 z"
   id="path12" />
			<path
   d="m 13.523,29.95 c -0.66,-1.41 -1.04,-2.94 -1.13,-4.49 -0.1,-1.56 0.1,-3.11 0.59,-4.59 0.52,-1.61 1.37,-3.09 2.49,-4.35 1.12,-1.26 2.49,-2.28 4.02,-3 1.41,-0.66 2.93,-1.04 4.49,-1.14 1.549,-0.09 3.11,0.11 4.589,0.6 1.61,0.52 3.091,1.37 4.351,2.49 1.26,1.12 2.28,2.49 3,4.02 0.66,1.41 1.04,2.93 1.14,4.49 0.09,1.54 -0.109,3.11 -0.6,4.589 -0.521,1.601 -1.37,3.08 -2.49,4.351 -1.12,1.26 -2.49,2.28 -4.02,2.99 -1.41,0.659 -2.931,1.05 -4.49,1.14 -1.55,0.1 -3.11,-0.1 -4.59,-0.59 -1.6,-0.53 -3.08,-1.37 -4.35,-2.49 -1.259,-1.13 -2.279,-2.49 -3,-4.02 z m -0.069,-8.93 c -0.47,1.42 -0.66,2.91 -0.57,4.41 0.09,1.49 0.46,2.95 1.09,4.311 0.69,1.47 1.67,2.77 2.88,3.85 1.21,1.08 2.63,1.9 4.17,2.4 1.43,0.47 2.92,0.659 4.41,0.569 1.5,-0.09 2.96,-0.47 4.311,-1.09 1.47,-0.7 2.779,-1.67 3.859,-2.88 1.07,-1.21 1.891,-2.63 2.391,-4.18 0.47,-1.42 0.659,-2.91 0.569,-4.4 -0.09,-1.5 -0.46,-2.96 -1.09,-4.31 -0.69,-1.47 -1.67,-2.78 -2.88,-3.86 -1.21,-1.07 -2.63,-1.89 -4.17,-2.4 -1.42,-0.46 -2.92,-0.65 -4.41,-0.56 -1.49,0.09 -2.96,0.46 -4.31,1.09 -1.47,0.69 -2.78,1.67 -3.86,2.88 -1.071,1.21 -1.89,2.63 -2.39,4.17 z"
   id="path14" />
			<path
   d="m 15.704,34.89 c -1.39,-1.229 -2.51,-2.74 -3.3,-4.42 -0.72,-1.55 -1.15,-3.22 -1.25,-4.95 -0.1,-1.7 0.12,-3.41 0.65,-5.04 0.58,-1.76 1.52,-3.39 2.75,-4.78 1.23,-1.39 2.73,-2.51 4.42,-3.3 1.55,-0.72 3.22,-1.15 4.93,-1.25 1.72,-0.1 3.43,0.12 5.06,0.65 1.76,0.58 3.39,1.51 4.78,2.75 1.39,1.23 2.51,2.73 3.3,4.41 0.72,1.56 1.149,3.23 1.25,4.94 0.1,1.7 -0.12,3.419 -0.65,5.05 -0.58,1.77 -1.52,3.39 -2.75,4.79 -1.229,1.39 -2.729,2.51 -4.42,3.279 -1.55,0.74 -3.22,1.16 -4.93,1.271 -1.71,0.1 -3.43,-0.12 -5.05,-0.66 -1.77,-0.57 -3.4,-1.51 -4.79,-2.74 z m -4.06,-9.39 c 0.1,1.649 0.51,3.26 1.21,4.76 0.76,1.62 1.84,3.07 3.18,4.25 1.34,1.2 2.91,2.09 4.61,2.66 1.57,0.51 3.22,0.72 4.87,0.62 1.65,-0.11 3.26,-0.5 4.76,-1.2 1.62,-0.76 3.07,-1.84 4.25,-3.18 1.19,-1.341 2.09,-2.91 2.65,-4.61 0.51,-1.57 0.729,-3.22 0.63,-4.87 -0.1,-1.65 -0.51,-3.26 -1.21,-4.76 -0.76,-1.62 -1.84,-3.07 -3.18,-4.25 -1.341,-1.19 -2.91,-2.09 -4.61,-2.65 -1.57,-0.51 -3.22,-0.73 -4.87,-0.63 -1.64,0.1 -3.26,0.51 -4.75,1.21 -1.63,0.76 -3.07,1.84 -4.26,3.18 -1.19,1.34 -2.09,2.91 -2.65,4.61 -0.51,1.57 -0.72,3.21 -0.63,4.86 z"
   id="path16" />
			<path
   d="m 11.293,31 c -0.8,-1.7 -1.26,-3.521 -1.37,-5.4 -0.11,-1.86 0.13,-3.73 0.71,-5.5 0.63,-1.93 1.65,-3.7 2.99,-5.22 1.35,-1.52 2.99,-2.74 4.82,-3.6 1.7,-0.79 3.52,-1.25 5.39,-1.36 1.871,-0.12 3.73,0.12 5.51,0.71 1.93,0.63 3.7,1.65 5.22,2.99 1.51,1.35 2.74,2.99 3.601,4.82 0.79,1.7 1.25,3.52 1.359,5.39 0.12,1.85 -0.13,3.73 -0.71,5.51 -0.63,1.92 -1.649,3.7 -2.99,5.22 -1.35,1.51 -2.989,2.74 -4.819,3.59 -1.7,0.801 -3.521,1.261 -5.391,1.36 -1.87,0.12 -3.729,-0.12 -5.51,-0.7 -1.93,-0.63 -3.7,-1.649 -5.22,-3 -1.509,-1.34 -2.739,-2.98 -3.59,-4.81 z m 2.701,-15.79 c -1.3,1.46 -2.28,3.18 -2.89,5.04 -0.56,1.72 -0.8,3.51 -0.69,5.33 0.11,1.8 0.56,3.569 1.32,5.21 0.83,1.77 2.02,3.359 3.48,4.64 1.47,1.311 3.18,2.3 5.04,2.91 1.72,0.56 3.53,0.8 5.33,0.68 1.81,-0.1 3.569,-0.55 5.21,-1.31 1.77,-0.83 3.359,-2.03 4.66,-3.48 1.3,-1.47 2.279,-3.18 2.89,-5.05 0.57,-1.71 0.8,-3.52 0.689,-5.33 -0.109,-1.8 -0.56,-3.56 -1.319,-5.2 -0.83,-1.77 -2.01,-3.36 -3.48,-4.66 -1.47,-1.3 -3.18,-2.28 -5.04,-2.89 -1.72,-0.57 -3.529,-0.8 -5.33,-0.69 -1.8,0.11 -3.57,0.56 -5.21,1.32 -1.77,0.83 -3.361,2.01 -4.66,3.48 z"
   id="path18" />
		</g>
		<g
   id="g58">
			<path
   fill="none"
   stroke="#000000"
   stroke-width="0.15"
   stroke-linecap="round"
   stroke-linejoin="round"
   d="m 25.544,28.51 c 0.41,0 0.81,-0.05 1.2,-0.18 0.39,-0.12 0.659,-0.25 0.81,-0.38 -0.11,-0.32 -0.22,-0.641 -0.33,-0.96 -0.55,0.329 -1.13,0.5 -1.72,0.5 -0.51,0 -0.95,-0.12 -1.32,-0.36 -0.37,-0.24 -0.65,-0.57 -0.84,-0.99 -0.19,-0.42 -0.29,-0.88 -0.29,-1.39 0,-0.57 0.11,-1.05 0.32,-1.48 0.22,-0.43 0.52,-0.74 0.89,-0.97 0.38,-0.23 0.8,-0.35 1.26,-0.35 0.66,0 1.2,0.19 1.61,0.55 0.16,-0.34 0.33,-0.67 0.49,-1.01 -0.061,-0.06 -0.181,-0.14 -0.37,-0.23 -0.19,-0.09 -0.431,-0.17 -0.71,-0.24 -0.29,-0.07 -0.601,-0.11 -0.931,-0.11 -0.729,0 -1.39,0.17 -1.959,0.49 -0.58,0.33 -1.03,0.78 -1.35,1.36 -0.32,0.58 -0.48,1.24 -0.48,1.97 0,0.69 0.15,1.32 0.44,1.9 0.3,0.57 0.73,1.03 1.29,1.38 0.56,0.33 1.23,0.5 1.99,0.5 z"
   id="path22" />
			<path
   fill="none"
   stroke="#000000"
   stroke-width="0.15"
   stroke-linecap="round"
   stroke-linejoin="round"
   d="m 23.793,9.18 c -1.96,0.11 -3.88,0.6 -5.66,1.43 -1.93,0.9 -3.65,2.19 -5.06,3.78 -1.41,1.59 -2.48,3.45 -3.14,5.48 -0.62,1.86 -0.87,3.81 -0.75,5.78 0.12,1.95 0.6,3.87 1.43,5.66 0.9,1.931 2.19,3.65 3.78,5.061 1.59,1.399 3.46,2.47 5.48,3.14 1.86,0.62 3.83,0.87 5.791,0.75 1.96,-0.12 3.869,-0.6 5.649,-1.43 1.931,-0.91 3.65,-2.19 5.061,-3.78 1.409,-1.59 2.479,-3.46 3.149,-5.48 0.61,-1.869 0.86,-3.829 0.74,-5.799 -0.11,-1.95 -0.6,-3.86 -1.43,-5.64 -0.9,-1.93 -2.19,-3.65 -3.78,-5.06 -1.59,-1.42 -3.46,-2.49 -5.48,-3.15 C 27.714,9.31 25.754,9.06 23.793,9.18 Z"
   id="path24" />
			<path
   fill="none"
   stroke="#000000"
   stroke-width="0.15"
   stroke-linecap="round"
   stroke-linejoin="round"
   d="m 24.313,17.81 c -0.88,0.05 -1.73,0.27 -2.52,0.64 -0.86,0.4 -1.62,0.97 -2.25,1.68 -0.63,0.7 -1.1,1.53 -1.4,2.43 -0.27,0.83 -0.38,1.7 -0.33,2.57 0.06,0.87 0.27,1.72 0.64,2.52 0.4,0.851 0.97,1.61 1.68,2.25 0.71,0.61 1.54,1.101 2.43,1.391 0.83,0.279 1.71,0.39 2.58,0.34 0.87,-0.061 1.72,-0.28 2.51,-0.64 0.86,-0.4 1.62,-0.98 2.25,-1.681 0.63,-0.72 1.101,-1.55 1.4,-2.439 0.27,-0.83 0.38,-1.7 0.33,-2.57 -0.05,-0.87 -0.271,-1.72 -0.64,-2.51 -0.4,-0.86 -0.971,-1.62 -1.681,-2.25 -0.71,-0.63 -1.53,-1.1 -2.43,-1.4 C 26.054,17.87 25.184,17.76 24.313,17.81 Z"
   id="path26" />
			<path
   fill="none"
   stroke="#000000"
   stroke-width="0.15"
   stroke-linecap="round"
   stroke-linejoin="round"
   d="m 24.284,17.32 c -0.94,0.05 -1.85,0.28 -2.7,0.68 -0.92,0.43 -1.74,1.04 -2.41,1.8 -0.67,0.76 -1.18,1.64 -1.49,2.61 -0.3,0.89 -0.42,1.82 -0.36,2.75 0.06,0.93 0.29,1.85 0.68,2.69 0.43,0.91 1.04,1.74 1.8,2.41 0.76,0.67 1.65,1.19 2.61,1.5 0.89,0.3 1.82,0.42 2.76,0.36 0.93,-0.061 1.84,-0.29 2.689,-0.69 0.92,-0.42 1.74,-1.03 2.41,-1.79 0.67,-0.76 1.181,-1.649 1.5,-2.62 0.29,-0.88 0.41,-1.81 0.351,-2.76 -0.051,-0.92 -0.29,-1.83 -0.681,-2.68 -0.43,-0.92 -1.04,-1.74 -1.8,-2.41 -0.76,-0.67 -1.649,-1.18 -2.61,-1.5 -0.889,-0.29 -1.819,-0.41 -2.749,-0.35 z"
   id="path28" />
			<path
   fill="none"
   stroke="#000000"
   stroke-width="0.15"
   stroke-linecap="round"
   stroke-linejoin="round"
   d="m 24.234,16.58 c -1.03,0.06 -2.03,0.31 -2.96,0.75 -1.01,0.47 -1.91,1.14 -2.65,1.98 -0.74,0.83 -1.3,1.81 -1.65,2.87 -0.32,0.97 -0.45,2 -0.39,3.03 0.06,1.02 0.32,2.03 0.75,2.96 0.47,1.01 1.15,1.91 1.98,2.649 0.83,0.74 1.81,1.301 2.87,1.65 0.98,0.32 2,0.45 3.03,0.38 1.03,-0.05 2.03,-0.31 2.96,-0.75 1.01,-0.46 1.91,-1.14 2.649,-1.97 0.74,-0.84 1.301,-1.811 1.65,-2.87 0.32,-0.99 0.45,-2.01 0.39,-3.03 -0.06,-1.03 -0.31,-2.03 -0.75,-2.96 -0.47,-1.01 -1.14,-1.92 -1.979,-2.66 -0.83,-0.73 -1.811,-1.3 -2.87,-1.64 -0.97,-0.319 -2,-0.459 -3.03,-0.389 z"
   id="path30" />
			<path
   fill="none"
   stroke="#000000"
   stroke-width="0.15"
   stroke-linecap="round"
   stroke-linejoin="round"
   d="m 24.204,16.08 c -1.09,0.07 -2.15,0.34 -3.14,0.8 -1.07,0.5 -2.03,1.22 -2.81,2.1 -0.79,0.88 -1.38,1.92 -1.75,3.04 -0.34,1.04 -0.48,2.13 -0.41,3.22 0.06,1.09 0.33,2.149 0.79,3.14 0.5,1.07 1.22,2.03 2.1,2.8 0.89,0.8 1.92,1.39 3.05,1.75 1.03,0.34 2.12,0.49 3.21,0.41 1.09,-0.05 2.149,-0.33 3.14,-0.78 1.07,-0.5 2.03,-1.22 2.81,-2.1 0.79,-0.891 1.38,-1.92 1.75,-3.05 0.34,-1.03 0.48,-2.12 0.42,-3.21 -0.069,-1.1 -0.34,-2.16 -0.8,-3.14 -0.5,-1.07 -1.22,-2.03 -2.1,-2.81 -0.891,-0.79 -1.92,-1.38 -3.04,-1.75 -1.04,-0.34 -2.13,-0.48 -3.22,-0.42 z"
   id="path32" />
			<path
   fill="none"
   stroke="#000000"
   stroke-width="0.15"
   stroke-linecap="round"
   stroke-linejoin="round"
   d="m 24.164,15.34 c -1.19,0.07 -2.34,0.37 -3.41,0.87 -1.17,0.54 -2.21,1.32 -3.06,2.28 -0.85,0.96 -1.49,2.08 -1.89,3.3 -0.37,1.13 -0.53,2.3 -0.45,3.48 0.07,1.19 0.36,2.351 0.86,3.41 0.54,1.17 1.32,2.21 2.28,3.07 0.96,0.84 2.09,1.49 3.3,1.89 1.13,0.37 2.31,0.521 3.5,0.45 1.18,-0.08 2.33,-0.36 3.41,-0.86 1.159,-0.55 2.199,-1.319 3.05,-2.279 0.85,-0.96 1.5,-2.101 1.899,-3.311 0.36,-1.13 0.521,-2.3 0.45,-3.49 -0.08,-1.18 -0.37,-2.33 -0.87,-3.41 -0.54,-1.16 -1.319,-2.2 -2.279,-3.05 -0.96,-0.85 -2.08,-1.5 -3.301,-1.9 -1.13,-0.37 -2.309,-0.52 -3.489,-0.45 z"
   id="path34" />
			<path
   fill="none"
   stroke="#000000"
   stroke-width="0.15"
   stroke-linecap="round"
   stroke-linejoin="round"
   d="m 24.134,14.85 c -1.25,0.07 -2.46,0.38 -3.59,0.91 -1.23,0.57 -2.32,1.39 -3.22,2.4 -0.89,1.01 -1.57,2.19 -1.99,3.48 -0.39,1.18 -0.55,2.43 -0.48,3.67 0.08,1.25 0.39,2.45 0.91,3.59 0.58,1.23 1.39,2.32 2.4,3.221 1.01,0.89 2.2,1.56 3.48,1.979 1.19,0.4 2.43,0.561 3.67,0.49 1.25,-0.08 2.47,-0.39 3.601,-0.92 1.22,-0.58 2.31,-1.38 3.21,-2.4 0.89,-1.01 1.569,-2.189 2,-3.47 0.38,-1.2 0.54,-2.43 0.47,-3.68 -0.08,-1.24 -0.38,-2.46 -0.91,-3.59 -0.57,-1.22 -1.39,-2.31 -2.4,-3.21 -1.01,-0.9 -2.199,-1.58 -3.479,-2 -1.182,-0.38 -2.432,-0.55 -3.672,-0.47 z"
   id="path36" />
			<path
   fill="none"
   stroke="#000000"
   stroke-width="0.15"
   stroke-linecap="round"
   stroke-linejoin="round"
   d="m 24.083,14.11 c -1.34,0.08 -2.64,0.41 -3.86,0.98 -1.31,0.61 -2.49,1.49 -3.45,2.58 -0.97,1.08 -1.7,2.36 -2.15,3.74 -0.42,1.27 -0.59,2.6 -0.51,3.94 0.08,1.33 0.41,2.65 0.98,3.87 0.62,1.3 1.49,2.49 2.58,3.45 1.09,0.96 2.36,1.68 3.74,2.149 1.27,0.41 2.61,0.591 3.95,0.511 1.341,-0.08 2.641,-0.42 3.86,-0.99 1.32,-0.61 2.49,-1.5 3.45,-2.58 0.97,-1.08 1.7,-2.35 2.149,-3.74 0.421,-1.26 0.591,-2.6 0.511,-3.94 -0.08,-1.34 -0.41,-2.65 -0.98,-3.86 -0.609,-1.32 -1.49,-2.49 -2.58,-3.45 -1.09,-0.97 -2.359,-1.7 -3.74,-2.15 -1.269,-0.42 -2.609,-0.59 -3.95,-0.51 z"
   id="path38" />
			<path
   fill="none"
   stroke="#000000"
   stroke-width="0.15"
   stroke-linecap="round"
   stroke-linejoin="round"
   d="m 24.054,13.62 c -1.4,0.08 -2.77,0.43 -4.04,1.02 -1.37,0.64 -2.6,1.56 -3.61,2.7 -1.01,1.14 -1.77,2.47 -2.25,3.91 -0.43,1.33 -0.62,2.74 -0.53,4.14 0.08,1.4 0.43,2.76 1.02,4.04 0.65,1.37 1.57,2.59 2.7,3.61 1.14,1.01 2.47,1.77 3.92,2.25 1.33,0.43 2.73,0.609 4.13,0.529 1.4,-0.079 2.771,-0.43 4.04,-1.029 1.38,-0.641 2.61,-1.561 3.61,-2.7 1.01,-1.13 1.779,-2.46 2.25,-3.91 0.439,-1.34 0.62,-2.729 0.529,-4.13 -0.079,-1.4 -0.43,-2.77 -1.02,-4.04 -0.65,-1.38 -1.56,-2.61 -2.7,-3.61 -1.14,-1.01 -2.47,-1.78 -3.91,-2.25 -1.339,-0.44 -2.739,-0.62 -4.139,-0.53 z"
   id="path40" />
			<path
   fill="none"
   stroke="#000000"
   stroke-width="0.15"
   stroke-linecap="round"
   stroke-linejoin="round"
   d="m 24.014,12.88 c -1.49,0.09 -2.96,0.46 -4.31,1.09 -1.47,0.69 -2.78,1.67 -3.86,2.88 -1.07,1.21 -1.89,2.63 -2.39,4.17 -0.47,1.42 -0.66,2.91 -0.57,4.41 0.09,1.49 0.46,2.95 1.09,4.311 0.69,1.47 1.67,2.77 2.88,3.85 1.21,1.08 2.63,1.9 4.17,2.4 1.43,0.47 2.92,0.659 4.41,0.569 1.5,-0.09 2.96,-0.47 4.311,-1.09 1.47,-0.7 2.779,-1.67 3.859,-2.88 1.07,-1.21 1.891,-2.63 2.391,-4.18 0.47,-1.42 0.659,-2.91 0.569,-4.4 -0.09,-1.5 -0.46,-2.96 -1.09,-4.31 -0.69,-1.47 -1.67,-2.78 -2.88,-3.86 -1.21,-1.07 -2.63,-1.89 -4.17,-2.4 -1.42,-0.46 -2.92,-0.65 -4.41,-0.56 z"
   id="path42" />
			<path
   fill="none"
   stroke="#000000"
   stroke-width="0.15"
   stroke-linecap="round"
   stroke-linejoin="round"
   d="m 23.984,12.38 c -1.56,0.1 -3.08,0.48 -4.49,1.14 -1.53,0.72 -2.9,1.74 -4.02,3 -1.12,1.26 -1.97,2.74 -2.49,4.35 -0.49,1.48 -0.69,3.03 -0.59,4.59 0.09,1.55 0.47,3.08 1.13,4.49 0.72,1.529 1.74,2.89 3,4.02 1.27,1.12 2.75,1.96 4.35,2.49 1.48,0.49 3.04,0.689 4.59,0.59 1.56,-0.09 3.08,-0.48 4.49,-1.14 1.529,-0.71 2.899,-1.73 4.02,-2.99 1.12,-1.271 1.97,-2.75 2.49,-4.351 0.49,-1.479 0.689,-3.05 0.6,-4.589 -0.1,-1.56 -0.479,-3.08 -1.14,-4.49 -0.72,-1.53 -1.74,-2.9 -3,-4.02 -1.26,-1.12 -2.74,-1.97 -4.351,-2.49 -1.479,-0.49 -3.04,-0.69 -4.589,-0.6 z"
   id="path44" />
			<path
   fill="none"
   stroke="#000000"
   stroke-width="0.15"
   stroke-linecap="round"
   stroke-linejoin="round"
   d="m 23.934,11.64 c -1.64,0.1 -3.26,0.51 -4.75,1.21 -1.63,0.76 -3.07,1.84 -4.26,3.18 -1.19,1.34 -2.09,2.91 -2.65,4.61 -0.51,1.57 -0.72,3.21 -0.63,4.86 0.1,1.649 0.51,3.26 1.21,4.76 0.76,1.62 1.84,3.07 3.18,4.25 1.34,1.2 2.91,2.09 4.61,2.66 1.57,0.51 3.22,0.72 4.87,0.62 1.65,-0.11 3.26,-0.5 4.76,-1.2 1.62,-0.76 3.07,-1.84 4.25,-3.18 1.19,-1.341 2.09,-2.91 2.65,-4.61 0.51,-1.57 0.729,-3.22 0.63,-4.87 -0.1,-1.65 -0.51,-3.26 -1.21,-4.76 -0.76,-1.62 -1.84,-3.07 -3.18,-4.25 -1.341,-1.19 -2.91,-2.09 -4.61,-2.65 -1.571,-0.51 -3.22,-0.73 -4.87,-0.63 z"
   id="path46" />
			<path
   fill="none"
   stroke="#000000"
   stroke-width="0.15"
   stroke-linecap="round"
   stroke-linejoin="round"
   d="m 23.904,11.15 c -1.71,0.1 -3.38,0.53 -4.93,1.25 -1.69,0.79 -3.19,1.91 -4.42,3.3 -1.23,1.39 -2.17,3.02 -2.75,4.78 -0.53,1.63 -0.75,3.34 -0.65,5.04 0.1,1.73 0.53,3.4 1.25,4.95 0.79,1.68 1.91,3.19 3.3,4.42 1.39,1.23 3.02,2.17 4.79,2.74 1.62,0.54 3.34,0.76 5.05,0.66 1.71,-0.11 3.38,-0.53 4.93,-1.271 1.69,-0.77 3.19,-1.89 4.42,-3.279 1.23,-1.4 2.17,-3.021 2.75,-4.79 0.53,-1.631 0.75,-3.351 0.65,-5.05 -0.101,-1.71 -0.53,-3.38 -1.25,-4.94 -0.79,-1.68 -1.91,-3.18 -3.3,-4.41 -1.391,-1.24 -3.021,-2.17 -4.78,-2.75 -1.63,-0.53 -3.34,-0.75 -5.06,-0.65 z"
   id="path48" />
			<path
   fill="none"
   stroke="#000000"
   stroke-width="0.15"
   stroke-linecap="round"
   stroke-linejoin="round"
   d="m 23.864,10.41 c -1.8,0.11 -3.57,0.56 -5.21,1.32 -1.77,0.83 -3.36,2.01 -4.66,3.48 -1.3,1.46 -2.28,3.18 -2.89,5.04 -0.56,1.72 -0.8,3.51 -0.69,5.33 0.11,1.8 0.56,3.569 1.32,5.21 0.83,1.77 2.02,3.359 3.48,4.64 1.47,1.311 3.18,2.3 5.04,2.91 1.72,0.56 3.53,0.8 5.33,0.68 1.81,-0.1 3.569,-0.55 5.21,-1.31 1.77,-0.83 3.359,-2.03 4.66,-3.48 1.3,-1.47 2.279,-3.18 2.89,-5.05 0.57,-1.71 0.8,-3.52 0.689,-5.33 -0.109,-1.8 -0.56,-3.56 -1.319,-5.2 -0.83,-1.77 -2.01,-3.36 -3.48,-4.66 -1.47,-1.3 -3.18,-2.28 -5.04,-2.89 -1.72,-0.57 -3.53,-0.8 -5.33,-0.69 z"
   id="path50" />
			<path
   fill="none"
   stroke="#000000"
   stroke-width="0.15"
   stroke-linecap="round"
   stroke-linejoin="round"
   d="m 23.833,9.92 c -1.87,0.11 -3.69,0.57 -5.39,1.36 -1.83,0.86 -3.47,2.08 -4.82,3.6 -1.34,1.52 -2.36,3.29 -2.99,5.22 -0.58,1.77 -0.82,3.64 -0.71,5.5 0.11,1.88 0.57,3.7 1.37,5.4 0.85,1.83 2.08,3.47 3.59,4.81 1.52,1.351 3.29,2.37 5.22,3 1.78,0.58 3.64,0.82 5.51,0.7 1.87,-0.1 3.69,-0.56 5.391,-1.36 1.83,-0.85 3.47,-2.08 4.819,-3.59 1.341,-1.52 2.36,-3.3 2.99,-5.22 0.58,-1.78 0.83,-3.66 0.71,-5.51 -0.109,-1.87 -0.569,-3.69 -1.359,-5.39 -0.86,-1.83 -2.091,-3.47 -3.601,-4.82 -1.52,-1.34 -3.29,-2.36 -5.22,-2.99 -1.78,-0.59 -3.639,-0.83 -5.51,-0.71 z"
   id="path52" />
			<path
   fill="none"
   stroke="#000000"
   stroke-width="0.15"
   stroke-linecap="round"
   stroke-linejoin="round"
   d="m 30.903,24.72 c 0,-0.79 -0.149,-1.55 -0.43,-2.28 -0.31,-0.78 -0.78,-1.49 -1.38,-2.09 -0.6,-0.6 -1.311,-1.07 -2.09,-1.38 -0.73,-0.28 -1.5,-0.43 -2.28,-0.43 -0.78,0 -1.55,0.15 -2.27,0.43 -0.79,0.31 -1.5,0.78 -2.1,1.38 -0.6,0.6 -1.06,1.31 -1.37,2.09 -0.29,0.73 -0.44,1.49 -0.44,2.28 0,0.78 0.15,1.54 0.44,2.271 0.31,0.779 0.77,1.5 1.37,2.1 0.6,0.59 1.31,1.06 2.1,1.37 0.72,0.29 1.49,0.439 2.27,0.439 0.78,0 1.55,-0.149 2.28,-0.439 0.779,-0.311 1.49,-0.78 2.09,-1.37 0.6,-0.6 1.07,-1.32 1.38,-2.1 0.281,-0.731 0.43,-1.491 0.43,-2.271 z"
   id="path54" />
			<path
   fill="none"
   stroke="#000000"
   stroke-width="0.15"
   stroke-linecap="round"
   stroke-linejoin="round"
   d="m 49.443,24.72 c 0,-3.12 -0.59,-6.2 -1.739,-9.1 -1.24,-3.14 -3.11,-5.99 -5.5,-8.38 C 39.813,4.85 36.964,2.98 33.823,1.74 30.924,0.59 27.844,0 24.724,0 c -3.12,0 -6.2,0.59 -9.1,1.74 -3.14,1.24 -5.99,3.11 -8.38,5.5 -2.38,2.39 -4.26,5.24 -5.5,8.38 -1.15,2.9 -1.74,5.98 -1.74,9.1 0,3.11 0.59,6.2 1.74,9.1 1.24,3.141 3.12,5.99 5.5,8.36 2.39,2.4 5.24,4.28 8.38,5.521 2.9,1.14 5.98,1.729 9.1,1.729 3.12,0 6.2,-0.59 9.1,-1.729 3.141,-1.24 5.99,-3.12 8.381,-5.521 2.39,-2.37 4.26,-5.22 5.5,-8.36 1.149,-2.9 1.738,-5.99 1.738,-9.1 z"
   id="path56" />
		</g>
	</g>
</g>
</svg>
