<?xml version="1.0" encoding="UTF-8" standalone="no"?>
<!-- Created with Inkscape (http://www.inkscape.org/) -->

<svg
   width="21.526499mm"
   height="21.530027mm"
   viewBox="0 0 21.526499 21.530027"
   version="1.1"
   id="svg14726"
   inkscape:version="1.1.2 (76b9e6a115, 2022-02-25)"
   sodipodi:docname="crash2.svg"
   xmlns:inkscape="http://www.inkscape.org/namespaces/inkscape"
   xmlns:sodipodi="http://sodipodi.sourceforge.net/DTD/sodipodi-0.dtd"
   xmlns="http://www.w3.org/2000/svg"
   xmlns:svg="http://www.w3.org/2000/svg">
  <sodipodi:namedview
     id="namedview14728"
     pagecolor="#ffffff"
     bordercolor="#666666"
     borderopacity="1.0"
     inkscape:pageshadow="2"
     inkscape:pageopacity="0.0"
     inkscape:pagecheckerboard="0"
     inkscape:document-units="mm"
     showgrid="false"
     inkscape:zoom="0.75187991"
     inkscape:cx="225.43494"
     inkscape:cy="52.534985"
     inkscape:window-width="1848"
     inkscape:window-height="1016"
     inkscape:window-x="72"
     inkscape:window-y="27"
     inkscape:window-maximized="1"
     inkscape:current-layer="layer1" />
  <defs
     id="defs14723">
    <clipPath
       clipPathUnits="userSpaceOnUse"
       id="clipPath11933">
      <path
         d="m 158.04,364.673 h 61.02 v -61.03 h -61.02 z"
         id="path11931" />
    </clipPath>
  </defs>
  <g
     inkscape:label="Capa 1"
     inkscape:groupmode="layer"
     id="layer1"
     transform="translate(-45.540068,-134.91982)">
    <g
       id="g11927"
       transform="matrix(0.35277777,0,0,-0.35277777,-10.212931,263.56835)">
      <g
         id="g11929" />
      <g
         id="g12001">
        <g
           clip-path="url(#clipPath11933)"
           id="g11999">
          <g
             transform="translate(216.96,324.833)"
             id="g11937">
            <path
               d="m 0,0 c 1.18,3.59 1.67,7.35 1.44,11.12 -0.23,3.76 -1.16,7.44 -2.76,10.86 -1.73,3.7 -4.2,7.01 -7.25,9.72 -3.06,2.71 -6.64,4.76 -10.52,6.04 -3.59,1.17 -7.35,1.66 -11.12,1.43 -3.76,-0.22 -7.44,-1.16 -10.86,-2.75 -3.7,-1.73 -7.01,-4.2 -9.72,-7.26 -2.71,-3.06 -4.76,-6.64 -6.03,-10.52 -1.18,-3.58 -1.67,-7.35 -1.44,-11.11 0.23,-3.77 1.16,-7.45 2.76,-10.86 1.73,-3.71 4.2,-7.01 7.25,-9.72 3.06,-2.71 6.64,-4.77 10.52,-6.04 3.59,-1.18 7.35,-1.66 11.12,-1.44 3.76,0.23 7.44,1.16 10.86,2.76 3.7,1.73 7.01,4.2 9.72,7.26 C -3.32,-7.46 -1.27,-3.88 0,0 M -0.04,20.55 C 1.38,16.98 2.1,13.17 2.1,9.32 2.1,5.47 1.38,1.67 -0.04,-1.91 c -1.53,-3.88 -3.85,-7.4 -6.79,-10.34 -2.95,-2.95 -6.47,-5.26 -10.35,-6.8 -3.58,-1.41 -7.38,-2.14 -11.23,-2.14 -3.85,0 -7.65,0.73 -11.23,2.14 -3.88,1.54 -7.4,3.85 -10.35,6.8 -2.95,2.94 -5.26,6.46 -6.79,10.34 -1.42,3.58 -2.14,7.38 -2.14,11.23 0,3.85 0.72,7.66 2.14,11.23 1.53,3.88 3.85,7.4 6.79,10.35 2.95,2.95 6.47,5.26 10.35,6.79 3.58,1.42 7.38,2.15 11.23,2.15 3.85,0 7.65,-0.73 11.23,-2.15 3.88,-1.53 7.4,-3.84 10.35,-6.79 2.94,-2.95 5.26,-6.47 6.79,-10.35"
               style="fill:#285468;fill-opacity:1;fill-rule:nonzero;stroke:none"
               id="path11935" />
          </g>
          <g
             transform="translate(215.5098,325.313)"
             id="g11941">
            <path
               d="m 0,0 c 1.12,3.4 1.58,6.98 1.37,10.55 -0.22,3.57 -1.11,7.06 -2.62,10.3 -1.64,3.52 -3.98,6.66 -6.89,9.23 -2.9,2.57 -6.29,4.52 -9.98,5.73 -3.4,1.11 -6.97,1.57 -10.54,1.36 -3.58,-0.22 -7.07,-1.1 -10.31,-2.62 -3.51,-1.64 -6.65,-3.98 -9.23,-6.88 -2.57,-2.9 -4.52,-6.3 -5.73,-9.99 -1.11,-3.4 -1.57,-6.97 -1.36,-10.54 0.22,-3.57 1.1,-7.07 2.62,-10.31 1.64,-3.51 3.98,-6.65 6.88,-9.22 2.91,-2.57 6.3,-4.52 9.99,-5.73 3.4,-1.12 6.97,-1.58 10.54,-1.36 3.58,0.21 7.07,1.1 10.31,2.61 3.51,1.64 6.65,3.99 9.22,6.89 2.58,2.9 4.53,6.3 5.73,9.98 M 1.97,10.58 C 2.19,6.93 1.72,3.28 0.58,-0.19 c -1.23,-3.76 -3.22,-7.23 -5.85,-10.2 -2.63,-2.96 -5.83,-5.35 -9.42,-7.03 -3.31,-1.55 -6.88,-2.45 -10.53,-2.67 -3.65,-0.22 -7.3,0.25 -10.77,1.39 -3.77,1.23 -7.24,3.22 -10.2,5.85 -2.96,2.63 -5.36,5.83 -7.03,9.42 -1.55,3.31 -2.46,6.88 -2.68,10.53 -0.22,3.65 0.26,7.3 1.39,10.77 1.24,3.77 3.23,7.24 5.86,10.2 2.63,2.97 5.83,5.36 9.42,7.04 3.31,1.54 6.88,2.45 10.53,2.67 3.65,0.22 7.3,-0.25 10.77,-1.39 3.77,-1.24 7.24,-3.23 10.2,-5.86 2.96,-2.62 5.36,-5.83 7.03,-9.42 1.55,-3.31 2.46,-6.88 2.67,-10.53"
               style="fill:#285468;fill-opacity:1;fill-rule:nonzero;stroke:none"
               id="path11939" />
          </g>
          <g
             transform="translate(214.0601,325.793)"
             id="g11945">
            <path
               d="m 0,0 c 1.06,3.21 1.5,6.6 1.29,9.98 -0.2,3.38 -1.04,6.68 -2.47,9.75 -1.56,3.32 -3.77,6.29 -6.52,8.73 -2.74,2.43 -5.96,4.27 -9.44,5.42 -3.22,1.05 -6.6,1.49 -9.98,1.29 -3.38,-0.21 -6.69,-1.05 -9.76,-2.48 -3.32,-1.55 -6.29,-3.77 -8.72,-6.51 -2.44,-2.75 -4.28,-5.96 -5.43,-9.45 -1.05,-3.22 -1.49,-6.6 -1.28,-9.98 0.2,-3.38 1.04,-6.69 2.47,-9.75 1.55,-3.33 3.77,-6.3 6.52,-8.73 2.74,-2.43 5.96,-4.28 9.44,-5.42 3.22,-1.06 6.6,-1.49 9.98,-1.29 3.38,0.2 6.69,1.04 9.76,2.47 3.32,1.56 6.29,3.77 8.72,6.52 C -2.98,-6.7 -1.14,-3.49 0,0 M 1.9,10.01 C 2.11,6.56 1.66,3.1 0.58,-0.19 c -1.16,-3.57 -3.05,-6.86 -5.54,-9.67 -2.49,-2.8 -5.53,-5.07 -8.93,-6.66 -3.13,-1.46 -6.51,-2.32 -9.97,-2.53 -3.46,-0.21 -6.92,0.24 -10.21,1.32 -3.56,1.17 -6.85,3.05 -9.66,5.54 -2.81,2.49 -5.07,5.53 -6.66,8.93 -1.47,3.14 -2.32,6.52 -2.53,9.97 -0.21,3.46 0.24,6.92 1.31,10.21 1.17,3.56 3.06,6.85 5.55,9.66 2.49,2.81 5.53,5.08 8.93,6.66 3.13,1.47 6.51,2.33 9.97,2.53 3.46,0.21 6.92,-0.23 10.21,-1.31 3.56,-1.17 6.85,-3.06 9.66,-5.55 2.8,-2.49 5.07,-5.52 6.66,-8.92 1.47,-3.14 2.32,-6.52 2.53,-9.98"
               style="fill:#285468;fill-opacity:1;fill-rule:nonzero;stroke:none"
               id="path11943" />
          </g>
          <g
             transform="translate(212.6099,326.2632)"
             id="g11949">
            <path
               d="m 0,0 c 1,3.04 1.41,6.23 1.22,9.41 -0.19,3.19 -0.98,6.31 -2.33,9.2 -1.47,3.14 -3.56,5.94 -6.15,8.23 -2.59,2.3 -5.62,4.04 -8.91,5.12 -3.03,0.99 -6.22,1.4 -9.41,1.21 -3.19,-0.19 -6.31,-0.98 -9.2,-2.33 -3.14,-1.47 -5.94,-3.56 -8.23,-6.15 -2.3,-2.59 -4.04,-5.62 -5.12,-8.91 -0.99,-3.03 -1.4,-6.22 -1.21,-9.41 0.19,-3.19 0.98,-6.3 2.33,-9.2 1.47,-3.13 3.56,-5.93 6.15,-8.23 2.59,-2.29 5.62,-4.03 8.91,-5.11 3.03,-1 6.22,-1.41 9.41,-1.22 3.19,0.19 6.31,0.99 9.2,2.34 3.13,1.46 5.94,3.55 8.23,6.14 2.3,2.59 4.04,5.62 5.11,8.91 M 1.83,9.45 C 2.03,6.19 1.6,2.92 0.58,-0.19 c -1.1,-3.37 -2.88,-6.47 -5.23,-9.12 -2.35,-2.65 -5.22,-4.8 -8.43,-6.3 -2.97,-1.38 -6.16,-2.19 -9.42,-2.39 -3.27,-0.19 -6.53,0.23 -9.64,1.25 -3.37,1.1 -6.47,2.88 -9.13,5.23 -2.65,2.36 -4.79,5.22 -6.29,8.43 -1.38,2.97 -2.19,6.16 -2.39,9.42 -0.2,3.27 0.23,6.54 1.24,9.64 1.11,3.37 2.89,6.48 5.24,9.13 2.35,2.65 5.22,4.79 8.43,6.29 2.96,1.39 6.16,2.2 9.42,2.39 3.27,0.2 6.53,-0.22 9.64,-1.24 3.37,-1.11 6.47,-2.89 9.12,-5.24 2.66,-2.35 4.8,-5.22 6.3,-8.43 1.38,-2.96 2.19,-6.15 2.39,-9.42"
               style="fill:#285468;fill-opacity:1;fill-rule:nonzero;stroke:none"
               id="path11947" />
          </g>
          <g
             transform="translate(211.1699,326.7432)"
             id="g11953">
            <path
               d="m 0,0 c 0.93,2.85 1.32,5.85 1.14,8.84 -0.18,3 -0.93,5.93 -2.2,8.65 -1.37,2.94 -3.34,5.58 -5.77,7.73 -2.44,2.16 -5.28,3.79 -8.37,4.81 -2.86,0.93 -5.85,1.32 -8.85,1.14 -3,-0.18 -5.93,-0.92 -8.64,-2.19 -2.95,-1.38 -5.58,-3.35 -7.74,-5.78 -2.16,-2.43 -3.79,-5.28 -4.81,-8.37 -0.93,-2.85 -1.32,-5.85 -1.14,-8.85 0.18,-2.99 0.93,-5.92 2.2,-8.64 1.37,-2.95 3.34,-5.58 5.77,-7.74 2.43,-2.15 5.28,-3.79 8.37,-4.8 2.86,-0.94 5.85,-1.33 8.85,-1.15 3,0.19 5.92,0.93 8.64,2.2 2.95,1.38 5.58,3.34 7.74,5.77 C -2.65,-5.94 -1.02,-3.09 0,0 M 1.75,8.88 C 1.93,5.81 1.53,2.73 0.58,-0.19 c -1.04,-3.17 -2.72,-6.1 -4.93,-8.59 -2.22,-2.5 -4.92,-4.51 -7.94,-5.92 -2.79,-1.31 -5.79,-2.07 -8.86,-2.25 -3.08,-0.19 -6.15,0.21 -9.08,1.17 -3.17,1.04 -6.09,2.71 -8.58,4.93 -2.5,2.21 -4.51,4.91 -5.93,7.93 -1.3,2.79 -2.06,5.79 -2.25,8.87 -0.18,3.07 0.22,6.14 1.17,9.07 1.04,3.17 2.72,6.09 4.93,8.59 2.22,2.49 4.92,4.51 7.94,5.92 2.79,1.3 5.79,2.06 8.86,2.25 3.08,0.18 6.15,-0.21 9.08,-1.17 3.17,-1.04 6.09,-2.72 8.58,-4.93 2.5,-2.21 4.51,-4.91 5.93,-7.94 1.3,-2.78 2.06,-5.79 2.25,-8.86"
               style="fill:#285468;fill-opacity:1;fill-rule:nonzero;stroke:none"
               id="path11951" />
          </g>
          <g
             transform="translate(209.7202,327.2129)"
             id="g11957">
            <path
               d="m 0,0 c 0.87,2.67 1.23,5.48 1.06,8.28 -0.16,2.8 -0.86,5.55 -2.05,8.09 -1.29,2.76 -3.13,5.22 -5.4,7.24 -2.28,2.02 -4.95,3.55 -7.84,4.5 -2.67,0.87 -5.47,1.24 -8.28,1.07 -2.8,-0.17 -5.54,-0.87 -8.09,-2.06 -2.76,-1.28 -5.22,-3.12 -7.24,-5.4 -2.02,-2.28 -3.55,-4.94 -4.5,-7.84 -0.87,-2.67 -1.23,-5.47 -1.07,-8.28 0.17,-2.8 0.87,-5.54 2.06,-8.09 1.29,-2.75 3.13,-5.22 5.4,-7.24 2.28,-2.01 4.95,-3.55 7.84,-4.49 2.67,-0.88 5.47,-1.24 8.28,-1.07 2.8,0.17 5.54,0.86 8.09,2.05 2.76,1.29 5.22,3.13 7.24,5.41 2.02,2.27 3.55,4.94 4.5,7.83 M 1.67,8.32 C 1.85,5.44 1.47,2.55 0.58,-0.19 -0.4,-3.16 -1.97,-5.9 -4.05,-8.24 c -2.07,-2.34 -4.6,-4.23 -7.43,-5.55 -2.62,-1.22 -5.43,-1.94 -8.32,-2.11 -2.88,-0.17 -5.76,0.2 -8.5,1.1 -2.97,0.97 -5.71,2.54 -8.05,4.62 -2.34,2.07 -4.23,4.6 -5.55,7.44 -1.23,2.61 -1.94,5.43 -2.11,8.31 -0.18,2.88 0.19,5.76 1.09,8.5 0.98,2.97 2.55,5.71 4.62,8.05 2.08,2.34 4.61,4.23 7.44,5.56 2.62,1.22 5.43,1.93 8.31,2.11 2.89,0.17 5.77,-0.2 8.51,-1.1 2.97,-0.98 5.71,-2.55 8.05,-4.62 2.34,-2.08 4.23,-4.61 5.55,-7.44 C 0.78,14.01 1.5,11.2 1.67,8.32"
               style="fill:#285468;fill-opacity:1;fill-rule:nonzero;stroke:none"
               id="path11955" />
          </g>
          <g
             transform="translate(208.27,327.6929)"
             id="g11961">
            <path
               d="m 0,0 c 0.81,2.48 1.15,5.1 0.99,7.71 -0.16,2.61 -0.8,5.16 -1.91,7.53 -1.2,2.57 -2.91,4.87 -5.04,6.75 -2.12,1.88 -4.6,3.31 -7.3,4.19 -2.48,0.81 -5.09,1.15 -7.71,0.99 -2.61,-0.15 -5.16,-0.8 -7.53,-1.91 -2.57,-1.2 -4.87,-2.91 -6.75,-5.03 -1.88,-2.12 -3.3,-4.61 -4.19,-7.3 -0.81,-2.49 -1.15,-5.1 -0.99,-7.71 0.16,-2.62 0.8,-5.17 1.91,-7.54 1.2,-2.57 2.91,-4.86 5.04,-6.74 2.12,-1.88 4.6,-3.31 7.29,-4.19 2.49,-0.82 5.1,-1.16 7.72,-1 2.61,0.16 5.16,0.81 7.53,1.91 2.57,1.2 4.87,2.92 6.75,5.04 1.88,2.12 3.3,4.6 4.19,7.3 M 1.6,7.75 C 1.76,5.06 1.42,2.37 0.58,-0.19 -0.33,-2.97 -1.8,-5.52 -3.74,-7.71 c -1.93,-2.18 -4.3,-3.94 -6.94,-5.18 -2.44,-1.14 -5.07,-1.81 -7.76,-1.97 -2.69,-0.16 -5.38,0.19 -7.94,1.03 -2.77,0.91 -5.33,2.37 -7.51,4.31 -2.18,1.94 -3.95,4.3 -5.18,6.94 -1.14,2.44 -1.81,5.07 -1.97,7.76 -0.16,2.69 0.18,5.38 1.02,7.94 0.91,2.77 2.38,5.33 4.32,7.51 1.93,2.19 4.29,3.95 6.94,5.18 2.44,1.14 5.07,1.81 7.76,1.97 2.69,0.17 5.38,-0.18 7.94,-1.02 2.77,-0.91 5.33,-2.38 7.51,-4.31 2.18,-1.94 3.95,-4.3 5.18,-6.95 1.14,-2.44 1.81,-5.07 1.97,-7.75"
               style="fill:#285468;fill-opacity:1;fill-rule:nonzero;stroke:none"
               id="path11959" />
          </g>
          <g
             transform="translate(206.8198,328.1631)"
             id="g11965">
            <path
               d="m 0,0 c 0.75,2.31 1.06,4.73 0.92,7.15 -0.15,2.42 -0.75,4.78 -1.77,6.98 -1.12,2.38 -2.7,4.5 -4.67,6.25 -1.96,1.74 -4.26,3.06 -6.76,3.88 -2.3,0.75 -4.73,1.07 -7.14,0.92 -2.42,-0.14 -4.79,-0.74 -6.99,-1.77 -2.38,-1.11 -4.5,-2.7 -6.24,-4.67 -1.75,-1.96 -3.07,-4.26 -3.89,-6.76 -0.75,-2.3 -1.06,-4.72 -0.92,-7.14 0.15,-2.42 0.75,-4.79 1.77,-6.98 1.11,-2.38 2.7,-4.51 4.67,-6.25 1.96,-1.74 4.26,-3.07 6.76,-3.88 2.3,-0.76 4.72,-1.07 7.14,-0.93 2.42,0.15 4.79,0.75 6.99,1.78 2.38,1.11 4.5,2.69 6.24,4.66 C -2.14,-4.79 -0.82,-2.49 0,0 M 1.53,7.18 C 1.68,4.69 1.36,2.19 0.58,-0.19 c -0.85,-2.57 -2.21,-4.95 -4.01,-6.97 -1.8,-2.03 -3.99,-3.67 -6.45,-4.82 -2.26,-1.06 -4.7,-1.68 -7.2,-1.83 -2.5,-0.15 -4.99,0.18 -7.37,0.96 -2.58,0.84 -4.95,2.2 -6.98,4 -2.03,1.8 -3.66,3.99 -4.81,6.45 -1.06,2.26 -1.68,4.7 -1.83,7.2 -0.15,2.5 0.17,5 0.95,7.37 0.85,2.58 2.21,4.95 4.01,6.98 1.8,2.03 3.99,3.66 6.44,4.81 2.27,1.06 4.71,1.68 7.21,1.83 2.49,0.15 4.99,-0.17 7.37,-0.95 2.57,-0.85 4.95,-2.21 6.98,-4.01 2.02,-1.79 3.66,-3.99 4.81,-6.44 1.06,-2.27 1.68,-4.71 1.83,-7.21"
               style="fill:#285468;fill-opacity:1;fill-rule:nonzero;stroke:none"
               id="path11963" />
          </g>
          <g
             transform="translate(205.3701,328.6431)"
             id="g11969">
            <path
               d="M 0,0 C 0.69,2.12 0.98,4.35 0.85,6.58 0.71,8.8 0.16,10.98 -0.79,13 c -1.02,2.19 -2.48,4.15 -4.29,5.76 -1.81,1.6 -3.93,2.82 -6.23,3.57 -2.12,0.69 -4.35,0.98 -6.57,0.85 -2.23,-0.14 -4.41,-0.69 -6.43,-1.63 -2.19,-1.03 -4.15,-2.49 -5.75,-4.3 -1.61,-1.81 -2.82,-3.93 -3.58,-6.22 -0.69,-2.12 -0.98,-4.35 -0.85,-6.58 0.14,-2.23 0.69,-4.41 1.64,-6.43 1.02,-2.19 2.48,-4.15 4.29,-5.75 1.81,-1.6 3.93,-2.82 6.23,-3.57 2.12,-0.7 4.34,-0.99 6.57,-0.85 2.23,0.13 4.41,0.68 6.43,1.63 2.19,1.02 4.15,2.48 5.75,4.29 C -1.97,-4.42 -0.76,-2.3 0,0 M 1.45,6.61 C 1.59,4.31 1.3,2 0.58,-0.19 c -0.78,-2.38 -2.04,-4.57 -3.7,-6.44 -1.66,-1.87 -3.68,-3.39 -5.95,-4.44 -2.09,-0.98 -4.35,-1.55 -6.65,-1.69 -2.31,-0.14 -4.61,0.16 -6.8,0.88 -2.38,0.78 -4.57,2.03 -6.45,3.69 -1.87,1.66 -3.38,3.69 -4.44,5.95 -0.97,2.09 -1.55,4.35 -1.69,6.65 -0.13,2.31 0.16,4.61 0.88,6.81 0.78,2.37 2.04,4.57 3.7,6.44 1.66,1.87 3.68,3.38 5.95,4.44 2.09,0.98 4.35,1.55 6.65,1.69 2.3,0.14 4.61,-0.16 6.8,-0.88 2.38,-0.78 4.57,-2.04 6.44,-3.7 1.88,-1.66 3.39,-3.68 4.45,-5.95 0.97,-2.09 1.55,-4.34 1.68,-6.65"
               style="fill:#285468;fill-opacity:1;fill-rule:nonzero;stroke:none"
               id="path11967" />
          </g>
          <g
             transform="translate(203.9199,329.1133)"
             id="g11973">
            <path
               d="m 0,0 c 0.63,1.94 0.89,3.98 0.77,6.01 -0.12,2.04 -0.63,4.03 -1.49,5.88 -0.93,2 -2.27,3.79 -3.92,5.25 -1.66,1.47 -3.59,2.58 -5.69,3.27 -1.94,0.64 -3.98,0.9 -6.01,0.78 -2.04,-0.13 -4.03,-0.63 -5.88,-1.5 -2,-0.93 -3.79,-2.27 -5.25,-3.92 -1.47,-1.65 -2.58,-3.59 -3.27,-5.69 -0.63,-1.94 -0.9,-3.97 -0.77,-6.01 0.12,-2.03 0.62,-4.02 1.49,-5.87 0.93,-2 2.27,-3.79 3.92,-5.26 1.66,-1.46 3.59,-2.58 5.69,-3.26 1.94,-0.64 3.98,-0.9 6.01,-0.78 2.04,0.12 4.03,0.63 5.88,1.49 2,0.94 3.79,2.27 5.25,3.92 C -1.8,-4.03 -0.69,-2.1 0,0 M 1.38,6.05 C 1.51,3.94 1.24,1.82 0.58,-0.19 c -0.72,-2.18 -1.87,-4.18 -3.39,-5.9 -1.52,-1.72 -3.38,-3.1 -5.46,-4.07 -1.91,-0.9 -3.98,-1.42 -6.09,-1.55 -2.12,-0.13 -4.23,0.15 -6.24,0.81 -2.18,0.71 -4.19,1.86 -5.9,3.38 -1.72,1.53 -3.1,3.38 -4.08,5.46 -0.89,1.92 -1.42,3.98 -1.54,6.09 -0.13,2.12 0.14,4.23 0.8,6.24 0.72,2.18 1.87,4.19 3.39,5.91 1.52,1.71 3.38,3.1 5.46,4.07 1.91,0.89 3.98,1.42 6.09,1.54 2.11,0.13 4.23,-0.14 6.24,-0.8 2.18,-0.72 4.19,-1.87 5.9,-3.39 1.72,-1.52 3.1,-3.38 4.07,-5.45 0.9,-1.92 1.42,-3.99 1.55,-6.1"
               style="fill:#285468;fill-opacity:1;fill-rule:nonzero;stroke:none"
               id="path11971" />
          </g>
          <g
             transform="translate(202.4702,329.5933)"
             id="g11977">
            <path
               d="m 0,0 c 0.57,1.75 0.81,3.6 0.7,5.44 -0.11,1.85 -0.57,3.65 -1.35,5.32 -0.85,1.81 -2.06,3.44 -3.55,4.76 -1.5,1.33 -3.26,2.34 -5.16,2.96 -1.75,0.58 -3.6,0.81 -5.44,0.7 -1.84,-0.11 -3.65,-0.57 -5.32,-1.35 -1.81,-0.84 -3.43,-2.05 -4.76,-3.55 -1.33,-1.5 -2.33,-3.25 -2.96,-5.15 -0.57,-1.76 -0.81,-3.6 -0.7,-5.45 0.11,-1.84 0.57,-3.64 1.35,-5.32 0.85,-1.81 2.06,-3.43 3.55,-4.76 1.5,-1.32 3.25,-2.33 5.16,-2.95 1.75,-0.58 3.6,-0.82 5.44,-0.71 1.84,0.11 3.65,0.57 5.32,1.35 1.81,0.85 3.43,2.06 4.76,3.56 C -1.63,-3.66 -0.63,-1.9 0,0 M 1.31,5.48 C 1.42,3.56 1.18,1.64 0.58,-0.19 -0.07,-2.17 -1.12,-4 -2.5,-5.56 c -1.39,-1.56 -3.07,-2.82 -4.96,-3.7 -1.75,-0.81 -3.62,-1.29 -5.54,-1.41 -1.92,-0.11 -3.85,0.14 -5.67,0.74 -1.99,0.65 -3.81,1.69 -5.37,3.08 -1.56,1.38 -2.82,3.07 -3.7,4.95 -0.82,1.75 -1.29,3.63 -1.41,5.55 -0.11,1.92 0.13,3.84 0.73,5.67 0.65,1.98 1.7,3.8 3.08,5.36 1.39,1.56 3.07,2.82 4.96,3.7 1.74,0.82 3.62,1.3 5.54,1.41 1.92,0.12 3.85,-0.13 5.67,-0.73 1.98,-0.65 3.81,-1.7 5.37,-3.08 1.56,-1.38 2.82,-3.07 3.7,-4.96 C 0.72,9.28 1.19,7.4 1.31,5.48"
               style="fill:#285468;fill-opacity:1;fill-rule:nonzero;stroke:none"
               id="path11975" />
          </g>
          <g
             transform="translate(201.02,330.063)"
             id="g11981">
            <path
               d="m 0,0 c 0.51,1.58 0.73,3.23 0.63,4.88 -0.1,1.65 -0.51,3.27 -1.21,4.77 -0.76,1.62 -1.84,3.07 -3.19,4.26 -1.34,1.19 -2.91,2.09 -4.61,2.65 -1.57,0.52 -3.23,0.73 -4.88,0.63 -1.65,-0.1 -3.26,-0.51 -4.76,-1.21 -1.63,-0.76 -3.08,-1.84 -4.27,-3.18 -1.19,-1.34 -2.09,-2.92 -2.65,-4.62 -0.51,-1.57 -0.73,-3.22 -0.63,-4.88 0.1,-1.65 0.51,-3.26 1.21,-4.76 0.76,-1.63 1.84,-3.08 3.19,-4.27 1.34,-1.19 2.91,-2.09 4.61,-2.65 1.57,-0.51 3.23,-0.72 4.88,-0.62 1.65,0.09 3.26,0.5 4.76,1.21 1.63,0.75 3.08,1.84 4.27,3.18 C -1.46,-3.27 -0.56,-1.7 0,0 M 1.24,4.92 C 1.34,3.19 1.12,1.46 0.58,-0.19 -0.01,-1.97 -0.95,-3.61 -2.2,-5.02 c -1.24,-1.4 -2.76,-2.53 -4.46,-3.33 -1.57,-0.73 -3.26,-1.16 -4.99,-1.26 -1.72,-0.11 -3.45,0.12 -5.1,0.65 -1.78,0.59 -3.43,1.53 -4.83,2.78 -1.4,1.24 -2.54,2.76 -3.33,4.46 -0.73,1.57 -1.16,3.26 -1.27,4.99 -0.1,1.73 0.12,3.46 0.66,5.1 0.59,1.78 1.53,3.43 2.77,4.83 1.25,1.41 2.77,2.54 4.47,3.33 1.57,0.74 3.26,1.16 4.99,1.27 1.72,0.1 3.45,-0.12 5.1,-0.66 1.78,-0.58 3.42,-1.53 4.83,-2.77 1.4,-1.25 2.54,-2.77 3.33,-4.47 C 0.7,8.34 1.13,6.65 1.24,4.92"
               style="fill:#285468;fill-opacity:1;fill-rule:nonzero;stroke:none"
               id="path11979" />
          </g>
          <g
             transform="translate(199.5698,330.543)"
             id="g11985">
            <path
               d="M 0,0 C 0.45,1.39 0.64,2.85 0.55,4.31 0.47,5.77 0.1,7.2 -0.52,8.52 c -0.67,1.44 -1.62,2.72 -2.81,3.77 -1.18,1.05 -2.57,1.85 -4.08,2.34 -1.39,0.46 -2.85,0.64 -4.31,0.56 -1.46,-0.09 -2.88,-0.45 -4.21,-1.07 -1.43,-0.67 -2.72,-1.63 -3.77,-2.82 -1.05,-1.18 -1.84,-2.57 -2.34,-4.07 -0.45,-1.39 -0.64,-2.85 -0.55,-4.31 0.08,-1.46 0.45,-2.89 1.06,-4.22 0.67,-1.43 1.63,-2.71 2.82,-3.76 1.18,-1.05 2.57,-1.85 4.08,-2.35 1.39,-0.45 2.85,-0.64 4.31,-0.55 1.46,0.09 2.88,0.45 4.21,1.07 1.43,0.67 2.72,1.63 3.77,2.81 C -1.29,-2.89 -0.5,-1.51 0,0 M 1.16,4.35 C 1.26,2.81 1.06,1.27 0.58,-0.19 0.06,-1.77 -0.78,-3.24 -1.89,-4.48 c -1.1,-1.25 -2.45,-2.26 -3.96,-2.97 -1.4,-0.65 -2.9,-1.03 -4.44,-1.12 -1.53,-0.09 -3.07,0.11 -4.53,0.58 -1.59,0.52 -3.05,1.36 -4.3,2.47 -1.24,1.11 -2.25,2.46 -2.96,3.97 -0.65,1.39 -1.03,2.89 -1.12,4.43 -0.1,1.54 0.1,3.07 0.58,4.54 0.52,1.58 1.36,3.04 2.47,4.29 1.1,1.25 2.45,2.25 3.96,2.96 1.4,0.65 2.9,1.03 4.44,1.13 1.53,0.09 3.07,-0.11 4.53,-0.59 1.59,-0.52 3.05,-1.36 4.3,-2.46 1.24,-1.11 2.25,-2.46 2.96,-3.97 0.65,-1.4 1.03,-2.9 1.12,-4.43"
               style="fill:#285468;fill-opacity:1;fill-rule:nonzero;stroke:none"
               id="path11983" />
          </g>
          <g
             transform="translate(198.1201,331.0229)"
             id="g11989">
            <path
               d="M 0,0 C 0.39,1.2 0.56,2.47 0.48,3.74 0.4,5 0.09,6.24 -0.45,7.39 c -0.58,1.25 -1.41,2.36 -2.44,3.28 -1.03,0.91 -2.24,1.6 -3.54,2.03 -1.21,0.4 -2.48,0.56 -3.75,0.48 -1.26,-0.07 -2.5,-0.39 -3.65,-0.92 -1.25,-0.59 -2.36,-1.42 -3.28,-2.45 -0.91,-1.03 -1.6,-2.23 -2.03,-3.54 -0.39,-1.21 -0.56,-2.47 -0.48,-3.74 0.07,-1.27 0.39,-2.51 0.93,-3.66 0.58,-1.25 1.41,-2.36 2.44,-3.27 1.03,-0.92 2.23,-1.61 3.54,-2.04 1.21,-0.39 2.48,-0.56 3.74,-0.48 1.27,0.08 2.51,0.39 3.66,0.93 1.25,0.58 2.36,1.41 3.27,2.44 C -1.12,-2.52 -0.43,-1.31 0,0 M 1.09,3.77 C 1.17,2.43 1,1.08 0.58,-0.19 0.12,-1.58 -0.61,-2.86 -1.58,-3.95 c -0.97,-1.09 -2.15,-1.98 -3.47,-2.59 -1.22,-0.57 -2.53,-0.91 -3.88,-0.99 -1.34,-0.08 -2.69,0.09 -3.97,0.51 -1.38,0.46 -2.66,1.19 -3.76,2.16 -1.09,0.97 -1.97,2.15 -2.59,3.47 -0.57,1.22 -0.9,2.54 -0.98,3.88 -0.08,1.35 0.09,2.69 0.51,3.97 0.46,1.39 1.19,2.67 2.16,3.76 0.97,1.09 2.15,1.97 3.47,2.59 1.22,0.57 2.53,0.9 3.88,0.98 1.34,0.08 2.69,-0.09 3.97,-0.51 1.38,-0.45 2.66,-1.19 3.75,-2.16 1.1,-0.96 1.98,-2.15 2.6,-3.47 0.57,-1.22 0.9,-2.53 0.98,-3.88"
               style="fill:#285468;fill-opacity:1;fill-rule:nonzero;stroke:none"
               id="path11987" />
          </g>
          <g
             transform="translate(196.6699,331.4932)"
             id="g11993">
            <path
               d="m 0,0 c 0.33,1.02 0.47,2.1 0.41,3.18 -0.07,1.07 -0.33,2.12 -0.79,3.1 -0.49,1.06 -1.2,2 -2.07,2.78 -0.88,0.77 -1.9,1.36 -3.01,1.72 -1.02,0.34 -2.1,0.48 -3.17,0.41 -1.08,-0.06 -2.13,-0.33 -3.11,-0.79 -1.05,-0.49 -2,-1.2 -2.77,-2.07 -0.78,-0.87 -1.37,-1.9 -1.73,-3.01 -0.33,-1.02 -0.47,-2.1 -0.41,-3.17 0.07,-1.08 0.33,-2.13 0.79,-3.1 0.49,-1.06 1.2,-2.01 2.07,-2.78 0.88,-0.78 1.9,-1.36 3.01,-1.73 1.02,-0.33 2.1,-0.47 3.17,-0.41 1.08,0.07 2.13,0.34 3.11,0.79 1.05,0.5 2,1.2 2.77,2.07 0.78,0.88 1.36,1.9 1.73,3.01 M 1.02,3.21 C 1.09,2.06 0.94,0.91 0.58,-0.19 0.19,-1.38 -0.44,-2.47 -1.27,-3.41 -2.1,-4.35 -3.11,-5.1 -4.25,-5.63 c -1.04,-0.49 -2.17,-0.78 -3.32,-0.84 -1.15,-0.07 -2.31,0.07 -3.4,0.43 -1.19,0.39 -2.29,1.02 -3.22,1.85 -0.94,0.83 -1.69,1.84 -2.22,2.98 -0.49,1.04 -0.78,2.17 -0.85,3.32 -0.07,1.16 0.08,2.31 0.44,3.4 0.39,1.19 1.02,2.29 1.85,3.22 0.83,0.94 1.84,1.7 2.97,2.23 1.05,0.48 2.18,0.77 3.33,0.84 1.15,0.07 2.31,-0.08 3.4,-0.44 1.19,-0.39 2.29,-1.02 3.22,-1.85 C -1.11,8.68 -0.36,7.67 0.17,6.54 0.66,5.49 0.95,4.36 1.02,3.21"
               style="fill:#285468;fill-opacity:1;fill-rule:nonzero;stroke:none"
               id="path11991" />
          </g>
          <g
             transform="translate(192.1299,338.1431)"
             id="g11997">
            <path
               d="m 0,0 c -0.2,-0.42 -0.41,-0.83 -0.61,-1.25 -0.51,0.45 -1.17,0.68 -1.98,0.68 -0.57,0 -1.09,-0.15 -1.56,-0.43 -0.46,-0.28 -0.83,-0.68 -1.09,-1.21 -0.27,-0.52 -0.4,-1.13 -0.4,-1.81 0,-0.64 0.12,-1.21 0.35,-1.72 0.24,-0.52 0.59,-0.93 1.04,-1.22 0.46,-0.3 1,-0.45 1.63,-0.45 0.74,0 1.44,0.21 2.12,0.62 0.14,-0.39 0.28,-0.79 0.41,-1.18 -0.18,-0.17 -0.51,-0.33 -1,-0.48 -0.49,-0.16 -0.98,-0.23 -1.48,-0.23 -0.94,0 -1.76,0.21 -2.46,0.63 -0.69,0.43 -1.22,0.99 -1.58,1.7 -0.37,0.71 -0.55,1.5 -0.55,2.35 0,0.91 0.2,1.71 0.59,2.43 0.4,0.71 0.95,1.27 1.66,1.67 0.72,0.41 1.53,0.61 2.43,0.61 0.41,0 0.79,-0.05 1.14,-0.13 0.35,-0.09 0.65,-0.19 0.88,-0.3 C -0.23,0.17 -0.07,0.07 0,0"
               style="fill:#285468;fill-opacity:1;fill-rule:nonzero;stroke:none"
               id="path11995" />
          </g>
        </g>
      </g>
    </g>
  </g>
</svg>
