<?xml version="1.0" encoding="UTF-8" standalone="no"?>
<svg
   version="1.1"
   id="Layer_1"
   x="0px"
   y="0px"
   viewBox="0 0 66.943079 66.666662"
   enable-background="new 0 0 1212 1192"
   xml:space="preserve"
   sodipodi:docname="Drum-Set-Silhouette.svg"
   inkscape:version="1.1.2 (76b9e6a115, 2022-02-25)"
   width="66.943077"
   height="66.666664"
   xmlns:inkscape="http://www.inkscape.org/namespaces/inkscape"
   xmlns:sodipodi="http://sodipodi.sourceforge.net/DTD/sodipodi-0.dtd"
   xmlns="http://www.w3.org/2000/svg"
   xmlns:svg="http://www.w3.org/2000/svg"><defs
   id="defs7" /><sodipodi:namedview
   id="namedview5"
   pagecolor="#ffffff"
   bordercolor="#666666"
   borderopacity="1.0"
   inkscape:pageshadow="2"
   inkscape:pageopacity="0.0"
   inkscape:pagecheckerboard="0"
   showgrid="false"
   inkscape:zoom="0.70805369"
   inkscape:cx="569.87204"
   inkscape:cy="109.45498"
   inkscape:window-width="1848"
   inkscape:window-height="1016"
   inkscape:window-x="72"
   inkscape:window-y="27"
   inkscape:window-maximized="1"
   inkscape:current-layer="Layer_1" />
<path
   d="m 17.088464,0.00839768 c 0.357943,-0.01427016 0.720643,-0.02021605 1.070856,0.06599945 -0.0042,0.14032316 -0.0077,0.28064632 -0.01189,0.42156408 0.204539,0.0249728 0.407294,0.0618373 0.604698,0.1212963 -0.01784,0.32107843 -0.03032,0.64215689 -0.0333,0.96382989 0.384105,0.054702 0.756913,0.1991875 1.149342,0.1861065 2.000794,-0.016649 4.001588,-0.00416 6.000004,0.095729 0.521455,0.032108 1.0441,0.06481 1.561987,0.1415123 0.198593,0.036865 0.415024,0.05827 0.577347,0.1920525 0.01546,0.2134577 -0.22535,0.2527006 -0.381727,0.2990786 -0.899019,0.2015659 -1.821228,0.2645924 -2.736301,0.3555646 -2.357549,0.1849174 -4.720448,0.2961057 -7.083942,0.3454566 -0.0048,0.4334559 -0.02557,0.8663172 -0.03686,1.299773 0.215241,0.058864 0.570806,-0.044594 0.646913,0.2396197 0.08681,0.2723221 0.07373,0.5678331 0.02497,0.8461011 -0.03805,0.1783769 -0.08741,0.3751858 -0.238431,0.4929145 -0.277673,0.00892 -0.552968,-0.048162 -0.829452,-0.066594 -1.658905,1.2325844 -3.322567,2.4586283 -4.983256,3.6888343 0.04876,0.1759986 0.08443,0.3543759 0.114756,0.5339419 0.08978,0.04757 0.228322,0.05054 0.262808,0.165296 0.100486,0.2967 0.07135,0.641562 -0.0767,0.918046 -0.05292,0.112377 -0.193241,0.08859 -0.293133,0.115945 -0.09989,0.264592 -0.184917,0.589238 -0.458428,0.725994 -0.257457,0.044 -0.518482,-0.02259 -0.775345,-0.04757 -0.01962,1.720148 -0.02022,3.440296 -0.044,5.159849 0.47805,0.02378 0.954911,0.06481 1.432961,0.08265 0.582698,0.088 1.170747,0.133783 1.752256,0.22416 0.21762,-0.406699 0.395997,-0.833614 0.646319,-1.222476 0.12308,-0.01011 0.24616,-0.01962 0.36924,-0.02973 0.313944,-0.508374 0.539888,-1.063126 0.790805,-1.603608 0.156971,-0.335943 0.263997,-0.690913 0.363888,-1.047072 -0.06838,-0.0993 -0.136755,-0.198593 -0.204538,-0.29789 0.208106,-0.569022 0.519076,-1.087504 0.824101,-1.608365 0.03865,0.0059 0.114756,0.01784 0.153404,0.02319 0.144485,-0.450104 0.323457,-0.894263 0.573779,-1.2968 0.09276,-0.126647 0.222971,-0.0012 0.311565,0.05827 0.214647,-0.397781 0.433456,-0.8068583 0.76821,-1.1184233 1.201666,-1.3538807 2.99257,-2.0656045 4.770393,-2.2089006 0.357943,-0.014865 0.711129,-0.1147558 1.070856,-0.057675 0.431672,0.068378 0.871074,0.045189 1.302746,0.115945 0.736102,0.1843228 1.485285,0.3401053 2.189279,0.6344272 1.457339,0.5684277 2.794572,1.462096 3.842833,2.6263027 0.203944,0.178971 0.392429,0.37578 0.52978,0.611832 0.252106,0.441186 0.612427,0.822318 0.770588,1.313449 0.556536,1.173125 0.806858,2.519276 0.548211,3.802996 -0.066,0.382321 -0.183728,0.752155 -0.283619,1.125558 -0.14508,0.527995 -0.280646,1.062532 -0.507779,1.562581 0.20216,0.272917 0.309186,0.681995 0.674264,0.778913 0.325835,0.06422 0.660589,0.06719 0.990587,0.102269 0.0024,0.07135 0.0048,0.142107 0.0077,0.214053 0.288971,0.02319 0.577347,0.05173 0.866912,0.07313 0.205133,-0.569022 0.719454,-1.011991 1.317611,-1.113666 0.723615,-0.146269 1.512636,0.215836 1.872957,0.860966 0.174215,0.311565 0.256268,0.679021 0.205728,1.033991 -0.07194,0.429888 -0.144485,0.888912 -0.437618,1.23199 -0.20216,0.258646 -0.485185,0.436429 -0.784264,0.561887 -0.09335,1.158855 -0.18789,2.317116 -0.287186,3.475377 0.139728,0.03389 0.287186,0.05113 0.417996,0.117134 0.507185,0.250322 1.004262,0.52205 1.495988,0.801507 0.04697,-0.162323 0.160539,-0.280647 0.313943,-0.347241 0.125459,-1.452582 0.256863,-2.90457 0.386483,-4.356558 -0.276484,-0.09513 -0.571995,-0.214052 -0.728372,-0.47805 -0.3407,-0.526212 -0.277079,-1.202855 -0.07789,-1.768905 -0.244376,-0.294321 -0.426916,-0.635021 -0.52978,-1.004261 -0.135566,-0.321079 -0.09454,-0.67486 -0.115945,-1.013776 -0.01367,-0.20216 0.01189,-0.403726 0.06065,-0.599941 0.303835,-1.861066 1.276584,-3.53543 2.408682,-5.012985 0.128432,-0.258052 0.311565,-0.481618 0.518483,-0.680806 0.394807,-0.259835 0.556536,-0.746804 0.954911,-1.002478 0.255673,-0.150431 0.444158,-0.384699 0.67367,-0.569022 1.096423,-0.9394516 2.316521,-1.764742 3.68051,-2.2612244 0.291943,-0.1129721 0.599941,-0.175404 0.893073,-0.2859977 0.290755,-0.090972 0.600536,-0.052324 0.89902,-0.096323 0.285403,-0.041621 0.563076,0.051135 0.838372,0.1123775 0.359132,0.086215 0.693291,0.2639978 0.972748,0.5054012 0.487564,0.424537 0.984046,0.838966 1.471021,1.2640976 0.246755,0.2110794 0.460212,0.4673475 0.587449,0.7688048 0.05708,0.136161 0.120107,0.27589 0.241998,0.367456 1.070261,0.909128 2.12982,1.831337 3.200081,2.740464 0.505402,0.310376 0.982262,0.665346 1.47161,1.000695 -0.03032,0.06303 -0.05946,0.126053 -0.088,0.189674 0.358538,0.310376 0.720049,0.615995 1.076208,0.928749 0.171842,0.168863 0.429294,0.158755 0.641562,0.246755 0.387673,0.134971 0.671887,0.441185 0.981074,0.696859 0.444164,0.384105 0.896052,0.759291 1.335454,1.148152 0.532752,0.481618 0.560097,1.262909 0.514909,1.92766 -0.123074,0.389456 -0.118918,0.815182 -0.321667,1.178477 -0.603509,1.635121 -1.597663,3.093055 -2.701822,4.428504 -0.175999,0.262214 -0.35616,0.529779 -0.614212,0.719453 -0.312754,0.236647 -0.481023,0.610049 -0.791993,0.849074 -0.34843,0.241404 -0.630265,0.561293 -0.9561,0.830047 -1.227828,1.063721 -2.576357,2.013281 -4.080075,2.64533 -0.319889,0.181944 -0.68794,0.225944 -1.033396,0.335348 -0.248539,0.07968 -0.511942,0.07908 -0.769399,0.09335 -0.357943,0.01487 -0.7254,-0.02973 -1.050046,-0.18789 -0.232484,-0.10881 -0.414429,-0.294917 -0.595184,-0.47151 -0.311565,-0.317511 -0.627292,-0.63086 -0.940641,-0.945992 -0.158755,1.352691 -0.30443,2.706572 -0.464374,4.059264 0.104053,0.08265 0.209295,0.163512 0.315132,0.24616 -0.07908,0.139728 -0.159945,0.278268 -0.240809,0.417402 0.409673,0.476266 0.953722,0.821723 1.342584,1.318205 0.05708,0.141506 -0.01487,0.287781 -0.06778,0.418591 0.59459,0.519077 1.165991,1.063126 1.754635,1.588744 0.388267,0.364483 0.810425,0.693886 1.165395,1.092856 0.425727,0.468536 0.877615,0.918641 1.214747,1.458528 0.22535,0.329997 0.482212,0.641562 0.657616,1.003073 0.236647,0.480428 0.535726,0.931722 0.710535,1.441285 0.17362,0.484591 0.398375,0.952533 0.50659,1.458529 0.112972,0.49886 0.278863,0.987018 0.329403,1.498366 0.05173,0.498266 0.158755,0.991781 0.156972,1.494203 0.01011,0.309782 -0.01903,0.623725 0.0434,0.929939 0.044,0.200971 0.0113,0.407294 -0.0059,0.609454 -0.03746,0.533942 -0.140918,1.058964 -0.217025,1.588149 0.979883,-0.372808 1.960362,-0.744426 2.943218,-1.10891 0.08384,-0.490536 0.140324,-0.985235 0.228918,-1.474582 0.01962,-0.18908 0.222376,-0.244971 0.366261,-0.316322 0.60232,-3.956399 1.202861,-7.913394 1.798046,-11.870983 -0.1766,-0.13735 -0.167086,-0.347835 -0.117735,-0.546427 -0.392429,0.156377 -0.793777,0.350213 -1.223666,0.347834 -0.169458,0.01011 -0.234263,-0.186106 -0.124864,-0.301456 0.351992,-0.492321 0.932311,-0.747994 1.47934,-0.961452 0.10702,-0.454861 0.130809,-0.925776 0.227727,-1.383016 0.02676,-0.158755 0.226545,-0.162323 0.344268,-0.218214 0.403726,-2.626303 0.799723,-5.253794 1.198693,-7.880692 -0.09336,-0.07611 -0.226545,-0.149242 -0.173621,-0.291943 0.133188,-0.876425 0.263398,-1.75404 0.399565,-2.62987 0.03092,-0.253295 0.369834,-0.172431 0.551184,-0.20989 0.412057,-2.695275 0.821135,-5.391145 1.235558,-8.085825 -0.250329,5.94e-4 -0.538104,0.04578 -0.743237,-0.131999 -0.276485,-0.221782 -0.349619,-0.58686 -0.429294,-0.912101 -0.07909,-0.317511 0.09037,-0.617184 0.178377,-0.912695 C 61.238526,9.4011305 58.929727,8.0864927 56.626287,6.7617469 56.320668,6.6083428 55.962725,6.7450984 55.639863,6.6707747 55.416297,6.560181 55.366946,6.2789401 55.358622,6.0541852 c 0.0095,-0.2675651 0.07313,-0.5904273 0.327024,-0.7325342 0.160539,-0.044 0.331187,-0.021405 0.496483,-0.026162 C 56.245749,4.80852 56.306992,4.3209565 56.36883,3.833393 53.860851,3.4712879 51.352277,3.1050207 48.860351,2.6406462 48.322842,2.5223228 47.763333,2.4634584 47.254365,2.2470278 c 0.0054,-0.032702 0.01546,-0.098107 0.02081,-0.1314043 0.294322,-0.060054 0.596968,-0.013081 0.894263,-5.946e-4 1.750472,0.1367556 3.493214,0.3555646 5.235362,0.5731844 0.315133,0.032703 0.632644,0.1201072 0.94956,0.051729 0.453666,-0.085026 0.911506,-0.1427015 1.372313,-0.1688634 0.04519,-0.2949165 0.04162,-0.6017248 0.129026,-0.8877224 0.175998,-0.030919 0.355564,-0.020811 0.533941,-0.020811 0.02081,-0.1355665 0.03984,-0.2711329 0.06362,-0.4066994 0.325241,-0.00595 0.652265,0.015459 0.972155,0.080864 -0.01487,0.1325935 -0.02914,0.2645924 -0.04162,0.3971859 0.175404,0.029729 0.351403,0.061243 0.526807,0.096918 -0.02378,0.3389162 -0.07611,0.6748593 -0.120702,1.0113971 0.487564,0.1379448 0.948965,0.3478349 1.400853,0.573779 0.253296,0.1385394 0.546435,0.1462691 0.825291,0.1920525 1.711229,0.2616194 3.422465,0.5268064 5.12239,0.8538307 0.426315,0.092161 0.863345,0.1551879 1.26766,0.3258352 -0.02378,0.038054 -0.07135,0.1153504 -0.09513,0.1534041 -0.835987,0.016648 -1.666635,-0.09454 -2.497276,-0.1700526 -2.327819,-0.2455656 -4.649092,-0.5494009 -6.967403,-0.8722631 -0.05411,0.4655637 -0.121296,0.9293437 -0.174809,1.3949074 0.137945,0.019621 0.311565,-0.012486 0.411456,0.1099991 0.22416,0.2770788 0.181944,0.6647509 0.09038,0.9846402 2.265981,1.2736111 4.524828,2.5597085 6.794971,3.8255904 0.415618,-0.0987 0.845507,-0.0553 1.268266,-0.06719 0.333565,0.0054 0.668913,-0.02259 1.001883,0.0065 0.407294,0.06719 0.602914,0.498861 0.667725,0.863939 0.09157,0.36924 0.0018,0.752751 -0.148648,1.092856 -0.10881,0.22416 -0.285403,0.439996 -0.533347,0.510753 -0.247349,0.05054 -0.501245,0.03805 -0.751561,0.04876 -0.419186,2.735707 -0.84729,5.470225 -1.271827,8.204743 0.168268,0.0553 0.334159,0.121296 0.488752,0.210485 -0.06778,0.451293 -0.137939,0.902587 -0.213457,1.352691 0.235457,0.08265 0.482212,0.06541 0.725399,0.03508 0.192647,-0.256863 0.350808,-0.557725 0.62313,-0.742048 0.212274,0.01784 0.416807,0.08443 0.624319,0.133188 -0.07729,0.432861 -0.305018,0.815777 -0.518482,1.192747 -0.230701,0.378159 -0.460807,0.769994 -0.803291,1.060748 -0.203343,-0.05114 -0.41145,-0.08859 -0.605881,-0.167674 0.01902,-0.318106 0.196804,-0.595779 0.329992,-0.876426 -0.12902,-0.102864 -0.285992,-0.148647 -0.443564,-0.181349 -0.05649,0.329997 -0.09573,0.662967 -0.155783,0.99237 0,0.133782 -0.152209,0.152809 -0.244971,0.203349 -0.423942,2.63106 -0.822317,5.266281 -1.239125,7.89853 0.104648,0.0773 0.203939,0.162323 0.291938,0.259241 -0.161134,0.871074 -0.274106,1.749877 -0.422753,2.622735 -0.01308,0.123674 -0.145074,0.167668 -0.230701,0.233674 -0.623725,3.966507 -1.24626,7.93361 -1.860465,11.901901 0.115945,0.115945 0.291349,0.239025 0.253295,0.428105 -0.06957,0.494104 -0.155782,0.985829 -0.230701,1.479339 1.516798,1.2308 3.033002,2.461006 4.545638,3.697158 0.05886,0.03508 0.10881,0.109999 0.185512,0.106432 0.262214,-0.01962 0.518482,-0.08384 0.777724,-0.124269 0.170058,0.130809 0.3413,0.261024 0.51313,0.39124 -0.03983,0.375186 -0.152209,0.741453 -0.175404,1.118423 0.0654,0.329997 0.18135,0.648103 0.259242,0.975721 -0.460213,0.06897 -0.915074,0.193837 -1.378848,0.224755 -0.291349,-0.197998 -0.55059,-0.439401 -0.82648,-0.657021 0.189074,-0.274106 0.378754,-0.547617 0.570807,-0.819345 -1.426421,-1.206422 -2.858187,-2.406304 -4.291743,-3.603808 0.944797,2.292738 1.891384,4.584881 2.837382,6.877619 0.187885,0.434645 0.346646,0.882966 0.552368,1.309881 0.20989,0.230106 0.474488,0.402537 0.69746,0.621346 -0.05649,0.398976 -0.172431,0.791403 -0.189086,1.19513 0.06184,0.372807 0.18789,0.732528 0.272322,1.10118 -0.409077,0.07432 -0.815777,0.205133 -1.2302,0.223559 -0.379943,-0.312159 -0.736102,-0.652859 -1.102964,-0.980478 0.19562,-0.293721 0.456051,-0.547617 0.612428,-0.865122 -1.141024,-3.028838 -2.329609,-6.041624 -3.490836,-9.063335 -0.443571,-0.0012 -0.888324,-0.09513 -1.27599,-0.315132 -1.527501,1.388961 -3.052624,2.780896 -4.580719,4.168074 -0.166485,0.162917 -0.241998,0.390639 -0.352592,0.591022 -0.243782,0.508968 -0.576157,0.966797 -0.869885,1.446636 -0.293727,0.495294 -0.670697,0.932317 -1.010802,1.395502 0.446537,0.317511 0.879398,0.655833 1.334854,0.960857 0.198593,0.04637 0.407888,-0.02022 0.610643,-0.02617 0.07314,0.09157 0.146864,0.183134 0.220593,0.27589 -0.03151,0.218815 -0.08265,0.437022 -0.07968,0.659993 0.02676,0.211079 0.109405,0.409672 0.165296,0.614805 -0.314538,0.0339 -0.629076,0.07136 -0.943614,0.10287 -0.121296,-0.152815 -0.242592,-0.305619 -0.360321,-0.460807 0.09335,-0.133188 0.187296,-0.265193 0.280646,-0.397191 -0.466753,-0.370428 -0.951938,-0.717662 -1.421664,-1.083936 -0.06957,-0.04638 -0.132593,-0.112972 -0.215241,-0.128431 -0.38351,0.387672 -0.7254,0.815188 -1.10891,1.204042 -0.328808,0.307403 -0.660589,0.612428 -0.98583,0.923993 -0.478644,0.457834 -1.055396,0.801507 -1.515609,1.278962 -0.252112,0.187296 -0.523239,0.346646 -0.780101,0.527996 -0.504813,0.30324 -1.02983,0.576752 -1.507285,0.923397 -0.266376,0.154594 -0.541077,0.296106 -0.807453,0.451889 -0.199187,0.12902 -0.451293,0.10881 -0.655238,0.228917 -0.647508,0.32345 -1.328908,0.56486 -2.012686,0.797939 -0.50659,0.199188 -1.040532,0.309187 -1.56496,0.449504 -0.73075,0.208701 -1.487663,0.291349 -2.234468,0.419186 -0.762858,0.05351 -1.525717,0.149242 -2.291548,0.11356 -0.399565,-0.01546 -0.800913,-0.01249 -1.199288,-0.04756 -0.721832,-0.09573 -1.453177,-0.144491 -2.157171,-0.343078 -0.338322,-0.107026 -0.705183,-0.08027 -1.032808,-0.222971 -0.56486,-0.192647 -1.119613,-0.412057 -1.664851,-0.654049 -0.13854,-0.05649 -0.313944,-0.0024 -0.431078,-0.10881 -0.250917,-0.234274 -0.589238,-0.325841 -0.881776,-0.49232 -0.333565,-0.372213 -0.834804,-0.533347 -1.209396,-0.859188 -0.469131,-0.404315 -0.989397,-0.752745 -1.399069,-1.221281 -0.200377,-0.214053 -0.402537,-0.426321 -0.604698,-0.63859 -1.041721,0.10048 -2.081658,0.220593 -3.12338,0.324052 -0.210484,-0.429889 -0.341889,-0.892479 -0.511941,-1.339016 -0.416808,0.32524 -0.825291,0.661183 -1.237341,0.99297 0.12962,0.307397 0.297294,0.599941 0.401348,0.917446 -0.118324,0.310971 -0.343079,0.574374 -0.511347,0.862155 -0.548807,-0.120107 -1.099397,-0.234262 -1.646419,-0.360315 -0.498861,0.393024 -0.991181,0.794372 -1.484691,1.194531 0.08146,0.228322 0.149242,0.461996 0.215836,0.696264 -0.373997,0.05054 -0.749777,0.088 -1.124963,0.128431 -0.04638,-0.170647 -0.109999,-0.337732 -0.129621,-0.513725 0.04519,-0.186107 0.176593,-0.337132 0.230106,-0.520266 0.03449,-0.234262 0.01962,-0.472699 0.02854,-0.708156 0.246754,-0.04935 0.516698,-0.01487 0.746804,-0.12248 0.60113,-0.455456 1.190963,-0.926965 1.790904,-1.38361 -1.384799,-1.383016 -2.770787,-2.764246 -4.156776,-4.146667 -0.174809,0.01368 -0.349619,0.03211 -0.524428,0.04757 -0.04103,-0.141513 -0.08146,-0.283025 -0.121891,-0.423943 0.02914,-0.06124 0.05827,-0.121296 0.0874,-0.180755 -0.31216,-0.278863 -0.558915,-0.639184 -0.925776,-0.850263 -0.0993,-0.221188 -0.302052,-0.363889 -0.463186,-0.535726 -0.438807,-0.428104 -0.855614,-0.879398 -1.312854,-1.286692 -0.01903,0.241998 0.07076,0.470321 0.129026,0.701022 0.06481,0.253889 0.127837,0.508968 0.183728,0.765236 -0.489347,0.0553 -0.980478,0.0987 -1.472204,0.130216 -0.06481,-0.293133 -0.134971,-0.585671 -0.187295,-0.881176 -1.1493421,3.285108 -2.2695491,6.580322 -3.4010532,9.871376 0.1480528,0.319889 0.3157271,0.630265 0.4703204,0.947187 C 6.8038406,65.886565 6.5089241,66.28315 6.1973591,66.666667 5.6919579,66.547154 5.1823946,66.44429 4.6805609,66.308724 4.8280191,65.900835 5.0016393,65.501871 5.1372058,65.089815 5.1871513,64.659332 5.1175843,64.223504 5.1526651,63.792426 5.3155827,63.468963 5.6521204,63.25789 5.7805518,62.911833 6.803246,60.132721 7.8330753,57.355989 8.8581479,54.578066 8.988363,54.188015 9.2107396,53.811045 9.1560373,53.384724 6.8573536,54.73147 4.5604538,56.079999 2.2623647,57.42734 c 0.1314043,0.257457 0.2663762,0.51432 0.3954021,0.773561 -0.239025,0.248538 -0.4584286,0.517887 -0.7141022,0.750372 -0.570806,-0.07908 -1.12972032,-0.241404 -1.6957697,-0.351997 0.12902596,-0.360322 0.3056191,-0.702211 0.43167211,-1.063127 0.0475672,-0.40551 -0.0350808,-0.81756 0.004757,-1.223665 0.11891794,-0.175404 0.28718681,-0.310376 0.43464509,-0.460213 0.3436728,0.07492 0.6885348,0.144486 1.031613,0.222377 2.3349537,-1.316422 4.6681235,-2.637005 7.0036718,-3.953427 0.00476,-0.511941 -0.00416,-1.024478 0.011892,-1.535825 -0.00654,-0.221782 0.182539,-0.362105 0.344862,-0.475077 0.00535,-1.045883 0.026756,-2.091172 0.020216,-3.137055 -0.4037264,0.01665 -0.805669,0.06184 -1.2093954,0.07789 -0.048162,-0.243782 -0.136161,-0.482212 -0.1474582,-0.730751 0.05827,-0.252106 0.1991875,-0.477455 0.2515114,-0.731345 0.023189,-0.250322 0.00535,-0.501834 0.010703,-0.75275 -2.2945215,1.857498 -4.6033132,3.698347 -6.8936726,5.561197 0.2098902,0.343078 0.2616195,0.740859 0.278268,1.135666 -0.5904276,0.04995 -1.18144971,0.08859 -1.77187726,0.143296 -0.01664852,-0.225349 -0.05826979,-0.450104 -0.04756718,-0.676054 0.0689724,-0.30443 0.26161946,-0.569617 0.30918663,-0.879398 0.004162,-0.3627 -0.0327024,-0.724211 -0.0208106,-1.08691 0.35913217,-0.03687 0.72183181,-0.03865 1.07977481,-0.08919 0.1474582,-0.0666 0.2634032,-0.186701 0.3930238,-0.281241 2.324251,-1.802201 4.6479074,-3.604402 6.972753,-5.405414 0.00178,-0.173621 -0.010108,-0.34843 0.011892,-0.520861 0.023189,-0.16589 0.1920525,-0.242593 0.3079975,-0.337727 5.946e-4,-1.733229 0.00357,-3.465863 0.00654,-5.198497 -0.07254,-0.08622 -0.1926471,-0.159945 -0.1789715,-0.287187 -0.00357,-0.357943 -0.00714,-0.715886 0.00178,-1.073235 -0.00892,-0.171241 0.1771878,-0.233673 0.2919436,-0.315727 0.010703,-1.806363 0.00832,-3.612727 0.017838,-5.41909 -0.6278867,-0.01249 -1.2539897,-0.0654 -1.8800926,-0.111188 -0.321673,0.01367 -0.6457244,-0.0065 -0.9566948,-0.09395 -0.1183233,-0.05411 -0.2360521,0.01427 -0.3478349,0.05232 C 5.3369879,30.223667 4.6579665,30.47934 3.984891,30.749284 3.590678,30.647609 3.2006272,30.532259 2.8058197,30.434152 2.7784685,29.959669 2.7915495,29.483997 2.777874,29.009515 2.1612845,28.752652 1.5256681,28.438709 1.1219417,27.88574 0.96199711,27.695472 0.96378088,27.434447 0.94356483,27.200773 c -0.10524237,0.0018 -0.21167392,0.01427 -0.31572712,-0.0048 -0.11713417,-0.431077 -0.0219998,-0.878209 -0.0338916,-1.315827 -0.059459,-0.02319 -0.11951253,-0.04638 -0.1789715,-0.06897 -0.0404321,-0.351403 -0.0683778,-0.705778 -0.0451888,-1.059559 0.10226942,-0.04103 0.20513344,-0.08205 0.30799746,-0.12308 0.0493509,-0.303241 0.0963235,-0.608265 0.0850263,-0.916263 -0.0160539,-0.47032 0.0124864,-0.951938 -0.12070171,-1.408583 -0.0969181,-0.05708 -0.20513344,-0.09097 -0.30978122,-0.130215 -0.0517293,-0.3407 -0.0445942,-0.685562 -0.0606482,-1.02864 0.0731345,-0.04935 0.16351216,-0.08027 0.21940359,-0.150431 0.0214052,-0.22535 -0.046378,-0.444753 -0.0558914,-0.667724 -0.0107026,-0.224161 0.002378,-0.448916 0.020216,-0.671887 0.11237745,-5.94e-4 0.22416031,-5.94e-4 0.33653776,0.0018 -0.001189,-0.191458 -5.9459e-4,-0.382916 0,-0.573779 0.14567447,-0.241998 0.33832151,-0.456645 0.58507621,-0.597563 0.7426425,-0.442374 1.5970678,-0.63621 2.4318717,-0.821128 0.2158361,-0.05827 0.4352397,-0.105242 0.6576162,-0.128431 0.4780501,-0.03865 0.9436138,-0.174215 1.4252315,-0.169458 1.4008532,-0.136161 2.8088415,-0.171837 4.215046,-0.143296 0.02676,-1.743337 0.01962,-3.486674 0.03032,-5.230011 C 9.8410046,11.947169 9.5264667,11.96798 9.2458204,11.854413 8.9865793,11.670685 8.9497147,11.324634 8.8902557,11.037447 8.5989068,10.975015 8.5792853,10.639072 8.6006906,10.397074 8.6197174,10.1634 8.6976087,9.8435111 8.9895522,9.8452949 9.1049026,9.5592973 9.2160909,9.139517 9.5776014,9.1008686 c 0.6986426,0.048756 1.3943126,0.1456745 2.0917666,0.2146469 1.65177,-1.1957198 3.307702,-2.3860884 4.954121,-3.5895376 -0.08086,-0.3924291 -0.07314,-0.8264796 0.124269,-1.183828 0.09514,-0.1878903 0.329403,-0.091567 0.494104,-0.098702 0.02795,-0.4096723 0.01962,-0.8199392 0.03389,-1.2296114 -2.307603,0.049945 -4.616394,0.057081 -6.923997,-0.00119 C 9.3772247,3.1662694 8.3985301,3.1460533 7.4323219,3.0009735 7.2259992,2.9742169 7.0250279,2.9105958 6.8537861,2.7892995 6.9209747,2.7054624 6.9762716,2.5942741 7.091622,2.5698959 7.5678883,2.4200593 8.0691274,2.3742759 8.5620422,2.3088711 10.816132,2.0567651 13.084491,1.9651982 15.349878,1.8664964 15.714956,1.7891994 16.070521,1.6673088 16.44095,1.6078499 16.44865,1.2380151 16.457,0.8681803 16.46354,0.49834551 c 0.201566,-0.0356754 0.40551,-0.0529185 0.610644,-0.0570806 0.0054,-0.14389664 0.0071,-0.28838194 0.01428,-0.43286722 M 0.79551795,20.576443 c 0.003568,0.153999 5.9459e-4,0.310971 0.0291349,0.463186 0.0749183,0.01486 0.15043119,0.022 0.22534945,0.03211 -0.099891,-0.156974 -0.18075523,-0.324648 -0.25448435,-0.495296 M 34.698426,21.339302 c -0.02022,0.06897 -0.04043,0.137945 -0.06005,0.207512 -0.409078,0 -0.850263,-0.17481 -1.239125,0.0065 -0.335943,0.273511 -0.573184,0.651076 -0.900803,0.934695 -0.148648,0.05054 -0.316917,-0.0059 -0.47151,-0.0071 -0.164107,0.430483 -0.271133,0.879398 -0.396591,1.321773 -0.09454,0.444753 -0.02497,0.907344 -0.142702,1.349124 0.03746,0.0547 0.07551,0.10881 0.113567,0.164107 0.587454,-0.04876 1.176098,-0.04935 1.764147,-0.02081 0.55772,-0.0095 1.105343,0.107621 1.657122,0.172431 0.370429,0.04222 0.727778,0.15162 1.088099,0.240214 0.08205,-1.047072 0.162323,-2.094739 0.247944,-3.141812 -0.42751,-0.250916 -0.74621,-0.669508 -0.860372,-1.153504 -0.265781,-0.03151 -0.532752,-0.05232 -0.799723,-0.07313 m 6.950754,1.322962 c -0.161134,1.680905 -0.312749,3.362405 -0.472105,5.04331 0.416808,0.244971 0.831837,0.49232 1.251612,0.733129 0.276484,0.147458 0.482807,0.403131 0.640373,0.667724 -0.03627,0.195025 -0.100486,0.38351 -0.155188,0.573779 0.230701,0.355565 0.476861,0.706967 0.803291,0.982262 0.442969,0.382321 0.853236,0.805074 1.336043,1.139234 0.14389,-0.104053 0.28897,-0.207512 0.43405,-0.310376 0.489942,0.2967 1.013775,0.547023 1.444853,0.931127 0.157566,-1.417501 0.315132,-2.835598 0.472104,-4.253099 -0.01546,-0.271728 -0.109404,-0.56605 -0.319889,-0.751562 -0.296106,-0.287781 -0.585671,-0.581509 -0.87702,-0.873452 -0.0773,0.03687 -0.153999,0.07313 -0.230701,0.108215 -0.227728,-0.276484 -0.454266,-0.553563 -0.683778,-0.827669 -0.124269,-0.15162 -0.275295,-0.295511 -0.315727,-0.495293 -0.961451,-0.982856 -1.941335,-1.947281 -2.912895,-2.920624 -0.134972,0.08919 -0.2747,0.172431 -0.415023,0.253295 M 14.33849,29.774746 c -0.99237,0.159944 -1.993065,0.26697 -2.997327,0.313943 -0.0095,1.149936 -0.02557,2.299278 -0.02497,3.44862 0.132594,0.08086 0.337133,0.150431 0.329998,0.340105 0.0113,0.439997 -0.0042,0.881182 -0.0059,1.321773 0.170052,0.04638 0.338321,0.09751 0.505401,0.155188 0.549996,0.171837 1.039343,0.552969 1.328313,1.053018 0.06957,0.130216 0.151621,0.365673 -0.02854,0.44297 -0.20335,0.05649 -0.40551,-0.06303 -0.598157,-0.11654 -0.460213,-0.136161 -0.849669,-0.429294 -1.208801,-0.737886 -0.01368,0.246161 0.0012,0.494104 -0.01903,0.740859 -0.0077,0.129621 -0.128431,0.20335 -0.208701,0.29016 -0.02022,2.142306 -0.04043,4.284613 -0.06005,6.42692 2.124469,1.406204 4.251316,2.809436 6.375785,4.216235 0.06778,0.0434 0.143296,0.08384 0.227728,0.06957 0.300862,-0.02081 0.60113,-0.05173 0.903181,-0.06065 0.219404,0.384105 0.120107,0.827669 0.121891,1.24626 -0.02141,0.328213 0.152215,0.622535 0.236647,0.930533 0.136755,-0.0095 0.273511,-0.01902 0.410267,-0.02854 -0.118918,-0.47032 -0.23962,-0.94064 -0.362105,-1.409772 -0.05768,-0.200965 -0.02854,-0.410861 -0.05173,-0.614805 -0.121891,-0.303836 -0.327024,-0.567239 -0.445347,-0.873453 -0.347835,-0.864533 -0.696859,-1.727877 -1.035181,-2.595978 -0.105837,-0.313944 -0.434645,-0.473294 -0.583887,-0.761075 -0.02141,-0.512536 0.03032,-1.026262 0.02319,-1.538798 -0.0059,-0.242593 -0.127837,-0.45724 -0.216431,-0.676049 -0.124863,-0.304429 -0.261025,-0.610049 -0.315132,-0.936478 0.02141,-0.201566 0.231295,-0.263998 0.401348,-0.283025 0.0107,-0.520266 0.04459,-1.039343 0.088,-1.557224 0.01665,-0.284214 0.140918,-0.545239 0.178972,-0.825291 0.07076,-0.444753 0.175998,-0.882371 0.322267,-1.308097 0.155783,-0.563077 0.358538,-1.109504 0.604103,-1.639284 0.239025,-0.636805 0.605887,-1.211179 0.92756,-1.807552 0.233079,-0.394213 0.516699,-0.755129 0.770588,-1.135667 0.176594,-0.273511 0.395997,-0.51432 0.600536,-0.765831 -0.891885,-0.252701 -1.753445,-0.610644 -2.567438,-1.053613 -0.163512,0.07432 -0.327619,0.147458 -0.491131,0.221782 -0.743237,-0.188485 -1.487664,-0.371619 -2.229712,-0.563077 -0.302646,-0.09276 -0.602319,0.0654 -0.906154,0.07075 m -3.047867,20.292751 c 0.154593,0.114761 0.354376,0.242592 0.341889,0.463185 0.0071,0.52859 -0.01011,1.05718 -0.01249,1.585771 0.69567,0.418591 1.39788,0.826479 2.092361,1.246854 0.08741,-0.101675 0.17362,-0.204539 0.261025,-0.306213 0.268754,0.04876 0.537509,0.0987 0.802101,0.168863 -0.003,0.370429 -0.02616,0.741453 -0.01605,1.111883 0.07849,0.305024 0.255079,0.575562 0.357943,0.873452 -0.09097,0.117729 -0.178971,0.23843 -0.244376,0.372808 0.218214,-0.109999 0.400753,-0.275295 0.593995,-0.422754 1.098802,-0.852047 2.197603,-1.704094 3.296405,-2.556735 -0.04935,-0.193242 -0.07968,-0.392429 -0.07135,-0.592212 0.01903,-0.606481 0.03449,-1.212962 0.06065,-1.819444 -0.356754,0.02676 -0.712319,0.07432 -1.069667,0.07908 -0.121891,-0.188484 -0.165296,-0.417401 -0.246755,-0.624907 0.09513,-0.200972 0.191458,-0.401348 0.287187,-0.60113 -2.128037,-1.454961 -4.255479,-2.909922 -6.383515,-4.364289 -0.01427,1.795061 -0.0327,3.590127 -0.04935,5.385788 m -1.9348516,-4.16748 c 0.024973,0.195025 0.098702,0.379942 0.1427015,0.571995 l 0.039243,-0.0024 c -0.010108,-0.369813 0.00297,-0.740243 -0.00535,-1.110672 -0.063621,0.178377 -0.1456744,0.353186 -0.1765931,0.541077 m 45.8571336,4.924986 c -0.02259,0.104642 -0.044,0.20989 -0.06718,0.314538 -0.181945,0.212863 -0.207518,0.503617 -0.293139,0.759885 0.642751,-0.5714 1.302151,-1.124963 1.935984,-1.705877 -0.523834,0.214647 -1.052424,0.416807 -1.575663,0.631454 M 15.47891,56.08415 c 1.224854,1.183233 2.453277,2.363493 3.684077,3.540185 0.363889,0.16589 0.784859,0.17422 1.169558,0.286598 -0.0012,0.06243 -0.003,0.188479 -0.0036,0.251511 0.309186,-0.240214 0.617778,-0.481617 0.928154,-0.719451 -0.205728,-0.510753 -0.09454,-1.066106 -0.09216,-1.599447 0.0327,-0.435239 0.01427,-0.874641 0.06897,-1.307502 0.02319,-0.220593 0.305619,-0.142107 0.454861,-0.180756 -0.265781,-0.704588 -0.54286,-1.40442 -0.81102,-2.10782 -0.481618,0.03805 -0.962641,0.09097 -1.444853,0.121891 -0.164107,-0.365673 -0.281835,-0.749183 -0.424537,-1.122585 -1.183233,0.937067 -2.352791,1.891978 -3.529484,2.837376 z"
   id="path2"
   style="fill:#ffffff;fill-opacity:1;stroke-width:0.059459" />
</svg>
