<?xml version="1.0" encoding="UTF-8" standalone="no"?>
<!-- Generator: Adobe Illustrator 14.0.0, SVG Export Plug-In . SVG Version: 6.00 Build 43363)  -->

<svg
   version="1.1"
   id="Capa_1"
   x="0px"
   y="0px"
   width="111.555"
   height="111.555"
   viewBox="0 0 111.555 111.555"
   enable-background="new 0 0 49.44 49.43"
   xml:space="preserve"
   sodipodi:docname="hitHatOpen.svg"
   inkscape:version="1.1.2 (76b9e6a115, 2022-02-25)"
   xmlns:inkscape="http://www.inkscape.org/namespaces/inkscape"
   xmlns:sodipodi="http://sodipodi.sourceforge.net/DTD/sodipodi-0.dtd"
   xmlns="http://www.w3.org/2000/svg"
   xmlns:svg="http://www.w3.org/2000/svg"><defs
   id="defs810" /><sodipodi:namedview
   id="namedview808"
   pagecolor="#ffffff"
   bordercolor="#666666"
   borderopacity="1.0"
   inkscape:pageshadow="2"
   inkscape:pageopacity="0.0"
   inkscape:pagecheckerboard="0"
   showgrid="false"
   fit-margin-top="0"
   fit-margin-left="0"
   fit-margin-right="0"
   fit-margin-bottom="0"
   inkscape:zoom="4.825005"
   inkscape:cx="37.409288"
   inkscape:cy="74.507695"
   inkscape:window-width="1848"
   inkscape:window-height="1016"
   inkscape:window-x="72"
   inkscape:window-y="27"
   inkscape:window-maximized="1"
   inkscape:current-layer="Capa_1" />
<g
   id="g805"
   transform="matrix(2.25,0,0,2.25,0.15525001,0.16875001)">
	<g
   id="XMLID_22_">
		<g
   id="g762">
			<path
   d="m 31.306,38.83 c 1.93,-0.91 3.649,-2.19 5.069,-3.78 1.41,-1.59 2.48,-3.46 3.141,-5.48 0.609,-1.869 0.859,-3.829 0.75,-5.799 -0.12,-1.95 -0.61,-3.86 -1.44,-5.64 -0.9,-1.93 -2.18,-3.65 -3.78,-5.06 -1.59,-1.42 -3.449,-2.49 -5.47,-3.15 -1.87,-0.61 -3.83,-0.86 -5.79,-0.74 -1.96,0.11 -3.88,0.59 -5.66,1.42 -1.92,0.91 -3.65,2.2 -5.06,3.79 -1.41,1.59 -2.48,3.45 -3.14,5.48 -0.61,1.86 -0.87,3.81 -0.75,5.78 0.12,1.95 0.61,3.87 1.44,5.66 0.9,1.931 2.18,3.65 3.77,5.061 1.6,1.399 3.46,2.47 5.48,3.14 1.87,0.62 3.83,0.87 5.79,0.75 1.96,-0.12 3.879,-0.602 5.65,-1.432 z M 47.695,15.62 c 1.15,2.89 1.74,5.97 1.74,9.1 0,3.11 -0.59,6.2 -1.74,9.1 -1.24,3.141 -3.11,5.99 -5.5,8.36 -2.39,2.4 -5.24,4.28 -8.38,5.521 -2.9,1.14 -5.98,1.729 -9.1,1.729 -3.11,0 -6.2,-0.59 -9.09,-1.729 -3.14,-1.24 -6,-3.12 -8.38,-5.521 -2.39,-2.37 -4.26,-5.22 -5.51,-8.36 -1.14,-2.899 -1.73,-5.989 -1.73,-9.1 0,-3.13 0.59,-6.21 1.73,-9.1 1.25,-3.14 3.12,-5.99 5.51,-8.38 2.39,-2.4 5.24,-4.26 8.38,-5.5 2.89,-1.15 5.98,-1.74 9.09,-1.74 3.12,0 6.2,0.59 9.1,1.74 3.14,1.24 5.99,3.1 8.38,5.5 2.39,2.39 4.26,5.24 5.5,8.38 z"
   id="path742" />
			<path
   d="m 26.905,23.2 c 0.22,0.43 0.34,0.93 0.34,1.52 0,0.59 -0.12,1.09 -0.34,1.51 -0.23,0.42 -0.53,0.74 -0.91,0.95 -0.39,0.23 -0.81,0.33 -1.28,0.33 -0.45,0 -0.87,-0.1 -1.25,-0.33 -0.39,-0.21 -0.7,-0.53 -0.93,-0.95 -0.22,-0.42 -0.34,-0.92 -0.34,-1.51 0,-0.59 0.11,-1.09 0.33,-1.52 0.23,-0.43 0.53,-0.73 0.91,-0.95 0.39,-0.21 0.81,-0.32 1.28,-0.32 0.47,0 0.9,0.11 1.28,0.32 0.38,0.22 0.68,0.52 0.91,0.95 z"
   id="path744" />
			<path
   d="m 18.975,22.43 c 0.31,-0.77 0.78,-1.48 1.37,-2.09 0.6,-0.59 1.31,-1.07 2.1,-1.37 0.72,-0.29 1.49,-0.43 2.27,-0.43 0.78,0 1.55,0.14 2.28,0.43 0.78,0.3 1.5,0.78 2.09,1.37 0.601,0.61 1.07,1.32 1.38,2.09 0.29,0.74 0.431,1.5 0.431,2.29 0,0.78 -0.141,1.54 -0.431,2.271 -0.31,0.779 -0.779,1.5 -1.38,2.1 -0.59,0.59 -1.31,1.06 -2.09,1.37 -0.729,0.29 -1.5,0.439 -2.28,0.439 -0.78,0 -1.55,-0.149 -2.27,-0.439 -0.79,-0.311 -1.5,-0.78 -2.1,-1.37 -0.59,-0.6 -1.06,-1.32 -1.37,-2.1 -0.29,-0.73 -0.44,-1.49 -0.44,-2.271 0,-0.79 0.15,-1.55 0.44,-2.29 z m 3.88,-1.08 c -0.57,0.32 -1.02,0.77 -1.35,1.33 -0.34,0.58 -0.51,1.25 -0.51,2.03 0,0.77 0.17,1.439 0.51,2.02 0.33,0.58 0.78,1.021 1.35,1.34 0.57,0.311 1.19,0.471 1.86,0.471 0.68,0 1.3,-0.16 1.86,-0.471 0.57,-0.319 1.03,-0.76 1.36,-1.34 0.34,-0.58 0.51,-1.25 0.51,-2.02 0,-0.78 -0.17,-1.45 -0.51,-2.03 -0.33,-0.56 -0.79,-1.01 -1.36,-1.33 -0.56,-0.3 -1.18,-0.45 -1.86,-0.45 -0.67,0 -1.29,0.15 -1.86,0.45 z"
   id="path746" />
			<path
   d="m 21.585,18 c 0.84,-0.41 1.76,-0.63 2.69,-0.68 0.93,-0.06 1.87,0.06 2.75,0.35 0.97,0.32 1.85,0.83 2.61,1.5 0.76,0.67 1.369,1.49 1.8,2.41 0.399,0.85 0.63,1.76 0.689,2.68 0.05,0.95 -0.069,1.88 -0.359,2.76 -0.32,0.971 -0.83,1.86 -1.5,2.62 -0.67,0.76 -1.49,1.37 -2.41,1.79 -0.84,0.4 -1.76,0.63 -2.69,0.69 -0.93,0.06 -1.87,-0.061 -2.76,-0.36 -0.96,-0.31 -1.85,-0.83 -2.6,-1.5 -0.76,-0.67 -1.37,-1.5 -1.8,-2.41 -0.4,-0.84 -0.63,-1.76 -0.69,-2.69 -0.05,-0.93 0.07,-1.86 0.36,-2.75 0.31,-0.98 0.82,-1.85 1.5,-2.61 0.67,-0.76 1.49,-1.37 2.41,-1.8 z m -1.46,11.9 c 0.71,0.61 1.54,1.101 2.44,1.391 0.83,0.279 1.7,0.39 2.57,0.34 0.87,-0.061 1.72,-0.28 2.51,-0.64 0.859,-0.4 1.62,-0.98 2.25,-1.681 0.63,-0.72 1.109,-1.55 1.399,-2.439 0.271,-0.83 0.38,-1.7 0.33,-2.57 -0.05,-0.87 -0.27,-1.72 -0.64,-2.51 -0.4,-0.86 -0.97,-1.62 -1.68,-2.25 -0.7,-0.63 -1.53,-1.11 -2.431,-1.4 -0.83,-0.27 -1.7,-0.38 -2.57,-0.33 -0.87,0.04 -1.72,0.27 -2.52,0.64 -0.85,0.39 -1.62,0.97 -2.24,1.68 -0.63,0.7 -1.11,1.53 -1.4,2.43 -0.27,0.83 -0.39,1.7 -0.33,2.57 0.05,0.87 0.26,1.72 0.63,2.52 0.402,0.849 0.982,1.609 1.682,2.249 z"
   id="path748" />
			<path
   d="m 19.305,30.82 c 0.84,0.74 1.81,1.301 2.87,1.65 0.98,0.32 2.01,0.45 3.03,0.38 1.03,-0.05 2.03,-0.31 2.97,-0.75 1.011,-0.46 1.91,-1.14 2.65,-1.97 0.74,-0.84 1.3,-1.811 1.64,-2.87 0.32,-0.99 0.46,-2.01 0.4,-3.03 -0.07,-1.03 -0.32,-2.03 -0.76,-2.97 -0.47,-1 -1.141,-1.92 -1.98,-2.66 -0.83,-0.72 -1.81,-1.29 -2.859,-1.63 -0.98,-0.32 -2.011,-0.46 -3.041,-0.39 -1.02,0.06 -2.03,0.31 -2.96,0.75 -1.01,0.47 -1.91,1.14 -2.65,1.98 -0.74,0.83 -1.3,1.81 -1.65,2.87 -0.32,0.97 -0.45,2 -0.39,3.03 0.06,1.02 0.32,2.03 0.75,2.96 0.48,1.01 1.15,1.91 1.98,2.65 z m 1.75,-13.94 c 0.99,-0.46 2.06,-0.73 3.14,-0.8 1.09,-0.07 2.18,0.08 3.22,0.42 1.12,0.37 2.16,0.96 3.04,1.75 0.891,0.77 1.601,1.74 2.101,2.81 0.46,0.98 0.729,2.04 0.8,3.14 0.06,1.09 -0.08,2.18 -0.42,3.21 -0.36,1.13 -0.96,2.159 -1.74,3.05 -0.79,0.88 -1.74,1.6 -2.81,2.1 -0.99,0.45 -2.061,0.73 -3.15,0.78 -1.09,0.08 -2.18,-0.07 -3.21,-0.41 -1.12,-0.36 -2.16,-0.95 -3.04,-1.75 -0.89,-0.77 -1.6,-1.729 -2.1,-2.8 -0.47,-0.99 -0.74,-2.05 -0.8,-3.14 -0.07,-1.09 0.07,-2.181 0.41,-3.23 0.37,-1.11 0.97,-2.16 1.75,-3.03 0.779,-0.89 1.739,-1.6 2.809,-2.1 z"
   id="path750" />
			<path
   d="m 24.155,15.34 c -1.18,0.07 -2.34,0.37 -3.41,0.87 -1.16,0.54 -2.2,1.31 -3.05,2.28 -0.86,0.96 -1.5,2.08 -1.9,3.3 -0.37,1.13 -0.52,2.3 -0.45,3.48 0.07,1.19 0.36,2.351 0.86,3.41 0.55,1.17 1.32,2.21 2.28,3.07 0.96,0.84 2.09,1.49 3.31,1.89 1.12,0.37 2.31,0.521 3.49,0.45 1.18,-0.08 2.34,-0.36 3.41,-0.86 1.16,-0.55 2.2,-1.319 3.05,-2.279 0.851,-0.96 1.5,-2.101 1.9,-3.311 0.37,-1.13 0.52,-2.3 0.45,-3.49 -0.07,-1.18 -0.37,-2.33 -0.87,-3.41 -0.54,-1.16 -1.32,-2.2 -2.28,-3.06 -0.96,-0.84 -2.08,-1.5 -3.3,-1.89 -1.129,-0.37 -2.31,-0.53 -3.49,-0.45 z m 9.52,5.18 c 0.53,1.14 0.841,2.36 0.91,3.6 0.08,1.25 -0.08,2.48 -0.47,3.68 -0.42,1.28 -1.1,2.46 -2,3.47 -0.89,1.021 -1.99,1.82 -3.21,2.4 -1.13,0.53 -2.35,0.84 -3.59,0.92 -1.25,0.07 -2.49,-0.09 -3.68,-0.49 -1.28,-0.42 -2.46,-1.09 -3.47,-1.979 -1.02,-0.9 -1.83,-1.99 -2.4,-3.221 -0.53,-1.14 -0.84,-2.34 -0.91,-3.59 -0.08,-1.24 0.08,-2.49 0.47,-3.67 0.42,-1.3 1.1,-2.47 2,-3.48 0.89,-1.01 1.99,-1.83 3.21,-2.4 1.13,-0.53 2.35,-0.84 3.59,-0.92 1.24,-0.08 2.49,0.09 3.669,0.48 1.29,0.42 2.471,1.1 3.48,2 1.009,0.9 1.831,1.99 2.401,3.2 z"
   id="path752" />
			<path
   d="m 32.675,31.76 c 0.961,-1.08 1.69,-2.35 2.141,-3.74 0.42,-1.26 0.59,-2.6 0.51,-3.94 -0.08,-1.34 -0.41,-2.65 -0.979,-3.86 -0.61,-1.32 -1.49,-2.49 -2.58,-3.46 -1.08,-0.96 -2.351,-1.69 -3.73,-2.14 -1.28,-0.42 -2.62,-0.6 -3.95,-0.52 -1.34,0.08 -2.65,0.41 -3.86,0.99 -1.32,0.61 -2.5,1.49 -3.46,2.58 -0.96,1.08 -1.69,2.35 -2.14,3.74 -0.42,1.27 -0.6,2.6 -0.51,3.94 0.08,1.33 0.41,2.65 0.98,3.87 0.61,1.3 1.49,2.49 2.57,3.45 1.09,0.96 2.36,1.68 3.74,2.149 1.28,0.41 2.61,0.591 3.95,0.511 1.34,-0.08 2.649,-0.42 3.859,-0.99 1.319,-0.61 2.489,-1.5 3.459,-2.58 z m 2.12,-11.75 c 0.591,1.26 0.94,2.64 1.03,4.04 0.08,1.4 -0.1,2.79 -0.54,4.13 -0.47,1.45 -1.24,2.78 -2.24,3.91 -1.01,1.14 -2.239,2.06 -3.62,2.7 -1.27,0.6 -2.64,0.95 -4.039,1.029 -1.4,0.08 -2.8,-0.1 -4.13,-0.529 -1.45,-0.48 -2.78,-1.24 -3.91,-2.25 -1.14,-1.021 -2.06,-2.24 -2.7,-3.61 -0.6,-1.28 -0.94,-2.64 -1.03,-4.04 -0.08,-1.4 0.1,-2.81 0.54,-4.14 0.47,-1.44 1.23,-2.77 2.24,-3.91 1.01,-1.14 2.24,-2.07 3.62,-2.7 1.27,-0.59 2.64,-0.94 4.04,-1.02 1.4,-0.1 2.8,0.09 4.13,0.53 1.439,0.47 2.77,1.24 3.91,2.25 1.139,1 2.059,2.23 2.699,3.61 z"
   id="path754" />
			<path
   d="m 35.915,19.49 c 0.66,1.41 1.05,2.93 1.141,4.49 0.09,1.54 -0.11,3.11 -0.591,4.589 -0.529,1.601 -1.38,3.08 -2.5,4.351 -1.119,1.26 -2.489,2.28 -4.02,2.99 -1.41,0.659 -2.93,1.05 -4.48,1.14 -1.56,0.1 -3.12,-0.1 -4.6,-0.59 -1.6,-0.53 -3.08,-1.37 -4.34,-2.49 -1.27,-1.13 -2.29,-2.49 -3,-4.02 -0.66,-1.41 -1.05,-2.94 -1.14,-4.49 -0.1,-1.56 0.11,-3.12 0.59,-4.59 0.53,-1.61 1.38,-3.1 2.5,-4.36 1.12,-1.25 2.48,-2.27 4.01,-3 1.42,-0.66 2.94,-1.03 4.49,-1.13 1.56,-0.09 3.11,0.11 4.59,0.6 1.609,0.52 3.09,1.36 4.35,2.49 1.271,1.12 2.29,2.49 3,4.02 z m 0.65,4.52 c -0.09,-1.5 -0.46,-2.96 -1.101,-4.31 -0.68,-1.47 -1.659,-2.78 -2.88,-3.86 -1.21,-1.08 -2.63,-1.89 -4.17,-2.41 -1.42,-0.45 -2.92,-0.64 -4.41,-0.55 -1.49,0.09 -2.95,0.46 -4.31,1.09 -1.47,0.69 -2.78,1.67 -3.85,2.87 -1.08,1.22 -1.89,2.64 -2.4,4.17 -0.47,1.42 -0.66,2.92 -0.57,4.42 0.09,1.49 0.46,2.95 1.1,4.311 0.68,1.47 1.66,2.77 2.87,3.85 1.22,1.08 2.64,1.9 4.18,2.4 1.42,0.47 2.91,0.659 4.41,0.569 1.489,-0.09 2.95,-0.47 4.31,-1.09 1.46,-0.7 2.78,-1.67 3.851,-2.88 1.079,-1.21 1.89,-2.63 2.399,-4.18 0.461,-1.42 0.661,-2.91 0.571,-4.4 z"
   id="path756" />
			<path
   d="m 33.735,14.55 c 1.39,1.22 2.51,2.72 3.3,4.41 0.73,1.55 1.15,3.22 1.25,4.94 0.11,1.7 -0.12,3.419 -0.649,5.05 -0.58,1.77 -1.511,3.39 -2.74,4.79 -1.24,1.39 -2.74,2.51 -4.42,3.279 -1.561,0.74 -3.23,1.16 -4.94,1.271 -1.71,0.1 -3.42,-0.12 -5.05,-0.66 -1.77,-0.57 -3.39,-1.51 -4.78,-2.74 -1.39,-1.229 -2.52,-2.74 -3.3,-4.42 -0.73,-1.55 -1.15,-3.22 -1.26,-4.95 -0.1,-1.7 0.12,-3.42 0.66,-5.04 0.58,-1.76 1.51,-3.39 2.74,-4.78 1.23,-1.39 2.74,-2.52 4.42,-3.3 1.55,-0.72 3.23,-1.15 4.94,-1.25 1.71,-0.1 3.42,0.11 5.05,0.65 1.759,0.58 3.39,1.51 4.779,2.75 z m 4.06,9.38 c -0.1,-1.66 -0.51,-3.26 -1.21,-4.76 -0.76,-1.62 -1.84,-3.08 -3.18,-4.25 -1.34,-1.19 -2.9,-2.09 -4.6,-2.66 -1.57,-0.5 -3.221,-0.72 -4.871,-0.62 -1.65,0.1 -3.26,0.51 -4.76,1.2 -1.62,0.76 -3.07,1.84 -4.26,3.18 -1.19,1.35 -2.09,2.91 -2.64,4.62 -0.52,1.57 -0.73,3.21 -0.63,4.86 0.1,1.649 0.51,3.26 1.21,4.76 0.75,1.62 1.83,3.07 3.17,4.25 1.34,1.2 2.91,2.09 4.61,2.66 1.57,0.51 3.22,0.72 4.87,0.62 1.65,-0.11 3.261,-0.5 4.761,-1.2 1.62,-0.76 3.069,-1.84 4.26,-3.18 1.18,-1.341 2.08,-2.91 2.64,-4.61 0.521,-1.57 0.731,-3.22 0.63,-4.87 z"
   id="path758" />
			<path
   d="m 34.556,13.62 c 1.52,1.35 2.739,2.98 3.6,4.81 0.79,1.71 1.25,3.53 1.37,5.4 0.11,1.85 -0.13,3.73 -0.72,5.51 -0.631,1.92 -1.641,3.7 -2.99,5.22 -1.34,1.51 -2.98,2.74 -4.82,3.59 -1.689,0.801 -3.52,1.261 -5.39,1.36 -1.86,0.12 -3.73,-0.12 -5.51,-0.7 -1.92,-0.63 -3.7,-1.649 -5.21,-3 -1.52,-1.34 -2.74,-2.979 -3.6,-4.81 -0.79,-1.7 -1.26,-3.521 -1.37,-5.4 -0.11,-1.86 0.13,-3.73 0.71,-5.51 0.63,-1.92 1.65,-3.69 3,-5.21 1.34,-1.53 2.98,-2.74 4.82,-3.61 1.69,-0.78 3.52,-1.25 5.38,-1.35 1.87,-0.12 3.74,0.12 5.51,0.71 1.93,0.63 3.699,1.64 5.22,2.99 z m 0.889,20.61 c 1.3,-1.47 2.28,-3.18 2.9,-5.05 0.56,-1.71 0.79,-3.52 0.68,-5.33 -0.11,-1.8 -0.55,-3.56 -1.32,-5.2 -0.83,-1.77 -2.01,-3.36 -3.479,-4.66 -1.46,-1.31 -3.181,-2.28 -5.04,-2.9 -1.721,-0.57 -3.521,-0.79 -5.33,-0.68 -1.8,0.1 -3.57,0.56 -5.2,1.32 -1.78,0.83 -3.36,2.01 -4.66,3.48 -1.3,1.46 -2.29,3.18 -2.9,5.04 -0.56,1.72 -0.79,3.51 -0.69,5.33 0.11,1.8 0.56,3.569 1.33,5.21 0.83,1.77 2.01,3.359 3.47,4.64 1.47,1.311 3.19,2.3 5.05,2.91 1.72,0.56 3.52,0.8 5.32,0.68 1.811,-0.1 3.57,-0.55 5.21,-1.31 1.779,-0.83 3.36,-2.03 4.659,-3.48 z"
   id="path760" />
		</g>
		<g
   id="g802">
			<path
   fill="none"
   stroke="#000000"
   stroke-width="0.15"
   stroke-linecap="round"
   stroke-linejoin="round"
   d="m 24.715,27.51 c 0.47,0 0.89,-0.1 1.28,-0.33 0.38,-0.21 0.68,-0.53 0.91,-0.95 0.22,-0.42 0.34,-0.92 0.34,-1.51 0,-0.59 -0.12,-1.09 -0.34,-1.52 -0.23,-0.43 -0.53,-0.73 -0.91,-0.95 -0.38,-0.21 -0.81,-0.32 -1.28,-0.32 -0.47,0 -0.89,0.11 -1.28,0.32 -0.38,0.22 -0.68,0.52 -0.91,0.95 -0.22,0.43 -0.33,0.93 -0.33,1.52 0,0.59 0.12,1.09 0.34,1.51 0.23,0.42 0.54,0.74 0.93,0.95 0.38,0.23 0.8,0.33 1.25,0.33 z"
   id="path764" />
			<path
   fill="none"
   stroke="#000000"
   stroke-width="0.15"
   stroke-linecap="round"
   stroke-linejoin="round"
   d="m 24.715,28.54 c 0.68,0 1.3,-0.16 1.86,-0.471 0.57,-0.319 1.03,-0.76 1.36,-1.34 0.34,-0.58 0.51,-1.25 0.51,-2.02 0,-0.78 -0.17,-1.45 -0.51,-2.03 -0.33,-0.56 -0.79,-1.01 -1.36,-1.33 -0.56,-0.3 -1.18,-0.45 -1.86,-0.45 -0.67,0 -1.29,0.15 -1.86,0.45 -0.57,0.32 -1.02,0.77 -1.35,1.33 -0.34,0.58 -0.51,1.25 -0.51,2.03 0,0.77 0.17,1.439 0.51,2.02 0.33,0.58 0.78,1.021 1.35,1.34 0.57,0.311 1.19,0.471 1.86,0.471 z"
   id="path766" />
			<path
   fill="none"
   stroke="#000000"
   stroke-width="0.15"
   stroke-linecap="round"
   stroke-linejoin="round"
   d="m 23.785,9.18 c -1.96,0.11 -3.88,0.59 -5.66,1.42 -1.92,0.91 -3.65,2.2 -5.06,3.79 -1.41,1.59 -2.48,3.45 -3.14,5.48 -0.61,1.86 -0.87,3.81 -0.75,5.78 0.12,1.95 0.61,3.87 1.44,5.66 0.9,1.931 2.18,3.65 3.77,5.061 1.6,1.399 3.46,2.47 5.48,3.14 1.87,0.62 3.83,0.87 5.79,0.75 1.96,-0.12 3.88,-0.6 5.65,-1.43 1.93,-0.91 3.649,-2.19 5.069,-3.78 1.41,-1.59 2.48,-3.46 3.141,-5.48 0.609,-1.869 0.859,-3.829 0.75,-5.799 -0.12,-1.95 -0.61,-3.86 -1.44,-5.64 -0.9,-1.93 -2.18,-3.65 -3.78,-5.06 -1.59,-1.42 -3.449,-2.49 -5.47,-3.15 C 27.705,9.31 25.745,9.06 23.785,9.18 Z"
   id="path768" />
			<path
   fill="none"
   stroke="#000000"
   stroke-width="0.15"
   stroke-linecap="round"
   stroke-linejoin="round"
   d="m 24.305,17.81 c -0.87,0.04 -1.72,0.27 -2.52,0.64 -0.85,0.39 -1.62,0.97 -2.24,1.68 -0.63,0.7 -1.11,1.53 -1.4,2.43 -0.27,0.83 -0.39,1.7 -0.33,2.57 0.05,0.87 0.26,1.72 0.63,2.52 0.4,0.851 0.98,1.61 1.68,2.25 0.71,0.61 1.54,1.101 2.44,1.391 0.83,0.279 1.7,0.39 2.57,0.34 0.87,-0.061 1.72,-0.28 2.51,-0.64 0.859,-0.4 1.62,-0.98 2.25,-1.681 0.63,-0.72 1.109,-1.55 1.399,-2.439 0.271,-0.83 0.38,-1.7 0.33,-2.57 -0.05,-0.87 -0.27,-1.72 -0.64,-2.51 -0.4,-0.86 -0.97,-1.62 -1.68,-2.25 -0.7,-0.63 -1.53,-1.11 -2.431,-1.4 C 26.045,17.87 25.175,17.76 24.305,17.81 Z"
   id="path770" />
			<path
   fill="none"
   stroke="#000000"
   stroke-width="0.15"
   stroke-linecap="round"
   stroke-linejoin="round"
   d="m 24.275,17.32 c -0.93,0.05 -1.85,0.27 -2.69,0.68 -0.92,0.43 -1.74,1.04 -2.41,1.8 -0.68,0.76 -1.19,1.63 -1.5,2.61 -0.29,0.89 -0.41,1.82 -0.36,2.75 0.06,0.93 0.29,1.85 0.69,2.69 0.43,0.91 1.04,1.74 1.8,2.41 0.75,0.67 1.64,1.19 2.6,1.5 0.89,0.3 1.83,0.42 2.76,0.36 0.931,-0.061 1.851,-0.29 2.69,-0.69 0.92,-0.42 1.74,-1.03 2.41,-1.79 0.67,-0.76 1.18,-1.649 1.5,-2.62 0.29,-0.88 0.409,-1.81 0.359,-2.76 -0.06,-0.92 -0.29,-1.83 -0.689,-2.68 -0.431,-0.92 -1.04,-1.74 -1.8,-2.41 -0.761,-0.67 -1.641,-1.18 -2.61,-1.5 -0.879,-0.29 -1.82,-0.41 -2.75,-0.35 z"
   id="path772" />
			<path
   fill="none"
   stroke="#000000"
   stroke-width="0.15"
   stroke-linecap="round"
   stroke-linejoin="round"
   d="m 24.225,16.58 c -1.02,0.06 -2.03,0.31 -2.96,0.75 -1.01,0.47 -1.91,1.14 -2.65,1.98 -0.74,0.83 -1.3,1.81 -1.65,2.87 -0.32,0.97 -0.45,2 -0.39,3.03 0.06,1.02 0.32,2.03 0.75,2.96 0.48,1.01 1.15,1.91 1.98,2.649 0.84,0.74 1.81,1.301 2.87,1.65 0.98,0.32 2.01,0.45 3.03,0.38 1.03,-0.05 2.03,-0.31 2.97,-0.75 1.011,-0.46 1.91,-1.14 2.65,-1.97 0.74,-0.84 1.3,-1.811 1.64,-2.87 0.32,-0.99 0.46,-2.01 0.4,-3.03 -0.07,-1.03 -0.32,-2.03 -0.76,-2.97 -0.47,-1 -1.141,-1.92 -1.98,-2.66 -0.83,-0.72 -1.81,-1.29 -2.859,-1.63 C 26.285,16.65 25.255,16.51 24.225,16.58 Z"
   id="path774" />
			<path
   fill="none"
   stroke="#000000"
   stroke-width="0.15"
   stroke-linecap="round"
   stroke-linejoin="round"
   d="m 24.195,16.08 c -1.08,0.07 -2.15,0.34 -3.14,0.8 -1.07,0.5 -2.03,1.21 -2.81,2.1 -0.78,0.87 -1.38,1.92 -1.75,3.03 -0.34,1.05 -0.48,2.14 -0.41,3.23 0.06,1.09 0.33,2.149 0.8,3.14 0.5,1.07 1.21,2.03 2.1,2.8 0.88,0.8 1.92,1.39 3.04,1.75 1.03,0.34 2.12,0.49 3.21,0.41 1.09,-0.05 2.16,-0.33 3.15,-0.78 1.069,-0.5 2.02,-1.22 2.81,-2.1 0.78,-0.891 1.38,-1.92 1.74,-3.05 0.34,-1.03 0.479,-2.12 0.42,-3.21 -0.07,-1.1 -0.34,-2.16 -0.8,-3.14 -0.5,-1.07 -1.21,-2.04 -2.101,-2.81 -0.88,-0.79 -1.92,-1.38 -3.04,-1.75 -1.039,-0.34 -2.129,-0.49 -3.219,-0.42 z"
   id="path776" />
			<path
   fill="none"
   stroke="#000000"
   stroke-width="0.15"
   stroke-linecap="round"
   stroke-linejoin="round"
   d="m 24.155,15.34 c -1.18,0.07 -2.34,0.37 -3.41,0.87 -1.16,0.54 -2.2,1.31 -3.05,2.28 -0.86,0.96 -1.5,2.08 -1.9,3.3 -0.37,1.13 -0.52,2.3 -0.45,3.48 0.07,1.19 0.36,2.351 0.86,3.41 0.55,1.17 1.32,2.21 2.28,3.07 0.96,0.84 2.09,1.49 3.31,1.89 1.12,0.37 2.31,0.521 3.49,0.45 1.18,-0.08 2.34,-0.36 3.41,-0.86 1.16,-0.55 2.2,-1.319 3.05,-2.279 0.851,-0.96 1.5,-2.101 1.9,-3.311 0.37,-1.13 0.52,-2.3 0.45,-3.49 -0.07,-1.18 -0.37,-2.33 -0.87,-3.41 -0.54,-1.16 -1.32,-2.2 -2.28,-3.06 -0.96,-0.84 -2.08,-1.5 -3.3,-1.89 -1.129,-0.37 -2.31,-0.53 -3.49,-0.45 z"
   id="path778" />
			<path
   fill="none"
   stroke="#000000"
   stroke-width="0.15"
   stroke-linecap="round"
   stroke-linejoin="round"
   d="m 24.125,14.84 c -1.24,0.08 -2.46,0.39 -3.59,0.92 -1.22,0.57 -2.32,1.39 -3.21,2.4 -0.9,1.01 -1.58,2.18 -2,3.48 -0.39,1.18 -0.55,2.43 -0.47,3.67 0.07,1.25 0.38,2.45 0.91,3.59 0.57,1.23 1.38,2.32 2.4,3.221 1.01,0.89 2.19,1.56 3.47,1.979 1.19,0.4 2.43,0.561 3.68,0.49 1.24,-0.08 2.46,-0.39 3.59,-0.92 1.22,-0.58 2.32,-1.38 3.21,-2.4 0.9,-1.01 1.58,-2.189 2,-3.47 0.39,-1.2 0.55,-2.43 0.47,-3.68 -0.069,-1.24 -0.38,-2.46 -0.91,-3.6 -0.569,-1.21 -1.39,-2.3 -2.399,-3.2 -1.009,-0.9 -2.19,-1.58 -3.48,-2 -1.181,-0.39 -2.431,-0.56 -3.671,-0.48 z"
   id="path780" />
			<path
   fill="none"
   stroke="#000000"
   stroke-width="0.15"
   stroke-linecap="round"
   stroke-linejoin="round"
   d="m 24.085,14.1 c -1.34,0.08 -2.65,0.41 -3.86,0.99 -1.32,0.61 -2.5,1.49 -3.46,2.58 -0.96,1.08 -1.69,2.35 -2.14,3.74 -0.42,1.27 -0.6,2.6 -0.51,3.94 0.08,1.33 0.41,2.65 0.98,3.87 0.61,1.3 1.49,2.49 2.57,3.45 1.09,0.96 2.36,1.68 3.74,2.149 1.28,0.41 2.61,0.591 3.95,0.511 1.34,-0.08 2.649,-0.42 3.859,-0.99 1.32,-0.61 2.49,-1.5 3.46,-2.58 0.961,-1.08 1.69,-2.35 2.141,-3.74 0.42,-1.26 0.59,-2.6 0.51,-3.94 -0.08,-1.34 -0.41,-2.65 -0.979,-3.86 -0.61,-1.32 -1.49,-2.49 -2.58,-3.46 -1.08,-0.96 -2.351,-1.69 -3.73,-2.14 -1.281,-0.42 -2.621,-0.6 -3.951,-0.52 z"
   id="path782" />
			<path
   fill="none"
   stroke="#000000"
   stroke-width="0.15"
   stroke-linecap="round"
   stroke-linejoin="round"
   d="m 24.055,13.62 c -1.4,0.08 -2.77,0.43 -4.04,1.02 -1.38,0.63 -2.61,1.56 -3.62,2.7 -1.01,1.14 -1.77,2.47 -2.24,3.91 -0.44,1.33 -0.62,2.74 -0.54,4.14 0.09,1.4 0.43,2.76 1.03,4.04 0.64,1.37 1.56,2.59 2.7,3.61 1.13,1.01 2.46,1.77 3.91,2.25 1.33,0.43 2.73,0.609 4.13,0.529 1.399,-0.079 2.77,-0.43 4.039,-1.029 1.381,-0.641 2.61,-1.561 3.62,-2.7 1,-1.13 1.771,-2.46 2.24,-3.91 0.44,-1.34 0.62,-2.729 0.54,-4.13 -0.09,-1.4 -0.439,-2.78 -1.03,-4.04 -0.64,-1.38 -1.56,-2.61 -2.699,-3.61 -1.141,-1.01 -2.471,-1.78 -3.91,-2.25 -1.33,-0.44 -2.73,-0.63 -4.13,-0.53 z"
   id="path784" />
			<path
   fill="none"
   stroke="#000000"
   stroke-width="0.15"
   stroke-linecap="round"
   stroke-linejoin="round"
   d="m 24.005,12.88 c -1.49,0.09 -2.95,0.46 -4.31,1.09 -1.47,0.69 -2.78,1.67 -3.85,2.87 -1.08,1.22 -1.89,2.64 -2.4,4.17 -0.47,1.42 -0.66,2.92 -0.57,4.42 0.09,1.49 0.46,2.95 1.1,4.311 0.68,1.47 1.66,2.77 2.87,3.85 1.22,1.08 2.64,1.9 4.18,2.4 1.42,0.47 2.91,0.659 4.41,0.569 1.489,-0.09 2.95,-0.47 4.31,-1.09 1.46,-0.7 2.78,-1.67 3.851,-2.88 1.079,-1.21 1.89,-2.63 2.399,-4.18 0.46,-1.42 0.66,-2.91 0.57,-4.4 -0.09,-1.5 -0.46,-2.96 -1.101,-4.31 -0.68,-1.47 -1.659,-2.78 -2.88,-3.86 -1.21,-1.08 -2.63,-1.89 -4.17,-2.41 -1.419,-0.45 -2.919,-0.64 -4.409,-0.55 z"
   id="path786" />
			<path
   fill="none"
   stroke="#000000"
   stroke-width="0.15"
   stroke-linecap="round"
   stroke-linejoin="round"
   d="m 23.975,12.38 c -1.55,0.1 -3.07,0.47 -4.49,1.13 -1.53,0.73 -2.89,1.75 -4.01,3 -1.12,1.26 -1.97,2.75 -2.5,4.36 -0.48,1.47 -0.69,3.03 -0.59,4.59 0.09,1.55 0.48,3.08 1.14,4.49 0.71,1.529 1.73,2.89 3,4.02 1.26,1.12 2.74,1.96 4.34,2.49 1.48,0.49 3.04,0.689 4.6,0.59 1.551,-0.09 3.07,-0.48 4.48,-1.14 1.53,-0.71 2.9,-1.73 4.02,-2.99 1.12,-1.271 1.971,-2.75 2.5,-4.351 0.48,-1.479 0.681,-3.05 0.591,-4.589 -0.091,-1.56 -0.48,-3.08 -1.141,-4.49 -0.71,-1.53 -1.729,-2.9 -3,-4.02 -1.26,-1.13 -2.74,-1.97 -4.35,-2.49 -1.48,-0.49 -3.03,-0.69 -4.59,-0.6 z"
   id="path788" />
			<path
   fill="none"
   stroke="#000000"
   stroke-width="0.15"
   stroke-linecap="round"
   stroke-linejoin="round"
   d="m 23.935,11.64 c -1.65,0.1 -3.26,0.51 -4.76,1.2 -1.62,0.76 -3.07,1.84 -4.26,3.18 -1.19,1.35 -2.09,2.91 -2.64,4.62 -0.52,1.57 -0.73,3.21 -0.63,4.86 0.1,1.649 0.51,3.26 1.21,4.76 0.75,1.62 1.83,3.07 3.17,4.25 1.34,1.2 2.91,2.09 4.61,2.66 1.57,0.51 3.22,0.72 4.87,0.62 1.65,-0.11 3.261,-0.5 4.761,-1.2 1.62,-0.76 3.069,-1.84 4.26,-3.18 1.18,-1.341 2.08,-2.91 2.64,-4.61 0.521,-1.57 0.73,-3.22 0.63,-4.87 -0.1,-1.66 -0.51,-3.26 -1.21,-4.76 -0.76,-1.62 -1.84,-3.08 -3.18,-4.25 -1.34,-1.19 -2.9,-2.09 -4.6,-2.66 -1.571,-0.5 -3.221,-0.72 -4.871,-0.62 z"
   id="path790" />
			<path
   fill="none"
   stroke="#000000"
   stroke-width="0.15"
   stroke-linecap="round"
   stroke-linejoin="round"
   d="m 23.905,11.15 c -1.71,0.1 -3.39,0.53 -4.94,1.25 -1.68,0.78 -3.19,1.91 -4.42,3.3 -1.23,1.39 -2.16,3.02 -2.74,4.78 -0.54,1.62 -0.76,3.34 -0.66,5.04 0.11,1.73 0.53,3.4 1.26,4.95 0.78,1.68 1.91,3.19 3.3,4.42 1.39,1.23 3.01,2.17 4.78,2.74 1.63,0.54 3.34,0.76 5.05,0.66 1.71,-0.11 3.38,-0.53 4.94,-1.271 1.68,-0.77 3.18,-1.89 4.42,-3.279 1.229,-1.4 2.16,-3.021 2.74,-4.79 0.529,-1.631 0.76,-3.351 0.649,-5.05 -0.1,-1.72 -0.52,-3.39 -1.25,-4.94 -0.79,-1.69 -1.91,-3.19 -3.3,-4.41 -1.39,-1.24 -3.021,-2.17 -4.78,-2.75 -1.629,-0.54 -3.339,-0.75 -5.049,-0.65 z"
   id="path792" />
			<path
   fill="none"
   stroke="#000000"
   stroke-width="0.15"
   stroke-linecap="round"
   stroke-linejoin="round"
   d="m 23.855,10.41 c -1.8,0.1 -3.57,0.56 -5.2,1.32 -1.78,0.83 -3.36,2.01 -4.66,3.48 -1.3,1.46 -2.29,3.18 -2.9,5.04 -0.56,1.72 -0.79,3.51 -0.69,5.33 0.11,1.8 0.56,3.569 1.33,5.21 0.83,1.77 2.01,3.359 3.47,4.64 1.47,1.311 3.19,2.3 5.05,2.91 1.72,0.56 3.52,0.8 5.32,0.68 1.811,-0.1 3.57,-0.55 5.21,-1.31 1.78,-0.83 3.36,-2.03 4.66,-3.48 1.3,-1.47 2.28,-3.18 2.9,-5.05 0.56,-1.71 0.79,-3.52 0.68,-5.33 -0.11,-1.8 -0.55,-3.56 -1.32,-5.2 -0.83,-1.77 -2.01,-3.36 -3.479,-4.66 -1.46,-1.31 -3.181,-2.28 -5.04,-2.9 -1.721,-0.57 -3.521,-0.79 -5.331,-0.68 z"
   id="path794" />
			<path
   fill="none"
   stroke="#000000"
   stroke-width="0.15"
   stroke-linecap="round"
   stroke-linejoin="round"
   d="m 23.825,9.92 c -1.86,0.1 -3.69,0.57 -5.38,1.35 -1.84,0.87 -3.48,2.08 -4.82,3.61 -1.35,1.52 -2.37,3.29 -3,5.21 -0.58,1.78 -0.82,3.65 -0.71,5.51 0.11,1.88 0.58,3.7 1.37,5.4 0.86,1.83 2.08,3.47 3.6,4.81 1.51,1.351 3.29,2.37 5.21,3 1.78,0.58 3.65,0.82 5.51,0.7 1.87,-0.1 3.7,-0.56 5.39,-1.36 1.84,-0.85 3.48,-2.08 4.82,-3.59 1.35,-1.52 2.359,-3.3 2.99,-5.22 0.59,-1.78 0.83,-3.66 0.72,-5.51 -0.12,-1.87 -0.58,-3.69 -1.37,-5.4 -0.86,-1.83 -2.08,-3.46 -3.6,-4.81 -1.521,-1.35 -3.29,-2.36 -5.221,-2.99 C 27.565,10.04 25.695,9.8 23.825,9.92 Z"
   id="path796" />
			<path
   fill="none"
   stroke="#000000"
   stroke-width="0.15"
   stroke-linecap="round"
   stroke-linejoin="round"
   d="m 30.896,24.72 c 0,-0.79 -0.141,-1.55 -0.431,-2.29 -0.31,-0.77 -0.779,-1.48 -1.38,-2.09 -0.59,-0.59 -1.31,-1.07 -2.09,-1.37 -0.729,-0.29 -1.5,-0.43 -2.28,-0.43 -0.78,0 -1.55,0.14 -2.27,0.43 -0.79,0.3 -1.5,0.78 -2.1,1.37 -0.59,0.61 -1.06,1.32 -1.37,2.09 -0.29,0.74 -0.44,1.5 -0.44,2.29 0,0.78 0.15,1.54 0.44,2.271 0.31,0.779 0.78,1.5 1.37,2.1 0.6,0.59 1.31,1.06 2.1,1.37 0.72,0.29 1.49,0.439 2.27,0.439 0.78,0 1.55,-0.149 2.28,-0.439 0.78,-0.311 1.5,-0.78 2.09,-1.37 0.601,-0.6 1.07,-1.32 1.38,-2.1 0.29,-0.731 0.431,-1.491 0.431,-2.271 z"
   id="path798" />
			<path
   fill="none"
   stroke="#000000"
   stroke-width="0.15"
   stroke-linecap="round"
   stroke-linejoin="round"
   d="m 49.436,24.72 c 0,-3.13 -0.59,-6.21 -1.74,-9.1 -1.24,-3.14 -3.11,-5.99 -5.5,-8.38 -2.39,-2.4 -5.24,-4.26 -8.38,-5.5 -2.9,-1.15 -5.98,-1.74 -9.1,-1.74 -3.11,0 -6.2,0.59 -9.09,1.74 -3.14,1.24 -5.99,3.1 -8.38,5.5 -2.39,2.39 -4.26,5.24 -5.51,8.38 -1.14,2.89 -1.73,5.97 -1.73,9.1 0,3.11 0.59,6.2 1.73,9.1 1.25,3.141 3.12,5.99 5.51,8.36 2.38,2.4 5.24,4.28 8.38,5.521 2.89,1.14 5.98,1.729 9.09,1.729 3.12,0 6.2,-0.59 9.1,-1.729 3.14,-1.24 5.99,-3.12 8.38,-5.521 2.39,-2.37 4.26,-5.22 5.5,-8.36 1.15,-2.9 1.74,-5.99 1.74,-9.1 z"
   id="path800" />
		</g>
	</g>
</g>
</svg>
