<?xml version="1.0" encoding="UTF-8" standalone="no"?>
<!-- Created with Inkscape (http://www.inkscape.org/) -->

<svg
   width="21.530027mm"
   height="21.529921mm"
   viewBox="0 0 21.530027 21.529921"
   version="1.1"
   id="svg15528"
   inkscape:version="1.1.2 (76b9e6a115, 2022-02-25)"
   sodipodi:docname="hitHatOpen2.svg"
   xmlns:inkscape="http://www.inkscape.org/namespaces/inkscape"
   xmlns:sodipodi="http://sodipodi.sourceforge.net/DTD/sodipodi-0.dtd"
   xmlns="http://www.w3.org/2000/svg"
   xmlns:svg="http://www.w3.org/2000/svg">
  <sodipodi:namedview
     id="namedview15530"
     pagecolor="#ffffff"
     bordercolor="#666666"
     borderopacity="1.0"
     inkscape:pageshadow="2"
     inkscape:pageopacity="0.0"
     inkscape:pagecheckerboard="0"
     inkscape:document-units="mm"
     showgrid="false"
     inkscape:zoom="0.75187991"
     inkscape:cx="-141.64496"
     inkscape:cy="115.04497"
     inkscape:window-width="1848"
     inkscape:window-height="1016"
     inkscape:window-x="72"
     inkscape:window-y="27"
     inkscape:window-maximized="1"
     inkscape:current-layer="layer1" />
  <defs
     id="defs15525">
    <clipPath
       clipPathUnits="userSpaceOnUse"
       id="clipPath12105">
      <path
         d="m 314.05,364.67 h 61.03 v -61.03 h -61.03 z"
         id="path12103" />
    </clipPath>
  </defs>
  <g
     inkscape:label="Capa 1"
     inkscape:groupmode="layer"
     id="layer1"
     transform="translate(-142.66153,-118.38077)">
    <g
       id="g12099"
       transform="matrix(0.35277777,0,0,-0.35277777,31.871668,247.02824)">
      <g
         id="g12101" />
      <g
         id="g12173">
        <g
           clip-path="url(#clipPath12105)"
           id="g12171">
          <g
             transform="translate(354.1299,331.02)"
             id="g12109">
            <path
               d="m 0,0 c 0.4,1.2 0.56,2.47 0.49,3.74 -0.08,1.27 -0.39,2.5 -0.93,3.65 -0.58,1.25 -1.42,2.37 -2.44,3.28 -1.03,0.91 -2.24,1.6 -3.55,2.03 -1.2,0.4 -2.47,0.56 -3.74,0.48 -1.27,-0.07 -2.51,-0.39 -3.66,-0.92 -1.24,-0.59 -2.36,-1.42 -3.27,-2.45 -0.91,-1.03 -1.6,-2.23 -2.03,-3.54 -0.4,-1.21 -0.56,-2.47 -0.49,-3.74 0.08,-1.27 0.4,-2.51 0.93,-3.66 0.59,-1.25 1.42,-2.36 2.45,-3.27 1.03,-0.91 2.23,-1.61 3.54,-2.04 1.2,-0.39 2.47,-0.55 3.74,-0.48 1.27,0.08 2.51,0.39 3.66,0.93 1.24,0.58 2.36,1.41 3.27,2.44 C -1.12,-2.52 -0.42,-1.31 0,0 M 1.1,3.77 C 1.18,2.43 1,1.09 0.58,-0.19 0.13,-1.58 -0.6,-2.86 -1.57,-3.95 c -0.97,-1.09 -2.15,-1.98 -3.47,-2.59 -1.22,-0.57 -2.54,-0.91 -3.88,-0.99 -1.35,-0.08 -2.69,0.1 -3.97,0.51 -1.39,0.46 -2.67,1.19 -3.76,2.16 -1.09,0.97 -1.97,2.15 -2.59,3.47 -0.57,1.22 -0.9,2.54 -0.98,3.88 -0.09,1.35 0.09,2.69 0.51,3.97 0.45,1.39 1.19,2.67 2.15,3.76 0.97,1.09 2.15,1.97 3.48,2.59 1.22,0.57 2.53,0.9 3.87,0.98 1.35,0.08 2.69,-0.09 3.97,-0.51 1.39,-0.45 2.67,-1.19 3.76,-2.16 C -1.39,10.16 -0.51,8.98 0.11,7.65 0.68,6.43 1.02,5.12 1.1,3.77"
               style="fill:#285468;fill-opacity:1;fill-rule:nonzero;stroke:none"
               id="path12107" />
          </g>
          <g
             transform="translate(355.5801,330.54)"
             id="g12113">
            <path
               d="M 0,0 C 0.46,1.39 0.65,2.85 0.56,4.31 0.47,5.77 0.11,7.2 -0.51,8.52 c -0.67,1.44 -1.63,2.72 -2.81,3.77 -1.19,1.05 -2.58,1.85 -4.08,2.34 -1.39,0.46 -2.85,0.64 -4.31,0.56 -1.46,-0.09 -2.89,-0.45 -4.21,-1.07 -1.44,-0.67 -2.72,-1.63 -3.77,-2.81 -1.05,-1.19 -1.85,-2.58 -2.34,-4.08 -0.46,-1.39 -0.65,-2.85 -0.56,-4.31 0.09,-1.46 0.45,-2.89 1.07,-4.22 0.67,-1.43 1.63,-2.71 2.81,-3.76 1.19,-1.05 2.58,-1.85 4.08,-2.34 1.39,-0.46 2.85,-0.65 4.31,-0.56 1.46,0.09 2.89,0.45 4.21,1.07 1.44,0.67 2.72,1.63 3.77,2.81 C -1.29,-2.89 -0.49,-1.51 0,0 M 1.17,4.35 C 1.26,2.81 1.06,1.27 0.58,-0.19 0.06,-1.77 -0.77,-3.24 -1.88,-4.48 c -1.11,-1.25 -2.46,-2.26 -3.97,-2.96 -1.39,-0.66 -2.89,-1.04 -4.43,-1.13 -1.54,-0.09 -3.07,0.11 -4.54,0.59 -1.58,0.52 -3.04,1.35 -4.29,2.46 -1.25,1.11 -2.26,2.46 -2.96,3.97 -0.65,1.39 -1.03,2.89 -1.13,4.43 -0.09,1.54 0.11,3.07 0.59,4.54 0.52,1.58 1.36,3.04 2.46,4.29 1.11,1.25 2.46,2.26 3.97,2.96 1.39,0.65 2.9,1.03 4.43,1.13 1.54,0.09 3.08,-0.11 4.54,-0.59 1.58,-0.52 3.04,-1.36 4.29,-2.46 1.25,-1.11 2.26,-2.46 2.96,-3.97 0.66,-1.4 1.04,-2.9 1.13,-4.43"
               style="fill:#285468;fill-opacity:1;fill-rule:nonzero;stroke:none"
               id="path12111" />
          </g>
          <g
             transform="translate(357.0298,330.0601)"
             id="g12117">
            <path
               d="m 0,0 c 0.52,1.58 0.73,3.23 0.63,4.88 -0.1,1.65 -0.51,3.27 -1.21,4.77 -0.76,1.62 -1.84,3.07 -3.18,4.26 -1.34,1.19 -2.91,2.09 -4.62,2.65 -1.57,0.52 -3.22,0.73 -4.87,0.63 -1.65,-0.1 -3.27,-0.51 -4.77,-1.21 -1.62,-0.76 -3.07,-1.84 -4.26,-3.18 -1.19,-1.34 -2.09,-2.92 -2.65,-4.62 -0.52,-1.57 -0.73,-3.22 -0.63,-4.87 0.1,-1.66 0.51,-3.27 1.21,-4.77 0.76,-1.63 1.84,-3.08 3.18,-4.27 1.34,-1.18 2.91,-2.09 4.62,-2.64 1.57,-0.52 3.22,-0.73 4.87,-0.63 1.66,0.1 3.27,0.51 4.77,1.21 1.62,0.75 3.07,1.84 4.26,3.18 C -1.46,-3.27 -0.56,-1.7 0,0 M 1.24,4.92 C 1.35,3.19 1.12,1.46 0.58,-0.19 0,-1.97 -0.95,-3.61 -2.19,-5.02 c -1.24,-1.4 -2.76,-2.53 -4.46,-3.33 -1.57,-0.73 -3.26,-1.16 -4.99,-1.26 -1.73,-0.11 -3.46,0.12 -5.1,0.66 -1.79,0.58 -3.43,1.52 -4.83,2.77 -1.41,1.24 -2.54,2.76 -3.33,4.46 -0.74,1.57 -1.17,3.26 -1.27,4.99 -0.1,1.73 0.12,3.46 0.66,5.1 0.58,1.78 1.53,3.43 2.77,4.83 1.25,1.41 2.76,2.54 4.46,3.33 1.57,0.74 3.26,1.17 4.99,1.27 1.73,0.1 3.46,-0.12 5.1,-0.66 1.79,-0.58 3.43,-1.53 4.83,-2.77 1.41,-1.25 2.54,-2.77 3.34,-4.46 C 0.71,8.34 1.14,6.65 1.24,4.92"
               style="fill:#285468;fill-opacity:1;fill-rule:nonzero;stroke:none"
               id="path12115" />
          </g>
          <g
             transform="translate(358.48,329.5903)"
             id="g12121">
            <path
               d="m 0,0 c 0.58,1.75 0.82,3.6 0.71,5.44 -0.12,1.85 -0.57,3.65 -1.35,5.32 -0.85,1.82 -2.06,3.44 -3.56,4.76 -1.5,1.33 -3.25,2.34 -5.15,2.96 -1.76,0.58 -3.6,0.81 -5.44,0.7 -1.85,-0.11 -3.65,-0.57 -5.32,-1.35 -1.82,-0.84 -3.44,-2.05 -4.76,-3.55 -1.33,-1.5 -2.34,-3.25 -2.96,-5.15 -0.58,-1.76 -0.82,-3.6 -0.7,-5.45 0.11,-1.84 0.56,-3.64 1.35,-5.32 0.84,-1.81 2.05,-3.43 3.55,-4.76 1.5,-1.32 3.25,-2.33 5.15,-2.95 1.76,-0.58 3.6,-0.82 5.45,-0.71 1.84,0.11 3.64,0.57 5.32,1.35 1.81,0.85 3.43,2.06 4.76,3.56 C -1.63,-3.66 -0.62,-1.9 0,0 M 1.31,5.48 C 1.43,3.56 1.18,1.64 0.58,-0.19 -0.07,-2.17 -1.11,-4 -2.5,-5.56 c -1.38,-1.56 -3.07,-2.82 -4.96,-3.7 -1.74,-0.81 -3.62,-1.29 -5.54,-1.41 -1.92,-0.11 -3.84,0.14 -5.67,0.74 -1.98,0.65 -3.81,1.69 -5.37,3.08 -1.55,1.38 -2.81,3.07 -3.7,4.96 -0.81,1.74 -1.29,3.62 -1.4,5.54 -0.12,1.92 0.13,3.84 0.73,5.67 0.65,1.98 1.7,3.8 3.08,5.36 1.38,1.56 3.07,2.82 4.96,3.71 1.74,0.81 3.62,1.29 5.54,1.4 1.92,0.12 3.84,-0.13 5.67,-0.73 1.98,-0.65 3.81,-1.7 5.37,-3.08 1.56,-1.38 2.82,-3.07 3.7,-4.96 C 0.72,9.28 1.2,7.4 1.31,5.48"
               style="fill:#285468;fill-opacity:1;fill-rule:nonzero;stroke:none"
               id="path12119" />
          </g>
          <g
             transform="translate(359.9302,329.1104)"
             id="g12125">
            <path
               d="m 0,0 c 0.64,1.94 0.9,3.98 0.78,6.01 -0.12,2.04 -0.63,4.03 -1.49,5.88 -0.94,2 -2.27,3.79 -3.93,5.25 -1.65,1.47 -3.59,2.58 -5.69,3.27 -1.93,0.64 -3.97,0.9 -6.01,0.78 -2.03,-0.13 -4.02,-0.63 -5.87,-1.49 -2,-0.94 -3.79,-2.28 -5.26,-3.93 -1.46,-1.65 -2.57,-3.59 -3.26,-5.69 -0.64,-1.94 -0.9,-3.97 -0.78,-6.01 0.13,-2.03 0.63,-4.02 1.49,-5.87 0.94,-2 2.27,-3.79 3.93,-5.26 1.65,-1.46 3.59,-2.58 5.69,-3.26 1.93,-0.64 3.97,-0.9 6.01,-0.78 2.03,0.12 4.02,0.63 5.87,1.49 2,0.94 3.79,2.27 5.26,3.93 C -1.8,-4.03 -0.69,-2.1 0,0 M 1.39,6.05 C 1.51,3.94 1.24,1.82 0.58,-0.19 c -0.71,-2.18 -1.86,-4.18 -3.39,-5.9 -1.52,-1.72 -3.37,-3.1 -5.45,-4.07 -1.92,-0.9 -3.98,-1.42 -6.1,-1.55 -2.11,-0.13 -4.22,0.15 -6.23,0.81 -2.18,0.71 -4.19,1.86 -5.91,3.39 -1.71,1.52 -3.1,3.37 -4.07,5.45 -0.89,1.92 -1.42,3.98 -1.55,6.09 -0.12,2.12 0.15,4.23 0.81,6.24 0.71,2.18 1.87,4.19 3.39,5.91 1.52,1.71 3.37,3.1 5.45,4.07 1.92,0.89 3.99,1.42 6.1,1.55 2.11,0.12 4.22,-0.15 6.23,-0.81 2.18,-0.71 4.19,-1.87 5.91,-3.39 1.71,-1.52 3.1,-3.38 4.07,-5.45 0.9,-1.92 1.42,-3.99 1.55,-6.1"
               style="fill:#285468;fill-opacity:1;fill-rule:nonzero;stroke:none"
               id="path12123" />
          </g>
          <g
             transform="translate(371.5298,325.3101)"
             id="g12129">
            <path
               d="m 0,0 c 1.12,3.4 1.58,6.98 1.36,10.55 -0.21,3.57 -1.1,7.06 -2.61,10.3 -1.65,3.52 -3.99,6.66 -6.89,9.23 -2.9,2.57 -6.3,4.52 -9.98,5.73 -3.4,1.11 -6.98,1.57 -10.55,1.36 -3.57,-0.22 -7.06,-1.1 -10.31,-2.62 -3.51,-1.64 -6.65,-3.98 -9.22,-6.88 -2.57,-2.9 -4.52,-6.3 -5.73,-9.99 -1.11,-3.4 -1.58,-6.97 -1.36,-10.54 0.21,-3.57 1.1,-7.07 2.62,-10.31 1.64,-3.51 3.98,-6.65 6.88,-9.22 2.9,-2.57 6.3,-4.52 9.98,-5.73 3.4,-1.12 6.98,-1.58 10.55,-1.36 3.57,0.21 7.06,1.1 10.31,2.61 3.51,1.64 6.65,3.99 9.22,6.89 2.57,2.9 4.52,6.3 5.73,9.98 M 1.97,10.58 C 2.19,6.93 1.72,3.28 0.58,-0.19 c -1.23,-3.76 -3.23,-7.23 -5.85,-10.2 -2.63,-2.96 -5.84,-5.35 -9.42,-7.03 -3.32,-1.55 -6.88,-2.45 -10.53,-2.67 -3.65,-0.22 -7.3,0.25 -10.78,1.39 -3.76,1.23 -7.23,3.22 -10.19,5.85 -2.97,2.63 -5.36,5.84 -7.04,9.42 -1.54,3.32 -2.45,6.88 -2.67,10.53 -0.22,3.65 0.25,7.3 1.39,10.78 1.24,3.76 3.23,7.23 5.85,10.19 2.63,2.97 5.84,5.36 9.43,7.04 3.31,1.54 6.88,2.45 10.52,2.67 3.65,0.22 7.3,-0.25 10.78,-1.39 3.76,-1.24 7.23,-3.23 10.2,-5.86 2.96,-2.62 5.35,-5.83 7.03,-9.42 1.55,-3.31 2.45,-6.88 2.67,-10.53"
               style="fill:#285468;fill-opacity:1;fill-rule:nonzero;stroke:none"
               id="path12127" />
          </g>
          <g
             transform="translate(372.98,324.8403)"
             id="g12133">
            <path
               d="m 0,0 c 1.18,3.58 1.66,7.34 1.44,11.11 -0.23,3.76 -1.17,7.44 -2.76,10.86 -1.73,3.7 -4.2,7.01 -7.26,9.72 -3.05,2.71 -6.63,4.76 -10.52,6.04 -3.58,1.17 -7.35,1.66 -11.11,1.43 -3.76,-0.22 -7.44,-1.16 -10.86,-2.75 -3.7,-1.73 -7.01,-4.2 -9.72,-7.26 -2.71,-3.06 -4.77,-6.64 -6.04,-10.52 -1.17,-3.58 -1.66,-7.35 -1.43,-11.11 0.22,-3.77 1.16,-7.45 2.75,-10.86 1.73,-3.71 4.2,-7.01 7.26,-9.72 3.06,-2.71 6.64,-4.77 10.52,-6.04 3.58,-1.18 7.35,-1.66 11.11,-1.44 3.77,0.23 7.45,1.16 10.86,2.76 3.7,1.73 7.01,4.2 9.72,7.26 C -3.33,-7.47 -1.27,-3.89 0,0 M -0.04,20.54 C 1.37,16.97 2.1,13.16 2.1,9.31 2.1,5.47 1.37,1.66 -0.04,-1.92 c -1.54,-3.88 -3.85,-7.4 -6.8,-10.34 -2.95,-2.95 -6.47,-5.26 -10.34,-6.8 -3.58,-1.41 -7.39,-2.14 -11.23,-2.14 -3.85,0 -7.66,0.73 -11.24,2.14 -3.87,1.54 -7.39,3.85 -10.34,6.8 -2.95,2.95 -5.26,6.47 -6.8,10.34 -1.41,3.58 -2.14,7.39 -2.14,11.23 0,3.85 0.73,7.66 2.14,11.24 1.54,3.87 3.85,7.39 6.8,10.34 2.95,2.95 6.47,5.26 10.34,6.79 3.58,1.42 7.39,2.15 11.24,2.15 3.84,0 7.65,-0.73 11.23,-2.15 3.87,-1.53 7.39,-3.84 10.34,-6.79 2.95,-2.95 5.26,-6.47 6.8,-10.35"
               style="fill:#285468;fill-opacity:1;fill-rule:nonzero;stroke:none"
               id="path12131" />
          </g>
          <g
             transform="translate(370.0801,325.79)"
             id="g12137">
            <path
               d="m 0,0 c 1.06,3.21 1.49,6.6 1.29,9.98 -0.2,3.38 -1.04,6.68 -2.48,9.75 -1.55,3.32 -3.77,6.29 -6.51,8.73 -2.75,2.43 -5.96,4.27 -9.45,5.42 -3.22,1.05 -6.6,1.49 -9.98,1.29 -3.38,-0.21 -6.68,-1.05 -9.75,-2.48 -3.32,-1.55 -6.29,-3.77 -8.73,-6.51 -2.43,-2.75 -4.28,-5.96 -5.42,-9.45 -1.05,-3.22 -1.49,-6.6 -1.29,-9.98 0.21,-3.38 1.04,-6.68 2.48,-9.75 1.55,-3.33 3.77,-6.3 6.51,-8.73 2.75,-2.43 5.96,-4.28 9.45,-5.42 3.22,-1.06 6.6,-1.49 9.98,-1.29 3.38,0.2 6.68,1.04 9.75,2.48 3.33,1.55 6.3,3.77 8.73,6.51 C -2.99,-6.7 -1.14,-3.49 0,0 M 1.9,10.01 C 2.11,6.56 1.66,3.1 0.58,-0.19 c -1.17,-3.57 -3.06,-6.86 -5.54,-9.66 -2.49,-2.81 -5.53,-5.08 -8.93,-6.67 -3.14,-1.46 -6.52,-2.32 -9.97,-2.53 -3.46,-0.21 -6.92,0.24 -10.21,1.32 -3.57,1.17 -6.85,3.05 -9.66,5.54 -2.81,2.49 -5.08,5.53 -6.66,8.93 -1.47,3.14 -2.33,6.52 -2.54,9.97 -0.2,3.46 0.24,6.92 1.32,10.21 1.17,3.57 3.06,6.85 5.55,9.66 2.49,2.81 5.52,5.08 8.92,6.66 3.14,1.47 6.52,2.33 9.98,2.54 3.45,0.2 6.91,-0.24 10.2,-1.32 3.57,-1.17 6.86,-3.06 9.66,-5.55 2.81,-2.49 5.08,-5.52 6.67,-8.92 1.46,-3.14 2.32,-6.52 2.53,-9.98"
               style="fill:#285468;fill-opacity:1;fill-rule:nonzero;stroke:none"
               id="path12135" />
          </g>
          <g
             transform="translate(368.6299,326.2603)"
             id="g12141">
            <path
               d="m 0,0 c 1,3.04 1.41,6.23 1.22,9.41 -0.2,3.19 -0.99,6.31 -2.34,9.2 -1.46,3.14 -3.55,5.94 -6.14,8.23 -2.59,2.3 -5.62,4.04 -8.91,5.12 -3.04,0.99 -6.23,1.41 -9.42,1.21 -3.18,-0.19 -6.3,-0.98 -9.19,-2.33 -3.14,-1.47 -5.94,-3.56 -8.24,-6.15 -2.29,-2.59 -4.03,-5.62 -5.11,-8.91 -0.99,-3.03 -1.41,-6.22 -1.21,-9.41 0.19,-3.19 0.98,-6.3 2.33,-9.2 1.46,-3.13 3.56,-5.93 6.15,-8.23 2.58,-2.29 5.62,-4.03 8.9,-5.11 3.04,-1 6.23,-1.41 9.42,-1.22 3.18,0.19 6.3,0.99 9.2,2.34 3.13,1.46 5.93,3.55 8.23,6.14 C -2.82,-6.32 -1.08,-3.29 0,0 M 1.83,9.45 C 2.02,6.19 1.6,2.92 0.58,-0.19 c -1.1,-3.37 -2.89,-6.47 -5.24,-9.12 -2.35,-2.65 -5.22,-4.8 -8.43,-6.3 -2.96,-1.38 -6.15,-2.19 -9.42,-2.39 -3.26,-0.19 -6.53,0.23 -9.64,1.25 -3.36,1.1 -6.47,2.88 -9.12,5.23 -2.65,2.36 -4.79,5.22 -6.29,8.44 -1.39,2.96 -2.2,6.15 -2.39,9.42 -0.2,3.26 0.22,6.53 1.24,9.63 1.1,3.37 2.89,6.48 5.24,9.13 2.35,2.65 5.22,4.79 8.43,6.29 2.96,1.39 6.15,2.2 9.42,2.39 3.26,0.2 6.53,-0.22 9.64,-1.24 3.36,-1.11 6.47,-2.89 9.12,-5.24 2.65,-2.35 4.79,-5.22 6.29,-8.43 1.39,-2.96 2.2,-6.15 2.4,-9.42"
               style="fill:#285468;fill-opacity:1;fill-rule:nonzero;stroke:none"
               id="path12139" />
          </g>
          <g
             transform="translate(367.1802,326.7402)"
             id="g12145">
            <path
               d="m 0,0 c 0.94,2.85 1.32,5.85 1.14,8.84 -0.18,3 -0.92,5.93 -2.19,8.65 -1.38,2.94 -3.34,5.58 -5.78,7.73 -2.43,2.16 -5.28,3.8 -8.37,4.81 -2.85,0.93 -5.85,1.32 -8.84,1.14 -3,-0.18 -5.93,-0.92 -8.65,-2.19 -2.94,-1.38 -5.58,-3.35 -7.73,-5.78 -2.16,-2.43 -3.8,-5.28 -4.81,-8.37 -0.93,-2.85 -1.32,-5.85 -1.14,-8.85 0.18,-2.99 0.92,-5.92 2.19,-8.64 1.38,-2.95 3.34,-5.58 5.78,-7.74 2.43,-2.15 5.28,-3.79 8.37,-4.8 2.85,-0.94 5.85,-1.32 8.85,-1.14 2.99,0.18 5.92,0.92 8.64,2.19 2.95,1.38 5.58,3.34 7.74,5.77 2.15,2.44 3.79,5.29 4.8,8.38 M 1.75,8.88 C 1.94,5.81 1.54,2.73 0.58,-0.19 c -1.04,-3.17 -2.72,-6.09 -4.93,-8.59 -2.21,-2.5 -4.91,-4.51 -7.93,-5.92 -2.79,-1.31 -5.8,-2.07 -8.87,-2.25 -3.07,-0.19 -6.15,0.21 -9.07,1.17 -3.17,1.04 -6.09,2.71 -8.59,4.93 -2.49,2.21 -4.51,4.91 -5.92,7.93 -1.3,2.79 -2.07,5.79 -2.25,8.87 -0.19,3.07 0.21,6.14 1.17,9.07 1.04,3.17 2.72,6.09 4.93,8.59 2.21,2.49 4.91,4.51 7.93,5.92 2.79,1.3 5.8,2.06 8.87,2.25 3.07,0.18 6.15,-0.21 9.07,-1.17 3.17,-1.04 6.09,-2.72 8.59,-4.93 2.49,-2.21 4.51,-4.91 5.92,-7.93 1.3,-2.79 2.07,-5.8 2.25,-8.87"
               style="fill:#285468;fill-opacity:1;fill-rule:nonzero;stroke:none"
               id="path12143" />
          </g>
          <g
             transform="translate(365.73,327.21)"
             id="g12149">
            <path
               d="m 0,0 c 0.88,2.67 1.24,5.48 1.07,8.28 -0.17,2.8 -0.86,5.55 -2.05,8.09 -1.29,2.76 -3.13,5.22 -5.41,7.24 -2.28,2.02 -4.94,3.55 -7.83,4.5 -2.67,0.87 -5.48,1.24 -8.28,1.07 -2.81,-0.17 -5.55,-0.87 -8.09,-2.06 -2.76,-1.28 -5.22,-3.12 -7.24,-5.4 -2.02,-2.28 -3.55,-4.94 -4.5,-7.84 -0.88,-2.67 -1.24,-5.47 -1.07,-8.28 0.17,-2.8 0.87,-5.54 2.05,-8.09 1.29,-2.75 3.13,-5.22 5.41,-7.23 2.28,-2.02 4.94,-3.55 7.83,-4.5 2.67,-0.88 5.48,-1.24 8.28,-1.07 2.81,0.17 5.55,0.86 8.09,2.05 2.76,1.29 5.22,3.13 7.24,5.41 2.02,2.27 3.55,4.94 4.5,7.83 M 1.68,8.32 C 1.85,5.44 1.48,2.55 0.58,-0.19 -0.39,-3.16 -1.97,-5.9 -4.04,-8.24 c -2.07,-2.34 -4.6,-4.23 -7.44,-5.55 -2.61,-1.22 -5.43,-1.94 -8.31,-2.11 -2.88,-0.17 -5.76,0.2 -8.5,1.1 -2.98,0.97 -5.72,2.54 -8.06,4.62 -2.34,2.07 -4.22,4.6 -5.55,7.44 -1.22,2.61 -1.93,5.43 -2.11,8.31 -0.17,2.88 0.2,5.76 1.1,8.5 0.97,2.98 2.55,5.71 4.62,8.05 2.08,2.34 4.61,4.23 7.44,5.56 2.61,1.22 5.43,1.93 8.31,2.11 2.88,0.17 5.76,-0.2 8.51,-1.1 2.97,-0.98 5.71,-2.55 8.05,-4.62 2.34,-2.08 4.23,-4.61 5.55,-7.44 1.22,-2.62 1.94,-5.43 2.11,-8.31"
               style="fill:#285468;fill-opacity:1;fill-rule:nonzero;stroke:none"
               id="path12147" />
          </g>
          <g
             transform="translate(364.2798,327.6899)"
             id="g12153">
            <path
               d="m 0,0 c 0.82,2.48 1.15,5.1 1,7.71 -0.16,2.61 -0.81,5.16 -1.92,7.54 -1.2,2.56 -2.91,4.86 -5.03,6.74 -2.12,1.88 -4.6,3.31 -7.3,4.19 -2.49,0.81 -5.1,1.15 -7.71,0.99 -2.61,-0.15 -5.17,-0.8 -7.54,-1.91 -2.57,-1.2 -4.86,-2.91 -6.74,-5.03 -1.88,-2.12 -3.31,-4.61 -4.19,-7.3 -0.82,-2.49 -1.15,-5.1 -1,-7.71 0.16,-2.62 0.81,-5.17 1.92,-7.54 1.2,-2.57 2.91,-4.86 5.03,-6.74 2.12,-1.88 4.61,-3.31 7.3,-4.19 2.49,-0.82 5.1,-1.16 7.71,-1 2.61,0.16 5.17,0.81 7.54,1.91 2.57,1.2 4.86,2.92 6.74,5.04 1.88,2.12 3.31,4.6 4.19,7.3 M 1.61,7.75 C 1.77,5.06 1.42,2.37 0.58,-0.19 -0.33,-2.97 -1.8,-5.52 -3.73,-7.71 c -1.94,-2.18 -4.3,-3.94 -6.94,-5.18 -2.44,-1.14 -5.07,-1.81 -7.76,-1.97 -2.69,-0.16 -5.38,0.19 -7.94,1.03 -2.77,0.91 -5.33,2.37 -7.51,4.31 -2.19,1.94 -3.95,4.3 -5.19,6.94 -1.14,2.44 -1.8,5.07 -1.96,7.76 -0.17,2.69 0.18,5.38 1.02,7.94 0.91,2.77 2.38,5.33 4.31,7.51 1.94,2.19 4.3,3.95 6.94,5.18 2.45,1.14 5.07,1.81 7.76,1.97 2.69,0.17 5.38,-0.18 7.94,-1.02 2.77,-0.91 5.33,-2.38 7.51,-4.31 2.19,-1.94 3.95,-4.3 5.19,-6.95 1.14,-2.44 1.81,-5.07 1.97,-7.75"
               style="fill:#285468;fill-opacity:1;fill-rule:nonzero;stroke:none"
               id="path12151" />
          </g>
          <g
             transform="translate(362.8301,328.1602)"
             id="g12157">
            <path
               d="m 0,0 c 0.76,2.31 1.07,4.73 0.92,7.15 -0.14,2.42 -0.74,4.78 -1.77,6.98 -1.11,2.38 -2.7,4.51 -4.66,6.25 -1.97,1.74 -4.27,3.06 -6.76,3.88 -2.31,0.75 -4.73,1.07 -7.15,0.92 -2.42,-0.14 -4.78,-0.74 -6.98,-1.77 -2.38,-1.11 -4.51,-2.7 -6.25,-4.66 -1.74,-1.97 -3.06,-4.27 -3.88,-6.77 -0.76,-2.3 -1.07,-4.72 -0.92,-7.14 0.14,-2.42 0.74,-4.79 1.77,-6.98 1.11,-2.38 2.7,-4.51 4.66,-6.25 1.97,-1.74 4.27,-3.07 6.77,-3.88 2.3,-0.76 4.72,-1.07 7.14,-0.93 2.42,0.15 4.79,0.75 6.98,1.78 2.38,1.11 4.51,2.7 6.25,4.66 C -2.14,-4.79 -0.82,-2.49 0,0 M 1.53,7.18 C 1.68,4.69 1.36,2.19 0.58,-0.19 c -0.84,-2.57 -2.2,-4.95 -4,-6.97 -1.8,-2.03 -3.99,-3.67 -6.45,-4.82 -2.27,-1.06 -4.71,-1.67 -7.2,-1.82 -2.5,-0.16 -5,0.17 -7.37,0.95 -2.58,0.84 -4.95,2.2 -6.98,4 -2.03,1.8 -3.67,3.99 -4.81,6.45 -1.06,2.26 -1.68,4.71 -1.83,7.2 -0.15,2.5 0.17,5 0.95,7.37 0.84,2.58 2.21,4.95 4,6.98 1.8,2.03 4,3.67 6.45,4.81 2.27,1.06 4.71,1.68 7.2,1.83 2.5,0.15 5,-0.17 7.38,-0.95 2.57,-0.84 4.95,-2.21 6.97,-4.01 2.03,-1.79 3.67,-3.99 4.82,-6.44 1.05,-2.27 1.67,-4.71 1.82,-7.21"
               style="fill:#285468;fill-opacity:1;fill-rule:nonzero;stroke:none"
               id="path12155" />
          </g>
          <g
             transform="translate(361.3799,328.6401)"
             id="g12161">
            <path
               d="M 0,0 C 0.7,2.12 0.99,4.35 0.85,6.58 0.72,8.8 0.16,10.98 -0.78,13 c -1.02,2.19 -2.48,4.15 -4.29,5.76 -1.81,1.6 -3.93,2.82 -6.23,3.57 -2.12,0.7 -4.35,0.98 -6.58,0.85 -2.23,-0.14 -4.4,-0.69 -6.43,-1.63 -2.19,-1.03 -4.14,-2.49 -5.75,-4.3 -1.6,-1.81 -2.82,-3.92 -3.57,-6.22 -0.7,-2.12 -0.98,-4.35 -0.85,-6.58 0.13,-2.23 0.69,-4.41 1.63,-6.43 1.03,-2.19 2.49,-4.15 4.3,-5.75 1.81,-1.6 3.92,-2.82 6.22,-3.57 2.12,-0.7 4.35,-0.99 6.58,-0.85 2.23,0.13 4.4,0.68 6.43,1.63 2.19,1.02 4.14,2.48 5.75,4.29 C -1.97,-4.42 -0.75,-2.3 0,0 M 1.46,6.61 C 1.6,4.31 1.3,2 0.58,-0.19 -0.2,-2.57 -1.46,-4.76 -3.11,-6.63 c -1.66,-1.87 -3.69,-3.39 -5.96,-4.44 -2.09,-0.98 -4.34,-1.55 -6.64,-1.69 -2.31,-0.14 -4.61,0.16 -6.81,0.88 -2.38,0.78 -4.57,2.03 -6.44,3.69 -1.87,1.66 -3.38,3.69 -4.44,5.95 -0.98,2.1 -1.55,4.35 -1.69,6.65 -0.14,2.31 0.16,4.61 0.88,6.81 0.78,2.37 2.04,4.57 3.7,6.44 1.66,1.87 3.68,3.38 5.95,4.44 2.09,0.98 4.34,1.55 6.65,1.69 2.3,0.14 4.61,-0.16 6.8,-0.88 2.38,-0.78 4.57,-2.04 6.44,-3.7 1.87,-1.66 3.38,-3.68 4.44,-5.95 0.98,-2.09 1.55,-4.34 1.69,-6.65"
               style="fill:#285468;fill-opacity:1;fill-rule:nonzero;stroke:none"
               id="path12159" />
          </g>
          <g
             transform="translate(352.6802,331.4902)"
             id="g12165">
            <path
               d="m 0,0 c 0.34,1.02 0.48,2.1 0.41,3.18 -0.06,1.07 -0.33,2.12 -0.78,3.1 -0.5,1.06 -1.2,2 -2.08,2.78 -0.87,0.77 -1.89,1.36 -3,1.72 -1.03,0.34 -2.1,0.48 -3.18,0.41 -1.07,-0.06 -2.12,-0.33 -3.1,-0.79 -1.06,-0.49 -2,-1.2 -2.78,-2.07 -0.77,-0.87 -1.36,-1.9 -1.72,-3 -0.34,-1.03 -0.48,-2.1 -0.41,-3.18 0.06,-1.08 0.33,-2.13 0.79,-3.1 0.49,-1.06 1.19,-2.01 2.07,-2.78 0.87,-0.77 1.89,-1.36 3,-1.73 1.03,-0.33 2.1,-0.47 3.18,-0.41 1.07,0.07 2.13,0.34 3.1,0.79 1.06,0.5 2,1.2 2.78,2.08 0.77,0.87 1.36,1.89 1.72,3 M 1.02,3.21 C 1.09,2.06 0.94,0.91 0.58,-0.19 0.19,-1.38 -0.43,-2.47 -1.26,-3.41 -2.09,-4.35 -3.11,-5.1 -4.24,-5.63 c -1.05,-0.49 -2.17,-0.78 -3.32,-0.84 -1.16,-0.07 -2.31,0.08 -3.41,0.43 -1.19,0.39 -2.28,1.02 -3.22,1.85 -0.93,0.83 -1.69,1.85 -2.22,2.98 -0.49,1.04 -0.77,2.17 -0.84,3.32 -0.07,1.16 0.08,2.31 0.44,3.41 0.39,1.18 1.02,2.28 1.85,3.22 0.83,0.93 1.84,1.69 2.97,2.22 1.05,0.48 2.17,0.77 3.33,0.84 1.15,0.07 2.3,-0.08 3.4,-0.44 1.19,-0.39 2.28,-1.02 3.22,-1.85 C -1.11,8.68 -0.35,7.67 0.18,6.54 0.67,5.49 0.95,4.37 1.02,3.21"
               style="fill:#285468;fill-opacity:1;fill-rule:nonzero;stroke:none"
               id="path12163" />
          </g>
          <g
             transform="translate(347.6802,334.1499)"
             id="g12169">
            <path
               d="M 0,0 C 0,0.73 -0.14,1.35 -0.42,1.87 -0.7,2.39 -1.07,2.78 -1.54,3.05 -2.01,3.31 -2.53,3.45 -3.11,3.45 -3.7,3.45 -4.22,3.31 -4.7,3.05 -5.17,2.78 -5.54,2.39 -5.82,1.87 -6.09,1.35 -6.23,0.73 -6.23,0 c 0,-0.73 0.14,-1.35 0.43,-1.86 0.28,-0.52 0.66,-0.92 1.14,-1.19 0.47,-0.27 0.99,-0.4 1.55,-0.4 0.57,0 1.09,0.13 1.57,0.4 0.47,0.27 0.84,0.67 1.12,1.19 C -0.14,-1.35 0,-0.73 0,0 M 0.86,2.51 C 1.27,1.8 1.48,0.96 1.48,0.01 1.48,-0.94 1.27,-1.77 0.86,-2.48 0.44,-3.2 -0.11,-3.75 -0.82,-4.13 c -0.7,-0.39 -1.46,-0.58 -2.29,-0.58 -0.83,0 -1.6,0.19 -2.3,0.58 -0.7,0.38 -1.26,0.93 -1.68,1.65 -0.41,0.71 -0.62,1.54 -0.62,2.49 0,0.95 0.21,1.79 0.62,2.5 0.42,0.71 0.98,1.25 1.68,1.63 0.7,0.39 1.47,0.58 2.3,0.58 0.83,0 1.59,-0.19 2.29,-0.58 0.71,-0.38 1.26,-0.92 1.68,-1.63"
               style="fill:#285468;fill-opacity:1;fill-rule:nonzero;stroke:none"
               id="path12167" />
          </g>
        </g>
      </g>
    </g>
  </g>
</svg>
