<?xml version="1.0" encoding="UTF-8" standalone="no"?>
<!-- Generator: Adobe Illustrator 14.0.0, SVG Export Plug-In . SVG Version: 6.00 Build 43363)  -->

<svg
   version="1.1"
   id="Capa_1"
   x="0px"
   y="0px"
   width="111.555"
   height="111.555"
   viewBox="0 0 111.555 111.555"
   enable-background="new 0 0 49.44 49.43"
   xml:space="preserve"
   sodipodi:docname="hitHatClose.svg"
   inkscape:version="1.1.2 (76b9e6a115, 2022-02-25)"
   xmlns:inkscape="http://www.inkscape.org/namespaces/inkscape"
   xmlns:sodipodi="http://sodipodi.sourceforge.net/DTD/sodipodi-0.dtd"
   xmlns="http://www.w3.org/2000/svg"
   xmlns:svg="http://www.w3.org/2000/svg"><defs
   id="defs419" /><sodipodi:namedview
   id="namedview417"
   pagecolor="#ffffff"
   bordercolor="#666666"
   borderopacity="1.0"
   inkscape:pageshadow="2"
   inkscape:pageopacity="0.0"
   inkscape:pagecheckerboard="0"
   showgrid="false"
   fit-margin-top="0"
   fit-margin-left="0"
   fit-margin-right="0"
   fit-margin-bottom="0"
   inkscape:zoom="2.4125025"
   inkscape:cx="1.865283"
   inkscape:cy="122.48692"
   inkscape:window-width="1848"
   inkscape:window-height="1016"
   inkscape:window-x="72"
   inkscape:window-y="27"
   inkscape:window-maximized="1"
   inkscape:current-layer="Capa_1" />
<g
   id="g414"
   transform="matrix(2.25,0,0,2.25,0.15525001,0.15750001)">
	<g
   id="XMLID_21_">
		<g
   id="g373">
			<path
   d="m 25.655,40.265 c 1.96,-0.12 3.87,-0.6 5.65,-1.43 1.93,-0.91 3.649,-2.19 5.06,-3.78 1.411,-1.59 2.48,-3.46 3.15,-5.48 0.609,-1.869 0.859,-3.829 0.739,-5.799 -0.109,-1.95 -0.6,-3.86 -1.43,-5.64 -0.899,-1.93 -2.189,-3.65 -3.78,-5.06 -1.59,-1.42 -3.449,-2.49 -5.479,-3.15 -1.86,-0.61 -3.82,-0.86 -5.78,-0.74 -1.96,0.11 -3.88,0.6 -5.66,1.43 -1.93,0.9 -3.65,2.19 -5.06,3.78 -1.41,1.59 -2.48,3.45 -3.14,5.48 -0.62,1.86 -0.87,3.81 -0.75,5.78 0.12,1.95 0.6,3.87 1.43,5.66 0.91,1.931 2.19,3.65 3.78,5.061 1.59,1.399 3.46,2.47 5.48,3.14 1.87,0.618 3.83,0.868 5.79,0.748 z m 22.04,-24.64 c 1.15,2.89 1.74,5.97 1.74,9.1 0,3.11 -0.59,6.2 -1.74,9.1 -1.24,3.141 -3.11,5.99 -5.5,8.36 -2.39,2.4 -5.24,4.28 -8.38,5.521 -2.9,1.14 -5.98,1.729 -9.1,1.729 -3.12,0 -6.2,-0.59 -9.1,-1.729 -3.14,-1.24 -5.99,-3.12 -8.38,-5.521 -2.38,-2.37 -4.26,-5.22 -5.5,-8.36 -1.15,-2.899 -1.73,-5.989 -1.73,-9.1 0,-3.13 0.58,-6.21 1.73,-9.1 1.24,-3.14 3.12,-5.99 5.51,-8.38 2.38,-2.39 5.23,-4.26 8.37,-5.5 2.9,-1.15 5.98,-1.74 9.1,-1.74 3.12,0 6.2,0.59 9.1,1.74 3.14,1.24 5.99,3.11 8.38,5.5 2.39,2.39 4.26,5.24 5.5,8.38 z"
   id="path355" />
			<path
   d="m 24.715,30.905 c -0.78,0 -1.55,-0.149 -2.27,-0.439 -0.79,-0.311 -1.5,-0.78 -2.1,-1.37 -0.59,-0.6 -1.06,-1.32 -1.37,-2.1 -0.29,-0.73 -0.44,-1.49 -0.44,-2.271 0,-0.79 0.15,-1.55 0.44,-2.29 0.31,-0.77 0.78,-1.48 1.37,-2.09 0.6,-0.59 1.31,-1.07 2.1,-1.37 0.72,-0.29 1.49,-0.43 2.27,-0.43 0.78,0 1.55,0.14 2.28,0.43 0.78,0.3 1.49,0.78 2.09,1.37 0.601,0.61 1.07,1.32 1.381,2.09 0.279,0.74 0.43,1.5 0.43,2.29 0,0.78 -0.15,1.54 -0.43,2.271 -0.311,0.779 -0.78,1.5 -1.381,2.1 -0.6,0.59 -1.31,1.06 -2.09,1.37 -0.729,0.289 -1.5,0.439 -2.28,0.439 z m -2.1,-6.31 c 0,-0.5 0.11,-0.94 0.32,-1.34 0.2,-0.41 0.51,-0.74 0.9,-0.96 0.4,-0.24 0.87,-0.36 1.41,-0.36 0.811,0 1.431,0.16 1.84,0.5 0.15,-0.31 0.301,-0.62 0.45,-0.94 -0.08,-0.07 -0.22,-0.15 -0.42,-0.24 -0.2,-0.09 -0.46,-0.17 -0.78,-0.24 -0.319,-0.08 -0.68,-0.11 -1.069,-0.11 -0.74,0 -1.4,0.17 -1.98,0.49 -0.59,0.32 -1.04,0.77 -1.37,1.34 -0.33,0.57 -0.5,1.2 -0.5,1.93 0,0.73 0.17,1.39 0.49,1.98 0.33,0.59 0.78,1.04 1.36,1.38 0.58,0.33 1.23,0.5 1.97,0.5 0.63,0 1.2,-0.09 1.69,-0.3 0.479,-0.21 0.85,-0.46 1.09,-0.76 0,-0.97 0,-1.95 0,-2.9 -0.88,0 -1.761,0 -2.641,0 0,0.34 0,0.69 0,1.03 0.511,0 1.011,0 1.521,0 0,0.479 0,0.96 0,1.43 -0.2,0.181 -0.45,0.3 -0.74,0.38 -0.29,0.07 -0.59,0.11 -0.9,0.11 -0.51,0 -0.959,-0.12 -1.359,-0.37 -0.4,-0.24 -0.71,-0.59 -0.94,-1.04 -0.222,-0.43 -0.342,-0.94 -0.342,-1.51 z"
   id="path357" />
			<path
   d="m 25.166,32.125 c -0.94,0.06 -1.87,-0.061 -2.76,-0.36 -0.96,-0.31 -1.85,-0.83 -2.61,-1.5 -0.76,-0.67 -1.37,-1.5 -1.8,-2.41 -0.39,-0.84 -0.62,-1.76 -0.68,-2.69 -0.06,-0.93 0.06,-1.86 0.36,-2.75 0.31,-0.98 0.82,-1.85 1.49,-2.61 0.68,-0.76 1.5,-1.37 2.41,-1.8 0.85,-0.41 1.76,-0.63 2.7,-0.68 0.93,-0.06 1.86,0.06 2.75,0.35 0.97,0.32 1.85,0.83 2.61,1.5 0.76,0.67 1.369,1.49 1.8,2.41 0.399,0.85 0.63,1.76 0.68,2.68 0.061,0.95 -0.06,1.88 -0.35,2.76 -0.32,0.971 -0.83,1.86 -1.5,2.62 -0.67,0.76 -1.49,1.37 -2.41,1.79 -0.851,0.4 -1.76,0.63 -2.69,0.69 z m 1.709,-13.98 c -0.83,-0.27 -1.7,-0.38 -2.57,-0.33 -0.88,0.04 -1.73,0.27 -2.52,0.64 -0.85,0.39 -1.62,0.97 -2.25,1.68 -0.62,0.7 -1.1,1.53 -1.39,2.43 -0.28,0.83 -0.39,1.7 -0.34,2.57 0.06,0.87 0.27,1.72 0.64,2.52 0.4,0.851 0.97,1.61 1.68,2.25 0.71,0.61 1.54,1.101 2.44,1.391 0.82,0.279 1.7,0.39 2.57,0.34 0.87,-0.061 1.72,-0.28 2.51,-0.64 0.859,-0.4 1.62,-0.98 2.25,-1.681 0.63,-0.72 1.1,-1.55 1.399,-2.439 0.271,-0.83 0.381,-1.7 0.33,-2.57 -0.05,-0.87 -0.27,-1.72 -0.64,-2.51 -0.4,-0.86 -0.97,-1.62 -1.68,-2.25 -0.708,-0.631 -1.529,-1.111 -2.429,-1.401 z"
   id="path359" />
			<path
   d="m 25.235,33.345 c -1.09,0.08 -2.18,-0.07 -3.21,-0.41 -1.13,-0.36 -2.16,-0.95 -3.05,-1.75 -0.88,-0.77 -1.6,-1.729 -2.1,-2.8 -0.46,-0.99 -0.73,-2.05 -0.79,-3.14 -0.07,-1.09 0.07,-2.181 0.41,-3.23 0.37,-1.11 0.96,-2.16 1.75,-3.03 0.78,-0.89 1.74,-1.6 2.81,-2.1 0.99,-0.46 2.05,-0.73 3.14,-0.8 1.09,-0.06 2.18,0.08 3.22,0.42 1.12,0.37 2.16,0.96 3.04,1.75 0.88,0.77 1.601,1.74 2.101,2.81 0.46,0.98 0.729,2.04 0.8,3.14 0.06,1.09 -0.08,2.18 -0.42,3.21 -0.37,1.13 -0.96,2.159 -1.75,3.05 -0.78,0.88 -1.74,1.6 -2.811,2.1 -0.989,0.45 -2.05,0.73 -3.14,0.78 z m -3.06,-0.87 c 0.98,0.32 2,0.45 3.03,0.38 1.03,-0.05 2.03,-0.31 2.959,-0.75 1.011,-0.46 1.92,-1.14 2.66,-1.97 0.73,-0.84 1.29,-1.811 1.641,-2.87 0.319,-0.99 0.46,-2.01 0.39,-3.03 -0.061,-1.03 -0.311,-2.03 -0.75,-2.97 -0.47,-1 -1.14,-1.92 -1.98,-2.66 -0.83,-0.72 -1.81,-1.29 -2.87,-1.63 -0.97,-0.32 -2,-0.46 -3.029,-0.39 -1.03,0.06 -2.03,0.31 -2.96,0.75 -1.01,0.47 -1.91,1.14 -2.65,1.98 -0.74,0.83 -1.3,1.81 -1.65,2.87 -0.32,0.97 -0.45,2 -0.39,3.03 0.06,1.02 0.32,2.03 0.75,2.96 0.47,1.01 1.15,1.91 1.98,2.649 0.829,0.741 1.809,1.301 2.869,1.651 z"
   id="path361" />
			<path
   d="m 27.646,15.795 c -1.13,-0.37 -2.311,-0.52 -3.49,-0.45 -1.179,0.07 -2.34,0.37 -3.41,0.87 -1.17,0.54 -2.21,1.31 -3.06,2.28 -0.85,0.96 -1.49,2.08 -1.89,3.3 -0.37,1.13 -0.52,2.3 -0.45,3.48 0.07,1.19 0.36,2.351 0.86,3.41 0.55,1.17 1.32,2.21 2.28,3.07 0.96,0.84 2.09,1.49 3.31,1.89 1.12,0.37 2.3,0.521 3.49,0.45 1.181,-0.08 2.33,-0.36 3.41,-0.86 1.16,-0.55 2.2,-1.319 3.05,-2.279 0.851,-0.96 1.5,-2.101 1.9,-3.311 0.37,-1.13 0.52,-2.3 0.45,-3.49 -0.07,-1.18 -0.37,-2.33 -0.87,-3.41 -0.54,-1.16 -1.32,-2.2 -2.28,-3.06 -0.961,-0.84 -2.081,-1.49 -3.3,-1.89 z m -3.521,-0.94 c 1.24,-0.08 2.49,0.09 3.669,0.47 1.29,0.42 2.471,1.1 3.48,2 1.009,0.9 1.83,1.99 2.4,3.2 0.529,1.14 0.84,2.36 0.909,3.6 0.07,1.25 -0.09,2.48 -0.47,3.68 -0.43,1.28 -1.1,2.46 -2,3.47 -0.899,1.021 -1.99,1.82 -3.21,2.4 -1.13,0.53 -2.35,0.84 -3.59,0.92 -1.25,0.07 -2.49,-0.09 -3.68,-0.49 -1.28,-0.42 -2.47,-1.09 -3.48,-1.979 -1.01,-0.9 -1.82,-1.99 -2.4,-3.221 -0.52,-1.14 -0.83,-2.34 -0.91,-3.59 -0.07,-1.24 0.09,-2.49 0.48,-3.67 0.42,-1.3 1.1,-2.47 1.99,-3.48 0.9,-1.01 1.99,-1.83 3.22,-2.4 1.133,-0.53 2.342,-0.84 3.592,-0.91 z"
   id="path363" />
			<path
   d="m 28.025,14.625 c -1.271,-0.42 -2.61,-0.59 -3.95,-0.51 -1.33,0.08 -2.64,0.41 -3.86,0.98 -1.31,0.61 -2.49,1.49 -3.45,2.58 -0.96,1.08 -1.69,2.35 -2.15,3.74 -0.41,1.27 -0.59,2.6 -0.51,3.94 0.08,1.33 0.42,2.65 0.98,3.87 0.62,1.3 1.49,2.49 2.58,3.45 1.09,0.96 2.36,1.68 3.74,2.149 1.27,0.41 2.61,0.591 3.95,0.511 1.34,-0.08 2.649,-0.42 3.86,-0.99 1.319,-0.61 2.489,-1.5 3.449,-2.58 0.971,-1.08 1.7,-2.35 2.15,-3.74 0.42,-1.26 0.59,-2.6 0.51,-3.94 -0.08,-1.34 -0.41,-2.65 -0.979,-3.86 -0.61,-1.32 -1.49,-2.49 -2.58,-3.46 -1.079,-0.96 -2.36,-1.69 -3.74,-2.14 z m -13.39,14.81 c -0.59,-1.28 -0.94,-2.64 -1.02,-4.04 -0.08,-1.4 0.1,-2.81 0.53,-4.14 0.48,-1.44 1.24,-2.77 2.25,-3.91 1.01,-1.14 2.24,-2.06 3.61,-2.7 1.27,-0.59 2.64,-0.94 4.04,-1.02 1.4,-0.09 2.8,0.09 4.14,0.53 1.439,0.47 2.77,1.24 3.91,2.25 1.14,1 2.06,2.23 2.699,3.61 0.591,1.26 0.94,2.64 1.021,4.04 0.09,1.4 -0.09,2.79 -0.53,4.13 -0.47,1.45 -1.24,2.78 -2.25,3.91 -1,1.14 -2.229,2.06 -3.609,2.7 -1.271,0.6 -2.641,0.95 -4.04,1.029 -1.4,0.08 -2.8,-0.1 -4.13,-0.529 -1.45,-0.48 -2.78,-1.24 -3.92,-2.25 -1.13,-1.02 -2.051,-2.24 -2.701,-3.61 z"
   id="path365" />
			<path
   d="m 23.976,12.385 c 1.56,-0.09 3.109,0.11 4.59,0.6 1.61,0.52 3.09,1.37 4.35,2.49 1.261,1.12 2.28,2.49 3,4.02 0.66,1.41 1.04,2.93 1.141,4.49 0.09,1.54 -0.11,3.11 -0.601,4.589 -0.52,1.601 -1.37,3.08 -2.489,4.351 -1.12,1.26 -2.49,2.28 -4.021,2.99 -1.41,0.659 -2.93,1.05 -4.49,1.14 -1.55,0.1 -3.11,-0.1 -4.59,-0.59 -1.6,-0.53 -3.08,-1.37 -4.35,-2.49 -1.26,-1.13 -2.28,-2.49 -2.99,-4.02 -0.66,-1.41 -1.05,-2.94 -1.14,-4.49 -0.1,-1.56 0.1,-3.12 0.59,-4.59 0.53,-1.61 1.37,-3.1 2.49,-4.36 1.12,-1.25 2.49,-2.27 4.02,-2.99 1.41,-0.66 2.93,-1.04 4.49,-1.14 z m -10.531,8.63 c -0.47,1.42 -0.66,2.92 -0.57,4.42 0.09,1.49 0.46,2.95 1.09,4.311 0.69,1.47 1.67,2.77 2.88,3.85 1.21,1.08 2.63,1.9 4.18,2.4 1.42,0.47 2.91,0.659 4.4,0.569 1.5,-0.09 2.96,-0.47 4.31,-1.09 1.47,-0.7 2.78,-1.67 3.86,-2.88 1.069,-1.21 1.89,-2.63 2.39,-4.18 0.47,-1.42 0.66,-2.91 0.57,-4.4 -0.09,-1.5 -0.46,-2.96 -1.09,-4.31 -0.69,-1.47 -1.671,-2.78 -2.881,-3.86 -1.21,-1.07 -2.63,-1.89 -4.17,-2.4 -1.42,-0.46 -2.92,-0.65 -4.41,-0.56 -1.49,0.09 -2.95,0.46 -4.31,1.09 -1.47,0.69 -2.78,1.67 -3.86,2.87 -1.069,1.22 -1.889,2.64 -2.389,4.17 z"
   id="path367" />
			<path
   d="m 23.905,11.155 c 1.71,-0.1 3.42,0.12 5.05,0.65 1.761,0.58 3.391,1.51 4.78,2.75 1.39,1.23 2.51,2.72 3.3,4.41 0.72,1.55 1.15,3.22 1.25,4.94 0.101,1.7 -0.12,3.419 -0.649,5.05 -0.58,1.77 -1.511,3.39 -2.75,4.79 -1.23,1.39 -2.73,2.51 -4.41,3.279 -1.561,0.74 -3.23,1.16 -4.94,1.271 -1.71,0.1 -3.42,-0.12 -5.05,-0.66 -1.77,-0.57 -3.4,-1.51 -4.79,-2.74 -1.39,-1.229 -2.51,-2.74 -3.29,-4.42 -0.73,-1.55 -1.15,-3.22 -1.26,-4.95 -0.1,-1.7 0.12,-3.42 0.65,-5.04 0.58,-1.76 1.52,-3.39 2.75,-4.78 1.23,-1.39 2.74,-2.51 4.42,-3.3 1.549,-0.72 3.22,-1.15 4.939,-1.25 z m -3.27,26.02 c 1.57,0.51 3.22,0.72 4.87,0.62 1.65,-0.11 3.261,-0.5 4.761,-1.2 1.62,-0.76 3.069,-1.84 4.25,-3.18 1.189,-1.341 2.09,-2.91 2.649,-4.61 0.511,-1.57 0.73,-3.22 0.63,-4.87 -0.1,-1.66 -0.51,-3.26 -1.21,-4.76 -0.76,-1.62 -1.84,-3.07 -3.18,-4.25 -1.34,-1.19 -2.91,-2.09 -4.61,-2.65 -1.569,-0.51 -3.22,-0.73 -4.87,-0.63 -1.64,0.1 -3.26,0.51 -4.75,1.21 -1.62,0.76 -3.07,1.84 -4.26,3.18 -1.19,1.34 -2.09,2.9 -2.65,4.61 -0.51,1.57 -0.72,3.21 -0.62,4.86 0.1,1.649 0.5,3.26 1.2,4.76 0.76,1.62 1.84,3.07 3.18,4.25 1.34,1.2 2.911,2.09 4.61,2.66 z"
   id="path369" />
			<path
   d="m 29.186,11.105 c -1.72,-0.57 -3.521,-0.8 -5.33,-0.69 -1.8,0.11 -3.57,0.56 -5.21,1.32 -1.77,0.83 -3.36,2.01 -4.65,3.48 -1.3,1.46 -2.29,3.18 -2.9,5.04 -0.56,1.72 -0.8,3.51 -0.69,5.33 0.11,1.8 0.56,3.569 1.32,5.21 0.83,1.77 2.02,3.359 3.48,4.64 1.47,1.311 3.18,2.3 5.04,2.91 1.72,0.56 3.53,0.8 5.33,0.68 1.811,-0.1 3.57,-0.55 5.21,-1.31 1.771,-0.83 3.36,-2.03 4.66,-3.48 1.3,-1.47 2.28,-3.18 2.89,-5.05 0.57,-1.71 0.801,-3.52 0.69,-5.33 -0.11,-1.8 -0.56,-3.56 -1.32,-5.2 -0.83,-1.77 -2.01,-3.36 -3.479,-4.66 -1.461,-1.3 -3.182,-2.28 -5.041,-2.89 z m -3.581,28.41 c -1.86,0.12 -3.73,-0.12 -5.51,-0.7 -1.92,-0.63 -3.7,-1.649 -5.22,-3 -1.51,-1.34 -2.74,-2.979 -3.59,-4.81 -0.8,-1.7 -1.26,-3.521 -1.37,-5.4 -0.11,-1.86 0.13,-3.73 0.71,-5.51 0.63,-1.92 1.65,-3.69 2.99,-5.21 1.35,-1.52 2.99,-2.74 4.82,-3.6 1.7,-0.79 3.52,-1.25 5.39,-1.36 1.87,-0.12 3.74,0.12 5.51,0.71 1.931,0.63 3.7,1.65 5.221,2.99 1.52,1.35 2.739,2.98 3.6,4.81 0.79,1.71 1.25,3.53 1.36,5.4 0.12,1.85 -0.12,3.73 -0.71,5.51 -0.63,1.92 -1.65,3.7 -2.99,5.22 -1.35,1.51 -2.99,2.74 -4.82,3.59 -1.701,0.8 -3.52,1.26 -5.391,1.36 z"
   id="path371" />
		</g>
		<g
   id="g411">
			<path
   fill="none"
   stroke="#000000"
   stroke-width="0.15"
   stroke-linecap="round"
   stroke-linejoin="round"
   d="m 25.235,28.525 c 0.63,0 1.2,-0.09 1.69,-0.3 0.479,-0.21 0.85,-0.46 1.09,-0.76 0,-0.97 0,-1.95 0,-2.9 -0.88,0 -1.761,0 -2.641,0 0,0.34 0,0.69 0,1.03 0.511,0 1.011,0 1.521,0 0,0.479 0,0.96 0,1.43 -0.2,0.181 -0.45,0.3 -0.74,0.38 -0.29,0.07 -0.59,0.11 -0.9,0.11 -0.51,0 -0.959,-0.12 -1.359,-0.37 -0.4,-0.24 -0.71,-0.59 -0.94,-1.04 -0.22,-0.43 -0.34,-0.94 -0.34,-1.51 0,-0.5 0.11,-0.94 0.32,-1.34 0.2,-0.41 0.51,-0.74 0.9,-0.96 0.4,-0.24 0.87,-0.36 1.41,-0.36 0.811,0 1.431,0.16 1.84,0.5 0.15,-0.31 0.301,-0.62 0.45,-0.94 -0.08,-0.07 -0.22,-0.15 -0.42,-0.24 -0.2,-0.09 -0.46,-0.17 -0.78,-0.24 -0.319,-0.08 -0.68,-0.11 -1.069,-0.11 -0.74,0 -1.4,0.17 -1.98,0.49 -0.59,0.32 -1.04,0.77 -1.37,1.34 -0.33,0.57 -0.5,1.2 -0.5,1.93 0,0.73 0.17,1.39 0.49,1.98 0.33,0.59 0.78,1.04 1.36,1.38 0.578,0.33 1.228,0.5 1.968,0.5 z"
   id="path375" />
			<path
   fill="none"
   stroke="#000000"
   stroke-width="0.15"
   stroke-linecap="round"
   stroke-linejoin="round"
   d="m 23.785,9.185 c -1.96,0.11 -3.88,0.6 -5.66,1.43 -1.93,0.9 -3.65,2.19 -5.06,3.78 -1.41,1.59 -2.48,3.45 -3.14,5.48 -0.62,1.86 -0.87,3.81 -0.75,5.78 0.12,1.95 0.6,3.87 1.43,5.66 0.91,1.931 2.19,3.65 3.78,5.061 1.59,1.399 3.46,2.47 5.48,3.14 1.87,0.62 3.83,0.87 5.79,0.75 1.96,-0.12 3.87,-0.6 5.65,-1.43 1.93,-0.91 3.649,-2.19 5.06,-3.78 1.411,-1.59 2.48,-3.46 3.15,-5.48 0.609,-1.869 0.859,-3.829 0.739,-5.799 -0.109,-1.95 -0.6,-3.86 -1.43,-5.64 -0.899,-1.93 -2.189,-3.65 -3.78,-5.06 -1.59,-1.42 -3.449,-2.49 -5.479,-3.15 -1.86,-0.612 -3.82,-0.862 -5.78,-0.742 z"
   id="path377" />
			<path
   fill="none"
   stroke="#000000"
   stroke-width="0.15"
   stroke-linecap="round"
   stroke-linejoin="round"
   d="m 24.305,17.815 c -0.88,0.04 -1.73,0.27 -2.52,0.64 -0.85,0.39 -1.62,0.97 -2.25,1.68 -0.62,0.7 -1.1,1.53 -1.39,2.43 -0.28,0.83 -0.39,1.7 -0.34,2.57 0.06,0.87 0.27,1.72 0.64,2.52 0.4,0.851 0.97,1.61 1.68,2.25 0.71,0.61 1.54,1.101 2.44,1.391 0.82,0.279 1.7,0.39 2.57,0.34 0.87,-0.061 1.72,-0.28 2.51,-0.64 0.859,-0.4 1.62,-0.98 2.25,-1.681 0.63,-0.72 1.1,-1.55 1.399,-2.439 0.271,-0.83 0.381,-1.7 0.33,-2.57 -0.05,-0.87 -0.27,-1.72 -0.64,-2.51 -0.4,-0.86 -0.97,-1.62 -1.68,-2.25 -0.71,-0.63 -1.53,-1.11 -2.431,-1.4 -0.828,-0.271 -1.698,-0.381 -2.568,-0.331 z"
   id="path379" />
			<path
   fill="none"
   stroke="#000000"
   stroke-width="0.15"
   stroke-linecap="round"
   stroke-linejoin="round"
   d="m 24.275,17.325 c -0.94,0.05 -1.85,0.27 -2.7,0.68 -0.91,0.43 -1.73,1.04 -2.41,1.8 -0.67,0.76 -1.18,1.63 -1.49,2.61 -0.3,0.89 -0.42,1.82 -0.36,2.75 0.06,0.93 0.29,1.85 0.68,2.69 0.43,0.91 1.04,1.74 1.8,2.41 0.76,0.67 1.65,1.19 2.61,1.5 0.89,0.3 1.82,0.42 2.76,0.36 0.93,-0.061 1.839,-0.29 2.69,-0.69 0.92,-0.42 1.74,-1.03 2.41,-1.79 0.67,-0.76 1.18,-1.649 1.5,-2.62 0.29,-0.88 0.41,-1.81 0.35,-2.76 -0.05,-0.92 -0.28,-1.83 -0.68,-2.68 -0.431,-0.92 -1.04,-1.74 -1.8,-2.41 -0.761,-0.67 -1.641,-1.18 -2.61,-1.5 -0.889,-0.29 -1.819,-0.41 -2.75,-0.35 z"
   id="path381" />
			<path
   fill="none"
   stroke="#000000"
   stroke-width="0.15"
   stroke-linecap="round"
   stroke-linejoin="round"
   d="m 24.226,16.585 c -1.03,0.06 -2.03,0.31 -2.96,0.75 -1.01,0.47 -1.91,1.14 -2.65,1.98 -0.74,0.83 -1.3,1.81 -1.65,2.87 -0.32,0.97 -0.45,2 -0.39,3.03 0.06,1.02 0.32,2.03 0.75,2.96 0.47,1.01 1.15,1.91 1.98,2.649 0.83,0.74 1.81,1.301 2.87,1.65 0.98,0.32 2,0.45 3.03,0.38 1.03,-0.05 2.03,-0.31 2.959,-0.75 1.011,-0.46 1.92,-1.14 2.66,-1.97 0.73,-0.84 1.29,-1.811 1.641,-2.87 0.319,-0.99 0.46,-2.01 0.39,-3.03 -0.061,-1.03 -0.311,-2.03 -0.75,-2.97 -0.47,-1 -1.14,-1.92 -1.98,-2.66 -0.83,-0.72 -1.81,-1.29 -2.87,-1.63 -0.971,-0.319 -2.001,-0.459 -3.03,-0.389 z"
   id="path383" />
			<path
   fill="none"
   stroke="#000000"
   stroke-width="0.15"
   stroke-linecap="round"
   stroke-linejoin="round"
   d="m 24.195,16.085 c -1.09,0.07 -2.15,0.34 -3.14,0.8 -1.07,0.5 -2.03,1.21 -2.81,2.1 -0.79,0.87 -1.38,1.92 -1.75,3.03 -0.34,1.05 -0.48,2.14 -0.41,3.23 0.06,1.09 0.33,2.149 0.79,3.14 0.5,1.07 1.22,2.03 2.1,2.8 0.89,0.8 1.92,1.39 3.05,1.75 1.03,0.34 2.12,0.49 3.21,0.41 1.09,-0.05 2.15,-0.33 3.14,-0.78 1.07,-0.5 2.03,-1.22 2.811,-2.1 0.79,-0.891 1.38,-1.92 1.75,-3.05 0.34,-1.03 0.479,-2.12 0.42,-3.21 -0.07,-1.1 -0.34,-2.16 -0.8,-3.14 -0.5,-1.07 -1.221,-2.04 -2.101,-2.81 -0.88,-0.79 -1.92,-1.38 -3.04,-1.75 -1.04,-0.34 -2.13,-0.48 -3.22,-0.42 z"
   id="path385" />
			<path
   fill="none"
   stroke="#000000"
   stroke-width="0.15"
   stroke-linecap="round"
   stroke-linejoin="round"
   d="m 24.155,15.345 c -1.18,0.07 -2.34,0.37 -3.41,0.87 -1.17,0.54 -2.21,1.31 -3.06,2.28 -0.85,0.96 -1.49,2.08 -1.89,3.3 -0.37,1.13 -0.52,2.3 -0.45,3.48 0.07,1.19 0.36,2.351 0.86,3.41 0.55,1.17 1.32,2.21 2.28,3.07 0.96,0.84 2.09,1.49 3.31,1.89 1.12,0.37 2.3,0.521 3.49,0.45 1.181,-0.08 2.33,-0.36 3.41,-0.86 1.16,-0.55 2.2,-1.319 3.05,-2.279 0.851,-0.96 1.5,-2.101 1.9,-3.311 0.37,-1.13 0.52,-2.3 0.45,-3.49 -0.07,-1.18 -0.37,-2.33 -0.87,-3.41 -0.54,-1.16 -1.32,-2.2 -2.28,-3.06 -0.96,-0.84 -2.08,-1.49 -3.3,-1.89 -1.129,-0.37 -2.31,-0.52 -3.49,-0.45 z"
   id="path387" />
			<path
   fill="none"
   stroke="#000000"
   stroke-width="0.15"
   stroke-linecap="round"
   stroke-linejoin="round"
   d="m 24.125,14.855 c -1.25,0.07 -2.46,0.38 -3.59,0.91 -1.23,0.57 -2.32,1.39 -3.22,2.4 -0.89,1.01 -1.57,2.18 -1.99,3.48 -0.39,1.18 -0.55,2.43 -0.48,3.67 0.08,1.25 0.39,2.45 0.91,3.59 0.58,1.23 1.39,2.32 2.4,3.221 1.01,0.89 2.2,1.56 3.48,1.979 1.19,0.4 2.43,0.561 3.68,0.49 1.24,-0.08 2.46,-0.39 3.59,-0.92 1.22,-0.58 2.311,-1.38 3.21,-2.4 0.9,-1.01 1.57,-2.189 2,-3.47 0.38,-1.2 0.54,-2.43 0.47,-3.68 -0.069,-1.24 -0.38,-2.46 -0.909,-3.6 -0.57,-1.21 -1.391,-2.3 -2.4,-3.2 -1.009,-0.9 -2.19,-1.58 -3.48,-2 -1.181,-0.38 -2.431,-0.55 -3.671,-0.47 z"
   id="path389" />
			<path
   fill="none"
   stroke="#000000"
   stroke-width="0.15"
   stroke-linecap="round"
   stroke-linejoin="round"
   d="m 24.075,14.115 c -1.33,0.08 -2.64,0.41 -3.86,0.98 -1.31,0.61 -2.49,1.49 -3.45,2.58 -0.96,1.08 -1.69,2.35 -2.15,3.74 -0.41,1.27 -0.59,2.6 -0.51,3.94 0.08,1.33 0.42,2.65 0.98,3.87 0.62,1.3 1.49,2.49 2.58,3.45 1.09,0.96 2.36,1.68 3.74,2.149 1.27,0.41 2.61,0.591 3.95,0.511 1.34,-0.08 2.649,-0.42 3.86,-0.99 1.319,-0.61 2.489,-1.5 3.449,-2.58 0.971,-1.08 1.7,-2.35 2.15,-3.74 0.42,-1.26 0.59,-2.6 0.51,-3.94 -0.08,-1.34 -0.41,-2.65 -0.979,-3.86 -0.61,-1.32 -1.49,-2.49 -2.58,-3.46 -1.08,-0.96 -2.36,-1.69 -3.74,-2.14 -1.27,-0.42 -2.61,-0.59 -3.95,-0.51 z"
   id="path391" />
			<path
   fill="none"
   stroke="#000000"
   stroke-width="0.15"
   stroke-linecap="round"
   stroke-linejoin="round"
   d="m 24.045,13.625 c -1.4,0.08 -2.77,0.43 -4.04,1.02 -1.37,0.64 -2.6,1.56 -3.61,2.7 -1.01,1.14 -1.77,2.47 -2.25,3.91 -0.43,1.33 -0.61,2.74 -0.53,4.14 0.08,1.4 0.43,2.76 1.02,4.04 0.65,1.37 1.57,2.59 2.7,3.61 1.14,1.01 2.47,1.77 3.92,2.25 1.33,0.43 2.73,0.609 4.13,0.529 1.399,-0.079 2.77,-0.43 4.04,-1.029 1.38,-0.641 2.609,-1.561 3.609,-2.7 1.01,-1.13 1.78,-2.46 2.25,-3.91 0.44,-1.34 0.62,-2.729 0.53,-4.13 -0.08,-1.4 -0.43,-2.78 -1.021,-4.04 -0.64,-1.38 -1.56,-2.61 -2.699,-3.61 -1.141,-1.01 -2.471,-1.78 -3.91,-2.25 -1.338,-0.44 -2.739,-0.62 -4.139,-0.53 z"
   id="path393" />
			<path
   fill="none"
   stroke="#000000"
   stroke-width="0.15"
   stroke-linecap="round"
   stroke-linejoin="round"
   d="m 24.005,12.885 c -1.49,0.09 -2.95,0.46 -4.31,1.09 -1.47,0.69 -2.78,1.67 -3.86,2.87 -1.07,1.22 -1.89,2.64 -2.39,4.17 -0.47,1.42 -0.66,2.92 -0.57,4.42 0.09,1.49 0.46,2.95 1.09,4.311 0.69,1.47 1.67,2.77 2.88,3.85 1.21,1.08 2.63,1.9 4.18,2.4 1.42,0.47 2.91,0.659 4.4,0.569 1.5,-0.09 2.96,-0.47 4.31,-1.09 1.47,-0.7 2.78,-1.67 3.86,-2.88 1.069,-1.21 1.89,-2.63 2.39,-4.18 0.47,-1.42 0.66,-2.91 0.57,-4.4 -0.09,-1.5 -0.46,-2.96 -1.09,-4.31 -0.69,-1.47 -1.671,-2.78 -2.881,-3.86 -1.21,-1.07 -2.63,-1.89 -4.17,-2.4 -1.419,-0.46 -2.919,-0.65 -4.409,-0.56 z"
   id="path395" />
			<path
   fill="none"
   stroke="#000000"
   stroke-width="0.15"
   stroke-linecap="round"
   stroke-linejoin="round"
   d="m 23.976,12.385 c -1.56,0.1 -3.08,0.48 -4.49,1.14 -1.53,0.72 -2.9,1.74 -4.02,2.99 -1.12,1.26 -1.96,2.75 -2.49,4.36 -0.49,1.47 -0.69,3.03 -0.59,4.59 0.09,1.55 0.48,3.08 1.14,4.49 0.71,1.529 1.73,2.89 2.99,4.02 1.27,1.12 2.75,1.96 4.35,2.49 1.48,0.49 3.04,0.689 4.59,0.59 1.561,-0.09 3.08,-0.48 4.49,-1.14 1.53,-0.71 2.9,-1.73 4.021,-2.99 1.119,-1.271 1.97,-2.75 2.489,-4.351 0.49,-1.479 0.69,-3.05 0.601,-4.589 -0.101,-1.56 -0.48,-3.08 -1.141,-4.49 -0.72,-1.53 -1.739,-2.9 -3,-4.02 -1.26,-1.12 -2.739,-1.97 -4.35,-2.49 -1.481,-0.49 -3.031,-0.69 -4.59,-0.6 z"
   id="path397" />
			<path
   fill="none"
   stroke="#000000"
   stroke-width="0.15"
   stroke-linecap="round"
   stroke-linejoin="round"
   d="m 23.925,11.645 c -1.64,0.1 -3.26,0.51 -4.75,1.21 -1.62,0.76 -3.07,1.84 -4.26,3.18 -1.19,1.34 -2.09,2.9 -2.65,4.61 -0.51,1.57 -0.72,3.21 -0.62,4.86 0.1,1.649 0.5,3.26 1.2,4.76 0.76,1.62 1.84,3.07 3.18,4.25 1.34,1.2 2.91,2.09 4.61,2.66 1.57,0.51 3.22,0.72 4.87,0.62 1.65,-0.11 3.261,-0.5 4.761,-1.2 1.62,-0.76 3.069,-1.84 4.25,-3.18 1.189,-1.341 2.09,-2.91 2.649,-4.61 0.511,-1.57 0.73,-3.22 0.63,-4.87 -0.1,-1.66 -0.51,-3.26 -1.21,-4.76 -0.76,-1.62 -1.84,-3.07 -3.18,-4.25 -1.34,-1.19 -2.91,-2.09 -4.61,-2.65 -1.569,-0.51 -3.22,-0.73 -4.87,-0.63 z"
   id="path399" />
			<path
   fill="none"
   stroke="#000000"
   stroke-width="0.15"
   stroke-linecap="round"
   stroke-linejoin="round"
   d="m 23.905,11.155 c -1.72,0.1 -3.39,0.53 -4.94,1.25 -1.68,0.79 -3.19,1.91 -4.42,3.3 -1.23,1.39 -2.17,3.02 -2.75,4.78 -0.53,1.62 -0.75,3.34 -0.65,5.04 0.11,1.73 0.53,3.4 1.26,4.95 0.78,1.68 1.9,3.19 3.29,4.42 1.39,1.23 3.02,2.17 4.79,2.74 1.63,0.54 3.34,0.76 5.05,0.66 1.71,-0.11 3.38,-0.53 4.94,-1.271 1.68,-0.77 3.18,-1.89 4.41,-3.279 1.239,-1.4 2.17,-3.021 2.75,-4.79 0.529,-1.631 0.75,-3.351 0.649,-5.05 -0.1,-1.72 -0.53,-3.39 -1.25,-4.94 -0.79,-1.69 -1.91,-3.18 -3.3,-4.41 -1.39,-1.24 -3.02,-2.17 -4.78,-2.75 -1.629,-0.53 -3.339,-0.75 -5.049,-0.65 z"
   id="path401" />
			<path
   fill="none"
   stroke="#000000"
   stroke-width="0.15"
   stroke-linecap="round"
   stroke-linejoin="round"
   d="m 23.855,10.415 c -1.8,0.11 -3.57,0.56 -5.21,1.32 -1.77,0.83 -3.36,2.01 -4.65,3.48 -1.3,1.46 -2.29,3.18 -2.9,5.04 -0.56,1.72 -0.8,3.51 -0.69,5.33 0.11,1.8 0.56,3.569 1.32,5.21 0.83,1.77 2.02,3.359 3.48,4.64 1.47,1.311 3.18,2.3 5.04,2.91 1.72,0.56 3.53,0.8 5.33,0.68 1.811,-0.1 3.57,-0.55 5.21,-1.31 1.771,-0.83 3.36,-2.03 4.66,-3.48 1.3,-1.47 2.28,-3.18 2.89,-5.05 0.57,-1.71 0.801,-3.52 0.69,-5.33 -0.11,-1.8 -0.56,-3.56 -1.32,-5.2 -0.83,-1.77 -2.01,-3.36 -3.479,-4.66 -1.46,-1.3 -3.181,-2.28 -5.04,-2.89 -1.72,-0.57 -3.521,-0.8 -5.331,-0.69 z"
   id="path403" />
			<path
   fill="none"
   stroke="#000000"
   stroke-width="0.15"
   stroke-linecap="round"
   stroke-linejoin="round"
   d="m 23.825,9.925 c -1.87,0.11 -3.69,0.57 -5.39,1.36 -1.83,0.86 -3.47,2.08 -4.82,3.6 -1.34,1.52 -2.36,3.29 -2.99,5.21 -0.58,1.78 -0.82,3.65 -0.71,5.51 0.11,1.88 0.57,3.7 1.37,5.4 0.85,1.83 2.08,3.47 3.59,4.81 1.52,1.351 3.3,2.37 5.22,3 1.78,0.58 3.65,0.82 5.51,0.7 1.87,-0.1 3.689,-0.56 5.39,-1.36 1.83,-0.85 3.471,-2.08 4.82,-3.59 1.34,-1.52 2.36,-3.3 2.99,-5.22 0.59,-1.78 0.83,-3.66 0.71,-5.51 -0.11,-1.87 -0.57,-3.69 -1.36,-5.4 -0.86,-1.83 -2.08,-3.46 -3.6,-4.81 -1.521,-1.34 -3.29,-2.36 -5.221,-2.99 -1.769,-0.59 -3.639,-0.83 -5.509,-0.71 z"
   id="path405" />
			<path
   fill="none"
   stroke="#000000"
   stroke-width="0.15"
   stroke-linecap="round"
   stroke-linejoin="round"
   d="m 30.896,24.725 c 0,-0.79 -0.15,-1.55 -0.43,-2.29 -0.311,-0.77 -0.78,-1.48 -1.381,-2.09 -0.6,-0.59 -1.31,-1.07 -2.09,-1.37 -0.729,-0.29 -1.5,-0.43 -2.28,-0.43 -0.78,0 -1.55,0.14 -2.27,0.43 -0.79,0.3 -1.5,0.78 -2.1,1.37 -0.59,0.61 -1.06,1.32 -1.37,2.09 -0.29,0.74 -0.44,1.5 -0.44,2.29 0,0.78 0.15,1.54 0.44,2.271 0.31,0.779 0.78,1.5 1.37,2.1 0.6,0.59 1.31,1.06 2.1,1.37 0.72,0.29 1.49,0.439 2.27,0.439 0.78,0 1.55,-0.149 2.28,-0.439 0.78,-0.311 1.49,-0.78 2.09,-1.37 0.601,-0.6 1.07,-1.32 1.381,-2.1 0.279,-0.731 0.43,-1.491 0.43,-2.271 z"
   id="path407" />
			<path
   fill="none"
   stroke="#000000"
   stroke-width="0.15"
   stroke-linecap="round"
   stroke-linejoin="round"
   d="m 49.436,24.725 c 0,-3.13 -0.59,-6.21 -1.74,-9.1 -1.24,-3.14 -3.11,-5.99 -5.5,-8.38 -2.39,-2.39 -5.24,-4.26 -8.38,-5.5 -2.9,-1.15 -5.98,-1.74 -9.1,-1.74 -3.12,0 -6.2,0.59 -9.1,1.74 -3.14,1.24 -5.99,3.11 -8.37,5.5 -2.39,2.39 -4.27,5.24 -5.51,8.38 -1.15,2.89 -1.73,5.97 -1.73,9.1 0,3.11 0.58,6.2 1.73,9.1 1.24,3.141 3.12,5.99 5.5,8.36 2.39,2.4 5.24,4.28 8.38,5.521 2.9,1.14 5.98,1.729 9.1,1.729 3.12,0 6.2,-0.59 9.1,-1.729 3.14,-1.24 5.99,-3.12 8.38,-5.521 2.39,-2.37 4.26,-5.22 5.5,-8.36 1.15,-2.9 1.74,-5.99 1.74,-9.1 z"
   id="path409" />
		</g>
	</g>
</g>
</svg>
