<?xml version="1.0" encoding="UTF-8" standalone="no"?>
<!-- Generator: Adobe Illustrator 14.0.0, SVG Export Plug-In . SVG Version: 6.00 Build 43363)  -->

<svg
   version="1.1"
   id="Capa_1"
   x="0px"
   y="0px"
   width="111.5775"
   height="111.55275"
   viewBox="0 0 111.5775 111.55274"
   enable-background="new 0 0 49.59 49.58"
   xml:space="preserve"
   sodipodi:docname="kick.svg"
   inkscape:version="1.1.2 (76b9e6a115, 2022-02-25)"
   xmlns:inkscape="http://www.inkscape.org/namespaces/inkscape"
   xmlns:sodipodi="http://sodipodi.sourceforge.net/DTD/sodipodi-0.dtd"
   xmlns="http://www.w3.org/2000/svg"
   xmlns:svg="http://www.w3.org/2000/svg"><defs
   id="defs1123" /><sodipodi:namedview
   id="namedview1121"
   pagecolor="#ffffff"
   bordercolor="#666666"
   borderopacity="1.0"
   inkscape:pageshadow="2"
   inkscape:pageopacity="0.0"
   inkscape:pagecheckerboard="0"
   showgrid="false"
   fit-margin-top="0"
   fit-margin-left="0"
   fit-margin-right="0"
   fit-margin-bottom="0"
   inkscape:zoom="4.8104073"
   inkscape:cx="14.863606"
   inkscape:cy="78.891449"
   inkscape:window-width="1848"
   inkscape:window-height="1016"
   inkscape:window-x="72"
   inkscape:window-y="27"
   inkscape:window-maximized="1"
   inkscape:current-layer="Capa_1" />
<g
   id="g1118"
   transform="scale(2.25)">
	<g
   id="XMLID_15_">
		<g
   id="g1101">
			<path
   d="m 47.775,15.695 c 1.15,2.9 1.74,5.98 1.74,9.1 0,3.11 -0.59,6.2 -1.74,9.089 -1.239,3.141 -3.109,6 -5.5,8.381 -2.39,2.39 -5.239,4.26 -8.38,5.51 -2.899,1.14 -5.979,1.729 -9.1,1.729 -3.121,0 -6.2,-0.59 -9.1,-1.729 -3.14,-1.25 -5.99,-3.12 -8.38,-5.51 -2.38,-2.381 -4.26,-5.24 -5.5,-8.381 -1.15,-2.89 -1.74,-5.979 -1.74,-9.089 0,-3.12 0.59,-6.2 1.74,-9.1 1.24,-3.14 3.12,-5.99 5.5,-8.38 2.39,-2.39 5.24,-4.26 8.38,-5.5 2.9,-1.15 5.98,-1.74 9.1,-1.74 3.12,0 6.2,0.59 9.1,1.74 3.141,1.24 5.99,3.11 8.38,5.5 2.391,2.39 4.261,5.24 5.5,8.38 z m -7.409,9.59 c 0,-0.33 0,-0.66 0,-0.99 -0.25,-0.13 -0.511,-0.26 -0.771,-0.39 -0.2,-3.32 -1.5,-6.47 -3.7,-8.95 0.09,-0.28 0.17,-0.55 0.261,-0.82 -0.23,-0.24 -0.471,-0.47 -0.7,-0.7 -0.271,0.08 -0.55,0.17 -0.82,0.26 -2.49,-2.2 -5.64,-3.51 -8.95,-3.71 -0.13,-0.25 -0.26,-0.51 -0.39,-0.76 -0.33,0 -0.66,0 -0.99,0 -0.14,0.25 -0.27,0.51 -0.4,0.76 -3.31,0.2 -6.46,1.51 -8.95,3.71 -0.27,-0.09 -0.55,-0.18 -0.82,-0.26 -0.23,0.23 -0.47,0.46 -0.7,0.7 0.09,0.27 0.18,0.54 0.26,0.82 -2.2,2.48 -3.5,5.63 -3.7,8.95 -0.26,0.13 -0.51,0.26 -0.77,0.39 0,0.33 0,0.66 0,0.99 0.26,0.13 0.51,0.26 0.77,0.4 0.2,3.31 1.5,6.46 3.7,8.939 -0.08,0.28 -0.17,0.55 -0.26,0.83 0.23,0.23 0.47,0.46 0.7,0.7 0.27,-0.09 0.55,-0.18 0.82,-0.271 2.49,2.2 5.64,3.511 8.95,3.711 0.13,0.26 0.26,0.51 0.4,0.77 0.33,0 0.66,0 0.99,0 0.13,-0.26 0.26,-0.51 0.39,-0.77 3.31,-0.2 6.459,-1.511 8.95,-3.711 0.271,0.091 0.55,0.181 0.82,0.271 0.229,-0.24 0.47,-0.47 0.7,-0.7 -0.091,-0.28 -0.171,-0.55 -0.261,-0.83 2.2,-2.479 3.5,-5.63 3.7,-8.939 0.26,-0.14 0.521,-0.27 0.771,-0.4 z"
   id="path1095" />
			<path
   d="m 24.795,18.615 c 0.78,0 1.55,0.14 2.28,0.43 0.779,0.31 1.489,0.78 2.09,1.38 0.6,0.59 1.069,1.31 1.38,2.09 0.28,0.73 0.43,1.5 0.43,2.28 0,0.78 -0.149,1.55 -0.43,2.27 -0.311,0.79 -0.78,1.5 -1.38,2.1 -0.601,0.59 -1.311,1.061 -2.09,1.37 -0.73,0.29 -1.5,0.44 -2.28,0.44 -0.78,0 -1.55,-0.15 -2.27,-0.44 -0.79,-0.31 -1.5,-0.78 -2.1,-1.37 -0.6,-0.6 -1.06,-1.31 -1.37,-2.1 -0.29,-0.72 -0.44,-1.49 -0.44,-2.27 0,-0.78 0.15,-1.55 0.44,-2.28 0.31,-0.78 0.77,-1.5 1.37,-2.09 0.6,-0.6 1.31,-1.07 2.1,-1.38 0.72,-0.29 1.49,-0.43 2.27,-0.43 z m 1.77,9.88 h 1.29 l -3.24,-4.41 3.11,-3 h -1.33 l -3.68,3.68 v -3.68 h -0.98 v 7.41 h 0.98 v -2.57 l 1.21,-1.18 z"
   id="path1097" />
			<path
   d="m 12.385,19.875 c 0.67,-1.69 1.68,-3.23 2.97,-4.52 1.29,-1.29 2.83,-2.3 4.53,-2.97 1.56,-0.62 3.23,-0.94 4.91,-0.94 1.68,0 3.35,0.32 4.91,0.94 1.7,0.67 3.24,1.68 4.529,2.97 1.29,1.29 2.301,2.83 2.971,4.52 0.62,1.57 0.939,3.23 0.939,4.92 0,1.68 -0.319,3.339 -0.939,4.91 -0.67,1.7 -1.681,3.23 -2.971,4.521 -1.289,1.29 -2.829,2.3 -4.529,2.979 -1.561,0.62 -3.23,0.93 -4.91,0.93 -1.68,0 -3.35,-0.31 -4.91,-0.93 -1.7,-0.68 -3.24,-1.689 -4.53,-2.979 -1.29,-1.29 -2.3,-2.83 -2.97,-4.521 -0.62,-1.57 -0.94,-3.229 -0.94,-4.91 0,-1.69 0.32,-3.35 0.94,-4.92 z m 0.69,0.28 c -0.58,1.47 -0.88,3.05 -0.88,4.64 0,1.589 0.3,3.16 0.88,4.64 0.63,1.6 1.59,3.05 2.81,4.27 1.22,1.22 2.67,2.17 4.27,2.811 1.48,0.58 3.05,0.88 4.64,0.88 1.59,0 3.16,-0.3 4.64,-0.88 1.601,-0.641 3.061,-1.591 4.271,-2.811 1.22,-1.22 2.18,-2.67 2.81,-4.27 0.59,-1.48 0.891,-3.051 0.891,-4.64 0,-1.59 -0.301,-3.17 -0.891,-4.64 -0.63,-1.6 -1.59,-3.06 -2.81,-4.28 -1.21,-1.21 -2.67,-2.17 -4.271,-2.8 -1.479,-0.59 -3.05,-0.89 -4.64,-0.89 -1.59,0 -3.16,0.3 -4.64,0.89 -1.6,0.63 -3.05,1.59 -4.27,2.8 -1.219,1.22 -2.18,2.67 -2.81,4.28 z"
   id="path1099" />
		</g>
		<g
   id="g1115">
			<polygon
   fill="none"
   stroke="#000000"
   stroke-width="0.15"
   stroke-linecap="round"
   stroke-linejoin="round"
   points="22.715,24.765 22.715,21.085 21.735,21.085 21.735,28.495 22.715,28.495 22.715,25.925 23.925,24.745 26.565,28.495 27.855,28.495 24.615,24.085 27.725,21.085 26.395,21.085 "
   id="polygon1103" />
			<path
   fill="none"
   stroke="#000000"
   stroke-width="0.15"
   stroke-linecap="round"
   stroke-linejoin="round"
   d="m 30.975,24.795 c 0,-0.78 -0.149,-1.55 -0.43,-2.28 -0.311,-0.78 -0.78,-1.5 -1.38,-2.09 -0.601,-0.6 -1.311,-1.07 -2.09,-1.38 -0.73,-0.29 -1.5,-0.43 -2.28,-0.43 -0.78,0 -1.55,0.14 -2.27,0.43 -0.79,0.31 -1.5,0.78 -2.1,1.38 -0.6,0.59 -1.06,1.31 -1.37,2.09 -0.29,0.73 -0.44,1.5 -0.44,2.28 0,0.78 0.15,1.55 0.44,2.27 0.31,0.79 0.77,1.5 1.37,2.1 0.6,0.59 1.31,1.061 2.1,1.37 0.72,0.29 1.49,0.44 2.27,0.44 0.78,0 1.55,-0.15 2.28,-0.44 0.779,-0.31 1.489,-0.78 2.09,-1.37 0.6,-0.6 1.069,-1.31 1.38,-2.1 0.281,-0.719 0.43,-1.49 0.43,-2.27 z"
   id="path1105" />
			<path
   fill="none"
   stroke="#000000"
   stroke-width="0.15"
   stroke-linecap="round"
   stroke-linejoin="round"
   d="m 34.635,13.695 c 0.271,-0.09 0.55,-0.18 0.82,-0.26 0.229,0.23 0.47,0.46 0.7,0.7 -0.091,0.27 -0.171,0.54 -0.261,0.82 2.2,2.48 3.5,5.63 3.7,8.95 0.26,0.13 0.521,0.26 0.771,0.39 0,0.33 0,0.66 0,0.99 -0.25,0.13 -0.511,0.26 -0.771,0.4 -0.2,3.31 -1.5,6.46 -3.7,8.939 0.09,0.28 0.17,0.55 0.261,0.83 -0.23,0.23 -0.471,0.46 -0.7,0.7 -0.271,-0.09 -0.55,-0.18 -0.82,-0.271 -2.49,2.2 -5.64,3.511 -8.95,3.711 -0.13,0.26 -0.26,0.51 -0.39,0.77 -0.33,0 -0.66,0 -0.99,0 -0.14,-0.26 -0.27,-0.51 -0.4,-0.77 -3.31,-0.2 -6.46,-1.511 -8.95,-3.711 -0.27,0.091 -0.55,0.181 -0.82,0.271 -0.23,-0.24 -0.47,-0.47 -0.7,-0.7 0.09,-0.28 0.18,-0.55 0.26,-0.83 -2.2,-2.479 -3.5,-5.63 -3.7,-8.939 -0.26,-0.14 -0.51,-0.271 -0.77,-0.4 0,-0.33 0,-0.66 0,-0.99 0.26,-0.13 0.51,-0.26 0.77,-0.39 0.2,-3.32 1.5,-6.47 3.7,-8.95 -0.08,-0.28 -0.17,-0.55 -0.26,-0.82 0.23,-0.24 0.47,-0.47 0.7,-0.7 0.27,0.08 0.55,0.17 0.82,0.26 2.49,-2.2 5.64,-3.51 8.95,-3.71 0.13,-0.25 0.26,-0.51 0.4,-0.76 0.33,0 0.66,0 0.99,0 0.13,0.25 0.26,0.51 0.39,0.76 3.311,0.2 6.46,1.51 8.95,3.71 z"
   id="path1107" />
			<path
   fill="none"
   stroke="#000000"
   stroke-width="0.15"
   stroke-linecap="round"
   stroke-linejoin="round"
   d="m 37.406,24.795 c 0,-1.59 -0.301,-3.17 -0.891,-4.64 -0.63,-1.6 -1.59,-3.06 -2.81,-4.28 -1.21,-1.21 -2.67,-2.17 -4.271,-2.8 -1.479,-0.59 -3.05,-0.89 -4.64,-0.89 -1.59,0 -3.16,0.3 -4.64,0.89 -1.6,0.63 -3.05,1.59 -4.27,2.8 -1.22,1.22 -2.18,2.67 -2.81,4.28 -0.58,1.47 -0.88,3.05 -0.88,4.64 0,1.589 0.3,3.16 0.88,4.64 0.63,1.6 1.59,3.05 2.81,4.27 1.22,1.22 2.67,2.17 4.27,2.811 1.48,0.58 3.05,0.88 4.64,0.88 1.59,0 3.16,-0.3 4.64,-0.88 1.601,-0.641 3.061,-1.591 4.271,-2.811 1.22,-1.22 2.18,-2.67 2.81,-4.27 0.59,-1.48 0.891,-3.05 0.891,-4.64 z"
   id="path1109" />
			<path
   fill="none"
   stroke="#000000"
   stroke-width="0.15"
   stroke-linecap="round"
   stroke-linejoin="round"
   d="m 38.145,24.795 c 0,-1.69 -0.319,-3.35 -0.939,-4.92 -0.67,-1.69 -1.681,-3.23 -2.971,-4.52 -1.289,-1.29 -2.829,-2.3 -4.529,-2.97 -1.561,-0.62 -3.23,-0.94 -4.91,-0.94 -1.68,0 -3.35,0.32 -4.91,0.94 -1.7,0.67 -3.24,1.68 -4.53,2.97 -1.29,1.29 -2.3,2.83 -2.97,4.52 -0.62,1.57 -0.94,3.23 -0.94,4.92 0,1.68 0.32,3.339 0.94,4.91 0.67,1.69 1.68,3.23 2.97,4.521 1.29,1.291 2.83,2.3 4.53,2.979 1.56,0.62 3.23,0.93 4.91,0.93 1.68,0 3.35,-0.31 4.91,-0.93 1.7,-0.68 3.24,-1.689 4.529,-2.979 1.29,-1.29 2.301,-2.82 2.971,-4.521 0.62,-1.57 0.939,-3.229 0.939,-4.91 z"
   id="path1111" />
			<path
   fill="none"
   stroke="#000000"
   stroke-width="0.15"
   stroke-linecap="round"
   stroke-linejoin="round"
   d="m 49.515,24.795 c 0,-3.12 -0.59,-6.2 -1.74,-9.1 -1.239,-3.14 -3.109,-5.99 -5.5,-8.38 -2.39,-2.39 -5.239,-4.26 -8.38,-5.5 -2.899,-1.15 -5.979,-1.74 -9.1,-1.74 -3.121,0 -6.2,0.59 -9.1,1.74 -3.14,1.24 -5.99,3.11 -8.38,5.5 -2.38,2.39 -4.26,5.24 -5.5,8.38 -1.15,2.9 -1.74,5.98 -1.74,9.1 0,3.11 0.59,6.2 1.74,9.089 1.24,3.141 3.12,6 5.5,8.381 2.39,2.39 5.24,4.26 8.38,5.51 2.9,1.14 5.98,1.729 9.1,1.729 3.12,0 6.2,-0.59 9.1,-1.729 3.141,-1.25 5.99,-3.12 8.38,-5.51 2.391,-2.381 4.261,-5.24 5.5,-8.381 1.15,-2.889 1.74,-5.979 1.74,-9.089 z"
   id="path1113" />
		</g>
	</g>
</g>
</svg>
