<?xml version="1.0" encoding="UTF-8" standalone="no"?>
<!-- Created with Inkscape (http://www.inkscape.org/) -->

<svg
   width="22.651861mm"
   height="22.655388mm"
   viewBox="0 0 22.651861 22.655388"
   version="1.1"
   id="svg14478"
   inkscape:version="1.1.2 (76b9e6a115, 2022-02-25)"
   sodipodi:docname="kick2.svg"
   xmlns:inkscape="http://www.inkscape.org/namespaces/inkscape"
   xmlns:sodipodi="http://sodipodi.sourceforge.net/DTD/sodipodi-0.dtd"
   xmlns="http://www.w3.org/2000/svg"
   xmlns:svg="http://www.w3.org/2000/svg">
  <sodipodi:namedview
     id="namedview14480"
     pagecolor="#ffffff"
     bordercolor="#666666"
     borderopacity="1.0"
     inkscape:pageshadow="2"
     inkscape:pageopacity="0.0"
     inkscape:pagecheckerboard="0"
     inkscape:document-units="mm"
     showgrid="false"
     inkscape:zoom="0.75187991"
     inkscape:cx="23.274993"
     inkscape:cy="309.22491"
     inkscape:window-width="1848"
     inkscape:window-height="1016"
     inkscape:window-x="72"
     inkscape:window-y="27"
     inkscape:window-maximized="1"
     inkscape:current-layer="layer1" />
  <defs
     id="defs14475">
    <clipPath
       clipPathUnits="userSpaceOnUse"
       id="clipPath11493">
      <path
         d="m 159.87,587.2 h 57.36 v -57.36 h -57.36 z"
         id="path11491" />
    </clipPath>
  </defs>
  <g
     inkscape:label="Capa 1"
     inkscape:groupmode="layer"
     id="layer1"
     transform="translate(-98.817435,-66.793159)">
    <g
       id="g11487"
       transform="matrix(0.35277777,0,0,-0.35277777,43.627187,275.15267)">
      <g
         id="g11489" />
      <g
         id="g11509">
        <g
           clip-path="url(#clipPath11493)"
           id="g11507">
          <g
             transform="translate(216.3198,558.52)"
             id="g11497">
            <path
               d="m 0,0 c 0,3.5 -0.66,6.96 -1.95,10.22 -1.4,3.53 -3.5,6.73 -6.19,9.41 -2.68,2.69 -5.88,4.79 -9.41,6.19 -3.26,1.29 -6.72,1.95 -10.22,1.95 -3.5,0 -6.97,-0.66 -10.22,-1.95 -3.53,-1.4 -6.73,-3.5 -9.41,-6.19 -2.69,-2.68 -4.79,-5.88 -6.19,-9.41 C -54.88,6.96 -55.54,3.5 -55.54,0 c 0,-3.5 0.66,-6.97 1.95,-10.22 1.4,-3.53 3.5,-6.73 6.19,-9.42 2.68,-2.68 5.88,-4.78 9.41,-6.18 3.25,-1.29 6.72,-1.95 10.22,-1.95 3.5,0 6.96,0.66 10.22,1.95 3.53,1.4 6.73,3.5 9.41,6.18 2.69,2.69 4.79,5.89 6.19,9.42 C -0.66,-6.97 0,-3.5 0,0 M -1.1,10.56 C 0.23,7.19 0.91,3.62 0.91,0 c 0,-3.62 -0.68,-7.2 -2.01,-10.56 -1.44,-3.64 -3.62,-6.95 -6.39,-9.72 -2.77,-2.77 -6.08,-4.95 -9.72,-6.39 -3.37,-1.33 -6.94,-2.01 -10.56,-2.01 -3.62,0 -7.2,0.68 -10.56,2.01 -3.64,1.44 -6.95,3.62 -9.72,6.39 -2.77,2.77 -4.95,6.08 -6.39,9.72 -1.33,3.36 -2.01,6.94 -2.01,10.56 0,3.62 0.68,7.19 2.01,10.56 1.44,3.64 3.62,6.95 6.39,9.72 2.77,2.77 6.08,4.94 9.72,6.39 3.36,1.33 6.94,2.01 10.56,2.01 3.62,0 7.19,-0.68 10.56,-2.01 3.64,-1.45 6.95,-3.62 9.72,-6.39 2.77,-2.77 4.95,-6.08 6.39,-9.72"
               style="fill:#285468;fill-opacity:1;fill-rule:nonzero;stroke:none"
               id="path11495" />
          </g>
          <g
             transform="translate(200.75,558.52)"
             id="g11501">
            <path
               d="m 0,0 c 0,1.54 -0.29,3.06 -0.85,4.49 -0.62,1.55 -1.54,2.96 -2.72,4.14 -1.18,1.18 -2.59,2.1 -4.14,2.72 -1.43,0.56 -2.95,0.85 -4.49,0.85 -1.54,0 -3.06,-0.29 -4.49,-0.85 -1.55,-0.62 -2.96,-1.54 -4.14,-2.72 -1.18,-1.18 -2.1,-2.59 -2.72,-4.14 -0.57,-1.43 -0.86,-2.95 -0.86,-4.49 0,-1.54 0.29,-3.06 0.86,-4.49 0.61,-1.55 1.54,-2.96 2.72,-4.14 1.18,-1.18 2.59,-2.11 4.14,-2.72 1.43,-0.57 2.95,-0.86 4.49,-0.86 1.54,0 3.06,0.29 4.49,0.86 1.55,0.61 2.96,1.54 4.14,2.72 1.18,1.18 2.1,2.59 2.72,4.14 C -0.29,-3.06 0,-1.54 0,0 m 12.77,9.88 c 1.24,-3.15 1.88,-6.5 1.88,-9.88 0,-3.39 -0.64,-6.74 -1.88,-9.89 -1.35,-3.41 -3.39,-6.5 -5.98,-9.1 -2.6,-2.59 -5.7,-4.63 -9.11,-5.98 -3.14,-1.24 -6.49,-1.88 -9.88,-1.88 -3.39,0 -6.74,0.64 -9.88,1.88 -3.42,1.35 -6.51,3.39 -9.11,5.98 -2.59,2.6 -4.63,5.69 -5.98,9.1 -1.24,3.15 -1.88,6.5 -1.88,9.89 0,3.39 0.64,6.73 1.88,9.88 1.35,3.41 3.39,6.51 5.98,9.11 2.6,2.59 5.69,4.62 9.11,5.98 3.14,1.24 6.49,1.88 9.88,1.88 3.39,0 6.74,-0.64 9.88,-1.88 3.42,-1.36 6.51,-3.39 9.11,-5.98 2.59,-2.6 4.63,-5.7 5.98,-9.11"
               style="fill:#285468;fill-opacity:1;fill-rule:nonzero;stroke:none"
               id="path11499" />
          </g>
          <g
             transform="translate(188.3301,559.3901)"
             id="g11505">
            <path
               d="M 0,0 4,-5.45 H 2.4 l -3.25,4.63 -1.5,-1.46 V -5.45 H -3.56 V 3.7 h 1.21 V -0.83 L 2.19,3.7 h 1.64 z"
               style="fill:#285468;fill-opacity:1;fill-rule:nonzero;stroke:none"
               id="path11503" />
          </g>
        </g>
      </g>
    </g>
    <g
       id="g11511"
       transform="matrix(0.35277777,0,0,-0.35277777,114.44732,78.11923)">
      <path
         d="m 0,0 c 0,1.54 -0.29,3.06 -0.85,4.49 -0.62,1.55 -1.54,2.96 -2.72,4.14 -1.18,1.18 -2.59,2.1 -4.14,2.72 -1.43,0.56 -2.95,0.85 -4.49,0.85 -1.54,0 -3.06,-0.29 -4.49,-0.85 -1.55,-0.62 -2.96,-1.54 -4.14,-2.72 -1.18,-1.18 -2.1,-2.59 -2.72,-4.14 -0.57,-1.43 -0.86,-2.95 -0.86,-4.49 0,-1.54 0.29,-3.06 0.86,-4.49 0.61,-1.55 1.54,-2.96 2.72,-4.14 1.18,-1.18 2.59,-2.11 4.14,-2.72 1.43,-0.57 2.95,-0.86 4.49,-0.86 1.54,0 3.06,0.29 4.49,0.86 1.55,0.61 2.96,1.54 4.14,2.72 1.18,1.18 2.1,2.59 2.72,4.14 C -0.29,-3.06 0,-1.54 0,0 Z"
         style="fill:none;stroke:#285468;stroke-width:0.25;stroke-linecap:round;stroke-linejoin:round;stroke-miterlimit:4;stroke-dasharray:none;stroke-opacity:1"
         id="path11513" />
    </g>
    <g
       id="g11515"
       transform="matrix(0.35277777,0,0,-0.35277777,99.397754,77.455867)">
      <path
         d="M 0,0 C -0.42,-0.22 -0.85,-0.44 -1.27,-0.66 V -3.1 C -0.85,-3.32 -0.42,-3.54 0,-3.76 0.42,-10.55 3.09,-16.99 7.6,-22.09 7.45,-22.54 7.3,-23 7.16,-23.46 c 0.57,-0.57 1.15,-1.15 1.72,-1.72 0.46,0.14 0.92,0.29 1.37,0.43 5.1,-4.5 11.55,-7.17 18.33,-7.59 0.22,-0.42 0.44,-0.85 0.66,-1.28 h 2.44 c 0.22,0.43 0.44,0.86 0.66,1.28 6.78,0.42 13.23,3.09 18.33,7.59 0.45,-0.14 0.91,-0.29 1.37,-0.43 0.57,0.57 1.15,1.15 1.72,1.72 -0.14,0.46 -0.29,0.92 -0.44,1.37 4.51,5.1 7.18,11.54 7.59,18.33 0.43,0.22 0.86,0.44 1.28,0.66 v 2.44 c -0.42,0.22 -0.85,0.44 -1.28,0.66 -0.41,6.78 -3.08,13.23 -7.59,18.32 0.15,0.46 0.3,0.92 0.44,1.37 -0.57,0.58 -1.15,1.16 -1.72,1.73 -0.46,-0.14 -0.92,-0.29 -1.37,-0.44 -5.1,4.5 -11.55,7.17 -18.33,7.59 -0.22,0.43 -0.44,0.86 -0.66,1.28 H 29.24 C 29.02,29.43 28.8,29 28.58,28.57 21.8,28.15 15.35,25.48 10.25,20.98 9.8,21.13 9.34,21.28 8.88,21.42 8.31,20.85 7.73,20.27 7.16,19.69 7.3,19.24 7.45,18.78 7.6,18.32 3.09,13.23 0.42,6.78 0,0 Z"
         style="fill:none;stroke:#285468;stroke-width:0.75;stroke-linecap:round;stroke-linejoin:round;stroke-miterlimit:4;stroke-dasharray:none;stroke-opacity:1"
         id="path11517" />
    </g>
    <g
       id="g11519"
       transform="matrix(0.35277777,0,0,-0.35277777,119.61548,78.11923)">
      <path
         d="m 0,0 c 0,3.38 -0.64,6.73 -1.88,9.88 -1.35,3.41 -3.39,6.51 -5.98,9.11 -2.6,2.59 -5.69,4.62 -9.11,5.98 -3.14,1.24 -6.49,1.88 -9.88,1.88 -3.39,0 -6.74,-0.64 -9.88,-1.88 -3.42,-1.36 -6.51,-3.39 -9.11,-5.98 -2.59,-2.6 -4.63,-5.7 -5.98,-9.11 C -53.06,6.73 -53.7,3.39 -53.7,0 c 0,-3.39 0.64,-6.74 1.88,-9.89 1.35,-3.41 3.39,-6.5 5.98,-9.1 2.6,-2.59 5.69,-4.63 9.11,-5.98 3.14,-1.24 6.49,-1.88 9.88,-1.88 3.39,0 6.74,0.64 9.88,1.88 3.41,1.35 6.51,3.39 9.11,5.98 2.59,2.6 4.63,5.69 5.98,9.1 C -0.64,-6.74 0,-3.39 0,0 Z"
         style="fill:none;stroke:#285468;stroke-width:0.25;stroke-linecap:round;stroke-linejoin:round;stroke-miterlimit:4;stroke-dasharray:none;stroke-opacity:1"
         id="path11521" />
    </g>
    <g
       id="g11523"
       transform="matrix(0.35277777,0,0,-0.35277777,119.94,78.11923)">
      <path
         d="m 0,0 c 0,3.5 -0.66,6.96 -1.95,10.22 -1.4,3.53 -3.5,6.73 -6.19,9.41 -2.68,2.69 -5.88,4.79 -9.41,6.19 -3.26,1.29 -6.72,1.95 -10.22,1.95 -3.5,0 -6.97,-0.66 -10.22,-1.95 -3.53,-1.4 -6.73,-3.5 -9.41,-6.19 -2.69,-2.68 -4.79,-5.88 -6.19,-9.41 C -54.88,6.96 -55.54,3.5 -55.54,0 c 0,-3.5 0.66,-6.97 1.95,-10.22 1.4,-3.53 3.5,-6.73 6.19,-9.42 2.68,-2.68 5.88,-4.78 9.41,-6.18 3.25,-1.29 6.72,-1.95 10.22,-1.95 3.5,0 6.96,0.66 10.22,1.95 3.53,1.4 6.73,3.5 9.41,6.18 2.69,2.69 4.79,5.89 6.19,9.42 C -0.66,-6.97 0,-3.5 0,0 Z"
         style="fill:none;stroke:#285468;stroke-width:0.25;stroke-linecap:round;stroke-linejoin:round;stroke-miterlimit:4;stroke-dasharray:none;stroke-opacity:1"
         id="path11525" />
    </g>
    <g
       id="g11527"
       transform="matrix(0.35277777,0,0,-0.35277777,120.2611,78.11923)">
      <path
         d="m 0,0 c 0,3.62 -0.68,7.19 -2.01,10.56 -1.44,3.64 -3.62,6.95 -6.39,9.72 -2.77,2.77 -6.08,4.94 -9.72,6.39 -3.37,1.33 -6.94,2.01 -10.56,2.01 -3.62,0 -7.2,-0.68 -10.56,-2.01 -3.64,-1.45 -6.95,-3.62 -9.72,-6.39 -2.77,-2.77 -4.95,-6.08 -6.39,-9.72 -1.33,-3.37 -2.01,-6.94 -2.01,-10.56 0,-3.62 0.68,-7.2 2.01,-10.56 1.44,-3.64 3.62,-6.95 6.39,-9.72 2.77,-2.77 6.08,-4.95 9.72,-6.39 3.36,-1.33 6.94,-2.01 10.56,-2.01 3.62,0 7.19,0.68 10.56,2.01 3.64,1.44 6.95,3.62 9.72,6.39 2.77,2.77 4.95,6.08 6.39,9.72 C -0.68,-7.2 0,-3.62 0,0 Z"
         style="fill:none;stroke:#285468;stroke-width:0.25;stroke-linecap:round;stroke-linejoin:round;stroke-miterlimit:4;stroke-dasharray:none;stroke-opacity:1"
         id="path11529" />
    </g>
    <g
       id="g11531"
       transform="matrix(0.35277777,0,0,-0.35277777,108.80994,79.734811)">
      <path
         d="M 0,0 H 1.21 V 3.17 L 2.71,4.63 5.96,0 h 1.6 l -4,5.45 3.83,3.7 H 5.75 L 1.21,4.62 V 9.15 H 0 Z"
         style="fill:none;stroke:#285468;stroke-width:0.25;stroke-linecap:round;stroke-linejoin:round;stroke-miterlimit:4;stroke-dasharray:none;stroke-opacity:1"
         id="path11533" />
    </g>
  </g>
</svg>
