<?xml version="1.0" encoding="UTF-8" standalone="no"?>
<!-- Generator: Adobe Illustrator 14.0.0, SVG Export Plug-In . SVG Version: 6.00 Build 43363)  -->

<svg
   version="1.1"
   id="Capa_1"
   x="0px"
   y="0px"
   width="111.555"
   height="111.555"
   viewBox="0 0 111.555 111.555"
   enable-background="new 0 0 49.44 49.43"
   xml:space="preserve"
   sodipodi:docname="ride.svg"
   inkscape:version="1.1.2 (76b9e6a115, 2022-02-25)"
   xmlns:inkscape="http://www.inkscape.org/namespaces/inkscape"
   xmlns:sodipodi="http://sodipodi.sourceforge.net/DTD/sodipodi-0.dtd"
   xmlns="http://www.w3.org/2000/svg"
   xmlns:svg="http://www.w3.org/2000/svg"><defs
   id="defs2550" /><sodipodi:namedview
   id="namedview2548"
   pagecolor="#ffffff"
   bordercolor="#666666"
   borderopacity="1.0"
   inkscape:pageshadow="2"
   inkscape:pageopacity="0.0"
   inkscape:pagecheckerboard="0"
   showgrid="false"
   fit-margin-top="0"
   fit-margin-left="0"
   fit-margin-right="0"
   fit-margin-bottom="0"
   inkscape:zoom="3.4117938"
   inkscape:cx="30.042847"
   inkscape:cy="19.198112"
   inkscape:window-width="1848"
   inkscape:window-height="1016"
   inkscape:window-x="72"
   inkscape:window-y="27"
   inkscape:window-maximized="1"
   inkscape:current-layer="Capa_1" />
<g
   id="g2545"
   transform="matrix(2.25,0,0,2.25,-0.02249999,0.16875001)">
	<g
   id="XMLID_23_">
		<g
   id="g2502">
			<path
   d="m 25.735,40.26 c 1.959,-0.12 3.879,-0.601 5.66,-1.431 1.93,-0.91 3.65,-2.189 5.061,-3.779 1.409,-1.591 2.479,-3.461 3.14,-5.48 0.62,-1.87 0.87,-3.83 0.75,-5.79 -0.12,-1.96 -0.6,-3.87 -1.43,-5.65 -0.91,-1.93 -2.19,-3.65 -3.78,-5.06 -1.601,-1.42 -3.46,-2.49 -5.48,-3.15 -1.87,-0.61 -3.83,-0.86 -5.79,-0.74 -1.96,0.11 -3.87,0.6 -5.65,1.43 -1.93,0.9 -3.65,2.19 -5.06,3.78 -1.42,1.59 -2.49,3.45 -3.15,5.48 -0.61,1.86 -0.86,3.82 -0.75,5.78 0.12,1.96 0.61,3.88 1.44,5.66 0.9,1.93 2.19,3.649 3.78,5.06 1.59,1.411 3.45,2.48 5.48,3.141 1.859,0.618 3.819,0.868 5.779,0.749 z m 22.05,-24.64 c 1.15,2.9 1.73,5.98 1.73,9.1 0,3.11 -0.58,6.2 -1.73,9.1 -1.25,3.14 -3.119,5.99 -5.51,8.37 -2.38,2.39 -5.24,4.27 -8.37,5.51 -2.899,1.15 -5.989,1.73 -9.1,1.73 -3.12,0 -6.2,-0.58 -9.1,-1.73 -3.14,-1.24 -5.99,-3.12 -8.38,-5.51 -2.39,-2.38 -4.26,-5.23 -5.5,-8.37 -1.15,-2.9 -1.74,-5.99 -1.74,-9.1 0,-3.12 0.59,-6.2 1.74,-9.1 1.24,-3.14 3.11,-5.99 5.5,-8.38 2.39,-2.39 5.24,-4.26 8.38,-5.5 2.9,-1.15 5.98,-1.74 9.1,-1.74 3.11,0 6.2,0.59 9.1,1.74 3.141,1.24 5.99,3.11 8.37,5.5 2.391,2.39 4.26,5.24 5.51,8.38 z"
   id="path2482" />
			<path
   d="m 25.845,23.27 c 0,0.4 -0.13,0.74 -0.37,1.02 -0.25,0.29 -0.7,0.43 -1.36,0.43 -0.24,0 -0.48,0 -0.71,0 0,-0.92 0,-1.85 0,-2.77 0.22,0 0.45,0 0.67,0 1.18,0 1.77,0.44 1.77,1.32 z"
   id="path2484" />
			<path
   d="m 22.305,28.43 c 0.36,0 0.73,0 1.1,0 0,-0.931 0,-1.86 0,-2.79 0.09,0 0.18,0 0.28,0 0.24,0 0.52,-0.011 0.83,-0.021 0.49,0.94 0.99,1.87 1.49,2.811 0.43,0 0.87,0 1.3,0 -0.59,-1.021 -1.18,-2.04 -1.77,-3.05 0.46,-0.2 0.81,-0.47 1.04,-0.83 0.23,-0.36 0.351,-0.79 0.351,-1.29 0,-0.79 -0.28,-1.37 -0.83,-1.72 -0.55,-0.35 -1.26,-0.53 -2.11,-0.53 -0.56,0 -1.12,0 -1.68,0 -0.001,2.47 -0.001,4.94 -0.001,7.42 z m 6.87,0.659 c -0.601,0.591 -1.311,1.061 -2.101,1.37 -0.72,0.29 -1.49,0.44 -2.27,0.44 -0.78,0 -1.55,-0.15 -2.28,-0.44 -0.78,-0.31 -1.49,-0.779 -2.09,-1.37 -0.6,-0.6 -1.07,-1.31 -1.38,-2.1 -0.28,-0.72 -0.43,-1.49 -0.43,-2.27 0,-0.78 0.15,-1.55 0.43,-2.28 0.31,-0.78 0.78,-1.49 1.38,-2.09 0.6,-0.6 1.31,-1.07 2.09,-1.38 0.73,-0.28 1.5,-0.43 2.28,-0.43 0.78,0 1.55,0.15 2.27,0.43 0.79,0.31 1.5,0.78 2.101,1.38 0.59,0.6 1.06,1.31 1.37,2.09 0.29,0.73 0.439,1.5 0.439,2.28 0,0.78 -0.149,1.55 -0.439,2.27 -0.31,0.791 -0.78,1.501 -1.37,2.1 z"
   id="path2486" />
			<path
   d="m 30.355,29.64 c -0.68,0.76 -1.5,1.37 -2.41,1.8 -0.85,0.39 -1.76,0.62 -2.7,0.68 -0.93,0.061 -1.86,-0.06 -2.75,-0.359 -0.97,-0.311 -1.85,-0.82 -2.61,-1.49 -0.76,-0.681 -1.37,-1.5 -1.8,-2.41 -0.4,-0.85 -0.63,-1.76 -0.68,-2.7 -0.06,-0.93 0.06,-1.86 0.35,-2.75 0.32,-0.97 0.83,-1.85 1.5,-2.61 0.67,-0.76 1.49,-1.37 2.41,-1.8 0.85,-0.4 1.76,-0.63 2.69,-0.68 0.94,-0.06 1.87,0.06 2.76,0.35 0.96,0.32 1.851,0.83 2.61,1.5 0.75,0.67 1.37,1.49 1.8,2.41 0.391,0.85 0.62,1.76 0.681,2.69 0.06,0.94 -0.07,1.87 -0.36,2.76 -0.311,0.959 -0.821,1.848 -1.491,2.609 z m -2.62,1.35 c 0.851,-0.4 1.62,-0.97 2.25,-1.68 0.62,-0.71 1.101,-1.54 1.391,-2.44 0.279,-0.83 0.39,-1.7 0.34,-2.57 -0.061,-0.87 -0.271,-1.72 -0.641,-2.51 -0.399,-0.86 -0.97,-1.62 -1.68,-2.25 -0.71,-0.63 -1.54,-1.1 -2.439,-1.4 -0.831,-0.27 -1.7,-0.38 -2.57,-0.33 -0.87,0.05 -1.72,0.27 -2.51,0.64 -0.86,0.4 -1.62,0.97 -2.25,1.68 -0.63,0.7 -1.1,1.53 -1.4,2.43 -0.27,0.83 -0.38,1.7 -0.33,2.57 0.05,0.87 0.27,1.73 0.64,2.52 0.4,0.85 0.97,1.62 1.68,2.25 0.7,0.62 1.53,1.1 2.43,1.39 0.83,0.28 1.7,0.391 2.57,0.34 0.869,-0.06 1.729,-0.27 2.519,-0.64 z"
   id="path2488" />
			<path
   d="m 31.275,30.459 c -0.779,0.88 -1.74,1.601 -2.81,2.101 -0.99,0.46 -2.05,0.729 -3.14,0.79 -1.09,0.069 -2.18,-0.07 -3.22,-0.41 -1.12,-0.37 -2.16,-0.96 -3.04,-1.75 -0.89,-0.78 -1.6,-1.74 -2.1,-2.811 -0.46,-0.989 -0.73,-2.05 -0.8,-3.14 -0.06,-1.09 0.08,-2.18 0.42,-3.22 0.37,-1.12 0.96,-2.16 1.74,-3.04 0.79,-0.88 1.75,-1.6 2.82,-2.1 0.98,-0.46 2.05,-0.73 3.14,-0.8 1.09,-0.06 2.18,0.08 3.21,0.42 1.13,0.37 2.159,0.96 3.05,1.75 0.88,0.78 1.59,1.74 2.09,2.81 0.47,0.98 0.74,2.05 0.8,3.14 0.07,1.09 -0.07,2.18 -0.41,3.21 -0.37,1.131 -0.97,2.161 -1.75,3.05 z m -3.02,1.651 c 1.01,-0.47 1.91,-1.15 2.649,-1.98 0.74,-0.84 1.301,-1.81 1.65,-2.869 0.32,-0.98 0.45,-2.01 0.39,-3.03 -0.06,-1.03 -0.319,-2.03 -0.75,-2.96 -0.47,-1.01 -1.149,-1.92 -1.979,-2.66 -0.84,-0.73 -1.811,-1.3 -2.87,-1.64 -0.98,-0.32 -2.01,-0.46 -3.03,-0.39 -1.03,0.06 -2.03,0.31 -2.96,0.75 -1.01,0.47 -1.92,1.14 -2.66,1.98 -0.74,0.83 -1.3,1.81 -1.64,2.87 -0.32,0.97 -0.46,2 -0.39,3.03 0.06,1.02 0.31,2.03 0.75,2.959 0.47,1.011 1.14,1.91 1.98,2.65 0.83,0.74 1.81,1.3 2.87,1.65 0.97,0.319 2,0.449 3.03,0.39 1.02,-0.06 2.03,-0.32 2.96,-0.75 z"
   id="path2490" />
			<path
   d="m 28.775,33.23 c 1.17,-0.55 2.2,-1.32 3.061,-2.28 0.85,-0.96 1.489,-2.09 1.89,-3.31 0.37,-1.12 0.521,-2.3 0.45,-3.49 -0.07,-1.18 -0.36,-2.33 -0.86,-3.41 -0.55,-1.16 -1.319,-2.2 -2.28,-3.05 -0.96,-0.85 -2.09,-1.5 -3.31,-1.9 -1.12,-0.37 -2.3,-0.52 -3.49,-0.45 -1.18,0.07 -2.33,0.37 -3.41,0.87 -1.16,0.54 -2.2,1.32 -3.05,2.28 -0.85,0.96 -1.5,2.08 -1.9,3.3 -0.37,1.13 -0.52,2.31 -0.45,3.49 0.07,1.18 0.37,2.34 0.87,3.41 0.54,1.17 1.32,2.2 2.28,3.06 0.96,0.851 2.08,1.49 3.3,1.891 1.13,0.37 2.31,0.52 3.49,0.449 1.179,-0.07 2.34,-0.36 3.409,-0.86 z m 3.431,-1.95 c -0.9,1.01 -1.99,1.82 -3.221,2.39 -1.13,0.53 -2.34,0.841 -3.59,0.92 -1.24,0.07 -2.49,-0.09 -3.67,-0.479 -1.29,-0.42 -2.47,-1.1 -3.48,-1.99 -1.01,-0.899 -1.83,-1.99 -2.4,-3.22 -0.53,-1.13 -0.84,-2.34 -0.91,-3.59 -0.08,-1.24 0.08,-2.49 0.47,-3.67 0.42,-1.29 1.1,-2.47 2,-3.48 0.9,-1.01 1.99,-1.83 3.21,-2.4 1.13,-0.53 2.35,-0.84 3.59,-0.91 1.25,-0.08 2.49,0.09 3.68,0.47 1.28,0.42 2.46,1.1 3.479,2 1.011,0.9 1.82,1.99 2.391,3.21 0.529,1.13 0.84,2.35 0.92,3.59 0.07,1.25 -0.09,2.49 -0.48,3.681 -0.42,1.278 -1.1,2.468 -1.989,3.478 z"
   id="path2492" />
			<path
   d="m 28.265,14.15 c 1.45,0.47 2.78,1.24 3.92,2.25 1.13,1 2.05,2.23 2.69,3.61 0.6,1.27 0.949,2.64 1.029,4.04 0.08,1.4 -0.1,2.8 -0.529,4.13 -0.48,1.449 -1.24,2.779 -2.25,3.92 -1.011,1.13 -2.24,2.05 -3.61,2.689 -1.28,0.601 -2.64,0.95 -4.04,1.03 -1.4,0.08 -2.81,-0.1 -4.14,-0.53 -1.44,-0.479 -2.77,-1.239 -3.91,-2.25 -1.14,-1.01 -2.06,-2.239 -2.7,-3.609 -0.59,-1.28 -0.94,-2.641 -1.02,-4.041 -0.09,-1.4 0.09,-2.81 0.53,-4.14 0.47,-1.44 1.24,-2.77 2.24,-3.91 1.01,-1.14 2.24,-2.06 3.62,-2.7 1.27,-0.59 2.64,-0.94 4.04,-1.02 1.4,-0.089 2.8,0.091 4.13,0.531 z m -2.82,21.18 c 1.33,-0.08 2.64,-0.42 3.86,-0.979 1.31,-0.62 2.49,-1.5 3.45,-2.58 0.96,-1.09 1.689,-2.36 2.149,-3.74 0.41,-1.27 0.591,-2.61 0.511,-3.95 -0.08,-1.34 -0.42,-2.65 -0.98,-3.86 -0.62,-1.32 -1.5,-2.49 -2.58,-3.45 -1.09,-0.97 -2.359,-1.7 -3.74,-2.15 -1.27,-0.42 -2.609,-0.59 -3.95,-0.51 -1.34,0.08 -2.65,0.41 -3.86,0.98 -1.32,0.61 -2.49,1.49 -3.46,2.58 -0.96,1.08 -1.69,2.36 -2.14,3.74 -0.42,1.27 -0.59,2.61 -0.51,3.95 0.08,1.33 0.41,2.64 0.98,3.86 0.61,1.31 1.49,2.489 2.58,3.449 1.08,0.96 2.36,1.69 3.74,2.15 1.27,0.41 2.61,0.59 3.95,0.51 z"
   id="path2494" />
			<path
   d="m 13.055,20.87 c 0.53,-1.61 1.38,-3.09 2.5,-4.35 1.12,-1.26 2.49,-2.28 4.02,-3 1.41,-0.66 2.93,-1.04 4.49,-1.14 1.55,-0.09 3.11,0.11 4.59,0.6 1.601,0.52 3.08,1.37 4.351,2.49 1.26,1.12 2.279,2.49 2.99,4.02 0.659,1.41 1.05,2.93 1.14,4.49 0.1,1.55 -0.101,3.109 -0.59,4.59 -0.53,1.6 -1.38,3.08 -2.5,4.35 -1.12,1.261 -2.48,2.28 -4.011,2.99 -1.409,0.66 -2.93,1.05 -4.49,1.141 -1.56,0.1 -3.11,-0.101 -4.59,-0.591 -1.61,-0.529 -3.09,-1.37 -4.35,-2.489 -1.26,-1.12 -2.28,-2.49 -3,-4.021 -0.66,-1.41 -1.04,-2.93 -1.14,-4.49 -0.09,-1.56 0.11,-3.11 0.59,-4.59 z m 15.441,-7.43 c -1.421,-0.46 -2.911,-0.65 -4.411,-0.56 -1.49,0.09 -2.95,0.46 -4.3,1.09 -1.47,0.69 -2.78,1.67 -3.86,2.88 -1.08,1.21 -1.89,2.63 -2.4,4.17 -0.46,1.42 -0.65,2.92 -0.56,4.41 0.09,1.49 0.46,2.95 1.09,4.31 0.69,1.47 1.66,2.78 2.88,3.86 1.21,1.069 2.63,1.89 4.17,2.39 1.42,0.47 2.92,0.66 4.41,0.57 1.49,-0.09 2.95,-0.46 4.31,-1.09 1.471,-0.69 2.78,-1.67 3.86,-2.881 1.07,-1.21 1.89,-2.63 2.39,-4.18 0.471,-1.42 0.66,-2.91 0.57,-4.4 -0.09,-1.5 -0.46,-2.96 -1.09,-4.31 -0.69,-1.47 -1.67,-2.78 -2.88,-3.86 -1.219,-1.069 -2.64,-1.889 -4.179,-2.399 z"
   id="path2496" />
			<path
   d="m 33.496,14.92 c -1.341,-1.19 -2.91,-2.09 -4.61,-2.65 -1.57,-0.51 -3.22,-0.73 -4.87,-0.63 -1.65,0.1 -3.26,0.51 -4.76,1.21 -1.62,0.76 -3.07,1.84 -4.25,3.18 -1.19,1.34 -2.09,2.91 -2.65,4.61 -0.51,1.57 -0.73,3.22 -0.63,4.86 0.1,1.65 0.51,3.271 1.21,4.761 0.76,1.619 1.84,3.069 3.18,4.26 1.34,1.189 2.9,2.09 4.61,2.649 1.57,0.511 3.22,0.721 4.86,0.62 1.65,-0.1 3.27,-0.5 4.76,-1.2 1.62,-0.76 3.07,-1.84 4.26,-3.18 1.19,-1.34 2.09,-2.91 2.641,-4.609 0.52,-1.57 0.729,-3.221 0.63,-4.871 -0.101,-1.65 -0.511,-3.26 -1.2,-4.76 -0.761,-1.62 -1.842,-3.07 -3.181,-4.25 z M 11.235,25.53 c -0.1,-1.71 0.12,-3.42 0.65,-5.05 0.58,-1.76 1.51,-3.39 2.75,-4.78 1.23,-1.39 2.73,-2.51 4.41,-3.3 1.56,-0.72 3.23,-1.15 4.94,-1.25 1.71,-0.1 3.419,0.12 5.049,0.65 1.771,0.58 3.4,1.51 4.79,2.75 1.381,1.23 2.511,2.73 3.29,4.41 0.73,1.56 1.15,3.23 1.261,4.94 0.1,1.71 -0.12,3.42 -0.66,5.05 -0.57,1.771 -1.51,3.4 -2.74,4.79 -1.229,1.39 -2.74,2.51 -4.42,3.29 -1.55,0.73 -3.23,1.15 -4.94,1.26 -1.71,0.101 -3.42,-0.12 -5.05,-0.66 -1.76,-0.569 -3.39,-1.51 -4.78,-2.739 -1.39,-1.23 -2.51,-2.74 -3.3,-4.42 -0.72,-1.552 -1.15,-3.221 -1.25,-4.941 z"
   id="path2498" />
			<path
   d="m 11.365,31 c -0.79,-1.699 -1.25,-3.52 -1.37,-5.39 -0.11,-1.87 0.13,-3.74 0.72,-5.51 0.63,-1.93 1.65,-3.7 2.99,-5.22 1.34,-1.52 2.98,-2.74 4.82,-3.6 1.7,-0.79 3.52,-1.25 5.39,-1.36 1.86,-0.12 3.73,0.12 5.51,0.71 1.92,0.63 3.7,1.65 5.21,2.99 1.52,1.35 2.75,2.99 3.6,4.82 0.79,1.7 1.261,3.52 1.37,5.39 0.11,1.86 -0.13,3.73 -0.71,5.509 -0.63,1.921 -1.649,3.7 -3,5.221 -1.34,1.51 -2.979,2.74 -4.82,3.59 -1.689,0.8 -3.52,1.26 -5.379,1.37 -1.87,0.109 -3.74,-0.13 -5.51,-0.71 -1.93,-0.63 -3.7,-1.65 -5.22,-3 C 13.445,34.47 12.225,32.83 11.365,31 Z m -0.18,-10.75 c -0.57,1.72 -0.8,3.52 -0.69,5.33 0.11,1.8 0.55,3.57 1.32,5.21 0.83,1.771 2.01,3.36 3.48,4.65 1.46,1.3 3.18,2.29 5.04,2.899 1.72,0.561 3.52,0.801 5.33,0.69 1.8,-0.11 3.57,-0.56 5.2,-1.32 1.78,-0.83 3.37,-2.02 4.66,-3.479 1.3,-1.47 2.29,-3.18 2.9,-5.05 0.56,-1.71 0.8,-3.521 0.689,-5.32 -0.109,-1.81 -0.56,-3.57 -1.319,-5.21 -0.83,-1.77 -2.021,-3.36 -3.48,-4.66 -1.47,-1.3 -3.18,-2.28 -5.05,-2.89 -1.71,-0.57 -3.52,-0.8 -5.32,-0.69 -1.81,0.11 -3.57,0.56 -5.21,1.32 -1.77,0.83 -3.36,2.01 -4.66,3.48 -1.3,1.46 -2.28,3.18 -2.89,5.04 z"
   id="path2500" />
		</g>
		<g
   id="g2542">
			<path
   fill="none"
   stroke="#000000"
   stroke-width="0.15"
   stroke-linecap="round"
   stroke-linejoin="round"
   d="m 24.115,24.72 c 0.66,0 1.11,-0.14 1.36,-0.43 0.24,-0.28 0.37,-0.62 0.37,-1.02 0,-0.88 -0.59,-1.32 -1.77,-1.32 -0.22,0 -0.45,0 -0.67,0 0,0.92 0,1.85 0,2.77 0.23,0 0.47,0 0.71,0 z"
   id="path2504" />
			<path
   fill="none"
   stroke="#000000"
   stroke-width="0.15"
   stroke-linecap="round"
   stroke-linejoin="round"
   d="m 24.515,25.62 c 0.49,0.94 0.99,1.87 1.49,2.811 0.43,0 0.87,0 1.3,0 -0.59,-1.021 -1.18,-2.04 -1.77,-3.05 0.46,-0.2 0.81,-0.47 1.04,-0.83 0.23,-0.36 0.351,-0.79 0.351,-1.29 0,-0.79 -0.28,-1.37 -0.83,-1.72 -0.55,-0.35 -1.26,-0.53 -2.11,-0.53 -0.56,0 -1.12,0 -1.68,0 0,2.47 0,4.94 0,7.42 0.36,0 0.73,0 1.1,0 0,-0.931 0,-1.86 0,-2.79 0.09,0 0.18,0 0.28,0 0.239,-10e-4 0.519,-0.012 0.829,-0.021 z"
   id="path2506" />
			<path
   fill="none"
   stroke="#000000"
   stroke-width="0.15"
   stroke-linecap="round"
   stroke-linejoin="round"
   d="m 23.865,9.18 c -1.96,0.11 -3.87,0.6 -5.65,1.43 -1.93,0.9 -3.65,2.19 -5.06,3.78 -1.42,1.59 -2.49,3.45 -3.15,5.48 -0.61,1.86 -0.86,3.82 -0.75,5.78 0.12,1.96 0.61,3.88 1.44,5.66 0.9,1.93 2.19,3.649 3.78,5.06 1.59,1.411 3.45,2.48 5.48,3.141 1.86,0.619 3.82,0.869 5.78,0.75 1.959,-0.12 3.879,-0.601 5.66,-1.431 1.93,-0.91 3.65,-2.189 5.061,-3.779 1.409,-1.591 2.479,-3.461 3.14,-5.48 0.62,-1.87 0.87,-3.83 0.75,-5.79 -0.12,-1.96 -0.6,-3.87 -1.43,-5.65 -0.91,-1.93 -2.19,-3.65 -3.78,-5.06 -1.601,-1.42 -3.46,-2.49 -5.48,-3.15 C 27.785,9.31 25.825,9.06 23.865,9.18 Z"
   id="path2508" />
			<path
   fill="none"
   stroke="#000000"
   stroke-width="0.15"
   stroke-linecap="round"
   stroke-linejoin="round"
   d="m 24.385,17.81 c -0.87,0.05 -1.72,0.27 -2.51,0.64 -0.86,0.4 -1.62,0.97 -2.25,1.68 -0.63,0.7 -1.1,1.53 -1.4,2.43 -0.27,0.83 -0.38,1.7 -0.33,2.57 0.05,0.87 0.27,1.73 0.64,2.52 0.4,0.85 0.97,1.62 1.68,2.25 0.7,0.62 1.53,1.1 2.43,1.39 0.83,0.28 1.7,0.391 2.57,0.34 0.87,-0.06 1.729,-0.27 2.52,-0.64 0.851,-0.4 1.62,-0.97 2.25,-1.68 0.62,-0.71 1.101,-1.54 1.391,-2.44 0.279,-0.83 0.39,-1.7 0.34,-2.57 -0.061,-0.87 -0.271,-1.72 -0.641,-2.51 -0.399,-0.86 -0.97,-1.62 -1.68,-2.25 -0.71,-0.63 -1.54,-1.1 -2.439,-1.4 -0.831,-0.27 -1.701,-0.38 -2.571,-0.33 z"
   id="path2510" />
			<path
   fill="none"
   stroke="#000000"
   stroke-width="0.15"
   stroke-linecap="round"
   stroke-linejoin="round"
   d="m 24.355,17.32 c -0.93,0.05 -1.84,0.28 -2.69,0.68 -0.92,0.43 -1.74,1.04 -2.41,1.8 -0.67,0.76 -1.18,1.64 -1.5,2.61 -0.29,0.89 -0.41,1.82 -0.35,2.75 0.05,0.94 0.28,1.851 0.68,2.7 0.43,0.91 1.04,1.729 1.8,2.41 0.76,0.67 1.64,1.18 2.61,1.49 0.89,0.3 1.82,0.42 2.75,0.359 0.94,-0.06 1.85,-0.29 2.7,-0.68 0.91,-0.43 1.73,-1.04 2.41,-1.8 0.67,-0.761 1.18,-1.65 1.49,-2.61 0.29,-0.89 0.42,-1.82 0.36,-2.76 -0.061,-0.93 -0.29,-1.84 -0.681,-2.69 -0.43,-0.92 -1.05,-1.74 -1.8,-2.41 -0.76,-0.67 -1.65,-1.18 -2.61,-1.5 C 26.225,17.38 25.295,17.26 24.355,17.32 Z"
   id="path2512" />
			<path
   fill="none"
   stroke="#000000"
   stroke-width="0.15"
   stroke-linecap="round"
   stroke-linejoin="round"
   d="m 24.315,16.58 c -1.03,0.06 -2.03,0.31 -2.96,0.75 -1.01,0.47 -1.92,1.14 -2.66,1.98 -0.74,0.83 -1.3,1.81 -1.64,2.87 -0.32,0.97 -0.46,2 -0.39,3.03 0.06,1.02 0.31,2.03 0.75,2.959 0.47,1.011 1.14,1.91 1.98,2.65 0.83,0.74 1.81,1.3 2.87,1.65 0.97,0.319 2,0.449 3.03,0.39 1.02,-0.06 2.03,-0.32 2.96,-0.75 1.01,-0.47 1.91,-1.15 2.649,-1.98 0.74,-0.84 1.301,-1.81 1.65,-2.869 0.32,-0.98 0.45,-2.01 0.39,-3.03 -0.06,-1.03 -0.319,-2.03 -0.75,-2.96 -0.47,-1.01 -1.149,-1.92 -1.979,-2.66 -0.84,-0.73 -1.811,-1.3 -2.87,-1.64 -0.98,-0.32 -2.01,-0.46 -3.03,-0.39 z"
   id="path2514" />
			<path
   fill="none"
   stroke="#000000"
   stroke-width="0.15"
   stroke-linecap="round"
   stroke-linejoin="round"
   d="m 24.285,16.08 c -1.09,0.07 -2.16,0.34 -3.14,0.8 -1.07,0.5 -2.03,1.22 -2.82,2.1 -0.78,0.88 -1.37,1.92 -1.74,3.04 -0.34,1.04 -0.48,2.13 -0.42,3.22 0.07,1.09 0.34,2.15 0.8,3.14 0.5,1.07 1.21,2.03 2.1,2.811 0.88,0.79 1.92,1.38 3.04,1.75 1.04,0.34 2.13,0.479 3.22,0.41 1.09,-0.061 2.15,-0.33 3.14,-0.79 1.069,-0.5 2.03,-1.221 2.81,-2.101 0.78,-0.89 1.38,-1.92 1.75,-3.05 0.34,-1.03 0.48,-2.12 0.41,-3.21 -0.06,-1.09 -0.33,-2.16 -0.8,-3.14 -0.5,-1.07 -1.21,-2.03 -2.09,-2.81 -0.891,-0.79 -1.92,-1.38 -3.05,-1.75 -1.03,-0.34 -2.12,-0.48 -3.21,-0.42 z"
   id="path2516" />
			<path
   fill="none"
   stroke="#000000"
   stroke-width="0.15"
   stroke-linecap="round"
   stroke-linejoin="round"
   d="m 24.235,15.34 c -1.18,0.07 -2.33,0.37 -3.41,0.87 -1.16,0.54 -2.2,1.32 -3.05,2.28 -0.85,0.96 -1.5,2.08 -1.9,3.3 -0.37,1.13 -0.52,2.31 -0.45,3.49 0.07,1.18 0.37,2.34 0.87,3.41 0.54,1.17 1.32,2.2 2.28,3.06 0.96,0.851 2.08,1.49 3.3,1.891 1.13,0.37 2.31,0.52 3.49,0.449 1.18,-0.069 2.34,-0.359 3.41,-0.859 1.17,-0.55 2.2,-1.32 3.061,-2.28 0.85,-0.96 1.489,-2.09 1.89,-3.31 0.37,-1.12 0.521,-2.3 0.45,-3.49 -0.07,-1.18 -0.36,-2.33 -0.86,-3.41 -0.55,-1.16 -1.319,-2.2 -2.28,-3.05 -0.96,-0.85 -2.09,-1.5 -3.31,-1.9 C 26.605,15.42 25.425,15.27 24.235,15.34 Z"
   id="path2518" />
			<path
   fill="none"
   stroke="#000000"
   stroke-width="0.15"
   stroke-linecap="round"
   stroke-linejoin="round"
   d="m 24.205,14.85 c -1.24,0.07 -2.46,0.38 -3.59,0.91 -1.22,0.57 -2.31,1.39 -3.21,2.4 -0.9,1.01 -1.58,2.19 -2,3.48 -0.39,1.18 -0.55,2.43 -0.47,3.67 0.07,1.25 0.38,2.46 0.91,3.59 0.57,1.229 1.39,2.32 2.4,3.22 1.01,0.891 2.19,1.57 3.48,1.99 1.18,0.39 2.43,0.55 3.67,0.479 1.25,-0.079 2.46,-0.39 3.59,-0.92 1.23,-0.569 2.32,-1.38 3.221,-2.39 0.89,-1.01 1.569,-2.2 1.989,-3.479 0.391,-1.19 0.551,-2.431 0.48,-3.681 -0.08,-1.24 -0.391,-2.46 -0.92,-3.59 -0.57,-1.22 -1.38,-2.31 -2.391,-3.21 -1.02,-0.9 -2.199,-1.58 -3.479,-2 -1.19,-0.379 -2.43,-0.549 -3.68,-0.469 z"
   id="path2520" />
			<path
   fill="none"
   stroke="#000000"
   stroke-width="0.15"
   stroke-linecap="round"
   stroke-linejoin="round"
   d="m 24.165,14.11 c -1.34,0.08 -2.65,0.41 -3.86,0.98 -1.32,0.61 -2.49,1.49 -3.46,2.58 -0.96,1.08 -1.69,2.36 -2.14,3.74 -0.42,1.27 -0.59,2.61 -0.51,3.95 0.08,1.33 0.41,2.64 0.98,3.86 0.61,1.31 1.49,2.489 2.58,3.449 1.08,0.96 2.36,1.69 3.74,2.15 1.27,0.41 2.61,0.59 3.95,0.51 1.33,-0.08 2.64,-0.42 3.86,-0.979 1.31,-0.62 2.49,-1.5 3.45,-2.58 0.96,-1.09 1.689,-2.36 2.149,-3.74 0.41,-1.27 0.591,-2.61 0.511,-3.95 -0.08,-1.34 -0.42,-2.65 -0.98,-3.86 -0.62,-1.32 -1.5,-2.49 -2.58,-3.45 -1.09,-0.97 -2.359,-1.7 -3.74,-2.15 -1.27,-0.42 -2.61,-0.59 -3.95,-0.51 z"
   id="path2522" />
			<path
   fill="none"
   stroke="#000000"
   stroke-width="0.15"
   stroke-linecap="round"
   stroke-linejoin="round"
   d="m 24.135,13.62 c -1.4,0.08 -2.77,0.43 -4.04,1.02 -1.38,0.64 -2.61,1.56 -3.62,2.7 -1,1.14 -1.77,2.47 -2.24,3.91 -0.44,1.33 -0.62,2.74 -0.53,4.14 0.08,1.4 0.43,2.76 1.02,4.041 0.64,1.37 1.56,2.6 2.7,3.609 1.14,1.011 2.47,1.771 3.91,2.25 1.33,0.431 2.74,0.61 4.14,0.53 1.4,-0.08 2.76,-0.43 4.04,-1.03 1.37,-0.64 2.6,-1.56 3.61,-2.689 1.01,-1.141 1.77,-2.471 2.25,-3.92 0.43,-1.33 0.609,-2.73 0.529,-4.13 -0.08,-1.4 -0.43,-2.77 -1.029,-4.04 -0.641,-1.38 -1.561,-2.61 -2.69,-3.61 -1.14,-1.01 -2.47,-1.78 -3.92,-2.25 -1.33,-0.441 -2.73,-0.621 -4.13,-0.531 z"
   id="path2524" />
			<path
   fill="none"
   stroke="#000000"
   stroke-width="0.15"
   stroke-linecap="round"
   stroke-linejoin="round"
   d="m 24.085,12.88 c -1.49,0.09 -2.95,0.46 -4.3,1.09 -1.47,0.69 -2.78,1.67 -3.86,2.88 -1.08,1.21 -1.89,2.63 -2.4,4.17 -0.46,1.42 -0.65,2.92 -0.56,4.41 0.09,1.49 0.46,2.95 1.09,4.31 0.69,1.47 1.66,2.78 2.88,3.86 1.21,1.069 2.63,1.89 4.17,2.39 1.42,0.47 2.92,0.66 4.41,0.57 1.49,-0.09 2.95,-0.46 4.31,-1.09 1.471,-0.69 2.78,-1.67 3.86,-2.881 1.07,-1.21 1.89,-2.63 2.39,-4.18 0.471,-1.42 0.66,-2.91 0.57,-4.4 -0.09,-1.5 -0.46,-2.96 -1.09,-4.31 -0.69,-1.47 -1.67,-2.78 -2.88,-3.86 -1.22,-1.07 -2.641,-1.89 -4.18,-2.4 -1.42,-0.459 -2.91,-0.649 -4.41,-0.559 z"
   id="path2526" />
			<path
   fill="none"
   stroke="#000000"
   stroke-width="0.15"
   stroke-linecap="round"
   stroke-linejoin="round"
   d="m 24.065,12.38 c -1.56,0.1 -3.08,0.48 -4.49,1.14 -1.53,0.72 -2.9,1.74 -4.02,3 -1.12,1.26 -1.97,2.74 -2.5,4.35 -0.48,1.48 -0.68,3.03 -0.59,4.59 0.1,1.56 0.48,3.08 1.14,4.49 0.72,1.53 1.74,2.9 3,4.021 1.26,1.119 2.74,1.96 4.35,2.489 1.48,0.49 3.03,0.69 4.59,0.591 1.56,-0.091 3.081,-0.48 4.49,-1.141 1.53,-0.71 2.891,-1.729 4.011,-2.99 1.12,-1.27 1.97,-2.75 2.5,-4.35 0.489,-1.48 0.689,-3.04 0.59,-4.59 -0.09,-1.56 -0.48,-3.08 -1.14,-4.49 -0.711,-1.53 -1.73,-2.9 -2.99,-4.02 -1.271,-1.12 -2.75,-1.97 -4.351,-2.49 -1.48,-0.49 -3.04,-0.69 -4.59,-0.6 z"
   id="path2528" />
			<path
   fill="none"
   stroke="#000000"
   stroke-width="0.15"
   stroke-linecap="round"
   stroke-linejoin="round"
   d="m 24.015,11.64 c -1.65,0.1 -3.26,0.51 -4.76,1.21 -1.62,0.76 -3.07,1.84 -4.25,3.18 -1.19,1.34 -2.09,2.91 -2.65,4.61 -0.51,1.57 -0.73,3.22 -0.63,4.86 0.1,1.65 0.51,3.271 1.21,4.761 0.76,1.619 1.84,3.069 3.18,4.26 1.34,1.189 2.9,2.09 4.61,2.649 1.57,0.511 3.22,0.721 4.86,0.62 1.65,-0.1 3.27,-0.5 4.76,-1.2 1.62,-0.76 3.07,-1.84 4.26,-3.18 1.19,-1.34 2.09,-2.91 2.641,-4.609 0.52,-1.57 0.729,-3.221 0.63,-4.871 -0.101,-1.65 -0.511,-3.26 -1.2,-4.76 -0.76,-1.62 -1.84,-3.07 -3.18,-4.25 -1.341,-1.19 -2.91,-2.09 -4.61,-2.65 -1.571,-0.51 -3.221,-0.73 -4.871,-0.63 z"
   id="path2530" />
			<path
   fill="none"
   stroke="#000000"
   stroke-width="0.15"
   stroke-linecap="round"
   stroke-linejoin="round"
   d="m 23.985,11.15 c -1.71,0.1 -3.38,0.53 -4.94,1.25 -1.68,0.79 -3.18,1.91 -4.41,3.3 -1.24,1.39 -2.17,3.02 -2.75,4.78 -0.53,1.63 -0.75,3.34 -0.65,5.05 0.1,1.72 0.53,3.39 1.25,4.94 0.79,1.68 1.91,3.189 3.3,4.42 1.39,1.229 3.02,2.17 4.78,2.739 1.63,0.54 3.34,0.761 5.05,0.66 1.709,-0.109 3.39,-0.529 4.94,-1.26 1.68,-0.78 3.19,-1.9 4.42,-3.29 1.23,-1.39 2.17,-3.02 2.74,-4.79 0.54,-1.63 0.76,-3.34 0.66,-5.05 -0.11,-1.71 -0.53,-3.38 -1.261,-4.94 -0.779,-1.68 -1.909,-3.18 -3.29,-4.41 -1.39,-1.24 -3.02,-2.17 -4.79,-2.75 C 27.405,11.27 25.695,11.05 23.985,11.15 Z"
   id="path2532" />
			<path
   fill="none"
   stroke="#000000"
   stroke-width="0.15"
   stroke-linecap="round"
   stroke-linejoin="round"
   d="m 23.945,10.41 c -1.81,0.11 -3.57,0.56 -5.21,1.32 -1.77,0.83 -3.36,2.01 -4.66,3.48 -1.3,1.46 -2.28,3.18 -2.89,5.04 -0.57,1.72 -0.8,3.52 -0.69,5.33 0.11,1.8 0.55,3.57 1.32,5.21 0.83,1.771 2.01,3.36 3.48,4.65 1.46,1.3 3.18,2.29 5.04,2.899 1.72,0.561 3.52,0.801 5.33,0.69 1.8,-0.11 3.57,-0.56 5.2,-1.32 1.78,-0.83 3.37,-2.02 4.66,-3.479 1.3,-1.47 2.29,-3.18 2.9,-5.05 0.56,-1.71 0.8,-3.521 0.689,-5.32 -0.109,-1.81 -0.56,-3.57 -1.319,-5.21 -0.83,-1.77 -2.021,-3.36 -3.48,-4.66 -1.47,-1.3 -3.18,-2.28 -5.05,-2.89 -1.71,-0.57 -3.52,-0.8 -5.32,-0.69 z"
   id="path2534" />
			<path
   fill="none"
   stroke="#000000"
   stroke-width="0.15"
   stroke-linecap="round"
   stroke-linejoin="round"
   d="m 23.915,9.92 c -1.87,0.11 -3.69,0.57 -5.39,1.36 -1.84,0.86 -3.48,2.08 -4.82,3.6 -1.34,1.52 -2.36,3.29 -2.99,5.22 -0.59,1.77 -0.83,3.64 -0.72,5.51 0.12,1.87 0.58,3.69 1.37,5.39 0.86,1.83 2.08,3.471 3.6,4.811 1.52,1.35 3.29,2.37 5.22,3 1.77,0.58 3.64,0.819 5.51,0.71 1.86,-0.11 3.69,-0.57 5.379,-1.37 1.841,-0.85 3.48,-2.08 4.82,-3.59 1.351,-1.521 2.37,-3.3 3,-5.221 0.58,-1.779 0.82,-3.649 0.71,-5.509 -0.109,-1.87 -0.58,-3.69 -1.37,-5.39 -0.85,-1.83 -2.08,-3.47 -3.6,-4.82 -1.51,-1.34 -3.29,-2.36 -5.21,-2.99 C 27.645,10.04 25.775,9.8 23.915,9.92 Z"
   id="path2536" />
			<path
   fill="none"
   stroke="#000000"
   stroke-width="0.15"
   stroke-linecap="round"
   stroke-linejoin="round"
   d="m 30.985,24.72 c 0,-0.78 -0.149,-1.55 -0.439,-2.28 -0.311,-0.78 -0.78,-1.49 -1.37,-2.09 -0.601,-0.6 -1.311,-1.07 -2.101,-1.38 -0.72,-0.28 -1.49,-0.43 -2.27,-0.43 -0.78,0 -1.55,0.15 -2.28,0.43 -0.78,0.31 -1.49,0.78 -2.09,1.38 -0.6,0.6 -1.07,1.31 -1.38,2.09 -0.28,0.73 -0.43,1.5 -0.43,2.28 0,0.78 0.15,1.55 0.43,2.27 0.31,0.79 0.78,1.5 1.38,2.1 0.6,0.591 1.31,1.061 2.09,1.37 0.73,0.29 1.5,0.44 2.28,0.44 0.78,0 1.55,-0.15 2.27,-0.44 0.79,-0.31 1.5,-0.779 2.101,-1.37 0.59,-0.6 1.06,-1.31 1.37,-2.1 0.289,-0.72 0.439,-1.49 0.439,-2.27 z"
   id="path2538" />
			<path
   fill="none"
   stroke="#000000"
   stroke-width="0.15"
   stroke-linecap="round"
   stroke-linejoin="round"
   d="m 49.515,24.72 c 0,-3.12 -0.58,-6.2 -1.73,-9.1 C 46.535,12.48 44.666,9.63 42.275,7.24 39.895,4.85 37.046,2.98 33.905,1.74 31.005,0.59 27.916,0 24.805,0 c -3.12,0 -6.2,0.59 -9.1,1.74 -3.14,1.24 -5.99,3.11 -8.38,5.5 -2.39,2.39 -4.26,5.24 -5.5,8.38 -1.15,2.9 -1.74,5.98 -1.74,9.1 0,3.11 0.59,6.2 1.74,9.1 1.24,3.14 3.11,5.99 5.5,8.37 2.39,2.39 5.24,4.27 8.38,5.51 2.9,1.15 5.98,1.73 9.1,1.73 3.11,0 6.2,-0.58 9.1,-1.73 3.13,-1.24 5.99,-3.12 8.37,-5.51 2.391,-2.38 4.26,-5.23 5.51,-8.37 1.15,-2.901 1.73,-5.99 1.73,-9.1 z"
   id="path2540" />
		</g>
	</g>
</g>
</svg>
