<?xml version="1.0" encoding="UTF-8" standalone="no"?>
<!-- Created with Inkscape (http://www.inkscape.org/) -->

<svg
   width="21.526428mm"
   height="21.529886mm"
   viewBox="0 0 21.526428 21.529886"
   version="1.1"
   id="svg15876"
   inkscape:version="1.1.2 (76b9e6a115, 2022-02-25)"
   sodipodi:docname="ride2.svg"
   xmlns:inkscape="http://www.inkscape.org/namespaces/inkscape"
   xmlns:sodipodi="http://sodipodi.sourceforge.net/DTD/sodipodi-0.dtd"
   xmlns="http://www.w3.org/2000/svg"
   xmlns:svg="http://www.w3.org/2000/svg">
  <sodipodi:namedview
     id="namedview15878"
     pagecolor="#ffffff"
     bordercolor="#666666"
     borderopacity="1.0"
     inkscape:pageshadow="2"
     inkscape:pageopacity="0.0"
     inkscape:pagecheckerboard="0"
     inkscape:document-units="mm"
     showgrid="false"
     inkscape:zoom="0.75187991"
     inkscape:cx="-162.92495"
     inkscape:cy="85.784976"
     inkscape:window-width="1848"
     inkscape:window-height="1016"
     inkscape:window-x="72"
     inkscape:window-y="27"
     inkscape:window-maximized="1"
     inkscape:current-layer="layer1" />
  <defs
     id="defs15873">
    <clipPath
       clipPathUnits="userSpaceOnUse"
       id="clipPath12181">
      <path
         d="m 389.11,364.67 h 61.02 v -61.03 h -61.02 z"
         id="path12179" />
    </clipPath>
  </defs>
  <g
     inkscape:label="Capa 1"
     inkscape:groupmode="layer"
     id="layer1"
     transform="translate(-148.29366,-126.1225)">
    <g
       id="g12175"
       transform="matrix(0.35277777,0,0,-0.35277777,11.024229,254.76997)">
      <g
         id="g12177" />
      <g
         id="g12249">
        <g
           clip-path="url(#clipPath12181)"
           id="g12247">
          <g
             transform="translate(447.9902,345.3804)"
             id="g12185">
            <path
               d="m 0,0 c 1.42,-3.57 2.14,-7.38 2.14,-11.23 0,-3.84 -0.72,-7.65 -2.14,-11.23 -1.53,-3.88 -3.85,-7.4 -6.79,-10.34 -2.95,-2.95 -6.47,-5.26 -10.35,-6.8 -3.58,-1.41 -7.38,-2.14 -11.23,-2.14 -3.85,0 -7.65,0.73 -11.23,2.14 -3.88,1.54 -7.4,3.85 -10.35,6.8 -2.94,2.95 -5.26,6.47 -6.79,10.34 -1.42,3.58 -2.14,7.39 -2.14,11.23 0,3.85 0.72,7.66 2.14,11.24 1.53,3.87 3.85,7.39 6.79,10.34 2.95,2.95 6.47,5.26 10.35,6.79 3.58,1.42 7.38,2.15 11.23,2.15 3.85,0 7.65,-0.73 11.23,-2.15 3.88,-1.53 7.4,-3.84 10.35,-6.79 C -3.85,7.4 -1.53,3.88 0,0 m 1.48,-9.43 c -0.23,3.76 -1.16,7.44 -2.76,10.86 -1.73,3.7 -4.2,7.01 -7.25,9.72 -3.06,2.71 -6.64,4.76 -10.52,6.04 -3.59,1.17 -7.35,1.66 -11.12,1.43 -3.76,-0.22 -7.44,-1.16 -10.86,-2.75 -3.7,-1.73 -7.01,-4.2 -9.72,-7.26 -2.71,-3.06 -4.76,-6.64 -6.03,-10.52 -1.18,-3.58 -1.67,-7.35 -1.44,-11.11 0.23,-3.77 1.16,-7.45 2.76,-10.86 1.73,-3.71 4.2,-7.01 7.25,-9.72 3.06,-2.71 6.64,-4.77 10.52,-6.04 3.59,-1.18 7.35,-1.66 11.12,-1.44 3.76,0.23 7.44,1.16 10.86,2.76 3.7,1.73 7.01,4.2 9.72,7.26 2.71,3.05 4.76,6.63 6.03,10.52 1.18,3.58 1.67,7.34 1.44,11.11"
               style="fill:#285468;fill-opacity:1;fill-rule:nonzero;stroke:none"
               id="path12183" />
          </g>
          <g
             transform="translate(410.5898,306.6104)"
             id="g12189">
            <path
               d="m 0,0 c -3.77,1.23 -7.24,3.22 -10.2,5.85 -2.96,2.63 -5.36,5.84 -7.03,9.42 -1.55,3.32 -2.46,6.88 -2.68,10.53 -0.22,3.65 0.26,7.3 1.4,10.78 1.23,3.76 3.22,7.23 5.85,10.19 2.63,2.97 5.83,5.36 9.42,7.04 3.31,1.54 6.88,2.45 10.53,2.67 3.65,0.22 7.3,-0.25 10.77,-1.39 3.77,-1.24 7.24,-3.23 10.2,-5.86 2.96,-2.62 5.36,-5.83 7.03,-9.42 1.55,-3.31 2.46,-6.88 2.68,-10.53 0.21,-3.65 -0.26,-7.3 -1.4,-10.77 C 35.34,14.75 33.35,11.28 30.72,8.31 28.09,5.35 24.89,2.96 21.3,1.28 17.99,-0.27 14.42,-1.17 10.77,-1.39 7.12,-1.61 3.47,-1.14 0,0 m 27.85,48.78 c -2.9,2.57 -6.29,4.52 -9.98,5.73 -3.4,1.11 -6.97,1.57 -10.54,1.36 -3.58,-0.22 -7.07,-1.1 -10.31,-2.62 -3.51,-1.64 -6.65,-3.98 -9.22,-6.88 -2.58,-2.9 -4.53,-6.3 -5.74,-9.99 -1.11,-3.4 -1.57,-6.97 -1.36,-10.54 0.22,-3.57 1.11,-7.07 2.62,-10.31 1.64,-3.51 3.98,-6.65 6.88,-9.22 2.91,-2.57 6.3,-4.52 9.99,-5.73 3.4,-1.12 6.97,-1.58 10.54,-1.36 3.58,0.21 7.07,1.1 10.31,2.61 3.51,1.64 6.65,3.99 9.22,6.89 2.58,2.9 4.53,6.3 5.73,9.98 1.12,3.4 1.58,6.98 1.37,10.55 -0.22,3.57 -1.11,7.06 -2.62,10.3 -1.64,3.52 -3.98,6.66 -6.89,9.23"
               style="fill:#285468;fill-opacity:1;fill-rule:nonzero;stroke:none"
               id="path12187" />
          </g>
          <g
             transform="translate(408.25,358.48)"
             id="g12193">
            <path
               d="m 0,0 c -3.32,-1.55 -6.29,-3.77 -8.72,-6.51 -2.44,-2.75 -4.28,-5.96 -5.43,-9.45 -1.05,-3.22 -1.49,-6.6 -1.28,-9.98 0.2,-3.38 1.04,-6.68 2.47,-9.75 1.55,-3.33 3.77,-6.3 6.52,-8.73 2.74,-2.43 5.96,-4.28 9.44,-5.42 3.22,-1.06 6.6,-1.49 9.98,-1.29 3.38,0.2 6.69,1.04 9.76,2.48 3.32,1.55 6.29,3.77 8.72,6.51 2.44,2.75 4.28,5.96 5.42,9.45 1.06,3.21 1.5,6.6 1.29,9.98 -0.2,3.38 -1.04,6.68 -2.47,9.75 -1.56,3.32 -3.77,6.29 -6.52,8.73 C 26.44,-1.8 23.22,0.04 19.74,1.19 16.52,2.24 13.14,2.68 9.76,2.48 6.38,2.27 3.07,1.43 0,0 m 2.81,-50.42 c -3.56,1.17 -6.85,3.05 -9.66,5.54 -2.81,2.49 -5.07,5.53 -6.66,8.93 -1.47,3.14 -2.32,6.52 -2.53,9.97 -0.21,3.46 0.24,6.92 1.31,10.21 1.17,3.57 3.06,6.85 5.55,9.66 2.49,2.81 5.53,5.08 8.93,6.66 3.13,1.47 6.51,2.33 9.97,2.54 3.46,0.2 6.92,-0.24 10.21,-1.32 3.56,-1.17 6.85,-3.06 9.66,-5.55 2.81,-2.49 5.07,-5.52 6.66,-8.92 1.47,-3.14 2.32,-6.52 2.53,-9.98 0.21,-3.45 -0.24,-6.91 -1.32,-10.2 -1.16,-3.57 -3.05,-6.86 -5.54,-9.66 -2.49,-2.81 -5.53,-5.08 -8.93,-6.67 -3.13,-1.46 -6.51,-2.32 -9.97,-2.53 -3.46,-0.21 -6.92,0.24 -10.21,1.32"
               style="fill:#285468;fill-opacity:1;fill-rule:nonzero;stroke:none"
               id="path12191" />
          </g>
          <g
             transform="translate(436.4199,353.1001)"
             id="g12197">
            <path
               d="m 0,0 c -2.59,2.3 -5.62,4.04 -8.91,5.12 -3.03,0.99 -6.22,1.41 -9.41,1.21 -3.19,-0.19 -6.31,-0.98 -9.2,-2.33 -3.14,-1.47 -5.94,-3.56 -8.23,-6.15 -2.3,-2.59 -4.04,-5.62 -5.12,-8.91 -0.99,-3.03 -1.4,-6.22 -1.21,-9.41 0.19,-3.19 0.98,-6.3 2.33,-9.2 1.47,-3.13 3.56,-5.93 6.15,-8.23 2.59,-2.29 5.62,-4.03 8.91,-5.11 3.03,-1 6.22,-1.41 9.41,-1.22 3.19,0.19 6.31,0.99 9.2,2.34 3.13,1.46 5.94,3.55 8.23,6.14 2.3,2.59 4.04,5.62 5.12,8.91 0.99,3.04 1.4,6.23 1.21,9.41 -0.19,3.19 -0.98,6.31 -2.33,9.2 C 4.68,-5.09 2.59,-2.29 0,0 m -36.21,-1.74 c 2.35,2.65 5.22,4.79 8.43,6.29 2.96,1.39 6.16,2.2 9.42,2.39 3.27,0.2 6.53,-0.22 9.64,-1.24 3.37,-1.11 6.47,-2.89 9.13,-5.24 2.65,-2.35 4.79,-5.22 6.29,-8.43 1.38,-2.96 2.19,-6.15 2.39,-9.42 0.2,-3.26 -0.23,-6.53 -1.25,-9.64 -1.1,-3.37 -2.88,-6.47 -5.23,-9.12 -2.35,-2.65 -5.22,-4.8 -8.43,-6.3 -2.97,-1.38 -6.16,-2.19 -9.42,-2.39 -3.27,-0.19 -6.53,0.23 -9.64,1.25 -3.37,1.1 -6.47,2.88 -9.13,5.23 -2.65,2.36 -4.79,5.22 -6.29,8.44 -1.38,2.96 -2.19,6.15 -2.39,9.42 -0.2,3.26 0.23,6.53 1.24,9.63 1.11,3.37 2.89,6.48 5.24,9.13"
               style="fill:#285468;fill-opacity:1;fill-rule:nonzero;stroke:none"
               id="path12195" />
          </g>
          <g
             transform="translate(401.8101,349.9399)"
             id="g12201">
            <path
               d="m 0,0 c -2.16,-2.43 -3.79,-5.28 -4.81,-8.37 -0.93,-2.85 -1.32,-5.85 -1.14,-8.85 0.18,-2.99 0.93,-5.92 2.2,-8.64 1.37,-2.95 3.34,-5.58 5.77,-7.74 2.43,-2.15 5.28,-3.79 8.37,-4.8 2.86,-0.94 5.85,-1.32 8.85,-1.14 3,0.18 5.92,0.92 8.64,2.19 2.95,1.38 5.58,3.34 7.74,5.77 2.16,2.44 3.79,5.29 4.81,8.38 0.93,2.85 1.32,5.85 1.14,8.84 -0.18,3 -0.93,5.93 -2.2,8.65 C 38,-2.77 36.03,-0.13 33.6,2.02 31.16,4.18 28.32,5.82 25.23,6.83 22.37,7.76 19.38,8.15 16.38,7.97 13.38,7.79 10.45,7.05 7.74,5.78 4.79,4.4 2.16,2.43 0,0 m -0.46,0.41 c 2.22,2.49 4.92,4.51 7.94,5.92 2.79,1.3 5.79,2.06 8.86,2.25 3.08,0.18 6.15,-0.21 9.08,-1.17 3.17,-1.04 6.09,-2.72 8.58,-4.93 2.5,-2.21 4.51,-4.91 5.93,-7.93 1.3,-2.79 2.06,-5.8 2.25,-8.87 0.18,-3.07 -0.22,-6.15 -1.18,-9.07 -1.03,-3.17 -2.71,-6.09 -4.92,-8.59 -2.22,-2.5 -4.92,-4.51 -7.94,-5.92 -2.79,-1.31 -5.79,-2.07 -8.86,-2.25 -3.08,-0.19 -6.15,0.21 -9.08,1.17 -3.17,1.04 -6.09,2.71 -8.58,4.93 -2.5,2.21 -4.51,4.91 -5.93,7.93 -1.3,2.79 -2.06,5.79 -2.25,8.87 -0.18,3.07 0.21,6.14 1.17,9.07 1.04,3.17 2.72,6.09 4.93,8.59"
               style="fill:#285468;fill-opacity:1;fill-rule:nonzero;stroke:none"
               id="path12199" />
          </g>
          <g
             transform="translate(404.4399,317.0303)"
             id="g12205">
            <path
               d="m 0,0 c -2.34,2.07 -4.23,4.6 -5.55,7.44 -1.23,2.61 -1.94,5.43 -2.11,8.31 -0.18,2.88 0.19,5.76 1.09,8.5 0.98,2.98 2.55,5.71 4.63,8.05 2.07,2.34 4.6,4.23 7.43,5.56 2.62,1.22 5.43,1.93 8.32,2.11 2.88,0.17 5.76,-0.2 8.5,-1.1 2.97,-0.98 5.71,-2.55 8.05,-4.62 2.34,-2.08 4.23,-4.61 5.55,-7.44 1.23,-2.62 1.94,-5.43 2.11,-8.31 C 38.2,15.62 37.82,12.73 36.93,9.99 35.95,7.02 34.38,4.28 32.3,1.94 30.23,-0.4 27.7,-2.29 24.87,-3.61 22.25,-4.83 19.44,-5.55 16.55,-5.72 13.67,-5.89 10.79,-5.52 8.05,-4.62 5.08,-3.65 2.34,-2.08 0,0 m -5,7.69 c 1.29,-2.75 3.13,-5.22 5.4,-7.23 2.28,-2.02 4.95,-3.55 7.84,-4.5 2.67,-0.88 5.47,-1.24 8.28,-1.07 2.8,0.17 5.54,0.86 8.09,2.05 2.76,1.29 5.22,3.13 7.24,5.41 2.02,2.27 3.55,4.94 4.5,7.83 0.87,2.67 1.23,5.48 1.06,8.28 -0.16,2.8 -0.86,5.55 -2.05,8.09 -1.29,2.76 -3.13,5.22 -5.4,7.24 -2.28,2.02 -4.95,3.55 -7.84,4.5 -2.67,0.87 -5.47,1.24 -8.28,1.07 C 11.04,39.19 8.3,38.49 5.75,37.3 2.99,36.02 0.53,34.18 -1.49,31.9 -3.51,29.62 -5.04,26.96 -5.99,24.06 -6.86,21.39 -7.22,18.59 -7.05,15.78 -6.89,12.98 -6.19,10.24 -5,7.69"
               style="fill:#285468;fill-opacity:1;fill-rule:nonzero;stroke:none"
               id="path12203" />
          </g>
          <g
             transform="translate(399.3198,340.8101)"
             id="g12209">
            <path
               d="m 0,0 c 0.91,2.77 2.38,5.33 4.32,7.51 1.93,2.19 4.29,3.95 6.94,5.18 2.44,1.14 5.07,1.81 7.76,1.97 2.69,0.17 5.38,-0.18 7.93,-1.02 2.78,-0.91 5.33,-2.38 7.52,-4.31 2.18,-1.94 3.95,-4.3 5.18,-6.95 1.14,-2.44 1.81,-5.07 1.97,-7.75 0.16,-2.69 -0.19,-5.38 -1.02,-7.94 -0.91,-2.78 -2.38,-5.33 -4.32,-7.52 -1.93,-2.18 -4.3,-3.94 -6.94,-5.18 -2.44,-1.14 -5.07,-1.81 -7.76,-1.97 -2.69,-0.16 -5.38,0.19 -7.94,1.03 -2.77,0.91 -5.33,2.37 -7.51,4.31 -2.18,1.94 -3.95,4.3 -5.18,6.94 -1.14,2.44 -1.81,5.07 -1.97,7.76 C -1.18,-5.25 -0.84,-2.56 0,0 M 4.77,7.11 C 2.89,4.99 1.47,2.5 0.58,-0.19 c -0.81,-2.49 -1.15,-5.1 -0.99,-7.71 0.16,-2.62 0.8,-5.17 1.91,-7.54 1.2,-2.57 2.91,-4.86 5.04,-6.74 2.12,-1.88 4.6,-3.31 7.29,-4.19 2.49,-0.82 5.1,-1.16 7.72,-1 2.61,0.16 5.16,0.81 7.53,1.91 2.57,1.2 4.87,2.92 6.75,5.04 1.88,2.12 3.3,4.6 4.19,7.3 0.81,2.48 1.15,5.1 0.99,7.71 -0.16,2.61 -0.8,5.16 -1.91,7.54 -1.2,2.56 -2.91,4.86 -5.04,6.74 -2.12,1.88 -4.6,3.31 -7.3,4.19 -2.48,0.81 -5.09,1.15 -7.71,0.99 C 16.44,13.9 13.89,13.25 11.52,12.14 8.95,10.94 6.65,9.23 4.77,7.11"
               style="fill:#285468;fill-opacity:1;fill-rule:nonzero;stroke:none"
               id="path12207" />
          </g>
          <g
             transform="translate(400.4302,333)"
             id="g12213">
            <path
               d="m 0,0 c 0.15,-2.42 0.75,-4.79 1.77,-6.98 1.11,-2.38 2.7,-4.51 4.67,-6.25 1.96,-1.74 4.26,-3.07 6.76,-3.88 2.3,-0.76 4.72,-1.07 7.14,-0.93 2.42,0.15 4.79,0.75 6.99,1.78 2.38,1.11 4.5,2.7 6.24,4.66 1.75,1.97 3.07,4.27 3.89,6.76 0.75,2.31 1.06,4.73 0.92,7.15 -0.15,2.42 -0.75,4.78 -1.77,6.98 -1.12,2.38 -2.7,4.51 -4.67,6.25 -1.96,1.74 -4.26,3.06 -6.76,3.88 -2.3,0.75 -4.73,1.07 -7.15,0.92 C 15.62,20.2 13.25,19.6 11.05,18.57 8.67,17.46 6.55,15.87 4.8,13.91 3.06,11.94 1.74,9.64 0.92,7.14 0.17,4.84 -0.14,2.42 0,0 m 18,20.95 c 2.5,0.15 4.99,-0.17 7.37,-0.95 2.57,-0.84 4.95,-2.21 6.98,-4.01 2.02,-1.79 3.66,-3.99 4.81,-6.44 1.06,-2.27 1.68,-4.71 1.83,-7.21 0.15,-2.49 -0.17,-4.99 -0.95,-7.37 -0.85,-2.57 -2.21,-4.95 -4.01,-6.97 -1.8,-2.03 -3.99,-3.67 -6.45,-4.82 -2.26,-1.06 -4.7,-1.67 -7.2,-1.82 -2.5,-0.16 -4.99,0.17 -7.37,0.95 -2.58,0.84 -4.95,2.2 -6.98,4 -2.03,1.8 -3.66,3.99 -4.81,6.45 -1.06,2.26 -1.68,4.71 -1.83,7.2 -0.15,2.5 0.17,5 0.95,7.37 0.85,2.58 2.21,4.95 4.01,6.98 1.8,2.03 3.99,3.67 6.44,4.81 2.27,1.06 4.71,1.68 7.21,1.83"
               style="fill:#285468;fill-opacity:1;fill-rule:nonzero;stroke:none"
               id="path12211" />
          </g>
          <g
             transform="translate(403.0298,326.3999)"
             id="g12217">
            <path
               d="m 0,0 c -0.97,2.1 -1.55,4.35 -1.69,6.65 -0.13,2.31 0.16,4.61 0.88,6.81 0.78,2.37 2.04,4.57 3.7,6.44 1.66,1.87 3.68,3.38 5.95,4.44 2.09,0.98 4.35,1.55 6.65,1.69 2.3,0.14 4.61,-0.16 6.8,-0.88 2.38,-0.78 4.57,-2.04 6.44,-3.7 1.88,-1.66 3.39,-3.68 4.45,-5.95 0.97,-2.09 1.55,-4.34 1.68,-6.65 0.14,-2.3 -0.15,-4.61 -0.87,-6.8 -0.78,-2.38 -2.04,-4.57 -3.7,-6.44 -1.66,-1.87 -3.68,-3.39 -5.95,-4.44 -2.09,-0.98 -4.35,-1.55 -6.65,-1.69 -2.31,-0.14 -4.61,0.16 -6.8,0.88 C 8.51,-8.86 6.32,-7.61 4.44,-5.95 2.57,-4.29 1.06,-2.26 0,0 M -0.23,13.27 C -0.92,11.15 -1.21,8.92 -1.08,6.69 -0.94,4.46 -0.39,2.28 0.56,0.26 c 1.02,-2.19 2.48,-4.15 4.29,-5.75 1.81,-1.6 3.93,-2.82 6.22,-3.57 2.13,-0.7 4.35,-0.99 6.58,-0.85 2.23,0.13 4.41,0.68 6.43,1.63 2.19,1.02 4.15,2.48 5.75,4.29 1.61,1.81 2.82,3.93 3.58,6.23 0.69,2.12 0.98,4.35 0.85,6.58 -0.14,2.22 -0.69,4.4 -1.64,6.42 -1.02,2.19 -2.48,4.15 -4.29,5.76 -1.81,1.6 -3.93,2.82 -6.23,3.57 -2.12,0.7 -4.35,0.98 -6.57,0.85 C 13.3,25.28 11.12,24.73 9.1,23.79 6.91,22.76 4.95,21.3 3.35,19.49 1.74,17.68 0.53,15.57 -0.23,13.27"
               style="fill:#285468;fill-opacity:1;fill-rule:nonzero;stroke:none"
               id="path12215" />
          </g>
          <g
             transform="translate(402.8701,333.1401)"
             id="g12221">
            <path
               d="m 0,0 c -0.13,2.12 0.14,4.23 0.8,6.24 0.72,2.18 1.87,4.19 3.39,5.91 1.52,1.71 3.38,3.1 5.46,4.07 1.91,0.89 3.98,1.42 6.09,1.55 2.11,0.12 4.23,-0.15 6.24,-0.81 2.18,-0.71 4.19,-1.87 5.9,-3.39 1.72,-1.52 3.1,-3.38 4.07,-5.45 0.9,-1.92 1.42,-3.99 1.55,-6.1 0.13,-2.11 -0.14,-4.23 -0.8,-6.24 -0.72,-2.18 -1.87,-4.18 -3.39,-5.9 -1.52,-1.72 -3.38,-3.1 -5.46,-4.07 -1.91,-0.9 -3.98,-1.42 -6.09,-1.55 -2.11,-0.13 -4.23,0.15 -6.24,0.81 -2.18,0.71 -4.19,1.86 -5.9,3.39 -1.72,1.52 -3.1,3.37 -4.07,5.45 C 0.65,-4.17 0.12,-2.11 0,0 M 1.38,6.05 C 0.75,4.11 0.48,2.08 0.61,0.04 0.73,-1.99 1.23,-3.98 2.1,-5.83 c 0.93,-2 2.27,-3.79 3.92,-5.26 1.65,-1.46 3.59,-2.58 5.69,-3.26 1.94,-0.64 3.98,-0.9 6.01,-0.78 2.04,0.12 4.03,0.63 5.87,1.49 2.01,0.94 3.8,2.27 5.26,3.93 1.47,1.65 2.58,3.58 3.27,5.68 0.63,1.94 0.89,3.98 0.77,6.01 -0.12,2.04 -0.63,4.03 -1.49,5.88 -0.93,2 -2.27,3.79 -3.92,5.25 -1.66,1.47 -3.59,2.58 -5.69,3.27 -1.94,0.64 -3.98,0.9 -6.01,0.78 C 13.74,17.03 11.75,16.53 9.9,15.67 7.9,14.73 6.11,13.39 4.65,11.74 3.18,10.09 2.07,8.15 1.38,6.05"
               style="fill:#285468;fill-opacity:1;fill-rule:nonzero;stroke:none"
               id="path12219" />
          </g>
          <g
             transform="translate(431.04,324.0303)"
             id="g12225">
            <path
               d="m 0,0 c -1.39,-1.56 -3.07,-2.82 -4.96,-3.7 -1.75,-0.81 -3.62,-1.29 -5.54,-1.41 -1.92,-0.11 -3.85,0.14 -5.67,0.74 -1.99,0.65 -3.81,1.69 -5.37,3.08 -1.56,1.38 -2.82,3.07 -3.7,4.96 -0.82,1.74 -1.29,3.62 -1.41,5.54 -0.12,1.92 0.13,3.84 0.73,5.67 0.65,1.98 1.7,3.8 3.08,5.36 1.39,1.56 3.07,2.82 4.96,3.71 1.75,0.81 3.62,1.29 5.54,1.4 1.92,0.12 3.85,-0.13 5.67,-0.73 1.98,-0.65 3.81,-1.7 5.37,-3.08 C 0.26,20.16 1.52,18.47 2.4,16.58 3.22,14.84 3.69,12.96 3.81,11.04 3.92,9.12 3.68,7.2 3.08,5.37 2.43,3.39 1.38,1.56 0,0 m -10.54,-4.5 c 1.84,0.11 3.65,0.57 5.32,1.35 1.81,0.85 3.43,2.06 4.76,3.56 C 0.87,1.9 1.87,3.66 2.5,5.56 3.07,7.31 3.31,9.16 3.2,11 3.09,12.85 2.63,14.65 1.85,16.32 1,18.14 -0.21,19.76 -1.7,21.08 c -1.5,1.33 -3.26,2.34 -5.16,2.96 -1.75,0.58 -3.6,0.81 -5.44,0.7 -1.84,-0.11 -3.65,-0.57 -5.32,-1.35 -1.81,-0.84 -3.43,-2.05 -4.76,-3.55 -1.33,-1.5 -2.33,-3.25 -2.96,-5.15 -0.57,-1.76 -0.81,-3.6 -0.7,-5.45 0.11,-1.84 0.57,-3.64 1.35,-5.32 0.85,-1.81 2.06,-3.43 3.55,-4.76 1.5,-1.32 3.25,-2.33 5.16,-2.95 1.75,-0.58 3.6,-0.82 5.44,-0.71"
               style="fill:#285468;fill-opacity:1;fill-rule:nonzero;stroke:none"
               id="path12223" />
          </g>
          <g
             transform="translate(432.6699,329.8701)"
             id="g12229">
            <path
               d="m 0,0 c -0.59,-1.78 -1.53,-3.42 -2.78,-4.83 -1.24,-1.4 -2.76,-2.53 -4.46,-3.33 -1.57,-0.73 -3.26,-1.16 -4.99,-1.26 -1.72,-0.11 -3.45,0.12 -5.1,0.66 -1.78,0.58 -3.42,1.52 -4.83,2.77 -1.4,1.24 -2.54,2.76 -3.33,4.46 -0.73,1.57 -1.16,3.26 -1.27,4.99 -0.1,1.73 0.12,3.46 0.66,5.1 0.59,1.78 1.53,3.43 2.77,4.83 1.25,1.41 2.77,2.54 4.47,3.33 1.57,0.74 3.26,1.17 4.98,1.27 1.73,0.1 3.46,-0.12 5.11,-0.66 1.78,-0.58 3.42,-1.53 4.83,-2.77 1.4,-1.25 2.54,-2.77 3.33,-4.46 C 0.12,8.53 0.55,6.84 0.66,5.11 0.76,3.38 0.54,1.65 0,0 m -12.26,-8.81 c 1.65,0.1 3.26,0.51 4.76,1.21 1.63,0.75 3.08,1.84 4.27,3.18 1.19,1.34 2.09,2.91 2.65,4.61 0.51,1.58 0.73,3.23 0.63,4.88 -0.1,1.65 -0.51,3.27 -1.21,4.77 -0.76,1.62 -1.84,3.07 -3.19,4.26 -1.34,1.19 -2.91,2.09 -4.61,2.65 -1.57,0.52 -3.23,0.73 -4.88,0.63 -1.65,-0.1 -3.27,-0.51 -4.76,-1.21 -1.63,-0.76 -3.08,-1.84 -4.27,-3.18 -1.19,-1.34 -2.09,-2.92 -2.65,-4.62 -0.51,-1.57 -0.73,-3.22 -0.63,-4.87 0.1,-1.66 0.51,-3.27 1.21,-4.77 0.76,-1.63 1.84,-3.08 3.19,-4.27 1.34,-1.18 2.91,-2.09 4.61,-2.64 1.57,-0.52 3.23,-0.73 4.88,-0.63"
               style="fill:#285468;fill-opacity:1;fill-rule:nonzero;stroke:none"
               id="path12227" />
          </g>
          <g
             transform="translate(430.1201,339.0601)"
             id="g12233">
            <path
               d="m 0,0 c -0.67,1.44 -1.62,2.72 -2.81,3.77 -1.18,1.05 -2.57,1.85 -4.08,2.34 -1.39,0.46 -2.85,0.64 -4.31,0.56 -1.46,-0.09 -2.88,-0.45 -4.21,-1.07 -1.43,-0.67 -2.72,-1.63 -3.77,-2.81 -1.05,-1.19 -1.84,-2.58 -2.34,-4.08 -0.45,-1.39 -0.64,-2.85 -0.55,-4.31 0.08,-1.46 0.45,-2.89 1.06,-4.22 0.68,-1.43 1.63,-2.71 2.82,-3.76 1.18,-1.05 2.57,-1.85 4.08,-2.34 1.39,-0.46 2.85,-0.65 4.31,-0.56 1.46,0.09 2.88,0.45 4.21,1.07 1.43,0.67 2.72,1.63 3.77,2.81 1.05,1.19 1.84,2.57 2.34,4.08 0.45,1.39 0.64,2.85 0.55,4.31 C 0.99,-2.75 0.62,-1.32 0,0 m 1.1,-8.71 c -0.52,-1.58 -1.36,-3.05 -2.47,-4.29 -1.1,-1.25 -2.45,-2.26 -3.96,-2.96 -1.4,-0.66 -2.9,-1.04 -4.44,-1.13 -1.53,-0.09 -3.07,0.11 -4.53,0.59 -1.59,0.52 -3.05,1.35 -4.3,2.46 -1.25,1.11 -2.25,2.46 -2.96,3.97 -0.65,1.39 -1.03,2.89 -1.12,4.43 -0.1,1.54 0.1,3.07 0.58,4.54 0.52,1.58 1.36,3.04 2.47,4.29 1.1,1.25 2.45,2.26 3.96,2.96 1.4,0.65 2.9,1.03 4.44,1.13 1.53,0.09 3.07,-0.11 4.53,-0.59 1.59,-0.52 3.05,-1.36 4.3,-2.46 1.24,-1.11 2.25,-2.46 2.96,-3.97 0.65,-1.4 1.03,-2.9 1.12,-4.43 0.1,-1.54 -0.1,-3.08 -0.58,-4.54"
               style="fill:#285468;fill-opacity:1;fill-rule:nonzero;stroke:none"
               id="path12231" />
          </g>
          <g
             transform="translate(430.2798,334.79)"
             id="g12237">
            <path
               d="m 0,0 c 0.08,-1.34 -0.09,-2.68 -0.51,-3.96 -0.46,-1.39 -1.19,-2.67 -2.16,-3.76 -0.97,-1.09 -2.15,-1.98 -3.47,-2.59 -1.22,-0.57 -2.53,-0.91 -3.88,-0.99 -1.34,-0.08 -2.69,0.1 -3.97,0.51 -1.38,0.46 -2.66,1.19 -3.75,2.16 -1.1,0.97 -1.98,2.15 -2.6,3.47 -0.57,1.22 -0.9,2.54 -0.98,3.88 -0.08,1.35 0.09,2.69 0.51,3.97 0.46,1.39 1.19,2.67 2.16,3.76 0.97,1.09 2.15,1.97 3.47,2.59 1.22,0.57 2.53,0.9 3.88,0.98 1.34,0.08 2.69,-0.09 3.97,-0.51 1.38,-0.45 2.66,-1.19 3.75,-2.16 1.1,-0.96 1.98,-2.14 2.6,-3.47 C -0.41,2.66 -0.08,1.35 0,0 m -1.09,-3.77 c 0.39,1.2 0.56,2.47 0.48,3.74 C -0.69,1.24 -1,2.47 -1.54,3.62 -2.12,4.87 -2.95,5.99 -3.98,6.9 -5.01,7.81 -6.22,8.5 -7.52,8.93 -8.73,9.33 -10,9.49 -11.27,9.41 -12.53,9.34 -13.77,9.02 -14.92,8.49 -16.17,7.9 -17.28,7.07 -18.2,6.04 -19.11,5.01 -19.8,3.81 -20.23,2.5 c -0.39,-1.21 -0.56,-2.47 -0.48,-3.74 0.07,-1.27 0.39,-2.51 0.93,-3.66 0.58,-1.25 1.41,-2.36 2.44,-3.27 1.03,-0.91 2.23,-1.61 3.54,-2.04 1.21,-0.39 2.48,-0.55 3.74,-0.48 1.27,0.08 2.51,0.39 3.66,0.93 1.25,0.58 2.36,1.41 3.27,2.44 0.92,1.03 1.61,2.24 2.04,3.55"
               style="fill:#285468;fill-opacity:1;fill-rule:nonzero;stroke:none"
               id="path12235" />
          </g>
          <g
             transform="translate(423.4902,325.8604)"
             id="g12241">
            <path
               d="m 0,0 c -1.04,-0.49 -2.17,-0.78 -3.32,-0.84 -1.15,-0.07 -2.31,0.08 -3.4,0.43 -1.19,0.39 -2.29,1.02 -3.22,1.85 -0.94,0.83 -1.69,1.85 -2.22,2.98 -0.49,1.04 -0.78,2.17 -0.85,3.32 -0.07,1.16 0.08,2.31 0.44,3.41 0.39,1.18 1.02,2.28 1.85,3.22 0.83,0.93 1.84,1.69 2.98,2.22 1.04,0.48 2.17,0.77 3.32,0.84 1.15,0.07 2.31,-0.08 3.4,-0.44 C 0.17,16.6 1.27,15.97 2.2,15.14 3.14,14.31 3.89,13.3 4.42,12.17 4.91,11.12 5.2,10 5.27,8.84 5.34,7.69 5.19,6.54 4.83,5.44 4.44,4.25 3.81,3.16 2.98,2.22 2.15,1.28 1.14,0.53 0,0 m 1.8,14.69 c -0.88,0.77 -1.9,1.36 -3.01,1.72 -1.02,0.34 -2.1,0.48 -3.17,0.41 -1.08,-0.06 -2.13,-0.33 -3.11,-0.79 -1.05,-0.49 -2,-1.2 -2.77,-2.07 -0.78,-0.87 -1.36,-1.9 -1.73,-3 -0.33,-1.03 -0.47,-2.1 -0.41,-3.18 0.07,-1.08 0.33,-2.13 0.79,-3.1 0.49,-1.06 1.2,-2.01 2.07,-2.78 0.88,-0.77 1.9,-1.36 3.01,-1.73 1.02,-0.33 2.1,-0.47 3.17,-0.41 1.08,0.07 2.13,0.34 3.11,0.79 1.05,0.5 2,1.2 2.77,2.08 0.78,0.87 1.36,1.89 1.73,3 0.33,1.02 0.47,2.1 0.41,3.18 -0.07,1.07 -0.33,2.12 -0.79,3.1 -0.49,1.06 -1.2,2 -2.07,2.78"
               style="fill:#285468;fill-opacity:1;fill-rule:nonzero;stroke:none"
               id="path12239" />
          </g>
          <g
             transform="translate(422.23,335.9502)"
             id="g12245">
            <path
               d="m 0,0 c 0,-0.61 -0.14,-1.14 -0.42,-1.59 -0.29,-0.44 -0.72,-0.78 -1.28,-1.02 0.73,-1.26 1.45,-2.51 2.18,-3.76 h -1.61 c -0.61,1.15 -1.23,2.3 -1.84,3.46 -0.38,-0.02 -0.72,-0.03 -1.02,-0.03 H -4.34 V -6.37 H -5.7 v 9.15 h 2.08 c 1.06,0 1.92,-0.22 2.6,-0.65 C -0.34,1.69 0,0.98 0,0 M -3.51,1.62 H -4.34 V -1.8 h 0.88 c 0.82,0 1.37,0.17 1.68,0.53 0.3,0.35 0.45,0.77 0.45,1.26 0,1.09 -0.72,1.63 -2.18,1.63"
               style="fill:#285468;fill-opacity:1;fill-rule:nonzero;stroke:none"
               id="path12243" />
          </g>
        </g>
      </g>
    </g>
  </g>
</svg>
