<?xml version="1.0" encoding="UTF-8" standalone="no"?>
<!-- Generator: Adobe Illustrator 14.0.0, SVG Export Plug-In . SVG Version: 6.00 Build 43363)  -->

<svg
   version="1.1"
   id="Capa_1"
   x="0px"
   y="0px"
   width="111.555"
   height="111.55275"
   viewBox="0 0 111.555 111.55275"
   enable-background="new 0 0 49.44 49.43"
   xml:space="preserve"
   sodipodi:docname="snare.svg"
   inkscape:version="1.1.2 (76b9e6a115, 2022-02-25)"
   xmlns:inkscape="http://www.inkscape.org/namespaces/inkscape"
   xmlns:sodipodi="http://sodipodi.sourceforge.net/DTD/sodipodi-0.dtd"
   xmlns="http://www.w3.org/2000/svg"
   xmlns:svg="http://www.w3.org/2000/svg"><defs
   id="defs2863" /><sodipodi:namedview
   id="namedview2861"
   pagecolor="#ffffff"
   bordercolor="#666666"
   borderopacity="1.0"
   inkscape:pageshadow="2"
   inkscape:pageopacity="0.0"
   inkscape:pagecheckerboard="0"
   showgrid="false"
   fit-margin-top="0"
   fit-margin-left="0"
   fit-margin-right="0"
   fit-margin-bottom="0"
   inkscape:zoom="4.825005"
   inkscape:cx="31.813439"
   inkscape:cy="53.989581"
   inkscape:window-width="1848"
   inkscape:window-height="1016"
   inkscape:window-x="72"
   inkscape:window-y="27"
   inkscape:window-maximized="1"
   inkscape:current-layer="Capa_1" />
<g
   id="g2858"
   transform="matrix(2.25,0,0,2.25,0.15750001,0.16650001)">
	<g
   id="XMLID_16_">
		<g
   id="g2841">
			<path
   d="m 47.695,15.621 c 1.15,2.9 1.74,5.98 1.74,9.1 0,3.11 -0.59,6.2 -1.74,9.089 -1.24,3.141 -3.109,6 -5.5,8.381 -2.39,2.39 -5.24,4.26 -8.38,5.51 -2.9,1.14 -5.979,1.729 -9.1,1.729 -3.11,0 -6.2,-0.59 -9.1,-1.729 -3.14,-1.25 -5.99,-3.12 -8.37,-5.51 -2.39,-2.381 -4.27,-5.24 -5.51,-8.381 -1.15,-2.89 -1.73,-5.979 -1.73,-9.089 0,-3.12 0.58,-6.2 1.73,-9.1 1.25,-3.14 3.12,-5.99 5.51,-8.38 2.38,-2.39 5.24,-4.26 8.37,-5.5 2.9,-1.15 5.99,-1.74 9.1,-1.74 3.121,0 6.2,0.59 9.1,1.74 3.14,1.24 5.99,3.11 8.38,5.5 2.39,2.389 4.26,5.239 5.5,8.38 z m -7.41,9.589 c 0,-0.33 0,-0.66 0,-0.99 -0.25,-0.13 -0.51,-0.26 -0.76,-0.39 -0.2,-3.32 -1.51,-6.47 -3.71,-8.95 0.09,-0.28 0.17,-0.55 0.26,-0.82 -0.229,-0.24 -0.46,-0.47 -0.7,-0.7 -0.27,0.08 -0.55,0.17 -0.819,0.26 -2.48,-2.2 -5.63,-3.51 -8.95,-3.71 -0.13,-0.25 -0.26,-0.51 -0.39,-0.76 -0.33,0 -0.66,0 -0.99,0 -0.13,0.25 -0.27,0.51 -0.4,0.76 -3.31,0.2 -6.46,1.51 -8.95,3.71 -0.27,-0.09 -0.54,-0.18 -0.82,-0.26 -0.23,0.23 -0.46,0.46 -0.7,0.7 0.09,0.27 0.18,0.54 0.27,0.82 -2.21,2.48 -3.51,5.63 -3.71,8.95 -0.26,0.13 -0.51,0.26 -0.77,0.39 0,0.33 0,0.66 0,0.99 0.26,0.13 0.51,0.26 0.77,0.4 0.2,3.31 1.5,6.46 3.71,8.939 -0.09,0.28 -0.18,0.55 -0.27,0.83 0.24,0.23 0.47,0.46 0.7,0.7 0.28,-0.09 0.55,-0.18 0.82,-0.271 2.49,2.2 5.64,3.511 8.95,3.711 0.13,0.26 0.27,0.51 0.4,0.77 0.33,0 0.66,0 0.99,0 0.13,-0.26 0.26,-0.51 0.39,-0.77 3.32,-0.2 6.47,-1.511 8.95,-3.711 0.27,0.091 0.55,0.181 0.819,0.271 0.24,-0.24 0.471,-0.47 0.7,-0.7 -0.09,-0.28 -0.17,-0.55 -0.26,-0.83 2.2,-2.479 3.51,-5.63 3.71,-8.939 0.25,-0.139 0.51,-0.27 0.76,-0.4 z"
   id="path2835" />
			<path
   d="m 37.125,19.8 c 0.62,1.57 0.94,3.23 0.94,4.92 0,1.68 -0.32,3.339 -0.94,4.91 -0.67,1.7 -1.68,3.23 -2.97,4.521 -1.29,1.291 -2.83,2.3 -4.53,2.979 -1.56,0.62 -3.22,0.93 -4.91,0.93 -1.68,0 -3.35,-0.31 -4.91,-0.93 -1.7,-0.68 -3.24,-1.689 -4.53,-2.979 -1.28,-1.29 -2.3,-2.83 -2.97,-4.521 -0.62,-1.57 -0.93,-3.229 -0.93,-4.91 0,-1.69 0.31,-3.35 0.93,-4.92 0.67,-1.69 1.69,-3.23 2.98,-4.52 1.28,-1.29 2.82,-2.3 4.52,-2.97 1.56,-0.62 3.23,-0.94 4.91,-0.94 1.69,0 3.35,0.32 4.92,0.94 1.689,0.67 3.229,1.68 4.52,2.97 1.29,1.29 2.3,2.83 2.97,4.52 z m 0.2,4.921 c 0,-1.59 -0.3,-3.17 -0.89,-4.64 -0.63,-1.6 -1.59,-3.06 -2.8,-4.28 -1.221,-1.21 -2.681,-2.17 -4.28,-2.8 -1.48,-0.59 -3.05,-0.89 -4.64,-0.89 -1.59,0 -3.16,0.3 -4.64,0.89 -1.6,0.63 -3.05,1.59 -4.27,2.8 -1.22,1.22 -2.17,2.67 -2.81,4.28 -0.58,1.47 -0.88,3.05 -0.88,4.64 0,1.589 0.3,3.16 0.88,4.64 0.64,1.6 1.59,3.05 2.81,4.27 1.22,1.22 2.67,2.17 4.27,2.811 1.48,0.58 3.05,0.88 4.64,0.88 1.59,0 3.16,-0.3 4.64,-0.88 1.6,-0.641 3.06,-1.591 4.28,-2.811 1.21,-1.22 2.17,-2.67 2.8,-4.27 0.59,-1.481 0.89,-3.051 0.89,-4.64 z"
   id="path2837" />
			<path
   d="m 30.465,22.44 c 0.279,0.73 0.43,1.5 0.43,2.28 0,0.78 -0.15,1.55 -0.43,2.27 -0.311,0.79 -0.78,1.5 -1.38,2.1 -0.601,0.59 -1.311,1.061 -2.091,1.37 -0.729,0.29 -1.5,0.44 -2.28,0.44 -0.78,0 -1.55,-0.15 -2.27,-0.44 -0.79,-0.31 -1.5,-0.78 -2.1,-1.37 -0.59,-0.6 -1.06,-1.31 -1.37,-2.1 -0.29,-0.72 -0.44,-1.49 -0.44,-2.27 0,-0.78 0.15,-1.55 0.44,-2.28 0.31,-0.78 0.78,-1.5 1.37,-2.09 0.6,-0.6 1.31,-1.07 2.1,-1.38 0.72,-0.29 1.49,-0.43 2.27,-0.43 0.78,0 1.55,0.14 2.28,0.43 0.78,0.31 1.49,0.78 2.091,1.38 0.6,0.59 1.07,1.311 1.38,2.09 z m -3.53,3.98 c 0,-0.29 -0.061,-0.55 -0.18,-0.8 -0.12,-0.24 -0.28,-0.45 -0.471,-0.62 -0.15,-0.14 -0.3,-0.25 -0.459,-0.35 -0.16,-0.1 -0.39,-0.23 -0.69,-0.4 -0.32,-0.17 -0.57,-0.32 -0.76,-0.44 -0.18,-0.12 -0.33,-0.27 -0.45,-0.43 -0.13,-0.17 -0.19,-0.35 -0.19,-0.56 0,-0.3 0.1,-0.52 0.29,-0.67 0.19,-0.15 0.46,-0.23 0.79,-0.23 0.27,0 0.51,0.05 0.74,0.15 0.24,0.1 0.42,0.21 0.54,0.35 0.18,-0.31 0.359,-0.62 0.54,-0.92 -0.49,-0.4 -1.07,-0.6 -1.771,-0.6 -0.64,0 -1.18,0.17 -1.6,0.51 -0.42,0.34 -0.64,0.83 -0.64,1.47 0,0.77 0.33,1.38 0.98,1.82 0.14,0.09 0.41,0.23 0.79,0.42 0.32,0.16 0.57,0.3 0.75,0.41 0.17,0.109 0.32,0.25 0.44,0.42 0.12,0.17 0.18,0.359 0.18,0.59 0,0.3 -0.11,0.53 -0.34,0.7 -0.22,0.17 -0.51,0.25 -0.87,0.25 -0.27,0 -0.56,-0.07 -0.86,-0.21 -0.3,-0.13 -0.52,-0.271 -0.66,-0.391 -0.18,0.311 -0.36,0.631 -0.54,0.95 0.18,0.181 0.46,0.34 0.86,0.48 0.4,0.14 0.8,0.21 1.2,0.21 0.46,0 0.87,-0.08 1.23,-0.24 0.36,-0.16 0.64,-0.4 0.839,-0.72 0.212,-0.309 0.312,-0.698 0.312,-1.149 z"
   id="path2839" />
		</g>
		<g
   id="g2855">
			<path
   fill="none"
   stroke="#000000"
   stroke-width="0.15"
   stroke-linecap="round"
   stroke-linejoin="round"
   d="m 24.555,28.531 c 0.46,0 0.87,-0.08 1.23,-0.24 0.36,-0.16 0.64,-0.4 0.839,-0.72 0.211,-0.311 0.311,-0.7 0.311,-1.15 0,-0.29 -0.061,-0.55 -0.18,-0.8 -0.12,-0.24 -0.28,-0.45 -0.471,-0.62 -0.15,-0.14 -0.3,-0.25 -0.459,-0.35 -0.16,-0.1 -0.39,-0.23 -0.69,-0.4 -0.32,-0.17 -0.57,-0.32 -0.76,-0.44 -0.18,-0.12 -0.33,-0.27 -0.45,-0.43 -0.13,-0.17 -0.19,-0.35 -0.19,-0.56 0,-0.3 0.1,-0.52 0.29,-0.67 0.19,-0.15 0.46,-0.23 0.79,-0.23 0.27,0 0.51,0.05 0.74,0.15 0.24,0.1 0.42,0.21 0.54,0.35 0.18,-0.31 0.359,-0.62 0.54,-0.92 -0.49,-0.4 -1.07,-0.6 -1.771,-0.6 -0.64,0 -1.18,0.17 -1.6,0.51 -0.42,0.34 -0.64,0.83 -0.64,1.47 0,0.77 0.33,1.38 0.98,1.82 0.14,0.09 0.41,0.23 0.79,0.42 0.32,0.16 0.57,0.3 0.75,0.41 0.17,0.109 0.32,0.25 0.44,0.42 0.12,0.17 0.18,0.359 0.18,0.59 0,0.3 -0.11,0.53 -0.34,0.7 -0.22,0.17 -0.51,0.25 -0.87,0.25 -0.27,0 -0.56,-0.07 -0.86,-0.21 -0.3,-0.13 -0.52,-0.271 -0.66,-0.391 -0.18,0.311 -0.36,0.631 -0.54,0.95 0.18,0.181 0.46,0.34 0.86,0.48 0.401,0.14 0.801,0.211 1.201,0.211 z"
   id="path2843" />
			<path
   fill="none"
   stroke="#000000"
   stroke-width="0.15"
   stroke-linecap="round"
   stroke-linejoin="round"
   d="m 30.895,24.721 c 0,-0.78 -0.15,-1.55 -0.43,-2.28 -0.311,-0.78 -0.78,-1.5 -1.38,-2.09 -0.601,-0.6 -1.311,-1.07 -2.091,-1.38 -0.729,-0.29 -1.5,-0.43 -2.28,-0.43 -0.78,0 -1.55,0.14 -2.27,0.43 -0.79,0.31 -1.5,0.78 -2.1,1.38 -0.59,0.59 -1.06,1.31 -1.37,2.09 -0.29,0.73 -0.44,1.5 -0.44,2.28 0,0.78 0.15,1.55 0.44,2.27 0.31,0.79 0.78,1.5 1.37,2.1 0.6,0.59 1.31,1.061 2.1,1.37 0.72,0.29 1.49,0.44 2.27,0.44 0.78,0 1.55,-0.15 2.28,-0.44 0.78,-0.31 1.49,-0.78 2.091,-1.37 0.6,-0.6 1.069,-1.31 1.38,-2.1 0.28,-0.72 0.43,-1.491 0.43,-2.27 z"
   id="path2845" />
			<path
   fill="none"
   stroke="#000000"
   stroke-width="0.15"
   stroke-linecap="round"
   stroke-linejoin="round"
   d="m 34.555,13.621 c 0.27,-0.09 0.55,-0.18 0.819,-0.26 0.24,0.23 0.471,0.46 0.7,0.7 -0.09,0.27 -0.17,0.54 -0.26,0.82 2.2,2.48 3.51,5.63 3.71,8.95 0.25,0.13 0.51,0.26 0.76,0.39 0,0.33 0,0.66 0,0.99 -0.25,0.13 -0.51,0.26 -0.76,0.4 -0.2,3.31 -1.51,6.46 -3.71,8.939 0.09,0.28 0.17,0.55 0.26,0.83 -0.229,0.23 -0.46,0.46 -0.7,0.7 -0.27,-0.09 -0.55,-0.18 -0.819,-0.271 -2.48,2.2 -5.63,3.511 -8.95,3.711 -0.13,0.26 -0.26,0.51 -0.39,0.77 -0.33,0 -0.66,0 -0.99,0 -0.13,-0.26 -0.27,-0.51 -0.4,-0.77 -3.31,-0.2 -6.46,-1.511 -8.95,-3.711 -0.27,0.091 -0.54,0.181 -0.82,0.271 -0.23,-0.24 -0.46,-0.47 -0.7,-0.7 0.09,-0.28 0.18,-0.55 0.27,-0.83 -2.21,-2.479 -3.51,-5.63 -3.71,-8.939 -0.26,-0.14 -0.51,-0.271 -0.77,-0.4 0,-0.33 0,-0.66 0,-0.99 0.26,-0.13 0.51,-0.26 0.77,-0.39 0.2,-3.32 1.5,-6.47 3.71,-8.95 -0.09,-0.28 -0.18,-0.55 -0.27,-0.82 0.24,-0.24 0.47,-0.47 0.7,-0.7 0.28,0.08 0.55,0.17 0.82,0.26 2.49,-2.2 5.64,-3.51 8.95,-3.71 0.13,-0.25 0.27,-0.51 0.4,-0.76 0.33,0 0.66,0 0.99,0 0.13,0.25 0.26,0.51 0.39,0.76 3.32,0.199 6.47,1.509 8.95,3.71 z"
   id="path2847" />
			<path
   fill="none"
   stroke="#000000"
   stroke-width="0.15"
   stroke-linecap="round"
   stroke-linejoin="round"
   d="m 37.325,24.721 c 0,-1.59 -0.3,-3.17 -0.89,-4.64 -0.63,-1.6 -1.59,-3.06 -2.8,-4.28 -1.221,-1.21 -2.681,-2.17 -4.28,-2.8 -1.48,-0.59 -3.05,-0.89 -4.64,-0.89 -1.59,0 -3.16,0.3 -4.64,0.89 -1.6,0.63 -3.05,1.59 -4.27,2.8 -1.22,1.22 -2.17,2.67 -2.81,4.28 -0.58,1.47 -0.88,3.05 -0.88,4.64 0,1.589 0.3,3.16 0.88,4.64 0.64,1.6 1.59,3.05 2.81,4.27 1.22,1.22 2.67,2.17 4.27,2.811 1.48,0.58 3.05,0.88 4.64,0.88 1.59,0 3.16,-0.3 4.64,-0.88 1.6,-0.641 3.06,-1.591 4.28,-2.811 1.21,-1.22 2.17,-2.67 2.8,-4.27 0.59,-1.481 0.89,-3.051 0.89,-4.64 z"
   id="path2849" />
			<path
   fill="none"
   stroke="#000000"
   stroke-width="0.15"
   stroke-linecap="round"
   stroke-linejoin="round"
   d="m 38.065,24.721 c 0,-1.69 -0.32,-3.35 -0.94,-4.92 -0.67,-1.69 -1.68,-3.23 -2.97,-4.52 -1.29,-1.29 -2.83,-2.3 -4.52,-2.97 -1.57,-0.62 -3.23,-0.94 -4.92,-0.94 -1.68,0 -3.35,0.32 -4.91,0.94 -1.7,0.67 -3.24,1.68 -4.52,2.97 -1.29,1.29 -2.31,2.83 -2.98,4.52 -0.62,1.57 -0.93,3.23 -0.93,4.92 0,1.68 0.31,3.339 0.93,4.91 0.67,1.69 1.69,3.23 2.97,4.521 1.29,1.29 2.83,2.3 4.53,2.979 1.56,0.62 3.23,0.93 4.91,0.93 1.69,0 3.35,-0.31 4.91,-0.93 1.7,-0.68 3.24,-1.689 4.53,-2.979 1.29,-1.29 2.3,-2.82 2.97,-4.521 0.62,-1.571 0.94,-3.23 0.94,-4.91 z"
   id="path2851" />
			<path
   fill="none"
   stroke="#000000"
   stroke-width="0.15"
   stroke-linecap="round"
   stroke-linejoin="round"
   d="m 49.435,24.721 c 0,-3.12 -0.59,-6.2 -1.74,-9.1 -1.24,-3.14 -3.109,-5.99 -5.5,-8.38 -2.39,-2.39 -5.24,-4.26 -8.38,-5.5 -2.9,-1.15 -5.979,-1.74 -9.1,-1.74 -3.11,0 -6.2,0.59 -9.1,1.74 -3.13,1.24 -5.99,3.11 -8.37,5.5 -2.39,2.39 -4.26,5.24 -5.51,8.38 -1.15,2.9 -1.73,5.98 -1.73,9.1 0,3.11 0.58,6.2 1.73,9.089 1.24,3.141 3.12,6 5.51,8.381 2.38,2.39 5.23,4.26 8.37,5.51 2.9,1.14 5.99,1.729 9.1,1.729 3.121,0 6.2,-0.59 9.1,-1.729 3.14,-1.25 5.99,-3.12 8.38,-5.51 2.391,-2.381 4.26,-5.24 5.5,-8.381 1.15,-2.89 1.74,-5.979 1.74,-9.089 z"
   id="path2853" />
		</g>
	</g>
</g>
</svg>
