<?xml version="1.0" encoding="UTF-8" standalone="no"?>
<!-- Created with Inkscape (http://www.inkscape.org/) -->

<svg
   width="22.655388mm"
   height="22.655388mm"
   viewBox="0 0 22.655388 22.655388"
   version="1.1"
   id="svg16196"
   inkscape:version="1.1.2 (76b9e6a115, 2022-02-25)"
   sodipodi:docname="snare2.svg"
   xmlns:inkscape="http://www.inkscape.org/namespaces/inkscape"
   xmlns:sodipodi="http://sodipodi.sourceforge.net/DTD/sodipodi-0.dtd"
   xmlns="http://www.w3.org/2000/svg"
   xmlns:svg="http://www.w3.org/2000/svg">
  <sodipodi:namedview
     id="namedview16198"
     pagecolor="#ffffff"
     bordercolor="#666666"
     borderopacity="1.0"
     inkscape:pageshadow="2"
     inkscape:pageopacity="0.0"
     inkscape:pagecheckerboard="0"
     inkscape:document-units="mm"
     showgrid="false"
     inkscape:zoom="0.75187991"
     inkscape:cx="-234.74493"
     inkscape:cy="138.98496"
     inkscape:window-width="1848"
     inkscape:window-height="1016"
     inkscape:window-x="72"
     inkscape:window-y="27"
     inkscape:window-maximized="1"
     inkscape:current-layer="layer1" />
  <defs
     id="defs16193">
    <clipPath
       clipPathUnits="userSpaceOnUse"
       id="clipPath10949">
      <path
         d="m 236.42,587.2 h 57.37 v -57.37 h -57.37 z"
         id="path10947" />
    </clipPath>
  </defs>
  <g
     inkscape:label="Capa 1"
     inkscape:groupmode="layer"
     id="layer1"
     transform="translate(-167.08344,-111.83581)">
    <g
       id="g10943"
       transform="matrix(0.35277777,0,0,-0.35277777,84.888022,320.19522)">
      <g
         id="g10945" />
      <g
         id="g10965">
        <g
           clip-path="url(#clipPath10949)"
           id="g10963">
          <g
             transform="translate(292.8701,558.5103)"
             id="g10953">
            <path
               d="m 0,0 c 0,3.51 -0.66,6.97 -1.95,10.23 -1.39,3.52 -3.5,6.73 -6.18,9.41 -2.68,2.68 -5.88,4.79 -9.41,6.18 -3.26,1.29 -6.72,1.95 -10.22,1.95 -3.5,0 -6.97,-0.66 -10.22,-1.95 -3.53,-1.39 -6.73,-3.5 -9.42,-6.18 -2.68,-2.68 -4.78,-5.89 -6.18,-9.41 -1.29,-3.26 -1.95,-6.72 -1.95,-10.23 0,-3.5 0.66,-6.96 1.95,-10.22 1.4,-3.52 3.5,-6.73 6.18,-9.41 2.69,-2.68 5.89,-4.79 9.42,-6.18 3.25,-1.29 6.72,-1.95 10.22,-1.95 3.5,0 6.96,0.66 10.22,1.95 3.53,1.39 6.73,3.5 9.41,6.18 2.68,2.68 4.79,5.89 6.18,9.41 C -0.66,-6.96 0,-3.5 0,0 M -1.09,10.56 C 0.24,7.2 0.92,3.62 0.92,0 c 0,-3.61 -0.68,-7.19 -2.01,-10.55 -1.45,-3.65 -3.62,-6.96 -6.39,-9.73 -2.77,-2.77 -6.08,-4.94 -9.72,-6.38 -3.37,-1.34 -6.95,-2.02 -10.56,-2.02 -3.62,0 -7.2,0.68 -10.56,2.02 -3.65,1.44 -6.95,3.61 -9.72,6.38 -2.78,2.77 -4.95,6.08 -6.39,9.73 -1.33,3.36 -2.02,6.94 -2.02,10.55 0,3.62 0.69,7.2 2.02,10.56 1.44,3.65 3.61,6.96 6.39,9.73 2.77,2.77 6.08,4.94 9.72,6.38 3.36,1.33 6.94,2.02 10.56,2.02 3.61,0 7.19,-0.69 10.56,-2.02 3.64,-1.44 6.95,-3.61 9.72,-6.38 2.77,-2.78 4.94,-6.08 6.39,-9.73"
               style="fill:#285468;fill-opacity:1;fill-rule:nonzero;stroke:none"
               id="path10951" />
          </g>
          <g
             transform="translate(277.3101,558.5103)"
             id="g10957">
            <path
               d="m 0,0 c 0,1.54 -0.29,3.07 -0.85,4.5 -0.62,1.55 -1.54,2.96 -2.72,4.13 -1.18,1.18 -2.59,2.11 -4.14,2.72 -1.43,0.57 -2.95,0.86 -4.49,0.86 -1.54,0 -3.06,-0.29 -4.5,-0.86 -1.55,-0.61 -2.95,-1.54 -4.13,-2.71 -1.18,-1.18 -2.11,-2.59 -2.72,-4.14 -0.57,-1.43 -0.86,-2.96 -0.86,-4.5 0,-1.53 0.29,-3.06 0.86,-4.49 0.61,-1.55 1.54,-2.96 2.72,-4.14 1.18,-1.18 2.58,-2.1 4.13,-2.71 1.44,-0.57 2.96,-0.86 4.5,-0.86 1.54,0 3.06,0.29 4.49,0.86 1.55,0.61 2.96,1.53 4.14,2.71 1.18,1.18 2.1,2.59 2.72,4.14 C -0.29,-3.06 0,-1.53 0,0 m 12.76,9.89 c 1.25,-3.15 1.89,-6.5 1.89,-9.89 0,-3.38 -0.64,-6.73 -1.89,-9.88 -1.35,-3.41 -3.38,-6.51 -5.98,-9.1 -2.59,-2.6 -5.69,-4.63 -9.1,-5.98 -3.15,-1.25 -6.5,-1.89 -9.88,-1.89 -3.39,0 -6.74,0.64 -9.89,1.89 -3.41,1.35 -6.51,3.38 -9.1,5.98 -2.59,2.59 -4.63,5.69 -5.98,9.1 -1.25,3.15 -1.88,6.5 -1.88,9.88 0,3.39 0.63,6.74 1.88,9.89 1.35,3.41 3.39,6.51 5.98,9.1 2.59,2.6 5.69,4.63 9.1,5.98 3.15,1.25 6.5,1.89 9.89,1.89 3.38,0 6.73,-0.64 9.88,-1.89 3.41,-1.35 6.51,-3.38 9.1,-5.98 2.6,-2.59 4.63,-5.69 5.98,-9.1"
               style="fill:#285468;fill-opacity:1;fill-rule:nonzero;stroke:none"
               id="path10955" />
          </g>
          <g
             transform="translate(267.6201,557.3901)"
             id="g10961">
            <path
               d="m 0,0 c 0.15,-0.29 0.23,-0.62 0.23,-0.98 0,-0.56 -0.13,-1.03 -0.38,-1.42 -0.26,-0.39 -0.6,-0.68 -1.05,-0.88 -0.44,-0.2 -0.95,-0.3 -1.51,-0.3 -0.5,0 -0.99,0.08 -1.48,0.26 -0.49,0.17 -0.85,0.37 -1.06,0.58 0.22,0.4 0.44,0.79 0.66,1.19 0.17,-0.16 0.44,-0.32 0.81,-0.49 0.37,-0.18 0.73,-0.26 1.07,-0.26 0.44,0 0.8,0.1 1.07,0.31 0.28,0.21 0.42,0.5 0.42,0.86 0,0.28 -0.07,0.53 -0.22,0.74 -0.15,0.2 -0.33,0.38 -0.55,0.51 -0.22,0.14 -0.52,0.31 -0.92,0.51 -0.47,0.23 -0.8,0.4 -0.97,0.52 -0.81,0.54 -1.21,1.29 -1.21,2.24 0,0.79 0.26,1.39 0.78,1.81 0.53,0.42 1.19,0.63 1.98,0.63 0.86,0 1.59,-0.24 2.18,-0.73 C -0.37,4.72 -0.59,4.34 -0.81,3.96 -0.96,4.13 -1.19,4.27 -1.47,4.39 -1.76,4.51 -2.06,4.57 -2.39,4.57 -2.8,4.57 -3.13,4.48 -3.37,4.29 -3.6,4.11 -3.72,3.83 -3.72,3.47 -3.72,3.21 -3.65,2.98 -3.5,2.77 -3.35,2.57 -3.16,2.4 -2.93,2.25 -2.7,2.1 -2.39,1.91 -2,1.7 -1.63,1.49 -1.34,1.33 -1.14,1.21 -0.94,1.09 -0.76,0.94 -0.58,0.78 -0.34,0.56 -0.15,0.3 0,0"
               style="fill:#285468;fill-opacity:1;fill-rule:nonzero;stroke:none"
               id="path10959" />
          </g>
        </g>
      </g>
    </g>
    <g
       id="g10967"
       transform="matrix(0.35277777,0,0,-0.35277777,182.71686,123.1652)">
      <path
         d="m 0,0 c 0,1.54 -0.29,3.07 -0.85,4.5 -0.62,1.55 -1.54,2.96 -2.72,4.13 -1.18,1.18 -2.59,2.11 -4.14,2.72 -1.43,0.57 -2.95,0.86 -4.49,0.86 -1.54,0 -3.06,-0.29 -4.5,-0.86 -1.55,-0.61 -2.95,-1.54 -4.13,-2.71 -1.18,-1.18 -2.11,-2.59 -2.72,-4.14 -0.57,-1.43 -0.86,-2.96 -0.86,-4.5 0,-1.53 0.29,-3.06 0.86,-4.49 0.61,-1.55 1.54,-2.96 2.72,-4.14 1.18,-1.18 2.58,-2.1 4.13,-2.71 1.44,-0.57 2.96,-0.86 4.5,-0.86 1.54,0 3.06,0.29 4.49,0.86 1.55,0.61 2.96,1.53 4.14,2.71 1.18,1.18 2.1,2.59 2.72,4.14 C -0.29,-3.06 0,-1.53 0,0 Z"
         style="fill:none;stroke:#285468;stroke-width:0.25;stroke-linecap:butt;stroke-linejoin:miter;stroke-miterlimit:4;stroke-dasharray:none;stroke-opacity:1"
         id="path10969" />
    </g>
    <g
       id="g10971"
       transform="matrix(0.35277777,0,0,-0.35277777,167.66729,122.50205)">
      <path
         d="M 0,0 C -0.42,-0.21 -0.85,-0.43 -1.28,-0.65 V -3.1 c 0.43,-0.22 0.86,-0.44 1.28,-0.66 0.42,-6.78 3.09,-13.23 7.59,-18.32 -0.14,-0.46 -0.29,-0.91 -0.44,-1.37 0.58,-0.58 1.16,-1.15 1.73,-1.73 0.46,0.15 0.91,0.29 1.37,0.44 5.09,-4.5 11.54,-7.17 18.33,-7.59 0.22,-0.43 0.44,-0.85 0.66,-1.28 h 2.44 c 0.22,0.43 0.44,0.85 0.66,1.28 6.78,0.42 13.23,3.09 18.32,7.59 0.46,-0.15 0.92,-0.29 1.37,-0.44 0.58,0.58 1.15,1.15 1.73,1.73 -0.15,0.46 -0.29,0.91 -0.44,1.37 4.5,5.09 7.17,11.54 7.59,18.32 0.43,0.22 0.86,0.44 1.28,0.66 v 2.45 c -0.42,0.22 -0.85,0.44 -1.28,0.65 -0.42,6.79 -3.09,13.24 -7.59,18.33 0.15,0.46 0.29,0.91 0.44,1.37 -0.58,0.58 -1.15,1.15 -1.73,1.73 -0.45,-0.15 -0.91,-0.29 -1.37,-0.44 -5.09,4.5 -11.54,7.17 -18.32,7.59 -0.22,0.43 -0.44,0.85 -0.66,1.28 H 29.24 C 29.02,29.43 28.8,29.01 28.58,28.58 21.79,28.16 15.34,25.49 10.25,20.99 9.79,21.14 9.34,21.28 8.88,21.43 8.31,20.85 7.73,20.28 7.15,19.7 7.3,19.24 7.45,18.79 7.59,18.33 3.09,13.24 0.42,6.79 0,0 Z"
         style="fill:none;stroke:#285468;stroke-width:0.75;stroke-linecap:butt;stroke-linejoin:miter;stroke-miterlimit:4;stroke-dasharray:none;stroke-opacity:1"
         id="path10973" />
    </g>
    <g
       id="g10975"
       transform="matrix(0.35277777,0,0,-0.35277777,187.88502,123.1652)">
      <path
         d="m 0,0 c 0,3.39 -0.64,6.74 -1.89,9.89 -1.35,3.41 -3.38,6.51 -5.98,9.1 -2.59,2.6 -5.69,4.63 -9.1,5.98 -3.15,1.25 -6.5,1.89 -9.88,1.89 -3.39,0 -6.74,-0.64 -9.89,-1.89 -3.41,-1.35 -6.51,-3.38 -9.1,-5.98 -2.59,-2.59 -4.63,-5.69 -5.98,-9.1 -1.25,-3.15 -1.88,-6.5 -1.88,-9.89 0,-3.38 0.63,-6.73 1.88,-9.88 1.35,-3.41 3.39,-6.51 5.98,-9.1 2.59,-2.6 5.69,-4.63 9.1,-5.98 3.15,-1.25 6.5,-1.89 9.89,-1.89 3.38,0 6.73,0.64 9.88,1.89 3.41,1.35 6.51,3.38 9.1,5.98 2.6,2.59 4.63,5.69 5.98,9.1 C -0.64,-6.73 0,-3.38 0,0 Z"
         style="fill:none;stroke:#285468;stroke-width:0.25;stroke-linecap:butt;stroke-linejoin:miter;stroke-miterlimit:4;stroke-dasharray:none;stroke-opacity:1"
         id="path10977" />
    </g>
    <g
       id="g10979"
       transform="matrix(0.35277777,0,0,-0.35277777,188.20608,123.1652)">
      <path
         d="m 0,0 c 0,3.51 -0.66,6.97 -1.95,10.23 -1.39,3.52 -3.5,6.73 -6.18,9.41 -2.68,2.68 -5.88,4.79 -9.41,6.18 -3.26,1.29 -6.72,1.95 -10.22,1.95 -3.5,0 -6.97,-0.66 -10.22,-1.95 -3.53,-1.39 -6.73,-3.5 -9.42,-6.18 -2.68,-2.68 -4.78,-5.89 -6.18,-9.41 -1.29,-3.26 -1.95,-6.72 -1.95,-10.23 0,-3.5 0.66,-6.96 1.95,-10.22 1.4,-3.52 3.5,-6.73 6.18,-9.41 2.69,-2.68 5.89,-4.79 9.42,-6.18 3.25,-1.29 6.72,-1.95 10.22,-1.95 3.5,0 6.96,0.66 10.22,1.95 3.53,1.39 6.73,3.5 9.41,6.18 2.68,2.68 4.79,5.89 6.18,9.41 C -0.66,-6.96 0,-3.5 0,0 Z"
         style="fill:none;stroke:#285468;stroke-width:0.25;stroke-linecap:butt;stroke-linejoin:miter;stroke-miterlimit:4;stroke-dasharray:none;stroke-opacity:1"
         id="path10981" />
    </g>
    <g
       id="g10983"
       transform="matrix(0.35277777,0,0,-0.35277777,188.5306,123.1652)">
      <path
         d="m 0,0 c 0,3.62 -0.68,7.2 -2.01,10.56 -1.45,3.65 -3.62,6.95 -6.39,9.73 -2.77,2.77 -6.08,4.94 -9.72,6.38 -3.37,1.33 -6.95,2.02 -10.56,2.02 -3.62,0 -7.2,-0.69 -10.56,-2.02 -3.64,-1.44 -6.95,-3.61 -9.72,-6.38 -2.78,-2.77 -4.95,-6.08 -6.39,-9.73 C -56.68,7.2 -57.37,3.62 -57.37,0 c 0,-3.61 0.69,-7.19 2.02,-10.55 1.44,-3.65 3.61,-6.96 6.39,-9.73 2.77,-2.77 6.07,-4.94 9.72,-6.38 3.36,-1.34 6.94,-2.02 10.56,-2.02 3.61,0 7.19,0.68 10.56,2.02 3.64,1.44 6.95,3.61 9.72,6.38 2.77,2.77 4.94,6.08 6.39,9.73 C -0.68,-7.19 0,-3.61 0,0 Z"
         style="fill:none;stroke:#285468;stroke-width:0.25;stroke-linecap:butt;stroke-linejoin:miter;stroke-miterlimit:4;stroke-dasharray:none;stroke-opacity:1"
         id="path10985" />
    </g>
    <g
       id="g10987"
       transform="matrix(0.35277777,0,0,-0.35277777,178.34245,124.82333)">
      <path
         d="M 0,0 C 0.56,0 1.07,0.1 1.51,0.3 1.96,0.5 2.3,0.79 2.56,1.18 2.81,1.57 2.94,2.04 2.94,2.6 2.94,2.96 2.86,3.29 2.71,3.58 2.56,3.88 2.37,4.14 2.13,4.36 1.95,4.52 1.77,4.67 1.57,4.79 1.37,4.91 1.08,5.07 0.71,5.28 c -0.39,0.21 -0.7,0.4 -0.93,0.55 -0.23,0.15 -0.42,0.32 -0.57,0.52 -0.15,0.21 -0.22,0.44 -0.22,0.7 0,0.36 0.12,0.64 0.35,0.82 0.24,0.19 0.57,0.28 0.98,0.28 0.33,0 0.63,-0.06 0.92,-0.18 C 1.52,7.85 1.75,7.71 1.9,7.54 2.12,7.92 2.34,8.3 2.56,8.68 1.97,9.17 1.24,9.41 0.38,9.41 -0.41,9.41 -1.07,9.2 -1.6,8.78 -2.12,8.36 -2.38,7.76 -2.38,6.97 c 0,-0.95 0.4,-1.7 1.21,-2.24 C -1,4.61 -0.67,4.44 -0.2,4.21 0.2,4.01 0.5,3.84 0.72,3.7 0.94,3.57 1.12,3.39 1.27,3.19 1.42,2.98 1.49,2.73 1.49,2.45 1.49,2.09 1.35,1.8 1.07,1.59 0.8,1.38 0.44,1.28 0,1.28 -0.34,1.28 -0.7,1.36 -1.07,1.54 -1.44,1.71 -1.71,1.87 -1.88,2.03 -2.1,1.63 -2.32,1.24 -2.54,0.84 -2.33,0.63 -1.97,0.43 -1.48,0.26 -0.99,0.08 -0.5,0 0,0 Z"
         style="fill:none;stroke:#285468;stroke-width:0.25;stroke-linecap:butt;stroke-linejoin:miter;stroke-miterlimit:4;stroke-dasharray:none;stroke-opacity:1"
         id="path10989" />
    </g>
  </g>
</svg>
