<?xml version="1.0" encoding="UTF-8" standalone="no"?>
<!-- Generator: Adobe Illustrator 14.0.0, SVG Export Plug-In . SVG Version: 6.00 Build 43363)  -->

<svg
   version="1.1"
   id="Capa_1"
   x="0px"
   y="0px"
   width="111.555"
   height="111.55275"
   viewBox="0 0 111.555 111.55275"
   enable-background="new 0 0 49.44 49.43"
   xml:space="preserve"
   sodipodi:docname="tomHigh.svg"
   inkscape:version="1.1.2 (76b9e6a115, 2022-02-25)"
   xmlns:inkscape="http://www.inkscape.org/namespaces/inkscape"
   xmlns:sodipodi="http://sodipodi.sourceforge.net/DTD/sodipodi-0.dtd"
   xmlns="http://www.w3.org/2000/svg"
   xmlns:svg="http://www.w3.org/2000/svg"><defs
   id="defs3156" /><sodipodi:namedview
   id="namedview3154"
   pagecolor="#ffffff"
   bordercolor="#666666"
   borderopacity="1.0"
   inkscape:pageshadow="2"
   inkscape:pageopacity="0.0"
   inkscape:pagecheckerboard="0"
   showgrid="false"
   fit-margin-top="0"
   fit-margin-left="0"
   fit-margin-right="0"
   fit-margin-bottom="0"
   inkscape:zoom="9.6500101"
   inkscape:cx="41.295294"
   inkscape:cy="64.611331"
   inkscape:window-width="1848"
   inkscape:window-height="1016"
   inkscape:window-x="72"
   inkscape:window-y="27"
   inkscape:window-maximized="1"
   inkscape:current-layer="Capa_1" />
<g
   id="g3151"
   transform="matrix(2.25,0,0,2.25,0.15750001,0.16875001)">
	<g
   id="XMLID_17_">
		<g
   id="g3134">
			<path
   d="m 47.705,15.621 c 1.15,2.9 1.73,5.98 1.73,9.1 0,3.11 -0.58,6.2 -1.73,9.089 -1.25,3.141 -3.119,6 -5.51,8.381 -2.38,2.39 -5.24,4.26 -8.38,5.51 -2.89,1.14 -5.979,1.729 -9.09,1.729 -3.12,0 -6.2,-0.59 -9.1,-1.729 -3.14,-1.25 -5.99,-3.12 -8.38,-5.51 -2.39,-2.381 -4.26,-5.24 -5.5,-8.381 -1.15,-2.89 -1.74,-5.979 -1.74,-9.089 0,-3.12 0.59,-6.2 1.74,-9.1 1.24,-3.14 3.11,-5.99 5.5,-8.38 2.39,-2.39 5.24,-4.26 8.38,-5.5 2.9,-1.15 5.98,-1.74 9.1,-1.74 3.11,0 6.2,0.59 9.1,1.74 3.13,1.24 5.99,3.11 8.37,5.5 2.39,2.389 4.26,5.239 5.51,8.38 z m -7.41,9.589 c 0,-0.33 0,-0.66 0,-0.99 -0.261,-0.13 -0.511,-0.26 -0.771,-0.39 -0.2,-3.32 -1.5,-6.47 -3.71,-8.95 0.09,-0.28 0.18,-0.55 0.271,-0.82 -0.24,-0.24 -0.471,-0.47 -0.7,-0.7 -0.28,0.08 -0.55,0.17 -0.83,0.26 -2.48,-2.2 -5.63,-3.51 -8.94,-3.71 -0.13,-0.25 -0.27,-0.51 -0.4,-0.76 -0.33,0 -0.66,0 -0.99,0 -0.13,0.25 -0.26,0.51 -0.39,0.76 -3.32,0.2 -6.47,1.51 -8.95,3.71 -0.27,-0.09 -0.55,-0.18 -0.82,-0.26 -0.24,0.23 -0.47,0.46 -0.7,0.7 0.08,0.27 0.17,0.54 0.26,0.82 -2.2,2.48 -3.51,5.63 -3.71,8.95 -0.25,0.13 -0.51,0.26 -0.76,0.39 0,0.33 0,0.66 0,0.99 0.25,0.13 0.51,0.26 0.76,0.4 0.2,3.31 1.51,6.46 3.71,8.939 -0.09,0.28 -0.18,0.55 -0.26,0.83 0.23,0.23 0.46,0.46 0.7,0.7 0.27,-0.09 0.55,-0.18 0.82,-0.271 2.48,2.2 5.63,3.511 8.95,3.711 0.13,0.26 0.26,0.51 0.39,0.77 0.33,0 0.66,0 0.99,0 0.13,-0.26 0.27,-0.51 0.4,-0.77 3.31,-0.2 6.459,-1.511 8.94,-3.711 0.28,0.091 0.55,0.181 0.83,0.271 0.229,-0.24 0.46,-0.47 0.7,-0.7 -0.091,-0.28 -0.181,-0.55 -0.271,-0.83 2.21,-2.479 3.51,-5.63 3.71,-8.939 0.261,-0.139 0.511,-0.27 0.771,-0.4 z"
   id="path3128" />
			<path
   d="m 26.995,30.46 c -0.72,0.29 -1.49,0.44 -2.27,0.44 -0.78,0 -1.55,-0.15 -2.28,-0.44 -0.78,-0.31 -1.5,-0.78 -2.09,-1.37 -0.6,-0.6 -1.07,-1.31 -1.38,-2.1 -0.29,-0.72 -0.43,-1.49 -0.43,-2.27 0,-0.78 0.14,-1.55 0.43,-2.28 0.31,-0.78 0.78,-1.5 1.38,-2.09 0.59,-0.6 1.31,-1.07 2.09,-1.38 0.73,-0.29 1.5,-0.43 2.28,-0.43 0.78,0 1.55,0.14 2.27,0.43 0.79,0.31 1.5,0.78 2.101,1.38 0.59,0.59 1.06,1.31 1.37,2.09 0.29,0.73 0.439,1.5 0.439,2.28 0,0.78 -0.149,1.55 -0.439,2.27 -0.311,0.79 -0.78,1.5 -1.37,2.1 -0.601,0.59 -1.311,1.061 -2.101,1.37 z m -3.58,-2.04 v -3.44 h 2.61 v 3.44 h 1.13 v -7.41 h -1.13 v 3.03 h -2.61 v -3.03 h -1.13 v 7.41 z"
   id="path3130" />
			<path
   d="m 19.805,12.311 c 1.57,-0.62 3.23,-0.94 4.92,-0.94 1.68,0 3.34,0.32 4.91,0.94 1.7,0.67 3.24,1.68 4.52,2.97 1.29,1.29 2.311,2.83 2.98,4.52 0.62,1.57 0.93,3.23 0.93,4.92 0,1.68 -0.31,3.339 -0.93,4.91 -0.681,1.7 -1.69,3.23 -2.98,4.521 -1.279,1.29 -2.83,2.3 -4.52,2.979 -1.57,0.62 -3.23,0.93 -4.91,0.93 -1.69,0 -3.35,-0.31 -4.92,-0.93 -1.69,-0.68 -3.23,-1.689 -4.52,-2.979 -1.29,-1.29 -2.3,-2.83 -2.97,-4.521 -0.62,-1.57 -0.94,-3.229 -0.94,-4.91 0,-1.69 0.32,-3.35 0.94,-4.92 0.67,-1.69 1.68,-3.23 2.97,-4.52 1.29,-1.29 2.83,-2.301 4.52,-2.97 z M 29.365,13 c -1.479,-0.59 -3.05,-0.89 -4.64,-0.89 -1.59,0 -3.17,0.3 -4.64,0.89 -1.6,0.63 -3.06,1.59 -4.28,2.8 -1.21,1.22 -2.17,2.67 -2.8,4.28 -0.59,1.47 -0.89,3.05 -0.89,4.64 0,1.589 0.3,3.16 0.89,4.64 0.63,1.6 1.59,3.05 2.8,4.27 1.22,1.22 2.68,2.17 4.28,2.811 1.47,0.58 3.05,0.88 4.64,0.88 1.59,0 3.16,-0.3 4.64,-0.88 1.601,-0.641 3.051,-1.591 4.271,-2.811 1.22,-1.22 2.17,-2.67 2.81,-4.27 0.58,-1.48 0.88,-3.051 0.88,-4.64 0,-1.59 -0.3,-3.17 -0.88,-4.64 -0.64,-1.6 -1.59,-3.06 -2.81,-4.28 -1.22,-1.21 -2.671,-2.17 -4.271,-2.8 z"
   id="path3132" />
		</g>
		<g
   id="g3148">
			<polygon
   fill="none"
   stroke="#000000"
   stroke-width="0.15"
   stroke-linecap="round"
   stroke-linejoin="round"
   points="27.155,28.42 27.155,21.011 26.025,21.011 26.025,24.041 23.415,24.041 23.415,21.011 22.285,21.011 22.285,28.42 23.415,28.42 23.415,24.98 26.025,24.98 26.025,28.42 "
   id="polygon3136" />
			<path
   fill="none"
   stroke="#000000"
   stroke-width="0.15"
   stroke-linecap="round"
   stroke-linejoin="round"
   d="m 30.905,24.721 c 0,-0.78 -0.149,-1.55 -0.439,-2.28 -0.311,-0.78 -0.78,-1.5 -1.37,-2.09 -0.601,-0.6 -1.311,-1.07 -2.101,-1.38 -0.72,-0.29 -1.49,-0.43 -2.27,-0.43 -0.78,0 -1.55,0.14 -2.28,0.43 -0.78,0.31 -1.5,0.78 -2.09,1.38 -0.6,0.59 -1.07,1.31 -1.38,2.09 -0.29,0.73 -0.43,1.5 -0.43,2.28 0,0.78 0.14,1.55 0.43,2.27 0.31,0.79 0.78,1.5 1.38,2.1 0.59,0.59 1.31,1.061 2.09,1.37 0.73,0.29 1.5,0.44 2.28,0.44 0.78,0 1.55,-0.15 2.27,-0.44 0.79,-0.31 1.5,-0.78 2.101,-1.37 0.59,-0.6 1.06,-1.31 1.37,-2.1 0.289,-0.72 0.439,-1.491 0.439,-2.27 z"
   id="path3138" />
			<path
   fill="none"
   stroke="#000000"
   stroke-width="0.15"
   stroke-linecap="round"
   stroke-linejoin="round"
   d="m 34.555,13.621 c 0.28,-0.09 0.55,-0.18 0.83,-0.26 0.229,0.23 0.46,0.46 0.7,0.7 -0.091,0.27 -0.181,0.54 -0.271,0.82 2.21,2.48 3.51,5.63 3.71,8.95 0.26,0.13 0.51,0.26 0.771,0.39 0,0.33 0,0.66 0,0.99 -0.261,0.13 -0.511,0.26 -0.771,0.4 -0.2,3.31 -1.5,6.46 -3.71,8.939 0.09,0.28 0.18,0.55 0.271,0.83 -0.24,0.23 -0.471,0.46 -0.7,0.7 -0.28,-0.09 -0.55,-0.18 -0.83,-0.271 -2.48,2.2 -5.63,3.511 -8.94,3.711 -0.13,0.26 -0.27,0.51 -0.4,0.77 -0.33,0 -0.66,0 -0.99,0 -0.13,-0.26 -0.26,-0.51 -0.39,-0.77 -3.32,-0.2 -6.47,-1.511 -8.95,-3.711 -0.27,0.091 -0.55,0.181 -0.82,0.271 -0.24,-0.24 -0.47,-0.47 -0.7,-0.7 0.08,-0.28 0.17,-0.55 0.26,-0.83 -2.2,-2.479 -3.51,-5.63 -3.71,-8.939 -0.25,-0.14 -0.51,-0.271 -0.76,-0.4 0,-0.33 0,-0.66 0,-0.99 0.25,-0.13 0.51,-0.26 0.76,-0.39 0.2,-3.32 1.51,-6.47 3.71,-8.95 -0.09,-0.28 -0.18,-0.55 -0.26,-0.82 0.23,-0.24 0.46,-0.47 0.7,-0.7 0.27,0.08 0.55,0.17 0.82,0.26 2.48,-2.2 5.63,-3.51 8.95,-3.71 0.13,-0.25 0.26,-0.51 0.39,-0.76 0.33,0 0.66,0 0.99,0 0.13,0.25 0.27,0.51 0.4,0.76 3.31,0.199 6.46,1.509 8.94,3.71 z"
   id="path3140" />
			<path
   fill="none"
   stroke="#000000"
   stroke-width="0.15"
   stroke-linecap="round"
   stroke-linejoin="round"
   d="m 37.325,24.721 c 0,-1.59 -0.3,-3.17 -0.88,-4.64 -0.64,-1.6 -1.59,-3.06 -2.81,-4.28 -1.22,-1.21 -2.67,-2.17 -4.271,-2.8 -1.479,-0.59 -3.05,-0.89 -4.64,-0.89 -1.59,0 -3.17,0.3 -4.64,0.89 -1.6,0.63 -3.06,1.59 -4.28,2.8 -1.21,1.22 -2.17,2.67 -2.8,4.28 -0.59,1.47 -0.89,3.05 -0.89,4.64 0,1.589 0.3,3.16 0.89,4.64 0.63,1.6 1.59,3.05 2.8,4.27 1.22,1.22 2.68,2.17 4.28,2.811 1.47,0.58 3.05,0.88 4.64,0.88 1.59,0 3.16,-0.3 4.64,-0.88 1.601,-0.641 3.051,-1.591 4.271,-2.811 1.22,-1.22 2.17,-2.67 2.81,-4.27 0.58,-1.481 0.88,-3.051 0.88,-4.64 z"
   id="path3142" />
			<path
   fill="none"
   stroke="#000000"
   stroke-width="0.15"
   stroke-linecap="round"
   stroke-linejoin="round"
   d="m 38.065,24.721 c 0,-1.69 -0.31,-3.35 -0.93,-4.92 -0.67,-1.69 -1.69,-3.23 -2.98,-4.52 -1.279,-1.29 -2.819,-2.3 -4.52,-2.97 -1.57,-0.62 -3.23,-0.94 -4.91,-0.94 -1.69,0 -3.35,0.32 -4.92,0.94 -1.69,0.67 -3.23,1.68 -4.52,2.97 -1.29,1.29 -2.3,2.83 -2.97,4.52 -0.62,1.57 -0.94,3.23 -0.94,4.92 0,1.68 0.32,3.339 0.94,4.91 0.67,1.69 1.68,3.23 2.97,4.521 1.29,1.291 2.83,2.3 4.52,2.979 1.57,0.62 3.23,0.93 4.92,0.93 1.68,0 3.34,-0.31 4.91,-0.93 1.689,-0.68 3.24,-1.689 4.52,-2.979 1.29,-1.29 2.3,-2.82 2.98,-4.521 0.62,-1.571 0.93,-3.23 0.93,-4.91 z"
   id="path3144" />
			<path
   fill="none"
   stroke="#000000"
   stroke-width="0.15"
   stroke-linecap="round"
   stroke-linejoin="round"
   d="m 49.435,24.721 c 0,-3.12 -0.58,-6.2 -1.73,-9.1 -1.25,-3.14 -3.119,-5.99 -5.51,-8.38 -2.38,-2.39 -5.24,-4.26 -8.37,-5.5 C 30.925,0.59 27.835,0 24.725,0 c -3.12,0 -6.2,0.59 -9.1,1.74 -3.14,1.24 -5.99,3.11 -8.38,5.5 -2.39,2.39 -4.26,5.24 -5.5,8.38 -1.15,2.9 -1.74,5.98 -1.74,9.1 0,3.11 0.59,6.2 1.74,9.089 1.24,3.141 3.11,6 5.5,8.381 2.39,2.39 5.24,4.26 8.38,5.51 2.9,1.14 5.98,1.729 9.1,1.729 3.11,0 6.2,-0.59 9.09,-1.729 3.14,-1.25 6,-3.12 8.38,-5.51 2.391,-2.381 4.26,-5.24 5.51,-8.381 1.15,-2.889 1.73,-5.978 1.73,-9.088 z"
   id="path3146" />
		</g>
	</g>
</g>
</svg>
