<?xml version="1.0" encoding="UTF-8" standalone="no"?>
<!-- Created with Inkscape (http://www.inkscape.org/) -->

<svg
   width="22.655388mm"
   height="22.655388mm"
   viewBox="0 0 22.655388 22.655388"
   version="1.1"
   id="svg16426"
   inkscape:version="1.1.2 (76b9e6a115, 2022-02-25)"
   sodipodi:docname="tomHigh2.svg"
   xmlns:inkscape="http://www.inkscape.org/namespaces/inkscape"
   xmlns:sodipodi="http://sodipodi.sourceforge.net/DTD/sodipodi-0.dtd"
   xmlns="http://www.w3.org/2000/svg"
   xmlns:svg="http://www.w3.org/2000/svg">
  <sodipodi:namedview
     id="namedview16428"
     pagecolor="#ffffff"
     bordercolor="#666666"
     borderopacity="1.0"
     inkscape:pageshadow="2"
     inkscape:pageopacity="0.0"
     inkscape:pagecheckerboard="0"
     inkscape:document-units="mm"
     showgrid="false"
     inkscape:zoom="0.75187991"
     inkscape:cx="60.514983"
     inkscape:cy="134.99496"
     inkscape:window-width="1848"
     inkscape:window-height="1016"
     inkscape:window-x="72"
     inkscape:window-y="27"
     inkscape:window-maximized="1"
     inkscape:current-layer="layer1" />
  <defs
     id="defs16423">
    <clipPath
       clipPathUnits="userSpaceOnUse"
       id="clipPath11573">
      <path
         d="m 314.08,587.2 h 57.37 v -57.37 h -57.37 z"
         id="path11571" />
    </clipPath>
  </defs>
  <g
     inkscape:label="Capa 1"
     inkscape:groupmode="layer"
     id="layer1"
     transform="translate(-88.962591,-112.8915)">
    <g
       id="g11567"
       transform="matrix(0.35277777,0,0,-0.35277777,-20.629623,321.25091)">
      <g
         id="g11569" />
      <g
         id="g11589">
        <g
           clip-path="url(#clipPath11573)"
           id="g11587">
          <g
             transform="translate(316.1001,547.96)"
             id="g11577">
            <path
               d="m 0,0 c -1.33,3.36 -2.02,6.94 -2.02,10.55 0,3.62 0.69,7.2 2.02,10.56 1.44,3.65 3.61,6.96 6.39,9.73 2.77,2.77 6.08,4.94 9.72,6.38 3.36,1.33 6.94,2.02 10.56,2.02 3.61,0 7.19,-0.69 10.56,-2.02 3.64,-1.44 6.95,-3.61 9.72,-6.38 2.77,-2.78 4.94,-6.08 6.39,-9.73 1.33,-3.36 2.01,-6.94 2.01,-10.56 0,-3.61 -0.68,-7.19 -2.01,-10.55 -1.45,-3.65 -3.62,-6.96 -6.39,-9.73 -2.77,-2.77 -6.08,-4.94 -9.73,-6.38 -3.36,-1.34 -6.94,-2.02 -10.55,-2.02 -3.62,0 -7.2,0.68 -10.56,2.02 -3.65,1.44 -6.95,3.61 -9.73,6.38 C 3.61,-6.96 1.44,-3.65 0,0 m 52.48,20.78 c -1.39,3.52 -3.5,6.73 -6.18,9.41 -2.68,2.68 -5.88,4.79 -9.41,6.18 -3.26,1.29 -6.72,1.95 -10.22,1.95 -3.5,0 -6.97,-0.66 -10.22,-1.95 C 12.92,34.98 9.72,32.87 7.03,30.19 4.35,27.51 2.25,24.3 0.85,20.78 -0.44,17.52 -1.1,14.06 -1.1,10.55 c 0,-3.5 0.66,-6.96 1.95,-10.22 1.4,-3.52 3.5,-6.73 6.18,-9.41 2.68,-2.68 5.89,-4.79 9.42,-6.18 3.25,-1.29 6.72,-1.95 10.22,-1.95 3.5,0 6.96,0.66 10.22,1.95 3.53,1.39 6.73,3.5 9.41,6.18 2.68,2.68 4.79,5.89 6.18,9.41 1.29,3.26 1.95,6.72 1.95,10.22 0,3.51 -0.66,6.97 -1.95,10.23"
               style="fill:#285468;fill-opacity:1;fill-rule:nonzero;stroke:none"
               id="path11575" />
          </g>
          <g
             transform="translate(354.9702,558.5103)"
             id="g11581">
            <path
               d="m 0,0 c 0,1.54 -0.29,3.07 -0.85,4.5 -0.62,1.55 -1.54,2.96 -2.72,4.13 -1.18,1.18 -2.59,2.11 -4.14,2.72 -1.43,0.57 -2.95,0.86 -4.49,0.86 -1.54,0 -3.06,-0.29 -4.5,-0.86 -1.55,-0.61 -2.95,-1.54 -4.13,-2.71 -1.18,-1.18 -2.11,-2.59 -2.72,-4.14 -0.57,-1.43 -0.86,-2.96 -0.86,-4.5 0,-1.53 0.29,-3.06 0.86,-4.49 0.61,-1.55 1.54,-2.96 2.72,-4.14 1.18,-1.18 2.58,-2.1 4.13,-2.71 1.44,-0.57 2.96,-0.86 4.5,-0.86 1.54,0 3.06,0.29 4.49,0.86 1.55,0.61 2.96,1.53 4.14,2.71 1.18,1.18 2.1,2.59 2.72,4.14 C -0.29,-3.06 0,-1.53 0,0 m 12.76,9.89 c 1.25,-3.15 1.89,-6.5 1.89,-9.89 0,-3.38 -0.64,-6.73 -1.89,-9.88 -1.35,-3.41 -3.38,-6.51 -5.98,-9.1 -2.59,-2.6 -5.69,-4.63 -9.1,-5.98 -3.15,-1.25 -6.5,-1.89 -9.88,-1.89 -3.39,0 -6.74,0.64 -9.89,1.89 -3.41,1.35 -6.51,3.38 -9.1,5.98 -2.59,2.59 -4.63,5.69 -5.98,9.1 -1.25,3.15 -1.88,6.5 -1.88,9.88 0,3.39 0.63,6.74 1.88,9.89 1.35,3.41 3.39,6.51 5.98,9.1 2.59,2.6 5.69,4.63 9.1,5.98 3.15,1.25 6.5,1.89 9.89,1.89 3.38,0 6.73,-0.64 9.88,-1.89 3.41,-1.35 6.51,-3.38 9.1,-5.98 2.6,-2.59 4.63,-5.69 5.98,-9.1"
               style="fill:#285468;fill-opacity:1;fill-rule:nonzero;stroke:none"
               id="path11579" />
          </g>
          <g
             transform="translate(344.3799,559.3604)"
             id="g11585">
            <path
               d="M 0,0 V 3.73 H 1.39 V -5.42 H 0 v 4.24 h -3.23 v -4.24 h -1.39 v 9.15 h 1.39 V 0 Z"
               style="fill:#285468;fill-opacity:1;fill-rule:nonzero;stroke:none"
               id="path11583" />
          </g>
        </g>
      </g>
    </g>
    <g
       id="g11591"
       transform="matrix(0.35277777,0,0,-0.35277777,104.59597,124.22089)">
      <path
         d="m 0,0 c 0,1.54 -0.29,3.07 -0.85,4.5 -0.62,1.55 -1.54,2.96 -2.72,4.13 -1.18,1.18 -2.59,2.11 -4.14,2.72 -1.43,0.57 -2.95,0.86 -4.49,0.86 -1.54,0 -3.06,-0.29 -4.5,-0.86 -1.55,-0.61 -2.95,-1.54 -4.13,-2.71 -1.18,-1.18 -2.11,-2.59 -2.72,-4.14 -0.57,-1.43 -0.86,-2.96 -0.86,-4.5 0,-1.53 0.29,-3.06 0.86,-4.49 0.61,-1.55 1.54,-2.96 2.72,-4.14 1.18,-1.18 2.58,-2.1 4.13,-2.71 1.44,-0.57 2.96,-0.86 4.5,-0.86 1.54,0 3.06,0.29 4.49,0.86 1.55,0.61 2.96,1.53 4.14,2.71 1.18,1.18 2.1,2.59 2.72,4.14 C -0.29,-3.06 0,-1.53 0,0 Z"
         style="fill:none;stroke:#285468;stroke-width:0.25;stroke-linecap:round;stroke-linejoin:round;stroke-miterlimit:4;stroke-dasharray:none;stroke-opacity:1"
         id="path11593" />
    </g>
    <g
       id="g11595"
       transform="matrix(0.35277777,0,0,-0.35277777,89.546438,123.55774)">
      <path
         d="M 0,0 C -0.42,-0.21 -0.85,-0.43 -1.28,-0.65 V -3.1 c 0.43,-0.22 0.86,-0.44 1.28,-0.66 0.42,-6.78 3.09,-13.23 7.59,-18.32 -0.14,-0.46 -0.29,-0.91 -0.44,-1.37 0.58,-0.58 1.16,-1.15 1.73,-1.73 0.46,0.15 0.91,0.29 1.37,0.44 5.09,-4.5 11.54,-7.17 18.33,-7.59 0.22,-0.43 0.44,-0.85 0.66,-1.28 h 2.44 c 0.22,0.43 0.44,0.85 0.66,1.28 6.78,0.42 13.23,3.09 18.32,7.59 0.46,-0.15 0.92,-0.29 1.37,-0.44 l 1.73,1.73 c -0.15,0.46 -0.29,0.91 -0.44,1.37 4.5,5.09 7.17,11.54 7.59,18.32 0.43,0.22 0.85,0.44 1.28,0.66 v 2.45 c -0.43,0.22 -0.85,0.44 -1.28,0.65 -0.42,6.79 -3.09,13.24 -7.59,18.33 0.15,0.46 0.29,0.91 0.44,1.37 l -1.73,1.73 c -0.45,-0.15 -0.91,-0.29 -1.37,-0.44 -5.09,4.5 -11.54,7.17 -18.32,7.59 -0.22,0.43 -0.44,0.85 -0.66,1.28 H 29.24 C 29.02,29.43 28.8,29.01 28.58,28.58 21.79,28.16 15.34,25.49 10.25,20.99 9.79,21.14 9.34,21.28 8.88,21.43 8.31,20.85 7.73,20.28 7.15,19.7 7.3,19.24 7.45,18.79 7.59,18.33 3.09,13.24 0.42,6.79 0,0 Z"
         style="fill:none;stroke:#285468;stroke-width:0.75;stroke-linecap:round;stroke-linejoin:round;stroke-miterlimit:4;stroke-dasharray:none;stroke-opacity:1"
         id="path11597" />
    </g>
    <g
       id="g11599"
       transform="matrix(0.35277777,0,0,-0.35277777,109.76413,124.22089)">
      <path
         d="m 0,0 c 0,3.39 -0.64,6.74 -1.89,9.89 -1.35,3.41 -3.38,6.51 -5.98,9.1 -2.59,2.6 -5.69,4.63 -9.1,5.98 -3.15,1.25 -6.5,1.89 -9.88,1.89 -3.39,0 -6.74,-0.64 -9.89,-1.89 -3.41,-1.35 -6.51,-3.38 -9.1,-5.98 -2.59,-2.59 -4.63,-5.69 -5.98,-9.1 -1.25,-3.15 -1.88,-6.5 -1.88,-9.89 0,-3.38 0.63,-6.73 1.88,-9.88 1.35,-3.41 3.39,-6.51 5.98,-9.1 2.59,-2.6 5.69,-4.63 9.1,-5.98 3.15,-1.25 6.5,-1.89 9.89,-1.89 3.38,0 6.73,0.64 9.88,1.89 3.41,1.35 6.51,3.38 9.1,5.98 2.6,2.59 4.63,5.69 5.98,9.1 C -0.64,-6.73 0,-3.38 0,0 Z"
         style="fill:none;stroke:#285468;stroke-width:0.25;stroke-linecap:round;stroke-linejoin:round;stroke-miterlimit:4;stroke-dasharray:none;stroke-opacity:1"
         id="path11601" />
    </g>
    <g
       id="g11603"
       transform="matrix(0.35277777,0,0,-0.35277777,110.08505,124.22089)">
      <path
         d="m 0,0 c 0,3.51 -0.66,6.97 -1.95,10.23 -1.39,3.52 -3.5,6.73 -6.18,9.41 -2.68,2.68 -5.88,4.79 -9.41,6.18 -3.26,1.29 -6.72,1.95 -10.22,1.95 -3.5,0 -6.97,-0.66 -10.22,-1.95 -3.53,-1.39 -6.73,-3.5 -9.42,-6.18 -2.68,-2.68 -4.78,-5.89 -6.18,-9.41 -1.29,-3.26 -1.95,-6.72 -1.95,-10.23 0,-3.5 0.66,-6.96 1.95,-10.22 1.4,-3.52 3.5,-6.73 6.18,-9.41 2.68,-2.68 5.89,-4.79 9.42,-6.18 3.25,-1.29 6.72,-1.95 10.22,-1.95 3.5,0 6.96,0.66 10.22,1.95 3.53,1.39 6.73,3.5 9.41,6.18 2.68,2.68 4.79,5.89 6.18,9.41 C -0.66,-6.96 0,-3.5 0,0 Z"
         style="fill:none;stroke:#285468;stroke-width:0.25;stroke-linecap:round;stroke-linejoin:round;stroke-miterlimit:4;stroke-dasharray:none;stroke-opacity:1"
         id="path11605" />
    </g>
    <g
       id="g11607"
       transform="matrix(0.35277777,0,0,-0.35277777,110.40975,124.22089)">
      <path
         d="m 0,0 c 0,3.62 -0.68,7.2 -2.01,10.56 -1.45,3.65 -3.62,6.95 -6.39,9.73 -2.77,2.77 -6.08,4.94 -9.72,6.38 -3.37,1.33 -6.95,2.02 -10.56,2.02 -3.62,0 -7.2,-0.69 -10.56,-2.02 -3.64,-1.44 -6.95,-3.61 -9.72,-6.38 -2.78,-2.77 -4.95,-6.08 -6.39,-9.73 C -56.68,7.2 -57.37,3.62 -57.37,0 c 0,-3.61 0.69,-7.19 2.02,-10.55 1.44,-3.65 3.61,-6.96 6.38,-9.73 2.78,-2.77 6.08,-4.94 9.73,-6.38 3.36,-1.34 6.94,-2.02 10.56,-2.02 3.61,0 7.19,0.68 10.55,2.02 3.65,1.44 6.96,3.61 9.73,6.38 2.77,2.77 4.94,6.08 6.39,9.73 C -0.68,-7.19 0,-3.61 0,0 Z"
         style="fill:none;stroke:#285468;stroke-width:0.25;stroke-linecap:round;stroke-linejoin:round;stroke-miterlimit:4;stroke-dasharray:none;stroke-opacity:1"
         id="path11609" />
    </g>
    <g
       id="g11611"
       transform="matrix(0.35277777,0,0,-0.35277777,99.230082,122.60517)">
      <path
         d="m 0,0 v -9.15 h 1.39 v 4.24 H 4.62 V -9.15 H 6.01 V 0 H 4.62 V -3.73 H 1.39 V 0 Z"
         style="fill:none;stroke:#285468;stroke-width:0.25;stroke-linecap:round;stroke-linejoin:round;stroke-miterlimit:4;stroke-dasharray:none;stroke-opacity:1"
         id="path11613" />
    </g>
  </g>
</svg>
