<?xml version="1.0" encoding="UTF-8" standalone="no"?>
<!-- Generator: Adobe Illustrator 14.0.0, SVG Export Plug-In . SVG Version: 6.00 Build 43363)  -->

<svg
   version="1.1"
   id="Capa_1"
   x="0px"
   y="0px"
   width="111.555"
   height="111.55275"
   viewBox="0 0 111.555 111.55275"
   enable-background="new 0 0 49.44 49.43"
   xml:space="preserve"
   sodipodi:docname="tomLow.svg"
   inkscape:version="1.1.2 (76b9e6a115, 2022-02-25)"
   xmlns:inkscape="http://www.inkscape.org/namespaces/inkscape"
   xmlns:sodipodi="http://sodipodi.sourceforge.net/DTD/sodipodi-0.dtd"
   xmlns="http://www.w3.org/2000/svg"
   xmlns:svg="http://www.w3.org/2000/svg"><defs
   id="defs3449" /><sodipodi:namedview
   id="namedview3447"
   pagecolor="#ffffff"
   bordercolor="#666666"
   borderopacity="1.0"
   inkscape:pageshadow="2"
   inkscape:pageopacity="0.0"
   inkscape:pagecheckerboard="0"
   showgrid="false"
   inkscape:zoom="6.8235875"
   inkscape:cx="30.555774"
   inkscape:cy="64.995136"
   inkscape:window-width="1848"
   inkscape:window-height="1016"
   inkscape:window-x="72"
   inkscape:window-y="27"
   inkscape:window-maximized="1"
   inkscape:current-layer="Capa_1"
   fit-margin-top="0"
   fit-margin-left="0"
   fit-margin-right="0"
   fit-margin-bottom="0" />
<g
   id="g3444"
   transform="matrix(2.25,0,0,2.25,0.15750001,0.16875001)">
	<g
   id="XMLID_19_">
		<g
   id="g3427">
			<path
   d="m 47.696,15.621 c 1.149,2.9 1.739,5.98 1.739,9.1 0,3.11 -0.59,6.2 -1.739,9.089 -1.24,3.141 -3.11,6 -5.5,8.381 -2.391,2.39 -5.24,4.26 -8.381,5.51 -2.899,1.14 -5.979,1.729 -9.1,1.729 -3.11,0 -6.2,-0.59 -9.09,-1.729 -3.14,-1.25 -5.99,-3.12 -8.38,-5.51 -2.39,-2.381 -4.26,-5.24 -5.51,-8.381 -1.14,-2.89 -1.73,-5.979 -1.73,-9.089 0,-3.12 0.59,-6.2 1.73,-9.1 1.25,-3.14 3.12,-5.99 5.51,-8.38 2.39,-2.39 5.24,-4.26 8.38,-5.5 2.89,-1.15 5.98,-1.74 9.09,-1.74 3.12,0 6.2,0.59 9.1,1.74 3.141,1.24 5.99,3.11 8.381,5.5 2.389,2.389 4.26,5.239 5.5,8.38 z m -7.401,9.589 c 0,-0.33 0,-0.66 0,-0.99 -0.26,-0.13 -0.521,-0.26 -0.771,-0.39 -0.199,-3.32 -1.51,-6.47 -3.71,-8.95 0.091,-0.28 0.181,-0.55 0.261,-0.82 -0.23,-0.24 -0.46,-0.47 -0.69,-0.7 -0.28,0.08 -0.55,0.17 -0.83,0.26 -2.479,-2.2 -5.63,-3.51 -8.95,-3.71 -0.13,-0.25 -0.26,-0.51 -0.39,-0.76 -0.33,0 -0.66,0 -0.99,0 -0.13,0.25 -0.26,0.51 -0.4,0.76 -3.31,0.2 -6.46,1.51 -8.94,3.71 -0.28,-0.09 -0.55,-0.18 -0.83,-0.26 -0.23,0.23 -0.46,0.46 -0.7,0.7 0.09,0.27 0.18,0.54 0.27,0.82 -2.2,2.48 -3.51,5.63 -3.71,8.95 -0.25,0.13 -0.51,0.26 -0.77,0.39 0,0.33 0,0.66 0,0.99 0.26,0.13 0.52,0.26 0.77,0.4 0.2,3.31 1.51,6.46 3.71,8.939 -0.09,0.28 -0.18,0.55 -0.27,0.83 0.24,0.23 0.47,0.46 0.7,0.7 0.28,-0.09 0.55,-0.18 0.83,-0.271 2.48,2.2 5.63,3.511 8.94,3.711 0.14,0.26 0.27,0.51 0.4,0.77 0.33,0 0.66,0 0.99,0 0.13,-0.26 0.26,-0.51 0.39,-0.77 3.32,-0.2 6.47,-1.511 8.95,-3.711 0.28,0.091 0.55,0.181 0.83,0.271 0.23,-0.24 0.46,-0.47 0.69,-0.7 -0.08,-0.28 -0.17,-0.55 -0.261,-0.83 2.2,-2.479 3.511,-5.63 3.71,-8.939 0.251,-0.139 0.512,-0.27 0.771,-0.4 z"
   id="path3421" />
			<path
   d="m 26.996,30.46 c -0.73,0.29 -1.5,0.44 -2.28,0.44 -0.78,0 -1.55,-0.15 -2.27,-0.44 -0.79,-0.31 -1.5,-0.78 -2.1,-1.37 -0.59,-0.6 -1.06,-1.31 -1.37,-2.1 -0.29,-0.72 -0.43,-1.49 -0.43,-2.27 0,-0.78 0.14,-1.55 0.43,-2.28 0.31,-0.78 0.78,-1.5 1.37,-2.09 0.6,-0.6 1.31,-1.07 2.1,-1.38 0.72,-0.29 1.5,-0.43 2.27,-0.43 0.78,0 1.55,0.14 2.28,0.43 0.779,0.31 1.5,0.78 2.09,1.38 0.6,0.59 1.07,1.31 1.38,2.09 0.29,0.73 0.43,1.5 0.43,2.28 0,0.78 -0.14,1.55 -0.43,2.27 -0.31,0.79 -0.78,1.5 -1.38,2.1 -0.59,0.59 -1.311,1.061 -2.09,1.37 z m -3.911,-2.04 h 3.27 v -1.01 h -2.13 v -6.4 h -1.14 z"
   id="path3423" />
			<path
   d="m 15.805,15.8 c -1.22,1.22 -2.17,2.67 -2.81,4.28 -0.58,1.47 -0.88,3.05 -0.88,4.64 0,1.589 0.3,3.16 0.88,4.64 0.64,1.6 1.59,3.05 2.81,4.27 1.22,1.22 2.67,2.17 4.27,2.811 1.48,0.58 3.05,0.88 4.64,0.88 1.59,0 3.17,-0.3 4.64,-0.88 1.61,-0.641 3.061,-1.591 4.28,-2.811 1.21,-1.22 2.17,-2.67 2.8,-4.27 0.59,-1.48 0.891,-3.051 0.891,-4.64 0,-1.59 -0.301,-3.17 -0.891,-4.64 -0.63,-1.6 -1.58,-3.06 -2.8,-4.28 -1.22,-1.21 -2.67,-2.17 -4.28,-2.8 -1.47,-0.59 -3.05,-0.89 -4.64,-0.89 -1.59,0 -3.16,0.3 -4.64,0.89 -1.6,0.63 -3.05,1.59 -4.27,2.8 z m -3.5,4 c 0.68,-1.69 1.69,-3.23 2.98,-4.52 1.29,-1.29 2.83,-2.3 4.52,-2.97 1.57,-0.62 3.23,-0.94 4.91,-0.94 1.69,0 3.35,0.32 4.92,0.94 1.69,0.67 3.23,1.68 4.521,2.97 1.29,1.29 2.3,2.83 2.97,4.52 0.62,1.57 0.939,3.23 0.939,4.92 0,1.68 -0.319,3.339 -0.939,4.91 -0.67,1.7 -1.68,3.23 -2.97,4.521 -1.29,1.291 -2.83,2.3 -4.521,2.979 -1.57,0.62 -3.229,0.93 -4.92,0.93 -1.68,0 -3.34,-0.31 -4.91,-0.93 -1.69,-0.68 -3.23,-1.689 -4.52,-2.979 -1.29,-1.29 -2.3,-2.83 -2.98,-4.521 -0.61,-1.57 -0.93,-3.229 -0.93,-4.91 0,-1.69 0.32,-3.349 0.93,-4.92 z"
   id="path3425" />
		</g>
		<g
   id="g3441">
			<polygon
   fill="none"
   stroke="#000000"
   stroke-width="0.15"
   stroke-linecap="round"
   stroke-linejoin="round"
   points="23.085,21.011 23.085,28.42 26.355,28.42 26.355,27.411 24.225,27.411 24.225,21.011 "
   id="polygon3429" />
			<path
   fill="none"
   stroke="#000000"
   stroke-width="0.15"
   stroke-linecap="round"
   stroke-linejoin="round"
   d="m 30.895,24.721 c 0,-0.78 -0.14,-1.55 -0.43,-2.28 -0.31,-0.78 -0.78,-1.5 -1.38,-2.09 -0.59,-0.6 -1.311,-1.07 -2.09,-1.38 -0.73,-0.29 -1.5,-0.43 -2.28,-0.43 -0.77,0 -1.55,0.14 -2.27,0.43 -0.79,0.31 -1.5,0.78 -2.1,1.38 -0.59,0.59 -1.06,1.31 -1.37,2.09 -0.29,0.73 -0.43,1.5 -0.43,2.28 0,0.78 0.14,1.55 0.43,2.27 0.31,0.79 0.78,1.5 1.37,2.1 0.6,0.59 1.31,1.061 2.1,1.37 0.72,0.29 1.49,0.44 2.27,0.44 0.78,0 1.55,-0.15 2.28,-0.44 0.779,-0.31 1.5,-0.78 2.09,-1.37 0.6,-0.6 1.07,-1.31 1.38,-2.1 0.29,-0.72 0.43,-1.491 0.43,-2.27 z"
   id="path3431" />
			<path
   fill="none"
   stroke="#000000"
   stroke-width="0.15"
   stroke-linecap="round"
   stroke-linejoin="round"
   d="m 34.555,13.621 c 0.28,-0.09 0.55,-0.18 0.83,-0.26 0.23,0.23 0.46,0.46 0.69,0.7 -0.08,0.27 -0.17,0.54 -0.261,0.82 2.2,2.48 3.511,5.63 3.71,8.95 0.25,0.13 0.511,0.26 0.771,0.39 0,0.33 0,0.66 0,0.99 -0.26,0.13 -0.521,0.26 -0.771,0.4 -0.199,3.31 -1.51,6.46 -3.71,8.939 0.091,0.28 0.181,0.55 0.261,0.83 -0.23,0.23 -0.46,0.46 -0.69,0.7 -0.28,-0.09 -0.55,-0.18 -0.83,-0.271 -2.479,2.2 -5.63,3.511 -8.95,3.711 -0.13,0.26 -0.26,0.51 -0.39,0.77 -0.33,0 -0.66,0 -0.99,0 -0.13,-0.26 -0.26,-0.51 -0.4,-0.77 -3.31,-0.2 -6.46,-1.511 -8.94,-3.711 -0.28,0.091 -0.55,0.181 -0.83,0.271 -0.23,-0.24 -0.46,-0.47 -0.7,-0.7 0.09,-0.28 0.18,-0.55 0.27,-0.83 -2.2,-2.479 -3.51,-5.63 -3.71,-8.939 -0.25,-0.14 -0.51,-0.271 -0.77,-0.4 0,-0.33 0,-0.66 0,-0.99 0.26,-0.13 0.52,-0.26 0.77,-0.39 0.2,-3.32 1.51,-6.47 3.71,-8.95 -0.09,-0.28 -0.18,-0.55 -0.27,-0.82 0.24,-0.24 0.47,-0.47 0.7,-0.7 0.28,0.08 0.55,0.17 0.83,0.26 2.48,-2.2 5.63,-3.51 8.94,-3.71 0.14,-0.25 0.27,-0.51 0.4,-0.76 0.33,0 0.66,0 0.99,0 0.13,0.25 0.26,0.51 0.39,0.76 3.32,0.199 6.471,1.509 8.95,3.71 z"
   id="path3433" />
			<path
   fill="none"
   stroke="#000000"
   stroke-width="0.15"
   stroke-linecap="round"
   stroke-linejoin="round"
   d="m 37.326,24.721 c 0,-1.59 -0.301,-3.17 -0.891,-4.64 -0.63,-1.6 -1.58,-3.06 -2.8,-4.28 -1.22,-1.21 -2.67,-2.17 -4.28,-2.8 -1.47,-0.59 -3.05,-0.89 -4.64,-0.89 -1.59,0 -3.16,0.3 -4.64,0.89 -1.6,0.63 -3.05,1.59 -4.27,2.8 -1.22,1.22 -2.17,2.67 -2.81,4.28 -0.58,1.47 -0.88,3.05 -0.88,4.64 0,1.589 0.3,3.16 0.88,4.64 0.64,1.6 1.59,3.05 2.81,4.27 1.22,1.22 2.67,2.17 4.27,2.811 1.48,0.58 3.05,0.88 4.64,0.88 1.59,0 3.17,-0.3 4.64,-0.88 1.61,-0.641 3.061,-1.591 4.28,-2.811 1.21,-1.22 2.17,-2.67 2.8,-4.27 0.59,-1.481 0.891,-3.051 0.891,-4.64 z"
   id="path3435" />
			<path
   fill="none"
   stroke="#000000"
   stroke-width="0.15"
   stroke-linecap="round"
   stroke-linejoin="round"
   d="m 38.065,24.721 c 0,-1.69 -0.319,-3.35 -0.939,-4.92 -0.67,-1.69 -1.68,-3.23 -2.97,-4.52 -1.29,-1.29 -2.83,-2.3 -4.521,-2.97 -1.57,-0.62 -3.229,-0.94 -4.92,-0.94 -1.68,0 -3.34,0.32 -4.91,0.94 -1.69,0.67 -3.23,1.68 -4.52,2.97 -1.29,1.29 -2.3,2.83 -2.98,4.52 -0.61,1.57 -0.93,3.23 -0.93,4.92 0,1.68 0.32,3.339 0.93,4.91 0.68,1.69 1.69,3.23 2.98,4.521 1.29,1.291 2.83,2.3 4.52,2.979 1.57,0.62 3.23,0.93 4.91,0.93 1.69,0 3.35,-0.31 4.92,-0.93 1.69,-0.68 3.23,-1.689 4.521,-2.979 1.291,-1.29 2.3,-2.82 2.97,-4.521 0.62,-1.571 0.939,-3.23 0.939,-4.91 z"
   id="path3437" />
			<path
   fill="none"
   stroke="#000000"
   stroke-width="0.15"
   stroke-linecap="round"
   stroke-linejoin="round"
   d="m 49.435,24.721 c 0,-3.12 -0.59,-6.2 -1.739,-9.1 -1.24,-3.14 -3.11,-5.99 -5.5,-8.38 -2.391,-2.39 -5.24,-4.26 -8.381,-5.5 C 30.916,0.59 27.835,0 24.715,0 c -3.11,0 -6.2,0.59 -9.09,1.74 -3.14,1.24 -5.99,3.11 -8.38,5.5 -2.39,2.39 -4.26,5.24 -5.51,8.38 -1.14,2.9 -1.73,5.98 -1.73,9.1 0,3.11 0.59,6.2 1.73,9.089 1.25,3.141 3.12,6 5.51,8.381 2.39,2.39 5.24,4.26 8.38,5.51 2.89,1.14 5.98,1.729 9.09,1.729 3.12,0 6.2,-0.59 9.1,-1.729 3.141,-1.25 5.99,-3.12 8.381,-5.51 2.39,-2.381 4.26,-5.24 5.5,-8.381 1.149,-2.889 1.739,-5.978 1.739,-9.088 z"
   id="path3439" />
		</g>
	</g>
</g>
</svg>
