<?xml version="1.0" encoding="UTF-8" standalone="no"?>
<!-- Generator: Adobe Illustrator 14.0.0, SVG Export Plug-In . SVG Version: 6.00 Build 43363)  -->

<svg
   version="1.1"
   id="Capa_1"
   x="0px"
   y="0px"
   width="111.5775"
   height="111.55275"
   viewBox="0 0 111.5775 111.55275"
   enable-background="new 0 0 49.44 49.43"
   xml:space="preserve"
   sodipodi:docname="tomMid.svg"
   inkscape:version="1.1.2 (76b9e6a115, 2022-02-25)"
   xmlns:inkscape="http://www.inkscape.org/namespaces/inkscape"
   xmlns:sodipodi="http://sodipodi.sourceforge.net/DTD/sodipodi-0.dtd"
   xmlns="http://www.w3.org/2000/svg"
   xmlns:svg="http://www.w3.org/2000/svg"><defs
   id="defs3762" /><sodipodi:namedview
   id="namedview3760"
   pagecolor="#ffffff"
   bordercolor="#666666"
   borderopacity="1.0"
   inkscape:pageshadow="2"
   inkscape:pageopacity="0.0"
   inkscape:pagecheckerboard="0"
   showgrid="false"
   inkscape:zoom="2.4125025"
   inkscape:cx="-42.072495"
   inkscape:cy="5.1813418"
   inkscape:window-width="1848"
   inkscape:window-height="1016"
   inkscape:window-x="72"
   inkscape:window-y="27"
   inkscape:window-maximized="1"
   inkscape:current-layer="Capa_1" />
<g
   id="g3757"
   transform="matrix(2.25,0,0,2.25,0.16875001,0.16875001)">
	<g
   id="XMLID_18_">
		<g
   id="g3740">
			<path
   d="m 47.7,15.621 c 1.15,2.9 1.74,5.98 1.74,9.1 0,3.11 -0.59,6.2 -1.74,9.089 -1.239,3.141 -3.109,6 -5.5,8.381 -2.39,2.39 -5.239,4.26 -8.38,5.51 -2.899,1.14 -5.979,1.729 -9.1,1.729 -3.12,0 -6.2,-0.59 -9.1,-1.729 -3.14,-1.25 -5.99,-3.12 -8.38,-5.51 C 4.86,39.81 2.98,36.951 1.74,33.81 0.59,30.92 0,27.831 0,24.721 c 0,-3.12 0.59,-6.2 1.74,-9.1 1.24,-3.14 3.12,-5.99 5.5,-8.38 2.39,-2.39 5.24,-4.26 8.38,-5.5 C 18.52,0.59 21.6,0 24.72,0 c 3.121,0 6.201,0.59 9.1,1.74 3.141,1.24 5.99,3.11 8.38,5.5 2.39,2.39 4.26,5.24 5.5,8.381 z m -7.41,9.589 c 0,-0.33 0,-0.66 0,-0.99 -0.25,-0.13 -0.51,-0.26 -0.77,-0.39 -0.2,-3.32 -1.5,-6.47 -3.7,-8.95 0.09,-0.28 0.17,-0.55 0.26,-0.82 -0.229,-0.24 -0.47,-0.47 -0.699,-0.7 -0.271,0.08 -0.551,0.17 -0.82,0.26 -2.49,-2.2 -5.64,-3.51 -8.95,-3.71 -0.13,-0.25 -0.26,-0.51 -0.4,-0.76 -0.32,0 -0.65,0 -0.98,0 -0.14,0.25 -0.27,0.51 -0.4,0.76 -3.31,0.2 -6.46,1.51 -8.95,3.71 -0.27,-0.09 -0.55,-0.18 -0.82,-0.26 -0.23,0.23 -0.47,0.46 -0.7,0.7 0.09,0.27 0.18,0.54 0.26,0.82 -2.2,2.48 -3.5,5.63 -3.7,8.95 -0.26,0.13 -0.51,0.26 -0.77,0.39 0,0.33 0,0.66 0,0.99 0.26,0.13 0.51,0.26 0.77,0.4 0.2,3.31 1.5,6.46 3.7,8.939 -0.08,0.28 -0.17,0.55 -0.26,0.83 0.23,0.23 0.47,0.46 0.7,0.7 0.27,-0.09 0.55,-0.18 0.82,-0.271 2.49,2.2 5.64,3.511 8.95,3.711 0.13,0.26 0.26,0.51 0.4,0.77 0.33,0 0.66,0 0.98,0 0.14,-0.26 0.27,-0.51 0.4,-0.77 3.311,-0.2 6.46,-1.511 8.95,-3.711 0.27,0.091 0.55,0.181 0.82,0.271 0.229,-0.24 0.47,-0.47 0.699,-0.7 -0.09,-0.28 -0.17,-0.55 -0.26,-0.83 2.2,-2.479 3.5,-5.63 3.7,-8.939 0.26,-0.139 0.52,-0.27 0.77,-0.4 z"
   id="path3732" />
			<path
   d="m 22.22,24.96 0.22,-1.05 0.46,1.05 1.79,3.46 h 0.06 l 1.79,-3.46 0.4,-1.05 0.23,1.05 0.739,3.46 h 1.11 l 0.49,0.2 c -0.13,0.16 -0.271,0.32 -0.42,0.47 -0.601,0.59 -1.311,1.061 -2.101,1.37 -0.72,0.29 -1.49,0.44 -2.27,0.44 -0.78,0 -1.55,-0.15 -2.27,-0.44 -0.79,-0.31 -1.5,-0.78 -2.1,-1.37 -0.15,-0.149 -0.29,-0.31 -0.42,-0.47 l 0.49,-0.2 h 1.12 z"
   id="path3734" />
			<path
   d="m 29.02,28.42 -1.59,-7.41 h -0.11 l -2,4 -0.6,1.35 -0.61,-1.35 -2.04,-4 h -0.12 l -1.53,7.41 -0.49,0.2 c -0.4,-0.49 -0.72,-1.04 -0.95,-1.63 -0.29,-0.72 -0.44,-1.49 -0.44,-2.27 0,-0.78 0.15,-1.55 0.44,-2.28 0.31,-0.78 0.77,-1.5 1.37,-2.09 0.6,-0.6 1.31,-1.07 2.1,-1.38 0.72,-0.29 1.49,-0.43 2.27,-0.43 0.78,0 1.55,0.14 2.28,0.43 0.78,0.31 1.49,0.78 2.091,1.38 0.6,0.59 1.06,1.31 1.38,2.09 0.279,0.73 0.43,1.5 0.43,2.28 0,0.78 -0.15,1.55 -0.43,2.27 -0.24,0.59 -0.561,1.14 -0.96,1.63 z"
   id="path3736" />
			<path
   d="m 34.16,15.28 c 1.29,1.29 2.301,2.83 2.971,4.52 0.619,1.57 0.939,3.23 0.939,4.92 0,1.68 -0.32,3.339 -0.939,4.91 -0.67,1.7 -1.681,3.23 -2.971,4.521 -1.29,1.291 -2.83,2.3 -4.529,2.979 -1.561,0.62 -3.23,0.93 -4.911,0.93 -1.68,0 -3.35,-0.31 -4.91,-0.93 -1.7,-0.68 -3.24,-1.689 -4.53,-2.979 -1.29,-1.29 -2.3,-2.83 -2.97,-4.521 -0.62,-1.57 -0.94,-3.229 -0.94,-4.91 0,-1.69 0.32,-3.35 0.94,-4.92 0.67,-1.69 1.68,-3.23 2.97,-4.52 1.29,-1.29 2.83,-2.3 4.53,-2.97 1.56,-0.62 3.23,-0.94 4.91,-0.94 1.68,0 3.35,0.32 4.911,0.94 1.699,0.67 3.239,1.681 4.529,2.97 z M 29.36,13 c -1.479,-0.59 -3.05,-0.89 -4.64,-0.89 -1.59,0 -3.16,0.3 -4.64,0.89 -1.6,0.63 -3.05,1.59 -4.27,2.8 -1.22,1.22 -2.18,2.67 -2.81,4.28 -0.58,1.47 -0.88,3.05 -0.88,4.64 0,1.589 0.3,3.16 0.88,4.64 0.63,1.6 1.59,3.05 2.81,4.27 1.21,1.22 2.67,2.17 4.27,2.811 1.48,0.58 3.05,0.88 4.64,0.88 1.59,0 3.161,-0.3 4.64,-0.88 1.6,-0.641 3.06,-1.591 4.27,-2.811 1.22,-1.22 2.18,-2.67 2.81,-4.27 0.59,-1.48 0.89,-3.051 0.89,-4.64 0,-1.59 -0.3,-3.17 -0.89,-4.64 -0.63,-1.6 -1.59,-3.06 -2.81,-4.28 -1.21,-1.21 -2.67,-2.17 -4.27,-2.8 z"
   id="path3738" />
		</g>
		<g
   id="g3754">
			<polygon
   fill="none"
   stroke="#000000"
   stroke-width="0.15"
   stroke-linecap="round"
   stroke-linejoin="round"
   points="24.75,28.42 26.54,24.96 26.94,23.911 27.17,24.96 27.91,28.42 29.02,28.42 27.43,21.011 27.32,21.011 25.32,25.011 24.72,26.361 24.11,25.011 22.07,21.011 21.95,21.011 20.42,28.42 21.54,28.42 22.22,24.96 22.44,23.911 22.9,24.96 24.69,28.42 "
   id="polygon3742" />
			<path
   fill="none"
   stroke="#000000"
   stroke-width="0.15"
   stroke-linecap="round"
   stroke-linejoin="round"
   d="m 29.51,28.621 c 0.399,-0.49 0.72,-1.04 0.96,-1.63 0.279,-0.72 0.43,-1.49 0.43,-2.27 0,-0.78 -0.15,-1.55 -0.43,-2.28 -0.32,-0.78 -0.78,-1.5 -1.38,-2.09 -0.601,-0.6 -1.311,-1.07 -2.091,-1.38 -0.729,-0.29 -1.5,-0.43 -2.28,-0.43 -0.78,0 -1.55,0.14 -2.27,0.43 -0.79,0.31 -1.5,0.78 -2.1,1.38 -0.6,0.59 -1.06,1.31 -1.37,2.09 -0.29,0.73 -0.44,1.5 -0.44,2.28 0,0.78 0.15,1.55 0.44,2.27 0.23,0.59 0.55,1.14 0.95,1.63 0.13,0.16 0.27,0.32 0.42,0.47 0.6,0.59 1.31,1.061 2.1,1.37 0.72,0.29 1.49,0.44 2.27,0.44 0.78,0 1.55,-0.15 2.27,-0.44 0.79,-0.31 1.5,-0.78 2.101,-1.37 0.15,-0.15 0.29,-0.31 0.42,-0.47 z"
   id="path3744" />
			<path
   fill="none"
   stroke="#000000"
   stroke-width="0.15"
   stroke-linecap="round"
   stroke-linejoin="round"
   d="m 34.56,13.621 c 0.27,-0.09 0.55,-0.18 0.82,-0.26 0.229,0.23 0.47,0.46 0.699,0.7 -0.09,0.27 -0.17,0.54 -0.26,0.82 2.2,2.48 3.5,5.63 3.7,8.95 0.26,0.13 0.52,0.26 0.77,0.39 0,0.33 0,0.66 0,0.99 -0.25,0.13 -0.51,0.26 -0.77,0.4 -0.2,3.31 -1.5,6.46 -3.7,8.939 0.09,0.28 0.17,0.55 0.26,0.83 -0.229,0.23 -0.47,0.46 -0.699,0.7 -0.271,-0.09 -0.551,-0.18 -0.82,-0.271 -2.49,2.2 -5.64,3.511 -8.95,3.711 -0.13,0.26 -0.26,0.51 -0.4,0.77 -0.32,0 -0.65,0 -0.98,0 -0.14,-0.26 -0.27,-0.51 -0.4,-0.77 -3.31,-0.2 -6.46,-1.511 -8.95,-3.711 -0.27,0.091 -0.55,0.181 -0.82,0.271 -0.23,-0.24 -0.47,-0.47 -0.7,-0.7 0.09,-0.28 0.18,-0.55 0.26,-0.83 -2.2,-2.479 -3.5,-5.63 -3.7,-8.939 -0.26,-0.14 -0.51,-0.271 -0.77,-0.4 0,-0.33 0,-0.66 0,-0.99 0.26,-0.13 0.51,-0.26 0.77,-0.39 0.2,-3.32 1.5,-6.47 3.7,-8.95 -0.08,-0.28 -0.17,-0.55 -0.26,-0.82 0.23,-0.24 0.47,-0.47 0.7,-0.7 0.27,0.08 0.55,0.17 0.82,0.26 2.49,-2.2 5.64,-3.51 8.95,-3.71 0.13,-0.25 0.26,-0.51 0.4,-0.76 0.33,0 0.66,0 0.98,0 0.14,0.25 0.27,0.51 0.4,0.76 3.31,0.199 6.46,1.509 8.95,3.71 z"
   id="path3746" />
			<path
   fill="none"
   stroke="#000000"
   stroke-width="0.15"
   stroke-linecap="round"
   stroke-linejoin="round"
   d="m 37.33,24.721 c 0,-1.59 -0.3,-3.17 -0.89,-4.64 -0.63,-1.6 -1.59,-3.06 -2.81,-4.28 -1.21,-1.21 -2.67,-2.17 -4.271,-2.8 -1.479,-0.59 -3.05,-0.89 -4.64,-0.89 -1.59,0 -3.16,0.3 -4.64,0.89 -1.6,0.63 -3.05,1.59 -4.27,2.8 -1.22,1.22 -2.18,2.67 -2.81,4.28 -0.58,1.47 -0.88,3.05 -0.88,4.64 0,1.589 0.3,3.16 0.88,4.64 0.63,1.6 1.59,3.05 2.81,4.27 1.21,1.22 2.67,2.17 4.27,2.811 1.48,0.58 3.05,0.88 4.64,0.88 1.59,0 3.161,-0.3 4.64,-0.88 1.601,-0.642 3.061,-1.592 4.271,-2.812 1.22,-1.22 2.18,-2.67 2.81,-4.27 0.59,-1.48 0.89,-3.05 0.89,-4.639 z"
   id="path3748" />
			<path
   fill="none"
   stroke="#000000"
   stroke-width="0.15"
   stroke-linecap="round"
   stroke-linejoin="round"
   d="m 38.07,24.721 c 0,-1.69 -0.32,-3.35 -0.939,-4.92 -0.67,-1.69 -1.681,-3.23 -2.971,-4.52 -1.29,-1.29 -2.83,-2.3 -4.529,-2.97 -1.561,-0.62 -3.23,-0.94 -4.911,-0.94 -1.68,0 -3.35,0.32 -4.91,0.94 -1.7,0.67 -3.24,1.68 -4.53,2.97 -1.29,1.29 -2.3,2.83 -2.97,4.52 -0.62,1.57 -0.94,3.23 -0.94,4.92 0,1.68 0.32,3.339 0.94,4.91 0.67,1.69 1.68,3.23 2.97,4.521 1.29,1.291 2.83,2.3 4.53,2.979 1.56,0.62 3.23,0.93 4.91,0.93 1.68,0 3.35,-0.31 4.911,-0.93 1.699,-0.68 3.239,-1.689 4.529,-2.979 1.29,-1.29 2.301,-2.82 2.971,-4.521 0.619,-1.571 0.939,-3.23 0.939,-4.91 z"
   id="path3750" />
			<path
   fill="none"
   stroke="#000000"
   stroke-width="0.15"
   stroke-linecap="round"
   stroke-linejoin="round"
   d="m 49.44,24.721 c 0,-3.12 -0.59,-6.2 -1.74,-9.1 -1.239,-3.14 -3.109,-5.99 -5.5,-8.38 -2.39,-2.39 -5.239,-4.26 -8.38,-5.5 C 30.92,0.59 27.84,0 24.72,0 21.6,0 18.52,0.59 15.62,1.74 12.48,2.98 9.63,4.85 7.24,7.24 4.86,9.63 2.98,12.48 1.74,15.62 0.59,18.52 0,21.6 0,24.72 c 0,3.11 0.59,6.2 1.74,9.089 1.24,3.141 3.12,6 5.5,8.381 2.39,2.39 5.24,4.26 8.38,5.51 2.9,1.14 5.98,1.729 9.1,1.729 3.121,0 6.201,-0.59 9.1,-1.729 3.141,-1.25 5.99,-3.12 8.38,-5.51 2.391,-2.381 4.261,-5.24 5.5,-8.381 1.15,-2.889 1.74,-5.978 1.74,-9.088 z"
   id="path3752" />
		</g>
	</g>
</g>
</svg>
